<svg width="80" height="39" xmlns="http://www.w3.org/2000/svg" xmlns:xlink="http://www.w3.org/1999/xlink" xml:space="preserve" overflow="hidden"><defs><linearGradient x1="38.4079" y1="0" x2="38.4079" y2="38.0008" gradientUnits="userSpaceOnUse" spreadMethod="pad" id="fill0"><stop offset="0" stop-color="#00AEEF" stop-opacity="1"/><stop offset="0.212" stop-color="#0097DC" stop-opacity="1"/><stop offset="0.519" stop-color="#007CC5" stop-opacity="1"/><stop offset="0.792" stop-color="#006CB8" stop-opacity="1"/><stop offset="1" stop-color="#0066B3" stop-opacity="1"/></linearGradient></defs><g transform="translate(-126 -757)"><g><g><g><g><path d="M0 38 38.8225 38 76.8157 0 0 0 0 38" fill="url(#fill0)" fill-rule="evenodd" transform="matrix(1.01688 0 0 1 127 758)"/><path d="M45.5865 7.6 38 7.6 38.0253 25.4431 31.4192 7.59409 24.8689 7.59409 19.2297 22.5011C18.6301 18.7078 14.7085 17.3989 11.6229 16.4185 9.58529 15.7641 7.42267 14.8014 7.44462 13.7374 7.46151 12.8643 8.60151 12.0544 10.8672 12.1752 12.3872 12.2571 13.7298 12.3796 16.4008 13.6699L19.027 9.09298C16.5916 7.85333 13.224 7.07053 10.4627 7.068L10.4458 7.068C7.22591 7.068 4.5448 8.11089 2.88293 9.82933 1.72436 11.0284 1.09947 12.5535 1.07413 14.2399 1.03191 16.5604 1.88227 18.2054 3.66911 19.5202 5.17898 20.6264 7.11022 21.3442 8.81178 21.8711 10.9102 22.5213 12.6244 23.0871 12.6033 24.2913 12.5864 24.7304 12.4209 25.1408 12.1051 25.4718 11.5816 26.0123 10.7793 26.2149 9.66889 26.2369 7.52653 26.2825 5.93898 25.9456 3.40902 24.45L1.07244 29.086C3.59987 30.5233 6.28267 31.2444 9.33111 31.2444L10.0168 31.2394C12.67 31.1912 14.8234 30.5554 16.5342 29.1789 16.6322 29.1004 16.72 29.021 16.8112 28.9408L16.5241 30.4203 22.925 30.4 24.0734 27.4596C25.281 27.8717 26.654 28.0997 28.1116 28.0997 29.5319 28.0997 30.8678 27.8836 32.0526 27.4951L32.8531 30.4 44.3376 30.411 44.3654 23.7078 46.8092 23.7078C52.7161 23.7078 56.2079 20.7016 56.2079 15.6602 56.2062 10.0455 52.8116 7.6 45.5865 7.6ZM28.1116 22.8524C27.2291 22.8524 26.4016 22.6987 25.6897 22.4284L28.0845 14.8664 28.131 14.8664 30.487 22.4496C29.7776 22.7029 28.9695 22.8524 28.1107 22.8524ZM46.0307 18.5077 44.3637 18.5077 44.3637 12.4133 46.0315 12.4133C48.2524 12.4133 50.0257 13.1531 50.0257 15.4212 50.024 17.7688 48.2524 18.5077 46.0315 18.5077" fill="#FFFFFF" fill-rule="evenodd" fill-opacity="1" transform="matrix(1.01688 0 0 1 127 758)"/></g></g></g></g></g></svg>