<svg xmlns="http://www.w3.org/2000/svg" xmlns:xlink="http://www.w3.org/1999/xlink" xmlns:lucid="lucid" width="1157.47" height="511.75"><g transform="translate(-1298.9891868721281 -58.80644240091846)" lucid:page-tab-id="2FKerGkJPHFR"><path d="M1310.94 61.37a1.56 1.56 0 0 1 1.56-1.56h133.28a1.56 1.56 0 0 1 1.56 1.57v75.15a1.56 1.56 0 0 1-1.56 1.56H1312.5a1.56 1.56 0 0 1-1.56-1.56z" stroke="#000" stroke-width="2" fill="#fff"/><path d="M2282.8 192.47a1.56 1.56 0 0 1 1.55-1.56h169.55a1.56 1.56 0 0 1 1.56 1.57V464.2a1.56 1.56 0 0 1-1.56 1.56h-169.55a1.56 1.56 0 0 1-1.56-1.56z" fill="#fff" fill-opacity="0"/><path d="M2282.8 464.2a1.56 1.56 0 0 0 1.55 1.56h169.55a1.56 1.56 0 0 0 1.56-1.56V192.47a1.56 1.56 0 0 0-1.56-1.56h-169.55a1.56 1.56 0 0 0-1.56 1.57z" fill="#fff"/><path d="M2281.8 464.2a1 1 0 0 1 1-1 1 1 0 0 1 1 1 1 1 0 0 1-1 1 1 1 0 0 1-1-1m9.62 1.57a1 1 0 0 1 1-1 1 1 0 0 1 1 1 1 1 0 0 1-1 1 1 1 0 0 1-1-1v-.02m8.07.02a1 1 0 0 1 1-1 1 1 0 0 1 1 1 1 1 0 0 1-1 1 1 1 0 0 1-1-1v-.02m8.07.02a1 1 0 0 1 1-1 1 1 0 0 1 1 1 1 1 0 0 1-1 1 1 1 0 0 1-1-1v-.02m8.07.02a1 1 0 0 1 1-1 1 1 0 0 1 1 1 1 1 0 0 1-1 1 1 1 0 0 1-1-1v-.02m8.08.02a1 1 0 0 1 1-1 1 1 0 0 1 1 1 1 1 0 0 1-1 1 1 1 0 0 1-1-1v-.02m8.07.02a1 1 0 0 1 1-1 1 1 0 0 1 1 1 1 1 0 0 1-1 1 1 1 0 0 1-1-1v-.02m8.06.02a1 1 0 0 1 1-1 1 1 0 0 1 1 1 1 1 0 0 1-1 1 1 1 0 0 1-1-1v-.02m8.08.02a1 1 0 0 1 1-1 1 1 0 0 1 1 1 1 1 0 0 1-1 1 1 1 0 0 1-1-1v-.02m8.07.02a1 1 0 0 1 1-1 1 1 0 0 1 1 1 1 1 0 0 1-1 1 1 1 0 0 1-1-1v-.02m8.1.02a1 1 0 0 1 1-1 1 1 0 0 1 1 1 1 1 0 0 1-1 1 1 1 0 0 1-1-1v-.02m8.06.02a1 1 0 0 1 1-1 1 1 0 0 1 1 1 1 1 0 0 1-1 1 1 1 0 0 1-1-1v-.02m8.07.02a1 1 0 0 1 1-1 1 1 0 0 1 1 1 1 1 0 0 1-1 1 1 1 0 0 1-1-1v-.02m8.08.02a1 1 0 0 1 1-1 1 1 0 0 1 1 1 1 1 0 0 1-1 1 1 1 0 0 1-1-1v-.02m8.08.02a1 1 0 0 1 1-1 1 1 0 0 1 1 1 1 1 0 0 1-1 1 1 1 0 0 1-1-1v-.02m8.07.02a1 1 0 0 1 1-1 1 1 0 0 1 1 1 1 1 0 0 1-1 1 1 1 0 0 1-1-1v-.02m8.08.02a1 1 0 0 1 1-1 1 1 0 0 1 1 1 1 1 0 0 1-1 1 1 1 0 0 1-1-1v-.02m8.07.02a1 1 0 0 1 1-1 1 1 0 0 1 1 1 1 1 0 0 1-1 1 1 1 0 0 1-1-1v-.02m8.08.02a1 1 0 0 1 1-1 1 1 0 0 1 1 1 1 1 0 0 1-1 1 1 1 0 0 1-1-1v-.02m8.07.02a1 1 0 0 1 1-1 1 1 0 0 1 1 1 1 1 0 0 1-1 1 1 1 0 0 1-1-1v-.02m8.07.02a1 1 0 0 1 1-1 1 1 0 0 1 1 1 1 1 0 0 1-1 1 1 1 0 0 1-1-1v-.02m8.08.02a1 1 0 0 1 1-1 1 1 0 0 1 1 1 1 1 0 0 1-1 1 1 1 0 0 1-1-1v-.02m1.56-9.53a1 1 0 0 1 1-1 1 1 0 0 1 1 1 1 1 0 0 1-1 1 1 1 0 0 1-1-1v-.02m0-7.97a1 1 0 0 1 1-1 1 1 0 0 1 1 1 1 1 0 0 1-1 1 1 1 0 0 1-1-1v-.02m0-7.96a1 1 0 0 1 1-1 1 1 0 0 1 1 1 1 1 0 0 1-1 1 1 1 0 0 1-1-1v-.02m0-7.97a1 1 0 0 1 1-1 1 1 0 0 1 1 1 1 1 0 0 1-1 1 1 1 0 0 1-1-1v-.02m0-7.98a1 1 0 0 1 1-1 1 1 0 0 1 1 1 1 1 0 0 1-1 1 1 1 0 0 1-1-1v-.02m0-7.97a1 1 0 0 1 1-1 1 1 0 0 1 1 1 1 1 0 0 1-1 1 1 1 0 0 1-1-1v-.02m0-7.97a1 1 0 0 1 1-1 1 1 0 0 1 1 1 1 1 0 0 1-1 1 1 1 0 0 1-1-1v-.02m0-7.97a1 1 0 0 1 1-1 1 1 0 0 1 1 1 1 1 0 0 1-1 1 1 1 0 0 1-1-1v-.02m0-7.98a1 1 0 0 1 1-1 1 1 0 0 1 1 1 1 1 0 0 1-1 1 1 1 0 0 1-1-1v-.02m0-7.97v-.02a1 1 0 0 1 1-1 1 1 0 0 1 1 1 1 1 0 0 1-1 1 1 1 0 0 1-1-1m0-7.98a1 1 0 0 1 1-1 1 1 0 0 1 1 1 1 1 0 0 1-1 1 1 1 0 0 1-1-1v-.02m0-7.97a1 1 0 0 1 1-1 1 1 0 0 1 1 1 1 1 0 0 1-1 1 1 1 0 0 1-1-1m0-8a1 1 0 0 1 1-1 1 1 0 0 1 1 1 1 1 0 0 1-1 1 1 1 0 0 1-1-1m0-7.98a1 1 0 0 1 1-1 1 1 0 0 1 1 1 1 1 0 0 1-1 1 1 1 0 0 1-1-1v-.02m0-7.97a1 1 0 0 1 1-1 1 1 0 0 1 1 1 1 1 0 0 1-1 1 1 1 0 0 1-1-1v-.02m0-7.96a1 1 0 0 1 1-1 1 1 0 0 1 1 1 1 1 0 0 1-1 1 1 1 0 0 1-1-1v-.02m0-7.97a1 1 0 0 1 1-1 1 1 0 0 1 1 1 1 1 0 0 1-1 1 1 1 0 0 1-1-1v-.02m0-7.98a1 1 0 0 1 1-1 1 1 0 0 1 1 1 1 1 0 0 1-1 1 1 1 0 0 1-1-1v-.02m0-7.97a1 1 0 0 1 1-1 1 1 0 0 1 1 1 1 1 0 0 1-1 1 1 1 0 0 1-1-1v-.02m0-7.97a1 1 0 0 1 1-1 1 1 0 0 1 1 1 1 1 0 0 1-1 1 1 1 0 0 1-1-1v-.02m0-7.97a1 1 0 0 1 1-1 1 1 0 0 1 1 1 1 1 0 0 1-1 1 1 1 0 0 1-1-1v-.02m0-7.98a1 1 0 0 1 1-1 1 1 0 0 1 1 1 1 1 0 0 1-1 1 1 1 0 0 1-1-1m0-8a1 1 0 0 1 1-1 1 1 0 0 1 1 1 1 1 0 0 1-1 1 1 1 0 0 1-1-1m0-7.98a1 1 0 0 1 1-1 1 1 0 0 1 1 1 1 1 0 0 1-1 1 1 1 0 0 1-1-1v-.02m0-7.97a1 1 0 0 1 1-1 1 1 0 0 1 1 1 1 1 0 0 1-1 1 1 1 0 0 1-1-1m0-7.98a1 1 0 0 1 1-1 1 1 0 0 1 1 1 1 1 0 0 1-1 1 1 1 0 0 1-1-1v-.02m0-7.98a1 1 0 0 1 1-1 1 1 0 0 1 1 1 1 1 0 0 1-1 1 1 1 0 0 1-1-1v-.02m0-7.97a1 1 0 0 1 1-1 1 1 0 0 1 1 1 1 1 0 0 1-1 1 1 1 0 0 1-1-1v-.02m0-7.96a1 1 0 0 1 1-1 1 1 0 0 1 1 1 1 1 0 0 1-1 1 1 1 0 0 1-1-1v-.02m0-7.97a1 1 0 0 1 1-1 1 1 0 0 1 1 1 1 1 0 0 1-1 1 1 1 0 0 1-1-1v-.02m0-7.97v-.02a1 1 0 0 1 1-1 1 1 0 0 1 1 1 1 1 0 0 1-1 1 1 1 0 0 1-1-1m0-7.98a1 1 0 0 1 1-1 1 1 0 0 1 1 1 1 1 0 0 1-1 1 1 1 0 0 1-1-1v-.02m0-7.97a1 1 0 0 1 1-1 1 1 0 0 1 1 1 1 1 0 0 1-1 1 1 1 0 0 1-1-1v-.02m0-7.97a1 1 0 0 1 1-1 1 1 0 0 1 1 1 1 1 0 0 1-1 1 1 1 0 0 1-1-1v-.02m-9.64-1.54a1 1 0 0 1 1-1 1 1 0 0 1 1 1 1 1 0 0 1-1 1 1 1 0 0 1-1-1v-.02m-8.07.02a1 1 0 0 1 1-1 1 1 0 0 1 1 1 1 1 0 0 1-1 1 1 1 0 0 1-1-1v-.02m-8.07.02a1 1 0 0 1 1-1 1 1 0 0 1 1 1 1 1 0 0 1-1 1 1 1 0 0 1-1-1v-.02m-8.08.02a1 1 0 0 1 1-1 1 1 0 0 1 1 1 1 1 0 0 1-1 1 1 1 0 0 1-1-1v-.02m-8.07.02a1 1 0 0 1 1-1 1 1 0 0 1 1 1 1 1 0 0 1-1 1 1 1 0 0 1-1-1v-.02m-8.08.02a1 1 0 0 1 1-1 1 1 0 0 1 1 1 1 1 0 0 1-1 1 1 1 0 0 1-1-1v-.02m-8.07.02a1 1 0 0 1 1-1 1 1 0 0 1 1 1 1 1 0 0 1-1 1 1 1 0 0 1-1-1v-.02m-8.07.02a1 1 0 0 1 1-1 1 1 0 0 1 1 1 1 1 0 0 1-1 1 1 1 0 0 1-1-1v-.02m-8.07.02a1 1 0 0 1 1-1 1 1 0 0 1 1 1 1 1 0 0 1-1 1 1 1 0 0 1-1-1v-.02m-8.07.02a1 1 0 0 1 1-1 1 1 0 0 1 1 1 1 1 0 0 1-1 1 1 1 0 0 1-1-1v-.02m-8.07.02a1 1 0 0 1 1-1 1 1 0 0 1 1 1 1 1 0 0 1-1 1 1 1 0 0 1-1-1v-.02m-8.1.02a1 1 0 0 1 1-1 1 1 0 0 1 1 1 1 1 0 0 1-1 1 1 1 0 0 1-1-1v-.02m-8.06.02a1 1 0 0 1 1-1 1 1 0 0 1 1 1 1 1 0 0 1-1 1 1 1 0 0 1-1-1v-.02m-8.08.02a1 1 0 0 1 1-1 1 1 0 0 1 1 1 1 1 0 0 1-1 1 1 1 0 0 1-1-1v-.02m-8.07.02a1 1 0 0 1 1-1 1 1 0 0 1 1 1 1 1 0 0 1-1 1 1 1 0 0 1-1-1v-.02m-8.08.02a1 1 0 0 1 1-1 1 1 0 0 1 1 1 1 1 0 0 1-1 1 1 1 0 0 1-1-1v-.02m-8.08.02a1 1 0 0 1 1-1 1 1 0 0 1 1 1 1 1 0 0 1-1 1 1 1 0 0 1-1-1v-.02m-8.07.02a1 1 0 0 1 1-1 1 1 0 0 1 1 1 1 1 0 0 1-1 1 1 1 0 0 1-1-1v-.02m-8.08.02a1 1 0 0 1 1-1 1 1 0 0 1 1 1 1 1 0 0 1-1 1 1 1 0 0 1-1-1v-.02m-8.08.02a1 1 0 0 1 1-1 1 1 0 0 1 1 1 1 1 0 0 1-1 1 1 1 0 0 1-1-1v-.02m-8.07.02a1 1 0 0 1 1-1 1 1 0 0 1 1 1 1 1 0 0 1-1 1 1 1 0 0 1-1-1v-.02m-1.56 9.57a1 1 0 0 1 1-1 1 1 0 0 1 1 1 1 1 0 0 1-1 1 1 1 0 0 1-1-1v-.02m0 8a1 1 0 0 1 1-1 1 1 0 0 1 1 1 1 1 0 0 1-1 1 1 1 0 0 1-1-1m0 8a1 1 0 0 1 1-1 1 1 0 0 1 1 1 1 1 0 0 1-1 1 1 1 0 0 1-1-1m0 8a1 1 0 0 1 1-1 1 1 0 0 1 1 1 1 1 0 0 1-1 1 1 1 0 0 1-1-1v-.02m0 8a1 1 0 0 1 1-1 1 1 0 0 1 1 1 1 1 0 0 1-1 1 1 1 0 0 1-1-1m0 8a1 1 0 0 1 1-1 1 1 0 0 1 1 1 1 1 0 0 1-1 1 1 1 0 0 1-1-1v-.02m0 8.02a1 1 0 0 1 1-1 1 1 0 0 1 1 1 1 1 0 0 1-1 1 1 1 0 0 1-1-1v-.02m0 8.02a1 1 0 0 1 1-1 1 1 0 0 1 1 1 1 1 0 0 1-1 1 1 1 0 0 1-1-1v-.02m0 8a1 1 0 0 1 1-1 1 1 0 0 1 1 1 1 1 0 0 1-1 1 1 1 0 0 1-1-1m0 8a1 1 0 0 1 1-1 1 1 0 0 1 1 1 1 1 0 0 1-1 1 1 1 0 0 1-1-1v-.02m0 8a1 1 0 0 1 1-1 1 1 0 0 1 1 1 1 1 0 0 1-1 1 1 1 0 0 1-1-1m0 8a1 1 0 0 1 1-1 1 1 0 0 1 1 1 1 1 0 0 1-1 1 1 1 0 0 1-1-1m0 8a1 1 0 0 1 1-1 1 1 0 0 1 1 1 1 1 0 0 1-1 1 1 1 0 0 1-1-1v-.02m0 8a1 1 0 0 1 1-1 1 1 0 0 1 1 1 1 1 0 0 1-1 1 1 1 0 0 1-1-1m0 8a1 1 0 0 1 1-1 1 1 0 0 1 1 1 1 1 0 0 1-1 1 1 1 0 0 1-1-1v-.02m0 8a1 1 0 0 1 1-1 1 1 0 0 1 1 1 1 1 0 0 1-1 1 1 1 0 0 1-1-1m0 8a1 1 0 0 1 1-1 1 1 0 0 1 1 1 1 1 0 0 1-1 1 1 1 0 0 1-1-1m0 8a1 1 0 0 1 1-1 1 1 0 0 1 1 1 1 1 0 0 1-1 1 1 1 0 0 1-1-1v-.02m0 8a1 1 0 0 1 1-1 1 1 0 0 1 1 1 1 1 0 0 1-1 1 1 1 0 0 1-1-1m0 8a1 1 0 0 1 1-1 1 1 0 0 1 1 1 1 1 0 0 1-1 1 1 1 0 0 1-1-1v-.02m0 8a1 1 0 0 1 1-1 1 1 0 0 1 1 1 1 1 0 0 1-1 1 1 1 0 0 1-1-1m0 8a1 1 0 0 1 1-1 1 1 0 0 1 1 1 1 1 0 0 1-1 1 1 1 0 0 1-1-1m0 8a1 1 0 0 1 1-1 1 1 0 0 1 1 1 1 1 0 0 1-1 1 1 1 0 0 1-1-1v-.02m0 8a1 1 0 0 1 1-1 1 1 0 0 1 1 1 1 1 0 0 1-1 1 1 1 0 0 1-1-1m0 8a1 1 0 0 1 1-1 1 1 0 0 1 1 1 1 1 0 0 1-1 1 1 1 0 0 1-1-1v-.02m0 8.02a1 1 0 0 1 1-1 1 1 0 0 1 1 1 1 1 0 0 1-1 1 1 1 0 0 1-1-1v-.02m0 8a1 1 0 0 1 1-1 1 1 0 0 1 1 1 1 1 0 0 1-1 1 1 1 0 0 1-1-1m0 8a1 1 0 0 1 1-1 1 1 0 0 1 1 1 1 1 0 0 1-1 1 1 1 0 0 1-1-1v-.02m0 8a1 1 0 0 1 1-1 1 1 0 0 1 1 1 1 1 0 0 1-1 1 1 1 0 0 1-1-1m0 8a1 1 0 0 1 1-1 1 1 0 0 1 1 1 1 1 0 0 1-1 1 1 1 0 0 1-1-1m0 8a1 1 0 0 1 1-1 1 1 0 0 1 1 1 1 1 0 0 1-1 1 1 1 0 0 1-1-1v-.02m0 8a1 1 0 0 1 1-1 1 1 0 0 1 1 1 1 1 0 0 1-1 1 1 1 0 0 1-1-1m0 8a1 1 0 0 1 1-1 1 1 0 0 1 1 1 1 1 0 0 1-1 1 1 1 0 0 1-1-1v-.02m0 8a1 1 0 0 1 1-1 1 1 0 0 1 1 1 1 1 0 0 1-1 1 1 1 0 0 1-1-1"/><path d="M2295.93 201.56a1.56 1.56 0 0 1 1.56-1.56h144.57a1.56 1.56 0 0 1 1.56 1.56v129.76a1.56 1.56 0 0 1-1.56 1.56H2297.5a1.56 1.56 0 0 1-1.57-1.56z" fill="#fff" fill-opacity="0"/><path d="M2295.93 331.32a1.56 1.56 0 0 0 1.56 1.56h144.57a1.56 1.56 0 0 0 1.56-1.56V201.56a1.56 1.56 0 0 0-1.56-1.56H2297.5a1.56 1.56 0 0 0-1.57 1.56z" stroke="#000" stroke-width="2" fill="#83b9f8"/><use xlink:href="#a" transform="matrix(1,0,0,1,2301.100767998118,208.23864613011125) translate(18.55403645833333 12.916666666666668)"/><use xlink:href="#b" transform="matrix(1,0,0,1,2301.100767998118,208.23864613011125) translate(59.69335937499999 12.916666666666668)"/><path d="M2295.4 345.36a1.56 1.56 0 0 1 1.56-1.56h145.64a1.56 1.56 0 0 1 1.56 1.56v77.26a1.56 1.56 0 0 1-1.56 1.56h-145.64a1.56 1.56 0 0 1-1.56-1.56z" fill="#fff" fill-opacity="0"/><path d="M2295.4 422.62a1.56 1.56 0 0 0 1.56 1.56h145.64a1.56 1.56 0 0 0 1.56-1.56v-77.26a1.56 1.56 0 0 0-1.56-1.56h-145.64a1.56 1.56 0 0 0-1.56 1.56z" stroke="#000" stroke-width="2" fill="#89d1ff"/><use xlink:href="#c" transform="matrix(1,0,0,1,2300.6036838369982,348.7841255602076) translate(33.88151041666667 12.916666666666668)"/><use xlink:href="#d" transform="matrix(1,0,0,1,2300.6036838369982,348.7841255602076) translate(50.41145833333334 12.916666666666668)"/><path d="M1300 185.57a1.56 1.56 0 0 1 1.55-1.56h946.7a1.56 1.56 0 0 1 1.55 1.57V568a1.56 1.56 0 0 1-1.57 1.56h-946.68A1.56 1.56 0 0 1 1300 568z" fill="#fff" fill-opacity="0"/><path d="M1300 568a1.56 1.56 0 0 0 1.55 1.56h946.7a1.56 1.56 0 0 0 1.55-1.56V185.57a1.56 1.56 0 0 0-1.57-1.56h-946.68a1.56 1.56 0 0 0-1.56 1.57z" stroke="#000" stroke-width="2" fill="#fff"/><path d="M1461.8 194.15a1.56 1.56 0 0 1 1.55-1.56h689.26a1.56 1.56 0 0 1 1.57 1.55v59.6a1.56 1.56 0 0 1-1.56 1.57h-689.25a1.56 1.56 0 0 1-1.56-1.56z" fill="#fff" fill-opacity="0"/><path d="M1461.8 253.76a1.56 1.56 0 0 0 1.55 1.56h689.26a1.56 1.56 0 0 0 1.57-1.56v-59.6a1.56 1.56 0 0 0-1.56-1.57h-689.25a1.56 1.56 0 0 0-1.56 1.55z" stroke="#000" fill="#1b90ff"/><path d="M1335.07 435a1.56 1.56 0 0 1 1.56-1.55h901.74a1.56 1.56 0 0 1 1.57 1.56v106.86a1.56 1.56 0 0 1-1.57 1.56h-901.74a1.56 1.56 0 0 1-1.56-1.56z" fill="#fff" fill-opacity="0"/><path d="M1335.07 541.86a1.56 1.56 0 0 0 1.56 1.56h901.74a1.56 1.56 0 0 0 1.57-1.56V435a1.56 1.56 0 0 0-1.57-1.55h-901.74a1.56 1.56 0 0 0-1.56 1.56z" stroke="#000" stroke-width="2" fill="#d1efff"/><use xlink:href="#e" transform="matrix(1,0,0,1,1366.7372144986061,440.26700948578883) translate(385.7864583333333 93.78385416666667)"/><use xlink:href="#f" transform="matrix(1,0,0,1,1366.7372144986061,440.26700948578883) translate(419.00260416666663 93.78385416666667)"/><path d="M1461.5 61.37a1.56 1.56 0 0 1 1.55-1.56h785.2a1.56 1.56 0 0 1 1.56 1.57v84.47a1.56 1.56 0 0 1-1.55 1.56h-785.2a1.56 1.56 0 0 1-1.56-1.56z" fill="#fff" fill-opacity="0"/><path d="M1461.5 145.84a1.56 1.56 0 0 0 1.55 1.56h785.2a1.56 1.56 0 0 0 1.56-1.56V61.38a1.56 1.56 0 0 0-1.55-1.56h-785.2a1.56 1.56 0 0 0-1.56 1.57z" stroke="#000" stroke-width="2" fill="#fff"/><use xlink:href="#g" transform="matrix(1,0,0,1,1489.0778760742348,65.23755447220874) translate(312.6295572916667 12.916666666666668)"/><use xlink:href="#h" transform="matrix(1,0,0,1,1489.0778760742348,65.23755447220874) translate(342.6490885416667 12.916666666666668)"/><path d="M1474.48 101.37a1.56 1.56 0 0 1 1.56-1.56h750.1a1.56 1.56 0 0 1 1.55 1.57v32.15a1.56 1.56 0 0 1-1.57 1.56h-750.1a1.56 1.56 0 0 1-1.55-1.56z" fill="#fff" fill-opacity="0"/><path d="M1474.48 133.52a1.56 1.56 0 0 0 1.56 1.56h750.1a1.56 1.56 0 0 0 1.55-1.56v-32.15a1.56 1.56 0 0 0-1.57-1.56h-750.1a1.56 1.56 0 0 0-1.55 1.57z" stroke="#000" stroke-width="2" fill="#1b90ff"/><use xlink:href="#i" transform="matrix(1,0,0,1,1500.8457569796315,101.99357799306787) translate(312.7734375 20.350260416666668)"/><use xlink:href="#j" transform="matrix(1,0,0,1,1500.8457569796315,101.99357799306787) translate(351.015625 20.350260416666668)"/><path d="M2160.8 194.15a1.56 1.56 0 0 1 1.55-1.56h76.03a1.56 1.56 0 0 1 1.55 1.55v138.27a1.56 1.56 0 0 1-1.55 1.56h-76.03a1.56 1.56 0 0 1-1.56-1.56z" fill="#fff" fill-opacity="0"/><path d="M2160.8 332.42a1.56 1.56 0 0 0 1.55 1.56h76.03a1.56 1.56 0 0 0 1.55-1.56V194.15a1.56 1.56 0 0 0-1.55-1.56h-76.03a1.56 1.56 0 0 0-1.56 1.55z" stroke="#000" fill="#83b9f8"/><use xlink:href="#a" transform="matrix(1,0,0,1,2163.5581085962835,201.3544459583209) translate(12.13671875 50.71744791666667)"/><use xlink:href="#k" transform="matrix(1,0,0,1,2163.5581085962835,201.3544459583209) translate(53.276041666666664 50.71744791666667)"/><use xlink:href="#l" transform="matrix(1,0,0,1,2163.5581085962835,201.3544459583209) translate(23.608072916666664 66.85026041666667)"/><use xlink:href="#m" transform="matrix(1,0,0,1,2163.5581085962835,201.3544459583209) translate(9.552083333333332 82.98307291666667)"/><path d="M1306 429.77a6 6 0 0 1-6-6V196.7a6 6 0 0 1 6-6h19.28a6 6 0 0 1 6 6v227.07a6 6 0 0 1-6 6z" fill="none"/><use xlink:href="#n" transform="matrix(6.123233995736766e-17,-1,1,6.123233995736766e-17,1300,429.77070556141007) translate(21.149088541666657 20.850260416666668)"/><use xlink:href="#o" transform="matrix(6.123233995736766e-17,-1,1,6.123233995736766e-17,1300,429.77070556141007) translate(83.68815104166666 20.850260416666668)"/><use xlink:href="#p" transform="matrix(6.123233995736766e-17,-1,1,6.123233995736766e-17,1300,429.77070556141007) translate(163.51236979166666 20.850260416666668)"/><path d="M1335.07 194.15a1.56 1.56 0 0 1 1.56-1.56h109.15a1.56 1.56 0 0 1 1.56 1.55v138.27a1.56 1.56 0 0 1-1.56 1.56h-109.15a1.56 1.56 0 0 1-1.56-1.56z" fill="#fff" fill-opacity="0"/><path d="M1335.07 332.42a1.56 1.56 0 0 0 1.56 1.56h109.15a1.56 1.56 0 0 0 1.56-1.56V194.15a1.56 1.56 0 0 0-1.56-1.56h-109.15a1.56 1.56 0 0 0-1.56 1.55z" stroke="#000" fill="#1b90ff"/><use xlink:href="#q" transform="matrix(1,0,0,1,1338.9963536805749,201.35444595832132) translate(13.284505208333336 58.78385416666667)"/><use xlink:href="#r" transform="matrix(1,0,0,1,1338.9963536805749,201.35444595832132) translate(51.526692708333336 58.78385416666667)"/><use xlink:href="#s" transform="matrix(1,0,0,1,1338.9963536805749,201.35444595832132) translate(12.421875 74.91666666666667)"/><path d="M1448.34 299.15h12.45" stroke="#3a414a" fill="none"/><path d="M1448.35 299.62h-.5v-.95h.5zM1461.3 299.62h-.52v-.95h.5z" stroke="#3a414a" stroke-width=".05" fill="#3a414a"/><path d="M1335.07 343.8a1.56 1.56 0 0 1 1.56-1.55h901.74a1.56 1.56 0 0 1 1.57 1.56v78.82a1.56 1.56 0 0 1-1.57 1.56h-901.74a1.56 1.56 0 0 1-1.56-1.56z" fill="#fff" fill-opacity="0"/><path d="M1335.07 422.62a1.56 1.56 0 0 0 1.56 1.56h901.74a1.56 1.56 0 0 0 1.57-1.56v-78.8a1.56 1.56 0 0 0-1.57-1.57h-901.74a1.56 1.56 0 0 0-1.56 1.56z" stroke="#000" fill="#89d1ff"/><use xlink:href="#t" transform="matrix(1,0,0,1,1366.7372144986061,347.32619019808976) translate(393.966796875 12.916666666666668)"/><use xlink:href="#f" transform="matrix(1,0,0,1,1366.7372144986061,347.32619019808976) translate(410.822265625 12.916666666666668)"/><path d="M1350.6 376.17a1.56 1.56 0 0 1 1.56-1.56h159.2a1.56 1.56 0 0 1 1.57 1.57v37.44a1.56 1.56 0 0 1-1.56 1.57h-159.2a1.56 1.56 0 0 1-1.57-1.56z" fill="#fff" fill-opacity="0"/><path d="M1350.6 413.6a1.56 1.56 0 0 0 1.56 1.57h159.2a1.56 1.56 0 0 0 1.57-1.56V376.2a1.56 1.56 0 0 0-1.56-1.56h-159.2a1.56 1.56 0 0 0-1.57 1.57z" stroke="#000" stroke-width="2" fill="#fff"/><use xlink:href="#c" transform="matrix(1,0,0,1,1356.279442758844,377.12495041929304) translate(9.995442708333329 22.850260416666668)"/><use xlink:href="#u" transform="matrix(1,0,0,1,1356.279442758844,377.12495041929304) translate(26.525390624999996 22.850260416666668)"/><use xlink:href="#v" transform="matrix(1,0,0,1,1356.279442758844,377.12495041929304) translate(60.58138020833333 22.850260416666668)"/><use xlink:href="#w" transform="matrix(1,0,0,1,1356.279442758844,377.12495041929304) translate(72.91861979166666 22.850260416666668)"/><use xlink:href="#x" transform="matrix(1,0,0,1,1356.279442758844,377.12495041929304) translate(115.04752604166667 22.850260416666668)"/><path d="M1528.93 376.17a1.56 1.56 0 0 1 1.56-1.56h159.2a1.56 1.56 0 0 1 1.55 1.57v37.44a1.56 1.56 0 0 1-1.56 1.57h-159.2a1.56 1.56 0 0 1-1.57-1.56z" fill="#fff" fill-opacity="0"/><path d="M1528.93 413.6a1.56 1.56 0 0 0 1.56 1.57h159.2a1.56 1.56 0 0 0 1.55-1.56V376.2a1.56 1.56 0 0 0-1.56-1.56h-159.2a1.56 1.56 0 0 0-1.57 1.57z" stroke="#000" stroke-width="2" fill="#fff"/><use xlink:href="#y" transform="matrix(1,0,0,1,1534.6072317585392,377.12495041929304) translate(21.642578125 22.850260416666668)"/><use xlink:href="#z" transform="matrix(1,0,0,1,1534.6072317585392,377.12495041929304) translate(63.745442708333336 22.850260416666668)"/><use xlink:href="#v" transform="matrix(1,0,0,1,1534.6072317585392,377.12495041929304) translate(91.76627604166667 22.850260416666668)"/><use xlink:href="#A" transform="matrix(1,0,0,1,1534.6072317585392,377.12495041929304) translate(104.103515625 22.850260416666668)"/><path d="M1707.25 376.17a1.56 1.56 0 0 1 1.56-1.56h159.22a1.56 1.56 0 0 1 1.56 1.57v37.44a1.56 1.56 0 0 1-1.56 1.57h-159.2a1.56 1.56 0 0 1-1.57-1.56z" fill="#fff" fill-opacity="0"/><path d="M1707.25 413.6a1.56 1.56 0 0 0 1.56 1.57h159.22a1.56 1.56 0 0 0 1.56-1.56V376.2a1.56 1.56 0 0 0-1.56-1.56h-159.2a1.56 1.56 0 0 0-1.57 1.57z" stroke="#000" stroke-width="2" fill="#fff"/><use xlink:href="#B" transform="matrix(1,0,0,1,1712.9350207582345,377.12495041929304) translate(19.064453124999993 22.850260416666668)"/><use xlink:href="#C" transform="matrix(1,0,0,1,1712.9350207582345,377.12495041929304) translate(93.43294270833334 22.850260416666668)"/><path d="M1461.8 265.88a1.56 1.56 0 0 1 1.55-1.56h689.26a1.56 1.56 0 0 1 1.57 1.56v66.54a1.56 1.56 0 0 1-1.56 1.56h-689.25a1.56 1.56 0 0 1-1.56-1.56z" fill="#fff" fill-opacity="0"/><path d="M1461.8 332.42a1.56 1.56 0 0 0 1.55 1.56h689.26a1.56 1.56 0 0 0 1.57-1.56v-66.54a1.56 1.56 0 0 0-1.56-1.56h-689.25a1.56 1.56 0 0 0-1.56 1.56z" stroke="#000" fill="#83b9f8"/><use xlink:href="#D" transform="matrix(1,0,0,1,1486.0265712556222,268.6361182326104) translate(282.7161458333333 12.916666666666668)"/><use xlink:href="#f" transform="matrix(1,0,0,1,1486.0265712556222,268.6361182326104) translate(325.07291666666663 12.916666666666668)"/><path d="M1474.48 292.38a1.56 1.56 0 0 1 1.56-1.56h149.8a1.56 1.56 0 0 1 1.55 1.56v32.1a1.56 1.56 0 0 1-1.57 1.56h-149.8a1.56 1.56 0 0 1-1.55-1.56z" fill="#fff" fill-opacity="0"/><path d="M1474.48 324.48a1.56 1.56 0 0 0 1.56 1.56h149.8a1.56 1.56 0 0 0 1.55-1.56v-32.1a1.56 1.56 0 0 0-1.57-1.56h-149.8a1.56 1.56 0 0 0-1.55 1.56z" stroke="#000" stroke-width="2" fill="#fff"/><use xlink:href="#E" transform="matrix(1,0,0,1,1479.8352574200023,293.00753000776285) translate(0.2337239583333286 20.350260416666668)"/><use xlink:href="#F" transform="matrix(1,0,0,1,1479.8352574200023,293.00753000776285) translate(98.46940104166667 20.350260416666668)"/><path d="M1814.3 292.38a1.56 1.56 0 0 1 1.56-1.56h149.8a1.56 1.56 0 0 1 1.55 1.56v32.1a1.56 1.56 0 0 1-1.55 1.56h-149.8a1.56 1.56 0 0 1-1.55-1.56z" fill="#fff" fill-opacity="0"/><path d="M1814.3 324.48a1.56 1.56 0 0 0 1.56 1.56h149.8a1.56 1.56 0 0 0 1.55-1.56v-32.1a1.56 1.56 0 0 0-1.55-1.56h-149.8a1.56 1.56 0 0 0-1.55 1.56z" stroke="#000" stroke-width="2" fill="#fff"/><use xlink:href="#G" transform="matrix(1,0,0,1,1819.6526169656902,293.00753000776285) translate(12.072916666666664 20.350260416666668)"/><use xlink:href="#H" transform="matrix(1,0,0,1,1819.6526169656902,293.00753000776285) translate(64.05859375 20.350260416666668)"/><path d="M2304.63 288.53a1.56 1.56 0 0 1 1.56-1.56h125.85a1.56 1.56 0 0 1 1.56 1.56v37.44a1.56 1.56 0 0 1-1.55 1.56H2306.2a1.56 1.56 0 0 1-1.57-1.56z" fill="#fff" fill-opacity="0"/><path d="M2304.63 325.97a1.56 1.56 0 0 0 1.56 1.56h125.85a1.56 1.56 0 0 0 1.56-1.56v-37.44a1.56 1.56 0 0 0-1.55-1.56H2306.2a1.56 1.56 0 0 0-1.57 1.56z" stroke="#000" stroke-width="2" fill="#fff"/><use xlink:href="#a" transform="matrix(1,0,0,1,2309.1449496226096,289.48187404237814) translate(22.51953125 14.783854166666668)"/><use xlink:href="#I" transform="matrix(1,0,0,1,2309.1449496226096,289.48187404237814) translate(63.658854166666664 14.783854166666668)"/><use xlink:href="#J" transform="matrix(1,0,0,1,2309.1449496226096,289.48187404237814) translate(2.731119791666657 30.916666666666668)"/><use xlink:href="#K" transform="matrix(1,0,0,1,2309.1449496226096,289.48187404237814) translate(70.79752604166667 30.916666666666668)"/><path d="M2304.63 241.18a1.56 1.56 0 0 1 1.56-1.56h125.85a1.56 1.56 0 0 1 1.56 1.56v37.45a1.56 1.56 0 0 1-1.55 1.56H2306.2a1.56 1.56 0 0 1-1.57-1.57z" fill="#fff" fill-opacity="0"/><path d="M2304.63 278.63a1.56 1.56 0 0 0 1.56 1.56h125.85a1.56 1.56 0 0 0 1.56-1.57v-37.45a1.56 1.56 0 0 0-1.55-1.56H2306.2a1.56 1.56 0 0 0-1.57 1.56z" stroke="#000" stroke-width="2" fill="#fff"/><use xlink:href="#L" transform="matrix(1,0,0,1,2309.14494962261,242.1386762054555) translate(37.8515625 14.783854166666668)"/><use xlink:href="#J" transform="matrix(1,0,0,1,2309.14494962261,242.1386762054555) translate(2.731119791666657 30.916666666666668)"/><use xlink:href="#K" transform="matrix(1,0,0,1,2309.14494962261,242.1386762054555) translate(70.79752604166667 30.916666666666668)"/><path d="M2304.63 376.17a1.56 1.56 0 0 1 1.56-1.56h125.85a1.56 1.56 0 0 1 1.56 1.57v37.44a1.56 1.56 0 0 1-1.55 1.57H2306.2a1.56 1.56 0 0 1-1.57-1.56z" fill="#fff" fill-opacity="0"/><path d="M2304.63 413.6a1.56 1.56 0 0 0 1.56 1.57h125.85a1.56 1.56 0 0 0 1.56-1.56V376.2a1.56 1.56 0 0 0-1.55-1.56H2306.2a1.56 1.56 0 0 0-1.57 1.57z" stroke="#000" stroke-width="2" fill="#fff"/><use xlink:href="#M" transform="matrix(1,0,0,1,2309.1449496226096,377.12495041929304) translate(6.149088541666671 22.850260416666668)"/><use xlink:href="#N" transform="matrix(1,0,0,1,2309.1449496226096,377.12495041929304) translate(47.90039062500001 22.850260416666668)"/><path d="M1885.58 376.17a1.56 1.56 0 0 1 1.56-1.56h159.2a1.56 1.56 0 0 1 1.57 1.57v37.44a1.56 1.56 0 0 1-1.55 1.57h-159.2a1.56 1.56 0 0 1-1.57-1.56z" fill="#fff" fill-opacity="0"/><path d="M1885.58 413.6a1.56 1.56 0 0 0 1.56 1.57h159.2a1.56 1.56 0 0 0 1.57-1.56V376.2a1.56 1.56 0 0 0-1.55-1.56h-159.2a1.56 1.56 0 0 0-1.57 1.57z" stroke="#000" stroke-width="2" fill="#fff"/><use xlink:href="#y" transform="matrix(1,0,0,1,1891.26280975793,377.12495041929304) translate(10.51953125 22.850260416666668)"/><use xlink:href="#O" transform="matrix(1,0,0,1,1891.26280975793,377.12495041929304) translate(52.622395833333336 22.850260416666668)"/><use xlink:href="#P" transform="matrix(1,0,0,1,1891.26280975793,377.12495041929304) translate(97.53125 22.850260416666668)"/><path d="M2063.9 376.17a1.56 1.56 0 0 1 1.57-1.56h159.2a1.56 1.56 0 0 1 1.57 1.57v37.44a1.56 1.56 0 0 1-1.56 1.57h-159.2a1.56 1.56 0 0 1-1.57-1.56z" fill="#fff" fill-opacity="0"/><path d="M2063.9 413.6a1.56 1.56 0 0 0 1.57 1.57h159.2a1.56 1.56 0 0 0 1.57-1.56V376.2a1.56 1.56 0 0 0-1.56-1.56h-159.2a1.56 1.56 0 0 0-1.57 1.57z" stroke="#000" stroke-width="2" fill="#fff"/><use xlink:href="#Q" transform="matrix(1,0,0,1,2069.5905987576252,377.12495041929304) translate(10.037760416666657 14.783854166666668)"/><use xlink:href="#R" transform="matrix(1,0,0,1,2069.5905987576252,377.12495041929304) translate(94.71875 14.783854166666668)"/><use xlink:href="#S" transform="matrix(1,0,0,1,2069.5905987576252,377.12495041929304) translate(38.88216145833333 30.916666666666668)"/><use xlink:href="#T" transform="matrix(1,0,0,1,2069.5905987576252,377.12495041929304) translate(70.978515625 30.916666666666668)"/><path d="M1301.77 75.47a1.56 1.56 0 0 1 1.56-1.55h129.73a1.56 1.56 0 0 1 1.56 1.55v70.97a1.56 1.56 0 0 1-1.56 1.56h-129.73a1.56 1.56 0 0 1-1.56-1.56z" stroke="#000" stroke-width="2" fill="#fff"/><use xlink:href="#U" transform="matrix(1,0,0,1,1301.7736650287445,73.9150517114619) translate(22.180338541666657 34.30338541666667)"/><use xlink:href="#V" transform="matrix(1,0,0,1,1301.7736650287445,73.9150517114619) translate(87.291015625 34.30338541666667)"/><use xlink:href="#W" transform="matrix(1,0,0,1,1301.7736650287445,73.9150517114619) translate(25.2109375 50.43619791666667)"/><use xlink:href="#X" transform="matrix(1,0,0,1,1301.7736650287445,73.9150517114619) translate(75.22395833333334 50.43619791666667)"/><path d="M1644.4 292.38a1.56 1.56 0 0 1 1.55-1.56h149.8a1.56 1.56 0 0 1 1.55 1.56v32.1a1.56 1.56 0 0 1-1.56 1.56h-149.8a1.56 1.56 0 0 1-1.55-1.56z" fill="#fff" fill-opacity="0"/><path d="M1644.4 324.48a1.56 1.56 0 0 0 1.55 1.56h149.8a1.56 1.56 0 0 0 1.55-1.56v-32.1a1.56 1.56 0 0 0-1.56-1.56h-149.8a1.56 1.56 0 0 0-1.55 1.56z" stroke="#000" stroke-width="2" fill="#fff"/><use xlink:href="#Y" transform="matrix(1,0,0,1,1649.7439371928463,293.00753000776285) translate(8.195963541666671 20.350260416666668)"/><use xlink:href="#F" transform="matrix(1,0,0,1,1649.7439371928463,293.00753000776285) translate(90.50716145833333 20.350260416666668)"/><path d="M2241.24 383.2h26.15a.02.02 0 0 1 .02.04.02.02 0 0 0 .02.02h26.16" stroke="#000" stroke-width="1.6" fill="none"/><path d="M2241.26 384h-.83v-1.56h.83zM2294.4 384.04h-.82v-1.55h.82z" stroke="#000" stroke-width=".05"/><path d="M2241.24 263.28h25.64a.8.8 0 0 1 .8.8v1.6a.8.8 0 0 0 .8.8h25.65" stroke="#000" stroke-width="1.6" fill="none"/><path d="M2241.26 264.06h-.83v-1.55h.83zM2294.93 267.26h-.82v-1.55h.83z" stroke="#000" stroke-width=".05"/><path d="M1368.2 149.8V166h-.02v16.2" stroke="#000" stroke-width="1.6" fill="none"/><path d="M1368.97 149.82h-1.55V149h1.55zM1368.95 183h-1.55v-.8h1.55z" stroke="#000" stroke-width=".05"/><path d="M1472.7 221.05a1.56 1.56 0 0 1 1.55-1.56h660.44a1.56 1.56 0 0 1 1.55 1.55v25.6a1.56 1.56 0 0 1-1.56 1.56h-660.45a1.56 1.56 0 0 1-1.56-1.55z" fill="#fff" fill-opacity="0"/><path d="M1472.7 246.65a1.56 1.56 0 0 0 1.55 1.56h660.44a1.56 1.56 0 0 0 1.55-1.55v-25.6a1.56 1.56 0 0 0-1.56-1.56h-660.45a1.56 1.56 0 0 0-1.56 1.55z" stroke="#000" stroke-width="2" fill="#fff"/><g><use xlink:href="#Z" transform="matrix(1,0,0,1,1495.915908612759,221.26868081867983) translate(254.89214409722223 17.041883680555557)"/><use xlink:href="#aa" transform="matrix(1,0,0,1,1495.915908612759,221.26868081867983) translate(295.9240451388889 17.041883680555557)"/></g><path d="M1785.06 198.6a6 6 0 0 1 6-6h33.84a6 6 0 0 1 6 6v14.13a6 6 0 0 1-6 6h-33.84a6 6 0 0 1-6-6z" fill="none"/><g><use xlink:href="#ab" transform="matrix(1,0,0,1,1790.063306322567,197.58832520748416) translate(0.0865885416666643 13.350260416666668)"/></g><path d="M1984.2 292.7a1.56 1.56 0 0 1 1.57-1.55h149.8a1.56 1.56 0 0 1 1.55 1.56v32.1a1.56 1.56 0 0 1-1.56 1.57h-149.8a1.56 1.56 0 0 1-1.55-1.56z" fill="#fff" fill-opacity="0"/><path d="M1984.2 324.8a1.56 1.56 0 0 0 1.57 1.57h149.8a1.56 1.56 0 0 0 1.55-1.56v-32.1a1.56 1.56 0 0 0-1.56-1.55h-149.8a1.56 1.56 0 0 0-1.55 1.56z" stroke="#000" stroke-width="2" fill="#fff"/><g><use xlink:href="#a" transform="matrix(1,0,0,1,1989.561296738534,293.33525357567834) translate(34.01953125 20.350260416666668)"/><use xlink:href="#ac" transform="matrix(1,0,0,1,1989.561296738534,293.33525357567834) translate(75.15885416666666 20.350260416666668)"/></g><path d="M2273.63 261.97c0 4-3.23 7.22-7.22 7.22-3.98 0-7.2-3.24-7.2-7.23 0-4 3.22-7.22 7.2-7.22 4 0 7.23 3.24 7.23 7.22z" stroke="#282c33" stroke-width="3" fill="#fff"/><path d="M2282.8 439.45a6 6 0 0 1 6-6h160.66a6 6 0 0 1 6 6v20.3a6 6 0 0 1-6 6H2288.8a6 6 0 0 1-6-6z" fill="none"/><g><use xlink:href="#ad" transform="matrix(1,0,0,1,2287.787685604765,438.44902580304154) translate(52.33984375 16.350260416666668)"/></g><path d="M1855.65 149.2v33" stroke="#000" stroke-width="1.6" fill="none"/><path d="M1856.42 149.23h-1.55v-.82h1.55zM1856.42 183h-1.55v-.8h1.55z" stroke="#000" stroke-width=".05"/><path d="M1350.6 459.98a16.16 16.16 0 0 1 16.16-16.16h844.77A16.16 16.16 0 0 1 2227.7 460a16.16 16.16 0 0 1-16.17 16.16h-844.77a16.16 16.16 0 0 1-16.16-16.16z" fill="#fff" fill-opacity="0"/><path d="M1350.6 459.98a16.16 16.16 0 0 0 16.16 16.16h844.77a16.16 16.16 0 0 0 16.16-16.16 16.16 16.16 0 0 0-16.17-16.16h-844.77A16.16 16.16 0 0 0 1350.6 460z" stroke="#000" stroke-width="2" fill="#fff"/><g><use xlink:href="#ae" transform="matrix(1,0,0,1,1363.7543824039783,443.82493430696206) translate(360.931640625 21.350260416666668)"/><use xlink:href="#af" transform="matrix(1,0,0,1,1363.7543824039783,443.82493430696206) translate(421.283203125 21.350260416666668)"/><use xlink:href="#ag" transform="matrix(1,0,0,1,1363.7543824039783,443.82493430696206) translate(454.056640625 21.350260416666668)"/></g><path d="M1350.6 499.47a16.16 16.16 0 0 1 16.16-16.16h844.77a16.16 16.16 0 0 1 16.16 16.17 16.16 16.16 0 0 1-16.17 16.16h-844.77a16.16 16.16 0 0 1-16.16-16.16z" fill="#fff" fill-opacity="0"/><path d="M1350.6 499.47a16.16 16.16 0 0 0 16.16 16.16h844.77a16.16 16.16 0 0 0 16.16-16.16 16.16 16.16 0 0 0-16.17-16.16h-844.77a16.16 16.16 0 0 0-16.16 16.17z" stroke="#000" stroke-width="2" fill="#fff"/><g><use xlink:href="#y" transform="matrix(1,0,0,1,1363.7543824039783,483.31455097127315) translate(249.12825520833331 21.350260416666668)"/><use xlink:href="#ah" transform="matrix(1,0,0,1,1363.7543824039783,483.31455097127315) translate(291.23111979166663 21.350260416666668)"/><use xlink:href="#ai" transform="matrix(1,0,0,1,1363.7543824039783,483.31455097127315) translate(331.99283854166663 21.350260416666668)"/><use xlink:href="#O" transform="matrix(1,0,0,1,1363.7543824039783,483.31455097127315) translate(366.400390625 21.350260416666668)"/><use xlink:href="#aj" transform="matrix(1,0,0,1,1363.7543824039783,483.31455097127315) translate(411.30924479166663 21.350260416666668)"/><use xlink:href="#ak" transform="matrix(1,0,0,1,1363.7543824039783,483.31455097127315) translate(438.587890625 21.350260416666668)"/><use xlink:href="#al" transform="matrix(1,0,0,1,1363.7543824039783,483.31455097127315) translate(512.9563802083333 21.350260416666668)"/><use xlink:href="#am" transform="matrix(1,0,0,1,1363.7543824039783,483.31455097127315) translate(555.208984375 21.350260416666668)"/></g><path d="M1448.34 226.58h12.45" stroke="#3a414a" fill="none"/><path d="M1448.35 227.05h-.5v-.95h.5zM1461.3 227.05h-.52v-.95h.5z" stroke="#3a414a" stroke-width=".05" fill="#3a414a"/><path d="M1375.74 165.97c0 4-3.23 7.22-7.22 7.22-4 0-7.22-3.24-7.22-7.23 0-4 3.23-7.22 7.22-7.22 4 0 7.22 3.23 7.22 7.22z" stroke="#282c33" stroke-width="3" fill="#fff"/><path d="M1374.74 152.78a6 6 0 0 1 6-6h18.66a6 6 0 0 1 6 6v14.4a6 6 0 0 1-6 6h-18.66a6 6 0 0 1-6-6z" stroke="#000" stroke-opacity="0" stroke-width="3" fill="#fff" fill-opacity="0"/><g><use xlink:href="#an" transform="matrix(1,0,0,1,1379.739647553603,151.77785224580427) translate(0 12.62326388888889)"/></g><g><path d="M1389.2 167.52h-10.13l5.07 8.12z" fill="#282c33"/></g><path d="M2273.53 384.33c0 4-3.23 7.22-7.22 7.22-3.98 0-7.2-3.23-7.2-7.22 0-4 3.22-7.22 7.2-7.22 4 0 7.23 3.24 7.23 7.23z" stroke="#282c33" stroke-width="3" fill="#fff"/><path d="M2255.4 358.64a6 6 0 0 1 6-6h4.15a6 6 0 0 1 6 6V371a6 6 0 0 1-6 6h-4.16a6 6 0 0 1-6-6z" stroke="#000" stroke-opacity="0" stroke-width="3" fill="#fff" fill-opacity="0"/><g><use xlink:href="#an" transform="matrix(1,0,0,1,2260.3894115561525,357.6398290815935) translate(0 11.541883680555555)"/></g><g><path d="M2269.98 360.2v11l8.25-5.5z" fill="#282c33"/></g><path d="M1863.44 165.53c0 4-3.23 7.22-7.22 7.22-4 0-7.22-3.23-7.22-7.22 0-4 3.23-7.22 7.22-7.22 4 0 7.22 3.24 7.22 7.23z" stroke="#282c33" stroke-width="3" fill="#fff"/><path d="M1862.44 152.34a6 6 0 0 1 6-6h18.66a6 6 0 0 1 6 6v14.4a6 6 0 0 1-6 6h-18.66a6 6 0 0 1-6-6z" stroke="#000" stroke-opacity="0" stroke-width="3" fill="#fff" fill-opacity="0"/><g><use xlink:href="#an" transform="matrix(1,0,0,1,1867.4385860947111,151.34062411962483) translate(0 12.62326388888889)"/></g><g><path d="M1876.9 167.08h-10.14l5.08 8.12z" fill="#282c33"/></g><defs><path d="M52 0l541-1490h220L1361 0h-200l-149-416H398L254 0H52zm404-582h497c-103-290-145-390-251-756-108 377-145 460-246 756" id="ao"/><path d="M611 442c-248 0-391-105-460-228l146-94c47 65 117 165 314 165 178 0 307-82 307-266v-224h-17C863-141 792-18 576-18c-268 0-472-195-472-546 0-346 197-568 476-568 216 0 288 133 326 193h17v-179h175V29c0 289-215 413-487 413zm-5-620c203 0 314-146 314-390 0-237-108-403-314-403-213 0-319 180-319 403 0 230 109 390 319 390" id="ap"/><path d="M628 24c-324 0-524-230-524-574 0-343 198-582 503-582 237 0 487 146 487 559v75H286c9 234 145 362 343 362 132 0 231-58 273-172l174 48C1024-91 857 24 628 24zM287-650h624c-17-190-120-322-304-322-192 0-309 151-320 322" id="aq"/><path d="M338-670V0H158v-1118h173l1 207c72-158 192-221 342-221 226 0 378 139 378 422V0H872v-695c0-172-96-275-252-275-161 0-282 109-282 300" id="ar"/><path d="M598-1118v154H368v674c0 100 37 144 132 144 23 0 62-6 92-12L629-6c-37 13-88 20-134 20-193 0-307-107-307-290v-688H20v-154h168v-266h180v266h230" id="as"/><g id="a"><use transform="matrix(0.006510416666666667,0,0,0.006510416666666667,0,0)" xlink:href="#ao"/><use transform="matrix(0.006510416666666667,0,0,0.006510416666666667,9.19921875,0)" xlink:href="#ap"/><use transform="matrix(0.006510416666666667,0,0,0.006510416666666667,17.376302083333336,0)" xlink:href="#aq"/><use transform="matrix(0.006510416666666667,0,0,0.006510416666666667,25.149739583333336,0)" xlink:href="#ar"/><use transform="matrix(0.006510416666666667,0,0,0.006510416666666667,33.02734375,0)" xlink:href="#as"/></g><path d="M180 0v-1490h510c348 0 508 209 508 474 0 266-160 477-507 477H370V0H180zm190-706h312c236 0 327-133 327-310 0-176-91-307-329-307H370v617" id="at"/><path d="M338-1490V0H158v-1490h180" id="au"/><path d="M471 26C259 26 90-98 90-318c0-256 228-303 435-329 202-27 287-16 287-108 0-139-79-219-234-219-161 0-248 86-283 164l-173-57c86-203 278-265 451-265 150 0 419 46 419 395V0H815v-152h-12C765-73 660 26 471 26zm31-159c199 0 310-134 310-271v-155c-30 35-226 55-295 64-131 17-246 59-246 186 0 116 97 176 231 176" id="av"/><path d="M678-1118v154H420V0H240v-964H20v-154h220v-149c0-194 155-293 318-293 85 0 141 18 168 30l-50 154c-19-6-47-17-97-17-111 0-159 58-159 166v109h258" id="aw"/><path d="M613 24c-304 0-509-231-509-576 0-350 205-580 509-580 305 0 511 230 511 580 0 345-206 576-511 576zm0-161c226 0 329-195 329-415 0-222-103-419-329-419-223 0-326 196-326 419 0 220 103 415 326 415" id="ax"/><path d="M158 0v-1118h174v172h12c41-113 157-188 290-188 26 0 70 2 91 3v181c-11-2-60-10-108-10-161 0-279 109-279 260V0H158" id="ay"/><path d="M158 0v-1118h175l1 205c55-151 181-225 313-225 147 0 245 90 285 228 53-141 190-228 352-228 194 0 352 125 352 384V0h-181v-749c0-161-105-225-225-225-151 0-243 103-243 244V0H807v-767c0-124-93-207-219-207-131 0-250 92-250 270V0H158" id="az"/><path d="M538 24C308 24 148-78 108-271l171-41c32 123 123 178 257 178 156 0 256-77 256-169 0-77-54-128-164-154l-186-44c-203-48-300-148-300-305 0-192 176-326 414-326 230 0 351 112 402 269l-163 42c-31-80-94-158-238-158-133 0-233 69-233 162 0 83 57 129 188 160l169 40c203 48 298 149 298 302 0 196-179 339-441 339" id="aA"/><g id="b"><use transform="matrix(0.006510416666666667,0,0,0.006510416666666667,0,0)" xlink:href="#at"/><use transform="matrix(0.006510416666666667,0,0,0.006510416666666667,8.515625,0)" xlink:href="#au"/><use transform="matrix(0.006510416666666667,0,0,0.006510416666666667,11.744791666666668,0)" xlink:href="#av"/><use transform="matrix(0.006510416666666667,0,0,0.006510416666666667,19.231770833333336,0)" xlink:href="#as"/><use transform="matrix(0.006510416666666667,0,0,0.006510416666666667,23.26822916666667,0)" xlink:href="#aw"/><use transform="matrix(0.006510416666666667,0,0,0.006510416666666667,27.812500000000007,0)" xlink:href="#ax"/><use transform="matrix(0.006510416666666667,0,0,0.006510416666666667,35.80729166666667,0)" xlink:href="#ay"/><use transform="matrix(0.006510416666666667,0,0,0.006510416666666667,41.03515625000001,0)" xlink:href="#az"/><use transform="matrix(0.006510416666666667,0,0,0.006510416666666667,52.71484375000001,0)" xlink:href="#aA"/></g><path d="M370-1490V0H180v-1490h190" id="aB"/><g id="c"><use transform="matrix(0.006510416666666667,0,0,0.006510416666666667,0,0)" xlink:href="#ao"/><use transform="matrix(0.006510416666666667,0,0,0.006510416666666667,9.19921875,0)" xlink:href="#aB"/></g><path d="M657 26c-323 0-524-166-541-416h195c15 169 171 246 346 246 202 0 356-106 356-265 5-203-294-238-475-293-239-73-380-191-380-389 0-252 224-419 512-419 294 0 499 171 508 396H992c-17-145-151-228-328-228-193 0-321 102-321 242 0 156 175 211 284 241l149 41c160 44 422 134 422 412 0 244-197 432-541 432" id="aC"/><path d="M481 0L54-1118h197c107 314 236 620 325 951 87-331 217-637 324-951h197L670 0H481" id="aD"/><path d="M158 0v-1118h180V0H158zm91-1301c-68 0-125-53-125-119s57-119 125-119c69 0 126 53 126 119s-57 119-126 119" id="aE"/><path d="M613 24c-304 0-509-231-509-576 0-350 205-580 509-580 216 0 392 114 453 309l-173 49c-33-115-133-197-280-197-223 0-326 196-326 419 0 220 103 415 326 415 150 0 252-85 285-206l172 49C1010-95 832 24 613 24" id="aF"/><g id="d"><use transform="matrix(0.006510416666666667,0,0,0.006510416666666667,0,0)" xlink:href="#aC"/><use transform="matrix(0.006510416666666667,0,0,0.006510416666666667,8.5546875,0)" xlink:href="#aq"/><use transform="matrix(0.006510416666666667,0,0,0.006510416666666667,16.328125,0)" xlink:href="#ay"/><use transform="matrix(0.006510416666666667,0,0,0.006510416666666667,21.555989583333332,0)" xlink:href="#aD"/><use transform="matrix(0.006510416666666667,0,0,0.006510416666666667,29.04947916666666,0)" xlink:href="#aE"/><use transform="matrix(0.006510416666666667,0,0,0.006510416666666667,32.27864583333333,0)" xlink:href="#aF"/><use transform="matrix(0.006510416666666667,0,0,0.006510416666666667,39.89583333333333,0)" xlink:href="#aq"/><use transform="matrix(0.006510416666666667,0,0,0.006510416666666667,47.66927083333333,0)" xlink:href="#aA"/></g><path d="M659 0H135v-1490h529c448 0 721 280 721 744 0 466-273 746-726 746zM440-263h204c287 0 437-148 437-483 0-333-150-481-435-481H440v964" id="aG"/><path d="M440 22C227 22 68-92 68-313c0-250 202-322 422-343 195-21 271-24 271-105 0-95-63-149-175-149-116 0-187 57-211 129l-275-46c57-194 237-305 487-305 240 0 474 108 474 379V0H777v-155h-10C713-51 605 22 440 22zm85-211c140 0 238-93 238-211v-121c-37 26-156 42-222 51-111 16-185 59-185 149 0 87 70 132 169 132" id="aH"/><path d="M683-1118v229H474v562c0 71 29 104 102 104 23 0 73-7 95-13l43 225C647 9 580 16 520 16 296 16 174-96 174-301v-588H20v-229h154v-266h300v266h209" id="aI"/><g id="e"><use transform="matrix(0.006510416666666667,0,0,0.006510416666666667,0,0)" xlink:href="#aG"/><use transform="matrix(0.006510416666666667,0,0,0.006510416666666667,9.62890625,0)" xlink:href="#aH"/><use transform="matrix(0.006510416666666667,0,0,0.006510416666666667,17.369791666666668,0)" xlink:href="#aI"/><use transform="matrix(0.006510416666666667,0,0,0.006510416666666667,22.317708333333336,0)" xlink:href="#aH"/></g><path d="M135 0v-1490h305v1237h643V0H135" id="aJ"/><path d="M120 396l69-226c123 42 245 23 254-107l8-60L31-1118h319c87 288 199 559 259 872 72-308 185-583 277-872h315L726 132c-68 181-186 294-410 294-79 0-153-13-196-30" id="aK"/><path d="M633 22C291 22 81-200 81-553c0-345 210-579 537-579 292 0 525 185 525 567v84H378c7 183 109 277 260 277 105 0 184-46 216-132l272 51C1071-99 893 22 633 22zM380-669h474c-15-146-94-237-233-237-143 0-229 99-241 237" id="aL"/><path d="M128 0v-1118h290v195h12c54-169 184-238 367-200v268c-27-8-86-15-130-15-138 0-239 95-239 234V0H128" id="aM"/><g id="f"><use transform="matrix(0.006510416666666667,0,0,0.006510416666666667,0,0)" xlink:href="#aJ"/><use transform="matrix(0.006510416666666667,0,0,0.006510416666666667,7.5390625,0)" xlink:href="#aH"/><use transform="matrix(0.006510416666666667,0,0,0.006510416666666667,15.052083333333334,0)" xlink:href="#aK"/><use transform="matrix(0.006510416666666667,0,0,0.006510416666666667,22.838541666666668,0)" xlink:href="#aL"/><use transform="matrix(0.006510416666666667,0,0,0.006510416666666667,30.78125,0)" xlink:href="#aM"/></g><g id="g"><use transform="matrix(0.006510416666666667,0,0,0.006510416666666667,0,0)" xlink:href="#aC"/><use transform="matrix(0.006510416666666667,0,0,0.006510416666666667,8.5546875,0)" xlink:href="#ao"/><use transform="matrix(0.006510416666666667,0,0,0.006510416666666667,17.75390625,0)" xlink:href="#at"/></g><path d="M158 418v-1536h174v179h20c37-59 106-193 324-193 279 0 474 222 474 576 0 356-194 580-473 580-213 0-288-135-325-197h-14v591H158zm492-555c209 0 317-186 317-421 0-232-105-413-317-413-206 0-314 166-314 413 0 249 111 421 314 421" id="aN"/><g id="h"><use transform="matrix(0.006510416666666667,0,0,0.006510416666666667,0,0)" xlink:href="#ao"/><use transform="matrix(0.006510416666666667,0,0,0.006510416666666667,9.19921875,0)" xlink:href="#aN"/><use transform="matrix(0.006510416666666667,0,0,0.006510416666666667,17.36328125,0)" xlink:href="#aN"/><use transform="matrix(0.006510416666666667,0,0,0.006510416666666667,25.52734375,0)" xlink:href="#au"/><use transform="matrix(0.006510416666666667,0,0,0.006510416666666667,28.756510416666668,0)" xlink:href="#aE"/><use transform="matrix(0.006510416666666667,0,0,0.006510416666666667,31.985677083333336,0)" xlink:href="#aF"/><use transform="matrix(0.006510416666666667,0,0,0.006510416666666667,39.73307291666667,0)" xlink:href="#av"/><use transform="matrix(0.006510416666666667,0,0,0.006510416666666667,47.220052083333336,0)" xlink:href="#as"/><use transform="matrix(0.006510416666666667,0,0,0.006510416666666667,51.58203125,0)" xlink:href="#aE"/><use transform="matrix(0.006510416666666667,0,0,0.006510416666666667,54.81119791666667,0)" xlink:href="#ax"/><use transform="matrix(0.006510416666666667,0,0,0.006510416666666667,62.80598958333332,0)" xlink:href="#ar"/><use transform="matrix(0.006510416666666667,0,0,0.006510416666666667,70.68359375,0)" xlink:href="#aA"/></g><path d="M545 20c-263 0-445-160-445-446v-80h190v80c0 182 102 279 255 279 152 0 254-97 254-279v-1064h190v1064c0 286-181 446-444 446" id="aO"/><path d="M537 14c-226 0-379-139-379-422v-710h180v695c0 172 97 275 253 275 160 0 281-109 281-300v-670h181V0H879v-209C806-46 684 14 537 14" id="aP"/><g id="i"><use transform="matrix(0.006510416666666667,0,0,0.006510416666666667,0,0)" xlink:href="#aO"/><use transform="matrix(0.006510416666666667,0,0,0.006510416666666667,7.610677083333334,0)" xlink:href="#ax"/><use transform="matrix(0.006510416666666667,0,0,0.006510416666666667,15.60546875,0)" xlink:href="#aP"/><use transform="matrix(0.006510416666666667,0,0,0.006510416666666667,23.489583333333336,0)" xlink:href="#au"/><use transform="matrix(0.006510416666666667,0,0,0.006510416666666667,26.71875,0)" xlink:href="#aq"/></g><path d="M783 20c-382 0-661-292-661-764 0-473 279-766 661-766 302 0 548 182 601 489h-190c-42-204-217-313-411-313-268 0-476 208-476 590 0 381 209 588 476 588 195 0 369-110 411-313h190c-52 303-296 489-601 489" id="aQ"/><g id="j"><use transform="matrix(0.006510416666666667,0,0,0.006510416666666667,0,0)" xlink:href="#aQ"/><use transform="matrix(0.006510416666666667,0,0,0.006510416666666667,9.739583333333334,0)" xlink:href="#au"/><use transform="matrix(0.006510416666666667,0,0,0.006510416666666667,12.96875,0)" xlink:href="#aE"/><use transform="matrix(0.006510416666666667,0,0,0.006510416666666667,16.197916666666668,0)" xlink:href="#aq"/><use transform="matrix(0.006510416666666667,0,0,0.006510416666666667,23.971354166666668,0)" xlink:href="#ar"/><use transform="matrix(0.006510416666666667,0,0,0.006510416666666667,31.848958333333336,0)" xlink:href="#as"/></g><path d="M580 20c-295 0-476-179-476-409 0-189 123-290 294-416-104-125-173-226-173-362 0-197 144-337 365-337 224 0 362 144 362 321 0 185-174 312-306 405l319 387c38-75 61-165 61-267h173c0 208-62 332-120 406L1287 0h-217L967-124C868-27 716 20 580 20zm279-273L507-675l-51 38c-123 91-167 162-167 254 0 147 113 246 278 246 107 0 210-41 292-116zM538-908l97-72c54-40 136-101 136-206 0-95-68-163-176-163-113 0-189 74-189 181 0 90 53 164 132 260" id="aR"/><use transform="matrix(0.006510416666666667,0,0,0.006510416666666667,0,0)" xlink:href="#aR" id="k"/><path d="M98-1322v-168h1126v168H757V0H567v-1322H98" id="aS"/><g id="l"><use transform="matrix(0.006510416666666667,0,0,0.006510416666666667,0,0)" xlink:href="#aS"/><use transform="matrix(0.006510416666666667,0,0,0.006510416666666667,7.565104166666667,0)" xlink:href="#ax"/><use transform="matrix(0.006510416666666667,0,0,0.006510416666666667,15.559895833333334,0)" xlink:href="#ax"/><use transform="matrix(0.006510416666666667,0,0,0.006510416666666667,23.5546875,0)" xlink:href="#au"/></g><path d="M789 20c-398 0-667-293-667-764 0-473 273-766 655-766 315 0 558 198 612 487h-196c-61-191-204-311-415-311-262 0-471 207-471 590 0 380 208 588 482 588 249 0 420-165 425-427H828v-166h572v163c0 370-256 606-611 606" id="aT"/><path d="M409 0L70-1118h191c89 329 165 560 243 925 75-353 154-601 240-925h192c85 325 161 564 235 922 77-354 157-598 244-922h191L1267 0h-179c-86-307-176-590-250-913C763-588 675-308 588 0H409" id="aU"/><path d="M140 405l46-156c120 36 205 19 263-150l32-93L54-1118h197c107 313 237 620 324 950 87-331 219-637 326-950h196L606 167c-68 178-176 259-334 259-64 0-113-12-132-21" id="aV"/><g id="m"><use transform="matrix(0.006510416666666667,0,0,0.006510416666666667,0,0)" xlink:href="#aT"/><use transform="matrix(0.006510416666666667,0,0,0.006510416666666667,9.947916666666668,0)" xlink:href="#av"/><use transform="matrix(0.006510416666666667,0,0,0.006510416666666667,17.434895833333336,0)" xlink:href="#as"/><use transform="matrix(0.006510416666666667,0,0,0.006510416666666667,21.66666666666667,0)" xlink:href="#aq"/><use transform="matrix(0.006510416666666667,0,0,0.006510416666666667,29.19921875,0)" xlink:href="#aU"/><use transform="matrix(0.006510416666666667,0,0,0.006510416666666667,40.110677083333336,0)" xlink:href="#av"/><use transform="matrix(0.006510416666666667,0,0,0.006510416666666667,47.40234375,0)" xlink:href="#aV"/></g><path d="M135 0v-1490h591c327 0 492 160 492 383 0 177-115 286-268 320v15c168 8 326 140 326 361 0 236-176 411-512 411H135zm305-251h264c179 0 258-76 258-189 0-125-97-215-250-215H440v404zm0-613h241c131 0 228-74 228-194 0-109-79-183-222-183H440v377" id="aW"/><path d="M513 14c-232 0-385-159-385-421v-711h300v659c0 139 76 222 202 222 127 0 217-86 217-234v-647h301V0H864l-4-232C797-74 683 14 513 14" id="aX"/><path d="M572 22C302 22 117-98 78-306l279-48c29 105 101 156 224 156 114 0 185-48 185-115 0-118-228-130-337-155-215-49-322-150-322-317 0-215 187-347 470-347 265 0 424 116 466 298l-266 47c-24-76-87-130-196-130-98 0-174 46-174 113 0 56 38 95 144 117l201 40c216 44 320 143 320 302 0 220-207 367-500 367" id="aY"/><path d="M128 0v-1118h300V0H128zm150-1264c-91 0-165-68-165-154 0-85 74-154 165-154 90 0 165 69 165 154 0 86-75 154-165 154" id="aZ"/><path d="M428-647V0H128v-1118h283l4 231c63-156 176-245 348-245 232 0 384 159 384 421V0H847v-659c0-139-76-222-202-222-128 0-217 86-217 234" id="ba"/><g id="n"><use transform="matrix(0.006510416666666667,0,0,0.006510416666666667,0,0)" xlink:href="#aW"/><use transform="matrix(0.006510416666666667,0,0,0.006510416666666667,8.821614583333334,0)" xlink:href="#aX"/><use transform="matrix(0.006510416666666667,0,0,0.006510416666666667,17.122395833333336,0)" xlink:href="#aY"/><use transform="matrix(0.006510416666666667,0,0,0.006510416666666667,24.589843750000004,0)" xlink:href="#aZ"/><use transform="matrix(0.006510416666666667,0,0,0.006510416666666667,28.203125,0)" xlink:href="#ba"/><use transform="matrix(0.006510416666666667,0,0,0.006510416666666667,36.50390625,0)" xlink:href="#aL"/><use transform="matrix(0.006510416666666667,0,0,0.006510416666666667,44.446614583333336,0)" xlink:href="#aY"/><use transform="matrix(0.006510416666666667,0,0,0.006510416666666667,51.9140625,0)" xlink:href="#aY"/></g><path d="M75-1237v-253h1217v253H837V0H531v-1237H75" id="bb"/><path d="M628 22C291 22 81-210 81-554c0-346 210-578 547-578 265 0 455 142 497 372l-279 52c-25-116-99-188-215-188-160 0-244 139-244 341 0 200 84 341 244 341 116 0 193-74 217-195l279 51C1085-123 896 22 628 22" id="bc"/><path d="M428-647V0H128v-1490h294v586c65-146 175-228 341-228 232 0 385 159 385 421V0H847v-659c0-139-76-222-202-222-128 0-217 86-217 234" id="bd"/><path d="M628 22C291 22 81-210 81-554c0-346 210-578 547-578 336 0 547 232 547 578 0 344-211 576-547 576zm0-236c160 0 242-146 242-341 0-197-82-341-242-341S387-753 387-555c0 195 81 341 241 341" id="be"/><path d="M428-1490V0H128v-1490h300" id="bf"/><path d="M625 442c-280 0-454-114-503-274l258-72c28 63 97 128 243 128 153 0 246-69 246-216v-206h-23C805-108 717-16 536-16 284-16 81-191 81-561c0-378 208-571 456-571 188 0 280 113 321 202h13v-188h295V-9c0 303-226 451-541 451zm5-686c153 0 240-119 240-319 0-198-86-329-240-329-158 0-241 137-241 329 0 195 85 319 241 319" id="bg"/><g id="o"><use transform="matrix(0.006510416666666667,0,0,0.006510416666666667,0,0)" xlink:href="#bb"/><use transform="matrix(0.006510416666666667,0,0,0.006510416666666667,7.858072916666667,0)" xlink:href="#aL"/><use transform="matrix(0.006510416666666667,0,0,0.006510416666666667,15.80078125,0)" xlink:href="#bc"/><use transform="matrix(0.006510416666666667,0,0,0.006510416666666667,23.645833333333336,0)" xlink:href="#bd"/><use transform="matrix(0.006510416666666667,0,0,0.006510416666666667,31.946614583333336,0)" xlink:href="#ba"/><use transform="matrix(0.006510416666666667,0,0,0.006510416666666667,40.247395833333336,0)" xlink:href="#be"/><use transform="matrix(0.006510416666666667,0,0,0.006510416666666667,48.42447916666667,0)" xlink:href="#bf"/><use transform="matrix(0.006510416666666667,0,0,0.006510416666666667,52.03776041666667,0)" xlink:href="#be"/><use transform="matrix(0.006510416666666667,0,0,0.006510416666666667,60.21484375,0)" xlink:href="#bg"/><use transform="matrix(0.006510416666666667,0,0,0.006510416666666667,68.63932291666667,0)" xlink:href="#aK"/></g><path d="M135 0v-1490h581c339 0 533 210 533 503 0 295-197 500-540 500H440V0H135zm305-733h220c186 0 274-104 274-254s-88-251-275-251H440v505" id="bh"/><path d="M750-1118v229H516V0H217v-889H20v-229h197v-86c0-238 156-356 363-356 94 0 178 20 215 31l-54 226c-25-7-61-15-100-15-123-3-131 84-125 200h234" id="bi"/><path d="M128 0v-1118h278l12 217c60-163 185-234 319-234 143 0 236 81 288 251 63-172 205-251 359-251 205 0 357 138 357 381V0h-301v-697c0-126-76-187-177-187-114 0-184 79-184 196V0H789v-705c0-109-72-179-174-179-106 0-187 74-187 208V0H128" id="bj"/><g id="p"><use transform="matrix(0.006510416666666667,0,0,0.006510416666666667,0,0)" xlink:href="#bh"/><use transform="matrix(0.006510416666666667,0,0,0.006510416666666667,8.639322916666668,0)" xlink:href="#bf"/><use transform="matrix(0.006510416666666667,0,0,0.006510416666666667,12.252604166666668,0)" xlink:href="#aH"/><use transform="matrix(0.006510416666666667,0,0,0.006510416666666667,19.993489583333336,0)" xlink:href="#aI"/><use transform="matrix(0.006510416666666667,0,0,0.006510416666666667,24.446614583333336,0)" xlink:href="#bi"/><use transform="matrix(0.006510416666666667,0,0,0.006510416666666667,29.466145833333336,0)" xlink:href="#be"/><use transform="matrix(0.006510416666666667,0,0,0.006510416666666667,37.64322916666667,0)" xlink:href="#aM"/><use transform="matrix(0.006510416666666667,0,0,0.006510416666666667,43.17057291666667,0)" xlink:href="#bj"/></g><g id="q"><use transform="matrix(0.006510416666666667,0,0,0.006510416666666667,0,0)" xlink:href="#aO"/><use transform="matrix(0.006510416666666667,0,0,0.006510416666666667,7.610677083333334,0)" xlink:href="#ax"/><use transform="matrix(0.006510416666666667,0,0,0.006510416666666667,15.60546875,0)" xlink:href="#aP"/><use transform="matrix(0.006510416666666667,0,0,0.006510416666666667,23.489583333333336,0)" xlink:href="#au"/><use transform="matrix(0.006510416666666667,0,0,0.006510416666666667,26.71875,0)" xlink:href="#aq"/></g><path d="M577 24c-279 0-473-224-473-580 0-354 195-576 474-576 218 0 287 134 324 193h14v-551h180V0H922v-173h-20C865-111 790 24 577 24zm27-161c203 0 314-172 314-421 0-247-108-413-314-413-212 0-317 181-317 413 0 235 108 421 317 421" id="bk"/><g id="r"><use transform="matrix(0.006510416666666667,0,0,0.006510416666666667,0,0)" xlink:href="#aC"/><use transform="matrix(0.006510416666666667,0,0,0.006510416666666667,8.5546875,0)" xlink:href="#as"/><use transform="matrix(0.006510416666666667,0,0,0.006510416666666667,12.916666666666668,0)" xlink:href="#aP"/><use transform="matrix(0.006510416666666667,0,0,0.006510416666666667,20.80078125,0)" xlink:href="#bk"/><use transform="matrix(0.006510416666666667,0,0,0.006510416666666667,28.96484375,0)" xlink:href="#aE"/><use transform="matrix(0.006510416666666667,0,0,0.006510416666666667,32.194010416666664,0)" xlink:href="#ax"/></g><path d="M645 0H180v-1490h484c435 0 692 280 692 742 0 466-257 748-711 748zM370-168h263c363 0 539-218 539-580 0-358-176-574-521-574H370v1154" id="bl"/><path d="M798-719v166H144v-166h654" id="bm"/><g id="s"><use transform="matrix(0.006510416666666667,0,0,0.006510416666666667,0,0)" xlink:href="#bl"/><use transform="matrix(0.006510416666666667,0,0,0.006510416666666667,9.622395833333334,0)" xlink:href="#aq"/><use transform="matrix(0.006510416666666667,0,0,0.006510416666666667,17.395833333333336,0)" xlink:href="#aA"/><use transform="matrix(0.006510416666666667,0,0,0.006510416666666667,24.433593750000004,0)" xlink:href="#aE"/><use transform="matrix(0.006510416666666667,0,0,0.006510416666666667,27.662760416666675,0)" xlink:href="#ap"/><use transform="matrix(0.006510416666666667,0,0,0.006510416666666667,35.83984375000001,0)" xlink:href="#ar"/><use transform="matrix(0.006510416666666667,0,0,0.006510416666666667,43.71744791666667,0)" xlink:href="#bm"/><use transform="matrix(0.006510416666666667,0,0,0.006510416666666667,48.86718750000001,0)" xlink:href="#aS"/><use transform="matrix(0.006510416666666667,0,0,0.006510416666666667,57.47395833333335,0)" xlink:href="#aE"/><use transform="matrix(0.006510416666666667,0,0,0.006510416666666667,60.703125,0)" xlink:href="#az"/><use transform="matrix(0.006510416666666667,0,0,0.006510416666666667,72.3828125,0)" xlink:href="#aq"/></g><path d="M49 0l509-1490h400L1480 0h-339l-115-346H497L386 0H49zm524-585h374c-75-213-124-402-192-666-66 268-110 453-182 666" id="bn"/><path d="M440-1490V0H135v-1490h305" id="bo"/><g id="t"><use transform="matrix(0.006510416666666667,0,0,0.006510416666666667,0,0)" xlink:href="#bn"/><use transform="matrix(0.006510416666666667,0,0,0.006510416666666667,9.954427083333334,0)" xlink:href="#bo"/></g><g id="u"><use transform="matrix(0.006510416666666667,0,0,0.006510416666666667,0,0)" xlink:href="#aQ"/><use transform="matrix(0.006510416666666667,0,0,0.006510416666666667,9.739583333333334,0)" xlink:href="#ax"/><use transform="matrix(0.006510416666666667,0,0,0.006510416666666667,17.734375,0)" xlink:href="#ay"/><use transform="matrix(0.006510416666666667,0,0,0.006510416666666667,22.532552083333332,0)" xlink:href="#aq"/></g><use transform="matrix(0.006510416666666667,0,0,0.006510416666666667,0,0)" xlink:href="#aR" id="v"/><g id="w"><use transform="matrix(0.006510416666666667,0,0,0.006510416666666667,0,0)" xlink:href="#aT"/><use transform="matrix(0.006510416666666667,0,0,0.006510416666666667,9.947916666666668,0)" xlink:href="#aq"/><use transform="matrix(0.006510416666666667,0,0,0.006510416666666667,17.721354166666668,0)" xlink:href="#ar"/><use transform="matrix(0.006510416666666667,0,0,0.006510416666666667,25.598958333333336,0)" xlink:href="#ao"/><use transform="matrix(0.006510416666666667,0,0,0.006510416666666667,34.798177083333336,0)" xlink:href="#aB"/></g><path d="M180 0v-1490h190v644h782v-644h190V0h-190v-678H370V0H180" id="bp"/><path d="M677 24c-213 0-288-135-325-197h-20V0H158v-1490h180v551h14c37-59 106-193 324-193 279 0 474 222 474 576 0 356-194 580-473 580zm-27-161c209 0 317-186 317-421 0-232-105-413-317-413-206 0-314 166-314 413 0 249 111 421 314 421" id="bq"/><g id="x"><use transform="matrix(0.006510416666666667,0,0,0.006510416666666667,0,0)" xlink:href="#bp"/><use transform="matrix(0.006510416666666667,0,0,0.006510416666666667,9.908854166666668,0)" xlink:href="#aP"/><use transform="matrix(0.006510416666666667,0,0,0.006510416666666667,17.79296875,0)" xlink:href="#bq"/></g><path d="M180 0v-1490h224l606 953c40 63 108 177 176 312-27-437-7-821-13-1265h190V0h-226C860-448 622-778 356-1262c27 476 11 792 15 1262H180" id="br"/><g id="y"><use transform="matrix(0.006510416666666667,0,0,0.006510416666666667,0,0)" xlink:href="#bp"/><use transform="matrix(0.006510416666666667,0,0,0.006510416666666667,9.908854166666668,0)" xlink:href="#ao"/><use transform="matrix(0.006510416666666667,0,0,0.006510416666666667,19.108072916666668,0)" xlink:href="#br"/><use transform="matrix(0.006510416666666667,0,0,0.006510416666666667,29.153645833333336,0)" xlink:href="#ao"/></g><path d="M180 0v-1490h190v1322h690V0H180" id="bs"/><g id="z"><use transform="matrix(0.006510416666666667,0,0,0.006510416666666667,0,0)" xlink:href="#at"/><use transform="matrix(0.006510416666666667,0,0,0.006510416666666667,7.532552083333334,0)" xlink:href="#ao"/><use transform="matrix(0.006510416666666667,0,0,0.006510416666666667,16.731770833333332,0)" xlink:href="#bs"/></g><g id="A"><use transform="matrix(0.006510416666666667,0,0,0.006510416666666667,0,0)" xlink:href="#ao"/><use transform="matrix(0.006510416666666667,0,0,0.006510416666666667,9.19921875,0)" xlink:href="#at"/><use transform="matrix(0.006510416666666667,0,0,0.006510416666666667,17.71484375,0)" xlink:href="#bs"/></g><path d="M180 0v-1490h190c0 262 1 526-3 784 217-279 467-523 702-784h249L716-845 1319 0h-225L585-716 370-489V0H180" id="bt"/><g id="B"><use transform="matrix(0.006510416666666667,0,0,0.006510416666666667,0,0)" xlink:href="#bt"/><use transform="matrix(0.006510416666666667,0,0,0.006510416666666667,8.958333333333334,0)" xlink:href="#ar"/><use transform="matrix(0.006510416666666667,0,0,0.006510416666666667,16.8359375,0)" xlink:href="#ax"/><use transform="matrix(0.006510416666666667,0,0,0.006510416666666667,24.58984375,0)" xlink:href="#aU"/><use transform="matrix(0.006510416666666667,0,0,0.006510416666666667,35.501302083333336,0)" xlink:href="#au"/><use transform="matrix(0.006510416666666667,0,0,0.006510416666666667,38.73046875,0)" xlink:href="#aq"/><use transform="matrix(0.006510416666666667,0,0,0.006510416666666667,46.50390625,0)" xlink:href="#bk"/><use transform="matrix(0.006510416666666667,0,0,0.006510416666666667,54.66796875,0)" xlink:href="#ap"/><use transform="matrix(0.006510416666666667,0,0,0.006510416666666667,62.845052083333336,0)" xlink:href="#aq"/></g><path d="M338-670V0H158v-1490h180v566c73-149 190-208 336-208 226 0 379 139 379 422V0H872v-695c0-172-96-275-252-275-161 0-282 109-282 300" id="bu"/><g id="C"><use transform="matrix(0.006510416666666667,0,0,0.006510416666666667,0,0)" xlink:href="#aT"/><use transform="matrix(0.006510416666666667,0,0,0.006510416666666667,9.947916666666668,0)" xlink:href="#ay"/><use transform="matrix(0.006510416666666667,0,0,0.006510416666666667,14.967447916666668,0)" xlink:href="#av"/><use transform="matrix(0.006510416666666667,0,0,0.006510416666666667,22.454427083333336,0)" xlink:href="#aN"/><use transform="matrix(0.006510416666666667,0,0,0.006510416666666667,30.618489583333336,0)" xlink:href="#bu"/></g><g id="D"><use transform="matrix(0.006510416666666667,0,0,0.006510416666666667,0,0)" xlink:href="#bn"/><use transform="matrix(0.006510416666666667,0,0,0.006510416666666667,9.6484375,0)" xlink:href="#bg"/><use transform="matrix(0.006510416666666667,0,0,0.006510416666666667,18.072916666666668,0)" xlink:href="#aL"/><use transform="matrix(0.006510416666666667,0,0,0.006510416666666667,26.015625,0)" xlink:href="#ba"/><use transform="matrix(0.006510416666666667,0,0,0.006510416666666667,34.31640625,0)" xlink:href="#aI"/></g><g id="E"><use transform="matrix(0.006510416666666667,0,0,0.006510416666666667,0,0)" xlink:href="#aQ"/><use transform="matrix(0.006510416666666667,0,0,0.006510416666666667,9.739583333333334,0)" xlink:href="#ax"/><use transform="matrix(0.006510416666666667,0,0,0.006510416666666667,17.734375,0)" xlink:href="#ar"/><use transform="matrix(0.006510416666666667,0,0,0.006510416666666667,25.611979166666668,0)" xlink:href="#as"/><use transform="matrix(0.006510416666666667,0,0,0.006510416666666667,29.84375,0)" xlink:href="#aq"/><use transform="matrix(0.006510416666666667,0,0,0.006510416666666667,37.6171875,0)" xlink:href="#ar"/><use transform="matrix(0.006510416666666667,0,0,0.006510416666666667,45.494791666666664,0)" xlink:href="#as"/><use transform="matrix(0.006510416666666667,0,0,0.006510416666666667,49.596354166666664,0)" xlink:href="#bm"/><use transform="matrix(0.006510416666666667,0,0,0.006510416666666667,55.72916666666667,0)" xlink:href="#bq"/><use transform="matrix(0.006510416666666667,0,0,0.006510416666666667,64.0234375,0)" xlink:href="#av"/><use transform="matrix(0.006510416666666667,0,0,0.006510416666666667,71.51041666666667,0)" xlink:href="#aA"/><use transform="matrix(0.006510416666666667,0,0,0.006510416666666667,78.54817708333334,0)" xlink:href="#aq"/><use transform="matrix(0.006510416666666667,0,0,0.006510416666666667,86.32161458333334,0)" xlink:href="#bk"/></g><g id="F"><use transform="matrix(0.006510416666666667,0,0,0.006510416666666667,0,0)" xlink:href="#ao"/><use transform="matrix(0.006510416666666667,0,0,0.006510416666666667,9.19921875,0)" xlink:href="#ap"/><use transform="matrix(0.006510416666666667,0,0,0.006510416666666667,17.376302083333336,0)" xlink:href="#aq"/><use transform="matrix(0.006510416666666667,0,0,0.006510416666666667,25.149739583333336,0)" xlink:href="#ar"/><use transform="matrix(0.006510416666666667,0,0,0.006510416666666667,33.02734375,0)" xlink:href="#as"/><use transform="matrix(0.006510416666666667,0,0,0.006510416666666667,37.25911458333333,0)" xlink:href="#aA"/></g><g id="G"><use transform="matrix(0.006510416666666667,0,0,0.006510416666666667,0,0)" xlink:href="#ao"/><use transform="matrix(0.006510416666666667,0,0,0.006510416666666667,9.19921875,0)" xlink:href="#ap"/><use transform="matrix(0.006510416666666667,0,0,0.006510416666666667,17.376302083333336,0)" xlink:href="#aq"/><use transform="matrix(0.006510416666666667,0,0,0.006510416666666667,25.149739583333336,0)" xlink:href="#ar"/><use transform="matrix(0.006510416666666667,0,0,0.006510416666666667,33.02734375,0)" xlink:href="#as"/><use transform="matrix(0.006510416666666667,0,0,0.006510416666666667,37.389322916666664,0)" xlink:href="#aE"/><use transform="matrix(0.006510416666666667,0,0,0.006510416666666667,40.61848958333333,0)" xlink:href="#aF"/></g><path d="M458 0L52-1490h194c108 439 233 855 324 1313 92-459 221-873 331-1313h216c110 438 234 854 330 1307 92-455 216-869 323-1307h196L1558 0h-221l-256-944c-26-95-50-200-73-331-22 122-44 223-73 331L680 0H458" id="bv"/><path d="M158 0v-1490h180v865h22l478-493h223L593-638 1096 0H865L456-523 338-412V0H158" id="bw"/><g id="H"><use transform="matrix(0.006510416666666667,0,0,0.006510416666666667,0,0)" xlink:href="#bv"/><use transform="matrix(0.006510416666666667,0,0,0.006510416666666667,12.4609375,0)" xlink:href="#ax"/><use transform="matrix(0.006510416666666667,0,0,0.006510416666666667,20.455729166666668,0)" xlink:href="#ay"/><use transform="matrix(0.006510416666666667,0,0,0.006510416666666667,25.68359375,0)" xlink:href="#bw"/><use transform="matrix(0.006510416666666667,0,0,0.006510416666666667,33.001302083333336,0)" xlink:href="#aw"/><use transform="matrix(0.006510416666666667,0,0,0.006510416666666667,37.93619791666667,0)" xlink:href="#au"/><use transform="matrix(0.006510416666666667,0,0,0.006510416666666667,41.165364583333336,0)" xlink:href="#ax"/><use transform="matrix(0.006510416666666667,0,0,0.006510416666666667,48.919270833333336,0)" xlink:href="#aU"/><use transform="matrix(0.006510416666666667,0,0,0.006510416666666667,59.83072916666667,0)" xlink:href="#aA"/></g><g id="I"><use transform="matrix(0.006510416666666667,0,0,0.006510416666666667,0,0)" xlink:href="#aS"/><use transform="matrix(0.006510416666666667,0,0,0.006510416666666667,7.565104166666667,0)" xlink:href="#ax"/><use transform="matrix(0.006510416666666667,0,0,0.006510416666666667,15.559895833333334,0)" xlink:href="#ax"/><use transform="matrix(0.006510416666666667,0,0,0.006510416666666667,23.5546875,0)" xlink:href="#au"/><use transform="matrix(0.006510416666666667,0,0,0.006510416666666667,26.783854166666668,0)" xlink:href="#aA"/></g><path fill="#979ea8" d="M548 20C257 20 65-139 95-376h192c-13 142 107 229 276 229 186 0 341-103 367-259 27-162-80-275-301-275H508l28-165h121c172 0 309-98 335-253 25-149-62-246-224-246-155 0-307 87-336 230H249c47-235 281-395 542-395 276 0 424 187 389 399-28 170-144 292-303 337l-2 12c188 31 273 172 242 358-41 246-281 424-569 424" id="bx"/><path fill="#979ea8" d="M66 0l185-1118h174l-28 172h12c78-136 219-209 411-185l-30 181c-211-47-398 67-428 250L246 0H66" id="by"/><path fill="#979ea8" d="M492 24C248 24 94-147 94-425c0-352 212-707 569-707 222 0 274 136 303 198h12l92-556h181L1004 0H829l30-173h-19C792-103 700 24 492 24zm32-161c268 0 407-295 407-549 0-175-80-285-247-285-266 0-408 283-408 536 0 174 79 298 248 298" id="bz"/><path fill="#979ea8" d="M826-719l-28 166H144l28-166h654" id="bA"/><path fill="#979ea8" d="M-4 418l255-1536h174l-30 179h9c47-68 143-193 355-193 246 0 401 170 401 447 0 348-211 709-568 709-219 0-274-140-300-202h-17l-99 596H-4zm572-555c267 0 411-296 411-543 0-170-78-291-250-291-269 0-405 284-405 542 0 177 81 292 244 292" id="bB"/><path fill="#979ea8" d="M481 24C202 24 45-202 104-557s293-575 571-575c216 0 263 132 291 193h15l29-179h181L1006 0H831l28-173h-21C788-107 693 24 481 24zm56-161c204 0 342-174 383-422s-41-412-245-412c-215 0-350 183-388 412-39 235 39 422 250 422" id="bC"/><path fill="#979ea8" d="M691-1118l-25 154H437L325-290c-17 103 16 144 108 144 23 0 63-6 94-12L538-6c-36 12-87 20-136 20-196 0-290-109-260-290l114-688H88l25-154h169l44-266h180l-44 266h229" id="bD"/><path fill="#979ea8" d="M-19 405l72-156c121 32 203 15 288-150l47-93-241-1124h188c55 313 135 616 167 950 142-329 324-636 483-950h205L486 167c-97 177-219 259-378 259-59 0-109-11-127-21" id="bE"/><path fill="#979ea8" d="M-23 359l182-567h206L115 359H-23" id="bF"/><g id="J"><use transform="matrix(0.006510416666666667,0,0,0.006510416666666667,0,0)" xlink:href="#bx"/><use transform="matrix(0.006510416666666667,0,0,0.006510416666666667,8.229166666666668,0)" xlink:href="#by"/><use transform="matrix(0.006510416666666667,0,0,0.006510416666666667,13.033854166666668,0)" xlink:href="#bz"/><use transform="matrix(0.006510416666666667,0,0,0.006510416666666667,21.204427083333336,0)" xlink:href="#bA"/><use transform="matrix(0.006510416666666667,0,0,0.006510416666666667,27.350260416666675,0)" xlink:href="#bB"/><use transform="matrix(0.006510416666666667,0,0,0.006510416666666667,35.52083333333334,0)" xlink:href="#bC"/><use transform="matrix(0.006510416666666667,0,0,0.006510416666666667,43.70442708333334,0)" xlink:href="#by"/><use transform="matrix(0.006510416666666667,0,0,0.006510416666666667,48.93880208333334,0)" xlink:href="#bD"/><use transform="matrix(0.006510416666666667,0,0,0.006510416666666667,53.57421875,0)" xlink:href="#bE"/><use transform="matrix(0.006510416666666667,0,0,0.006510416666666667,60.48177083333335,0)" xlink:href="#bF"/></g><path fill="#979ea8" d="M528 24C258 24 94-156 94-433c0-354 228-699 603-699 222 0 381 120 410 314l-176 39c-14-114-95-192-238-192-272 0-419 288-419 536 0 167 76 298 258 298 155 0 277-90 329-211l166 58C935-93 745 24 528 24" id="bG"/><path fill="#979ea8" d="M443 14C219 14 87-123 134-408l117-710h180L317-423c-28 171 49 275 206 275s300-105 332-300l110-670h181L961 0H787l35-209C722-47 590 14 443 14" id="bH"/><path fill="#979ea8" d="M451 24C217 22 71-78 61-277l174-29c11 123 90 172 219 172 161 0 280-83 297-181 11-71-30-117-135-143l-179-44c-195-48-280-153-253-316 31-186 223-314 455-314 233 4 337 107 366 275l-165 30c-18-80-65-152-204-152-138 0-256 75-272 174-13 77 32 118 158 149l162 40c195 48 278 154 252 313C904-113 708 24 451 24" id="bI"/><path fill="#979ea8" d="M528 24C258 24 94-156 94-433c0-355 229-699 603-699 270 0 436 178 436 458 0 359-234 698-605 698zm4-161c275 0 420-287 420-533 0-170-77-301-260-301-271 0-418 288-418 536 0 168 77 298 258 298" id="bJ"/><path fill="#979ea8" d="M65 0l186-1118h175l-31 195c80-148 212-215 337-215 153 0 236 96 255 228 75-143 223-228 382-228 199 0 341 131 298 390L1543 0h-181l126-756c27-162-65-218-177-218-160 0-274 111-297 250L894 0H714l128-773c21-127-57-201-174-201-136 0-277 97-307 277L245 0H65" id="bK"/><g id="K"><use transform="matrix(0.006510416666666667,0,0,0.006510416666666667,0,0)" xlink:href="#bG"/><use transform="matrix(0.006510416666666667,0,0,0.006510416666666667,7.623697916666667,0)" xlink:href="#bH"/><use transform="matrix(0.006510416666666667,0,0,0.006510416666666667,15.514322916666668,0)" xlink:href="#bI"/><use transform="matrix(0.006510416666666667,0,0,0.006510416666666667,22.545572916666668,0)" xlink:href="#bD"/><use transform="matrix(0.006510416666666667,0,0,0.006510416666666667,26.790364583333336,0)" xlink:href="#bJ"/><use transform="matrix(0.006510416666666667,0,0,0.006510416666666667,34.79166666666667,0)" xlink:href="#bK"/></g><g id="L"><use transform="matrix(0.006510416666666667,0,0,0.006510416666666667,0,0)" xlink:href="#ao"/><use transform="matrix(0.006510416666666667,0,0,0.006510416666666667,9.19921875,0)" xlink:href="#ap"/><use transform="matrix(0.006510416666666667,0,0,0.006510416666666667,17.376302083333336,0)" xlink:href="#aq"/><use transform="matrix(0.006510416666666667,0,0,0.006510416666666667,25.149739583333336,0)" xlink:href="#ar"/><use transform="matrix(0.006510416666666667,0,0,0.006510416666666667,33.02734375,0)" xlink:href="#as"/><use transform="matrix(0.006510416666666667,0,0,0.006510416666666667,37.25911458333333,0)" xlink:href="#aA"/></g><path d="M180 0v-1490h270l367 940c28 72 75 218 110 339 35-117 81-264 110-339l362-940h271V0h-187c2-448-5-837 7-1287-157 497-311 829-483 1287H842C666-458 514-784 354-1284c12 438 5 843 7 1284H180" id="bL"/><path d="M128 359l88-567h206L266 359H128" id="bM"/><g id="M"><use transform="matrix(0.006510416666666667,0,0,0.006510416666666667,0,0)" xlink:href="#bs"/><use transform="matrix(0.006510416666666667,0,0,0.006510416666666667,7.5390625,0)" xlink:href="#bs"/><use transform="matrix(0.006510416666666667,0,0,0.006510416666666667,15.078125,0)" xlink:href="#bL"/><use transform="matrix(0.006510416666666667,0,0,0.006510416666666667,27.122395833333336,0)" xlink:href="#aA"/><use transform="matrix(0.006510416666666667,0,0,0.006510416666666667,34.16015625,0)" xlink:href="#bM"/></g><g id="N"><use transform="matrix(0.006510416666666667,0,0,0.006510416666666667,0,0)" xlink:href="#aT"/><use transform="matrix(0.006510416666666667,0,0,0.006510416666666667,9.947916666666668,0)" xlink:href="#ay"/><use transform="matrix(0.006510416666666667,0,0,0.006510416666666667,14.74609375,0)" xlink:href="#ax"/><use transform="matrix(0.006510416666666667,0,0,0.006510416666666667,22.740885416666668,0)" xlink:href="#aP"/><use transform="matrix(0.006510416666666667,0,0,0.006510416666666667,30.625,0)" xlink:href="#ar"/><use transform="matrix(0.006510416666666667,0,0,0.006510416666666667,38.502604166666664,0)" xlink:href="#bk"/><use transform="matrix(0.006510416666666667,0,0,0.006510416666666667,46.666666666666664,0)" xlink:href="#aE"/><use transform="matrix(0.006510416666666667,0,0,0.006510416666666667,49.89583333333333,0)" xlink:href="#ar"/><use transform="matrix(0.006510416666666667,0,0,0.006510416666666667,57.77343749999999,0)" xlink:href="#ap"/></g><path d="M600 0L52-1490h200c166 485 304 806 458 1336 156-533 285-846 449-1336h202L819 0H600" id="bN"/><g id="O"><use transform="matrix(0.006510416666666667,0,0,0.006510416666666667,0,0)" xlink:href="#bN"/><use transform="matrix(0.006510416666666667,0,0,0.006510416666666667,8.522135416666666,0)" xlink:href="#aq"/><use transform="matrix(0.006510416666666667,0,0,0.006510416666666667,16.295572916666664,0)" xlink:href="#aF"/><use transform="matrix(0.006510416666666667,0,0,0.006510416666666667,23.912760416666664,0)" xlink:href="#as"/><use transform="matrix(0.006510416666666667,0,0,0.006510416666666667,28.14453125,0)" xlink:href="#ax"/><use transform="matrix(0.006510416666666667,0,0,0.006510416666666667,36.139322916666664,0)" xlink:href="#ay"/></g><path d="M180 0v-1490h908v168H370v486h669v168H370v500h727V0H180" id="bO"/><g id="P"><use transform="matrix(0.006510416666666667,0,0,0.006510416666666667,0,0)" xlink:href="#bO"/><use transform="matrix(0.006510416666666667,0,0,0.006510416666666667,8.014322916666668,0)" xlink:href="#ar"/><use transform="matrix(0.006510416666666667,0,0,0.006510416666666667,15.891927083333337,0)" xlink:href="#ap"/><use transform="matrix(0.006510416666666667,0,0,0.006510416666666667,24.06901041666667,0)" xlink:href="#aE"/><use transform="matrix(0.006510416666666667,0,0,0.006510416666666667,27.29817708333334,0)" xlink:href="#ar"/><use transform="matrix(0.006510416666666667,0,0,0.006510416666666667,35.17578125000001,0)" xlink:href="#aq"/></g><path d="M180 0v-1490h901v168H370v510h643v168H370V0H180" id="bP"/><g id="Q"><use transform="matrix(0.006510416666666667,0,0,0.006510416666666667,0,0)" xlink:href="#bP"/><use transform="matrix(0.006510416666666667,0,0,0.006510416666666667,7.34375,0)" xlink:href="#ax"/><use transform="matrix(0.006510416666666667,0,0,0.006510416666666667,15.338541666666668,0)" xlink:href="#aP"/><use transform="matrix(0.006510416666666667,0,0,0.006510416666666667,23.22265625,0)" xlink:href="#ar"/><use transform="matrix(0.006510416666666667,0,0,0.006510416666666667,31.100260416666668,0)" xlink:href="#bk"/><use transform="matrix(0.006510416666666667,0,0,0.006510416666666667,39.26432291666667,0)" xlink:href="#av"/><use transform="matrix(0.006510416666666667,0,0,0.006510416666666667,46.751302083333336,0)" xlink:href="#as"/><use transform="matrix(0.006510416666666667,0,0,0.006510416666666667,51.11328125,0)" xlink:href="#aE"/><use transform="matrix(0.006510416666666667,0,0,0.006510416666666667,54.34244791666667,0)" xlink:href="#ax"/><use transform="matrix(0.006510416666666667,0,0,0.006510416666666667,62.33723958333332,0)" xlink:href="#ar"/><use transform="matrix(0.006510416666666667,0,0,0.006510416666666667,70.21484375,0)" xlink:href="#av"/><use transform="matrix(0.006510416666666667,0,0,0.006510416666666667,77.70182291666667,0)" xlink:href="#au"/></g><g id="R"><use transform="matrix(0.006510416666666667,0,0,0.006510416666666667,0,0)" xlink:href="#bL"/><use transform="matrix(0.006510416666666667,0,0,0.006510416666666667,12.044270833333334,0)" xlink:href="#ax"/><use transform="matrix(0.006510416666666667,0,0,0.006510416666666667,20.0390625,0)" xlink:href="#bk"/><use transform="matrix(0.006510416666666667,0,0,0.006510416666666667,28.203125,0)" xlink:href="#aq"/><use transform="matrix(0.006510416666666667,0,0,0.006510416666666667,35.9765625,0)" xlink:href="#au"/><use transform="matrix(0.006510416666666667,0,0,0.006510416666666667,39.205729166666664,0)" xlink:href="#aA"/></g><path d="M218-607c0-325 108-727 258-974h175c-155 315-250 682-250 974 0 265 78 531 250 886H476C306-10 218-315 218-607" id="bQ"/><path d="M295 13c-75 0-135-60-135-135s60-135 135-135 135 60 135 135S370 13 295 13" id="bR"/><g id="S"><use transform="matrix(0.006510416666666667,0,0,0.006510416666666667,0,0)" xlink:href="#bQ"/><use transform="matrix(0.006510416666666667,0,0,0.006510416666666667,4.713541666666667,0)" xlink:href="#aq"/><use transform="matrix(0.006510416666666667,0,0,0.006510416666666667,12.486979166666668,0)" xlink:href="#bR"/><use transform="matrix(0.006510416666666667,0,0,0.006510416666666667,16.328125,0)" xlink:href="#ap"/><use transform="matrix(0.006510416666666667,0,0,0.006510416666666667,24.505208333333336,0)" xlink:href="#bR"/></g><path d="M180 0v-1490h510c348 0 508 194 508 460 0 198-88 351-276 417L1256 0h-220L726-579c-117 2-238 0-356 1V0H180zm190-747h312c235 0 327-108 327-283 0-177-92-293-329-293H370v576" id="bS"/><path d="M653-1490V0H466v-1314h-10L96-1047v-204l324-239h233" id="bT"/><path d="M96 279C273-86 346-350 346-607c0-292-95-659-250-974h175c150 246 258 650 258 974 0 297-91 602-258 886H96" id="bU"/><g id="T"><use transform="matrix(0.006510416666666667,0,0,0.006510416666666667,0,0)" xlink:href="#bS"/><use transform="matrix(0.006510416666666667,0,0,0.006510416666666667,8.580729166666668,0)" xlink:href="#at"/><use transform="matrix(0.006510416666666667,0,0,0.006510416666666667,17.096354166666668,0)" xlink:href="#aS"/><use transform="matrix(0.006510416666666667,0,0,0.006510416666666667,24.720052083333336,0)" xlink:href="#bm"/><use transform="matrix(0.006510416666666667,0,0,0.006510416666666667,30.852864583333336,0)" xlink:href="#bT"/><use transform="matrix(0.006510416666666667,0,0,0.006510416666666667,36.27604166666667,0)" xlink:href="#bU"/></g><g id="U"><use transform="matrix(0.006510416666666667,0,0,0.006510416666666667,0,0)" xlink:href="#aQ"/><use transform="matrix(0.006510416666666667,0,0,0.006510416666666667,9.739583333333334,0)" xlink:href="#aP"/><use transform="matrix(0.006510416666666667,0,0,0.006510416666666667,17.623697916666668,0)" xlink:href="#aA"/><use transform="matrix(0.006510416666666667,0,0,0.006510416666666667,24.661458333333336,0)" xlink:href="#as"/><use transform="matrix(0.006510416666666667,0,0,0.006510416666666667,28.893229166666675,0)" xlink:href="#ax"/><use transform="matrix(0.006510416666666667,0,0,0.006510416666666667,36.888020833333336,0)" xlink:href="#az"/><use transform="matrix(0.006510416666666667,0,0,0.006510416666666667,48.567708333333336,0)" xlink:href="#aq"/><use transform="matrix(0.006510416666666667,0,0,0.006510416666666667,56.341145833333336,0)" xlink:href="#ay"/></g><g id="V"><use transform="matrix(0.006510416666666667,0,0,0.006510416666666667,0,0)" xlink:href="#av"/><use transform="matrix(0.006510416666666667,0,0,0.006510416666666667,7.486979166666667,0)" xlink:href="#ar"/><use transform="matrix(0.006510416666666667,0,0,0.006510416666666667,15.364583333333334,0)" xlink:href="#bk"/></g><g id="W"><use transform="matrix(0.006510416666666667,0,0,0.006510416666666667,0,0)" xlink:href="#at"/><use transform="matrix(0.006510416666666667,0,0,0.006510416666666667,8.515625,0)" xlink:href="#av"/><use transform="matrix(0.006510416666666667,0,0,0.006510416666666667,16.002604166666668,0)" xlink:href="#ay"/><use transform="matrix(0.006510416666666667,0,0,0.006510416666666667,21.23046875,0)" xlink:href="#as"/><use transform="matrix(0.006510416666666667,0,0,0.006510416666666667,25.592447916666668,0)" xlink:href="#ar"/><use transform="matrix(0.006510416666666667,0,0,0.006510416666666667,33.470052083333336,0)" xlink:href="#aq"/><use transform="matrix(0.006510416666666667,0,0,0.006510416666666667,41.243489583333336,0)" xlink:href="#ay"/></g><g id="X"><use transform="matrix(0.006510416666666667,0,0,0.006510416666666667,0,0)" xlink:href="#ao"/><use transform="matrix(0.006510416666666667,0,0,0.006510416666666667,9.19921875,0)" xlink:href="#aN"/><use transform="matrix(0.006510416666666667,0,0,0.006510416666666667,17.36328125,0)" xlink:href="#aN"/><use transform="matrix(0.006510416666666667,0,0,0.006510416666666667,25.52734375,0)" xlink:href="#aA"/></g><g id="Y"><use transform="matrix(0.006510416666666667,0,0,0.006510416666666667,0,0)" xlink:href="#aQ"/><use transform="matrix(0.006510416666666667,0,0,0.006510416666666667,9.739583333333334,0)" xlink:href="#ax"/><use transform="matrix(0.006510416666666667,0,0,0.006510416666666667,17.734375,0)" xlink:href="#bk"/><use transform="matrix(0.006510416666666667,0,0,0.006510416666666667,25.8984375,0)" xlink:href="#aq"/><use transform="matrix(0.006510416666666667,0,0,0.006510416666666667,33.671875,0)" xlink:href="#bm"/><use transform="matrix(0.006510416666666667,0,0,0.006510416666666667,39.8046875,0)" xlink:href="#bq"/><use transform="matrix(0.006510416666666667,0,0,0.006510416666666667,48.098958333333336,0)" xlink:href="#av"/><use transform="matrix(0.006510416666666667,0,0,0.006510416666666667,55.5859375,0)" xlink:href="#aA"/><use transform="matrix(0.006510416666666667,0,0,0.006510416666666667,62.62369791666667,0)" xlink:href="#aq"/><use transform="matrix(0.006510416666666667,0,0,0.006510416666666667,70.39713541666666,0)" xlink:href="#bk"/></g><g id="Z"><use transform="matrix(0.005425347222222222,0,0,0.005425347222222222,0,0)" xlink:href="#aQ"/><use transform="matrix(0.005425347222222222,0,0,0.005425347222222222,8.116319444444445,0)" xlink:href="#aq"/><use transform="matrix(0.005425347222222222,0,0,0.005425347222222222,14.59418402777778,0)" xlink:href="#ar"/><use transform="matrix(0.005425347222222222,0,0,0.005425347222222222,21.158854166666668,0)" xlink:href="#as"/><use transform="matrix(0.005425347222222222,0,0,0.005425347222222222,24.793836805555554,0)" xlink:href="#ay"/><use transform="matrix(0.005425347222222222,0,0,0.005425347222222222,28.97677951388889,0)" xlink:href="#av"/><use transform="matrix(0.005425347222222222,0,0,0.005425347222222222,35.21592881944444,0)" xlink:href="#au"/></g><path d="M784 20c-382 0-662-292-662-764 0-473 280-766 662-766s660 293 660 766c0 472-278 764-660 764zm0-176c266 0 475-207 475-588 0-383-209-590-475-590-268 0-477 208-477 590 0 380 209 588 477 588" id="bV"/><g id="aa"><use transform="matrix(0.005425347222222222,0,0,0.005425347222222222,0,0)" xlink:href="#bV"/><use transform="matrix(0.005425347222222222,0,0,0.005425347222222222,8.49609375,0)" xlink:href="#ay"/><use transform="matrix(0.005425347222222222,0,0,0.005425347222222222,12.494574652777777,0)" xlink:href="#aF"/><use transform="matrix(0.005425347222222222,0,0,0.005425347222222222,18.84223090277778,0)" xlink:href="#bu"/><use transform="matrix(0.005425347222222222,0,0,0.005425347222222222,25.41232638888889,0)" xlink:href="#aq"/><use transform="matrix(0.005425347222222222,0,0,0.005425347222222222,31.89019097222222,0)" xlink:href="#aA"/><use transform="matrix(0.005425347222222222,0,0,0.005425347222222222,37.75499131944444,0)" xlink:href="#as"/><use transform="matrix(0.005425347222222222,0,0,0.005425347222222222,41.38997395833333,0)" xlink:href="#ay"/><use transform="matrix(0.005425347222222222,0,0,0.005425347222222222,45.572916666666664,0)" xlink:href="#av"/><use transform="matrix(0.005425347222222222,0,0,0.005425347222222222,51.81206597222222,0)" xlink:href="#as"/><use transform="matrix(0.005425347222222222,0,0,0.005425347222222222,55.338541666666664,0)" xlink:href="#ax"/><use transform="matrix(0.005425347222222222,0,0,0.005425347222222222,62.00086805555555,0)" xlink:href="#ay"/></g><path d="M567 20C257 20 68-148 68-448v-87h305v92c0 143 75 217 194 217s193-74 193-218v-1046h302v1041c0 301-188 469-495 469" id="bW"/><g id="ab"><use transform="matrix(0.006510416666666667,0,0,0.006510416666666667,0,0)" xlink:href="#bW"/><use transform="matrix(0.006510416666666667,0,0,0.006510416666666667,7.79296875,0)" xlink:href="#be"/><use transform="matrix(0.006510416666666667,0,0,0.006510416666666667,15.970052083333334,0)" xlink:href="#aX"/><use transform="matrix(0.006510416666666667,0,0,0.006510416666666667,24.270833333333336,0)" xlink:href="#bf"/><use transform="matrix(0.006510416666666667,0,0,0.006510416666666667,27.884114583333336,0)" xlink:href="#aL"/></g><g id="ac"><use transform="matrix(0.006510416666666667,0,0,0.006510416666666667,0,0)" xlink:href="#aS"/><use transform="matrix(0.006510416666666667,0,0,0.006510416666666667,7.565104166666667,0)" xlink:href="#ax"/><use transform="matrix(0.006510416666666667,0,0,0.006510416666666667,15.559895833333334,0)" xlink:href="#ax"/><use transform="matrix(0.006510416666666667,0,0,0.006510416666666667,23.5546875,0)" xlink:href="#au"/><use transform="matrix(0.006510416666666667,0,0,0.006510416666666667,26.783854166666668,0)" xlink:href="#aA"/></g><g id="ad"><use transform="matrix(0.006510416666666667,0,0,0.006510416666666667,0,0)" xlink:href="#br"/><use transform="matrix(0.006510416666666667,0,0,0.006510416666666667,10.045572916666668,0)" xlink:href="#ax"/><use transform="matrix(0.006510416666666667,0,0,0.006510416666666667,18.040364583333336,0)" xlink:href="#ar"/><use transform="matrix(0.006510416666666667,0,0,0.006510416666666667,25.917968750000004,0)" xlink:href="#bm"/><use transform="matrix(0.006510416666666667,0,0,0.006510416666666667,32.05078125,0)" xlink:href="#aC"/><use transform="matrix(0.006510416666666667,0,0,0.006510416666666667,40.60546875,0)" xlink:href="#ao"/><use transform="matrix(0.006510416666666667,0,0,0.006510416666666667,49.8046875,0)" xlink:href="#at"/></g><path d="M180 0v-1490h528c311 0 458 177 458 395 0 191-114 278-244 313v14c139 9 302 137 302 371 0 225-148 397-499 397H180zm190-168h350c232 0 321-102 321-231 0-149-120-277-311-277H370v508zm0-668h328c160 0 286-101 286-255 0-129-87-231-280-231H370v486" id="bX"/><g id="ae"><use transform="matrix(0.006510416666666667,0,0,0.006510416666666667,0,0)" xlink:href="#bX"/><use transform="matrix(0.006510416666666667,0,0,0.006510416666666667,8.723958333333334,0)" xlink:href="#aP"/><use transform="matrix(0.006510416666666667,0,0,0.006510416666666667,16.608072916666668,0)" xlink:href="#aA"/><use transform="matrix(0.006510416666666667,0,0,0.006510416666666667,23.645833333333336,0)" xlink:href="#aE"/><use transform="matrix(0.006510416666666667,0,0,0.006510416666666667,26.875,0)" xlink:href="#ar"/><use transform="matrix(0.006510416666666667,0,0,0.006510416666666667,34.75260416666667,0)" xlink:href="#aq"/><use transform="matrix(0.006510416666666667,0,0,0.006510416666666667,42.52604166666667,0)" xlink:href="#aA"/><use transform="matrix(0.006510416666666667,0,0,0.006510416666666667,49.563802083333336,0)" xlink:href="#aA"/></g><g id="af"><use transform="matrix(0.006510416666666667,0,0,0.006510416666666667,0,0)" xlink:href="#bl"/><use transform="matrix(0.006510416666666667,0,0,0.006510416666666667,9.622395833333334,0)" xlink:href="#av"/><use transform="matrix(0.006510416666666667,0,0,0.006510416666666667,17.109375,0)" xlink:href="#as"/><use transform="matrix(0.006510416666666667,0,0,0.006510416666666667,21.536458333333336,0)" xlink:href="#av"/></g><g id="ag"><use transform="matrix(0.006510416666666667,0,0,0.006510416666666667,0,0)" xlink:href="#aQ"/><use transform="matrix(0.006510416666666667,0,0,0.006510416666666667,9.739583333333334,0)" xlink:href="#au"/><use transform="matrix(0.006510416666666667,0,0,0.006510416666666667,12.96875,0)" xlink:href="#ax"/><use transform="matrix(0.006510416666666667,0,0,0.006510416666666667,20.963541666666668,0)" xlink:href="#aP"/><use transform="matrix(0.006510416666666667,0,0,0.006510416666666667,28.84765625,0)" xlink:href="#bk"/></g><g id="ah"><use transform="matrix(0.006510416666666667,0,0,0.006510416666666667,0,0)" xlink:href="#aQ"/><use transform="matrix(0.006510416666666667,0,0,0.006510416666666667,9.739583333333334,0)" xlink:href="#au"/><use transform="matrix(0.006510416666666667,0,0,0.006510416666666667,12.96875,0)" xlink:href="#ax"/><use transform="matrix(0.006510416666666667,0,0,0.006510416666666667,20.963541666666668,0)" xlink:href="#aP"/><use transform="matrix(0.006510416666666667,0,0,0.006510416666666667,28.84765625,0)" xlink:href="#bk"/></g><g id="ai"><use transform="matrix(0.006510416666666667,0,0,0.006510416666666667,0,0)" xlink:href="#bQ"/><use transform="matrix(0.006510416666666667,0,0,0.006510416666666667,4.86328125,0)" xlink:href="#aE"/><use transform="matrix(0.006510416666666667,0,0,0.006510416666666667,8.092447916666668,0)" xlink:href="#ar"/><use transform="matrix(0.006510416666666667,0,0,0.006510416666666667,15.970052083333337,0)" xlink:href="#aF"/><use transform="matrix(0.006510416666666667,0,0,0.006510416666666667,23.587239583333336,0)" xlink:href="#au"/><use transform="matrix(0.006510416666666667,0,0,0.006510416666666667,26.81640625,0)" xlink:href="#bR"/></g><g id="aj"><use transform="matrix(0.006510416666666667,0,0,0.006510416666666667,0,0)" xlink:href="#av"/><use transform="matrix(0.006510416666666667,0,0,0.006510416666666667,7.486979166666667,0)" xlink:href="#ar"/><use transform="matrix(0.006510416666666667,0,0,0.006510416666666667,15.364583333333334,0)" xlink:href="#bk"/></g><g id="ak"><use transform="matrix(0.006510416666666667,0,0,0.006510416666666667,0,0)" xlink:href="#bt"/><use transform="matrix(0.006510416666666667,0,0,0.006510416666666667,8.958333333333334,0)" xlink:href="#ar"/><use transform="matrix(0.006510416666666667,0,0,0.006510416666666667,16.8359375,0)" xlink:href="#ax"/><use transform="matrix(0.006510416666666667,0,0,0.006510416666666667,24.58984375,0)" xlink:href="#aU"/><use transform="matrix(0.006510416666666667,0,0,0.006510416666666667,35.501302083333336,0)" xlink:href="#au"/><use transform="matrix(0.006510416666666667,0,0,0.006510416666666667,38.73046875,0)" xlink:href="#aq"/><use transform="matrix(0.006510416666666667,0,0,0.006510416666666667,46.50390625,0)" xlink:href="#bk"/><use transform="matrix(0.006510416666666667,0,0,0.006510416666666667,54.66796875,0)" xlink:href="#ap"/><use transform="matrix(0.006510416666666667,0,0,0.006510416666666667,62.845052083333336,0)" xlink:href="#aq"/></g><g id="al"><use transform="matrix(0.006510416666666667,0,0,0.006510416666666667,0,0)" xlink:href="#aT"/><use transform="matrix(0.006510416666666667,0,0,0.006510416666666667,9.947916666666668,0)" xlink:href="#ay"/><use transform="matrix(0.006510416666666667,0,0,0.006510416666666667,14.967447916666668,0)" xlink:href="#av"/><use transform="matrix(0.006510416666666667,0,0,0.006510416666666667,22.454427083333336,0)" xlink:href="#aN"/><use transform="matrix(0.006510416666666667,0,0,0.006510416666666667,30.618489583333336,0)" xlink:href="#bu"/></g><g id="am"><use transform="matrix(0.006510416666666667,0,0,0.006510416666666667,0,0)" xlink:href="#bO"/><use transform="matrix(0.006510416666666667,0,0,0.006510416666666667,8.014322916666668,0)" xlink:href="#ar"/><use transform="matrix(0.006510416666666667,0,0,0.006510416666666667,15.891927083333337,0)" xlink:href="#ap"/><use transform="matrix(0.006510416666666667,0,0,0.006510416666666667,24.06901041666667,0)" xlink:href="#aE"/><use transform="matrix(0.006510416666666667,0,0,0.006510416666666667,27.29817708333334,0)" xlink:href="#ar"/><use transform="matrix(0.006510416666666667,0,0,0.006510416666666667,35.17578125000001,0)" xlink:href="#aq"/><use transform="matrix(0.006510416666666667,0,0,0.006510416666666667,42.79947916666667,0)" xlink:href="#bU"/></g><path fill="#333" d="M180 0v-1490h510c348 0 508 194 508 460 0 198-88 351-276 417L1256 0h-220L726-579c-117 2-238 0-356 1V0H180zm190-747h312c235 0 327-108 327-283 0-177-92-293-329-293H370v576" id="bY"/><use transform="matrix(0.005425347222222222,0,0,0.005425347222222222,0,0)" xlink:href="#bY" id="an"/></defs></g></svg>