<?xml version="1.0" encoding="UTF-8"?>
<!-- Generated by Pixelmator Pro 3.6.14 -->
<svg width="1400" height="700" viewBox="0 0 1400 700" xmlns="http://www.w3.org/2000/svg">
    <g id="Group">
        <path id="Rounded-Rectangle-copy-5" fill="#0070f2" fill-rule="evenodd" stroke="none" d="M 56 592.666687 C 56 608.130615 68.536026 620.666687 84 620.666687 L 907.666687 620.666687 C 923.130615 620.666687 935.666687 608.130615 935.666687 592.666687 L 935.666687 88.666687 C 935.666687 73.202698 923.130615 60.666687 907.666687 60.666687 L 84 60.666687 C 68.536026 60.666687 56 73.202698 56 88.666687 Z"/>
        <path id="Rounded-Rectangle-copy-4" fill="#ebf8ff" fill-rule="evenodd" stroke="none" d="M 60.666668 590.333313 C 60.666668 604.508667 72.158028 616 86.333336 616 L 905.333313 616 C 919.508667 616 931 604.508667 931 590.333313 L 931 91 C 931 76.824707 919.508667 65.333313 905.333313 65.333313 L 86.333336 65.333313 C 72.158028 65.333313 60.666668 76.824707 60.666668 91 Z"/>
    </g>
    <g id="g1">
        <path id="Rounded-Rectangle" fill="#0070f2" fill-rule="evenodd" stroke="none" d="M 107 541 C 107 556.463989 119.536026 569 135 569 L 856 569 C 871.463989 569 884 556.463989 884 541 L 884 219 C 884 203.536041 871.463989 191 856 191 L 135 191 C 119.536026 191 107 203.536041 107 219 Z"/>
        <path id="Rounded-Rectangle-copy" fill="#ffffff" fill-rule="evenodd" stroke="none" d="M 111.666664 538.666687 C 111.666664 552.84198 123.15802 564.333313 137.333328 564.333313 L 853.666687 564.333313 C 867.84198 564.333313 879.333313 552.84198 879.333313 538.666687 L 879.333313 221.333344 C 879.333313 207.15802 867.84198 195.666656 853.666687 195.666656 L 137.333328 195.666656 C 123.15802 195.666656 111.666664 207.15802 111.666664 221.333344 Z"/>
    </g>
    <g id="g2">
        <path id="Rounded-Rectangle-copy-9" fill="#0070f2" fill-rule="evenodd" stroke="none" d="M 1082.666626 294 C 1082.666626 309.463959 1095.202759 322 1110.666626 322 L 1316 322 C 1331.463989 322 1344 309.463959 1344 294 L 1344 88.666687 C 1344 73.202698 1331.463989 60.666687 1316 60.666687 L 1110.666626 60.666687 C 1095.202759 60.666687 1082.666626 73.202698 1082.666626 88.666687 Z"/>
        <path id="Rounded-Rectangle-copy-8" fill="#ffffff" fill-rule="evenodd" stroke="none" d="M 1087.333374 291.666656 C 1087.333374 305.84198 1098.824707 317.333344 1113 317.333344 L 1313.666626 317.333344 C 1327.842041 317.333344 1339.333374 305.84198 1339.333374 291.666656 L 1339.333374 91 C 1339.333374 76.824707 1327.842041 65.333313 1313.666626 65.333313 L 1113 65.333313 C 1098.824707 65.333313 1087.333374 76.824707 1087.333374 91 Z"/>
    </g>
    <g id="g3">
        <path id="Rounded-Rectangle-copy-11" fill="#0070f2" fill-rule="evenodd" stroke="none" d="M 1083.333374 592.666687 C 1083.333374 608.130615 1095.869385 620.666687 1111.333374 620.666687 L 1316.666626 620.666687 C 1332.130737 620.666687 1344.666626 608.130615 1344.666626 592.666687 L 1344.666626 387.333344 C 1344.666626 371.869385 1332.130737 359.333344 1316.666626 359.333344 L 1111.333374 359.333344 C 1095.869385 359.333344 1083.333374 371.869385 1083.333374 387.333344 Z"/>
        <path id="Rounded-Rectangle-copy-10" fill="#ffffff" fill-rule="evenodd" stroke="none" d="M 1088 590.333313 C 1088 604.508667 1099.491333 616 1113.666626 616 L 1314.333374 616 C 1328.508667 616 1340 604.508667 1340 590.333313 L 1340 389.666656 C 1340 375.491364 1328.508667 364 1314.333374 364 L 1113.666626 364 C 1099.491333 364 1088 375.491364 1088 389.666656 Z"/>
    </g>
    <path id="Line" fill="none" stroke="#8396a8" stroke-width="7" stroke-linecap="round" stroke-linejoin="round" d="M 361.666656 340.666656 L 604.333313 340.666656"/>
    <path id="Line-copy" fill="none" stroke="#cc00dc" stroke-width="7" stroke-linecap="round" stroke-linejoin="round" d="M 774.666687 338.333344 L 996.333313 338.333344"/>
    <path id="Line-copy-3" fill="none" stroke="#cc00dc" stroke-width="7" stroke-linecap="round" stroke-linejoin="round" d="M 1038.333374 536.666687 L 1180.666626 536.666687"/>
    <path id="Line-copy-2" fill="none" stroke="#cc00dc" stroke-width="7" stroke-linecap="round" stroke-linejoin="round" d="M 1017.333313 515.666687 L 1017.333313 359.333344"/>
    <path id="Polygon" fill="#8396a8" fill-rule="evenodd" stroke="none" d="M 602.021912 325.94397 L 602.021912 354.234161 L 626.521912 340.089081 Z"/>
    <path id="Polygon-copy-2" fill="#cc00dc" fill-rule="evenodd" stroke="none" d="M 1183.021973 521.94397 L 1183.021973 550.234131 L 1207.521973 536.08905 Z"/>
    <path id="Path" fill="none" stroke="#cc00dc" stroke-width="7" stroke-linecap="round" stroke-linejoin="round" d="M 998.666687 338.333374 C 1020.279114 338.302032 1017.179321 357 1017.179321 357"/>
    <path id="Path-copy" fill="none" stroke="#cc00dc" stroke-width="7" stroke-linecap="round" stroke-linejoin="round" d="M 1036 536.666626 C 1014.387512 536.697998 1017.487366 518 1017.487366 518"/>
    <path id="path1" fill="#0070f2" fill-rule="evenodd" stroke="none" d="M 107.333336 158.666687 L 154 158.666687 L 154 109.666687 L 107.333336 109.666687 Z"/>
    <path id="path2" fill="#0070f2" fill-rule="evenodd" stroke="none" d="M 155.166672 158.666687 L 107.679604 109.666687 L 202.653717 109.666687 Z"/>
    <g id="g4">
        <path id="Rounded-Rectangle-copy-12" fill="#0070f2" fill-rule="evenodd" stroke="none" d="M 1131.666626 452.666687 L 1178.333374 452.666687 L 1178.333374 403.666656 L 1131.666626 403.666656 Z"/>
        <path id="Polygon-copy" fill="#0070f2" fill-rule="evenodd" stroke="none" d="M 1179.5 452.666687 L 1132.012939 403.666656 L 1226.987183 403.666656 Z"/>
    </g>
    <path id="path3" fill="#d1efff" fill-rule="evenodd" stroke="none" d="M 226.333328 373.333344 C 226.333328 387.508636 237.824692 399 252 399 L 322 399 C 336.175323 399 347.666656 387.508636 347.666656 373.333344 L 347.666656 303.333344 C 347.666656 289.15802 336.175323 277.666656 322 277.666656 L 252 277.666656 C 237.824692 277.666656 226.333328 289.15802 226.333328 303.333344 Z"/>
    <path id="Rounded-Rectangle-copy-14" fill="#cc00dc" fill-rule="evenodd" stroke="none" d="M 835.333313 337.166656 C 835.333313 349.408966 845.25769 359.333344 857.5 359.333344 L 955.5 359.333344 C 967.74231 359.333344 977.666687 349.408966 977.666687 337.166656 C 977.666687 324.924347 967.74231 315 955.5 315 L 857.5 315 C 845.25769 315 835.333313 324.924347 835.333313 337.166656 Z"/>
    <path id="Rounded-Rectangle-copy-3" fill="#cad4db" fill-rule="evenodd" stroke="none" d="M 212.333328 434 C 212.333328 441.731995 218.601349 448 226.333328 448 L 347.666656 448 C 355.398651 448 361.666656 441.731995 361.666656 434 C 361.666656 426.268005 355.398651 420 347.666656 420 L 226.333328 420 C 218.601349 420 212.333328 426.268005 212.333328 434 Z"/>
    <path id="Rounded-Rectangle-copy-15" fill="#cad4db" fill-rule="evenodd" stroke="none" d="M 235.666672 476 C 235.666672 483.731995 241.934692 490 249.666672 490 L 324.333344 490 C 332.065308 490 338.333344 483.731995 338.333344 476 C 338.333344 468.268005 332.065308 462 324.333344 462 L 249.666672 462 C 241.934692 462 235.666672 468.268005 235.666672 476 Z"/>
    <path id="Rounded-Rectangle-copy-16" fill="#cad4db" fill-rule="evenodd" stroke="none" d="M 648.666687 476 C 648.666687 483.731995 654.934631 490 662.666687 490 L 737.333313 490 C 745.065369 490 751.333313 483.731995 751.333313 476 C 751.333313 468.268005 745.065369 462 737.333313 462 L 662.666687 462 C 654.934631 462 648.666687 468.268005 648.666687 476 Z"/>
    <path id="Rounded-Rectangle-copy-7" fill="#8396a8" fill-rule="evenodd" stroke="none" d="M 219.333328 133 C 219.333328 140.731995 225.601349 147 233.333328 147 L 354.666656 147 C 362.398651 147 368.666656 140.731995 368.666656 133 C 368.666656 125.268005 362.398651 119 354.666656 119 L 233.333328 119 C 225.601349 119 219.333328 125.268005 219.333328 133 Z"/>
    <path id="Rounded-Rectangle-copy-13" fill="#8396a8" fill-rule="evenodd" stroke="none" d="M 1131.666626 119 C 1131.666626 126.731995 1137.934692 133 1145.666626 133 L 1267 133 C 1274.732056 133 1281 126.731995 1281 119 C 1281 111.268005 1274.732056 105 1267 105 L 1145.666626 105 C 1137.934692 105 1131.666626 111.268005 1131.666626 119 Z"/>
    <path id="Rounded-Rectangle-copy-6" fill="#cad4db" fill-rule="evenodd" stroke="none" d="M 625.333313 434 C 625.333313 441.731995 631.601318 448 639.333313 448 L 760.666687 448 C 768.398682 448 774.666687 441.731995 774.666687 434 C 774.666687 426.268005 768.398682 420 760.666687 420 L 639.333313 420 C 631.601318 420 625.333313 426.268005 625.333313 434 Z"/>
    <path id="Rounded-Rectangle-copy-2" fill="#d1efff" fill-rule="evenodd" stroke="none" d="M 639.333313 373.333344 C 639.333313 387.508636 650.824707 399 665 399 L 735 399 C 749.175293 399 760.666687 387.508636 760.666687 373.333344 L 760.666687 303.333344 C 760.666687 289.15802 749.175293 277.666656 735 277.666656 L 665 277.666656 C 650.824707 277.666656 639.333313 289.15802 639.333313 303.333344 Z"/>
    <g id="g2-copy-2">
        <path id="path4" fill="#ffffff" fill-rule="evenodd" stroke="#1155cc" stroke-width="2.795181" stroke-dasharray="11.180723 5.590361" stroke-dashoffset="0" opacity="0.798619" d="M 2.602091 697.888489 C 1.959955 697.858215 1.912172 697.938354 2.602091 697.888489 L 1396.696167 697.888489 C 1396.433472 698.083313 1396.64624 697.982788 1396.696167 697.888489 L 1396.696167 2.052856 C 1397.072754 2.031006 1396.830566 2.106262 1396.696167 2.052856 L 2.602091 2.052856 C 3.381689 1.941772 2.6747 2.037842 2.602091 2.052856 Z"/>
    </g>
    <text id="Simulated-during-dev-for" xml:space="preserve"><tspan x="442" y="353" font-family="Arial" font-size="50.4" fill="#1155cc" xml:space="preserve">Simulated during dev</tspan><tspan x="442" y="411.648828" font-family="Arial" font-size="50.4" fill="#1155cc" xml:space="preserve">for better performance</tspan></text>
</svg>
