<?xml version="1.0" encoding="UTF-8"?><svg width="1300" height="221" viewBox="0 0 1300 221" fill="none" xmlns="http://www.w3.org/2000/svg">
<g clip-path="url(#clip0_1488_76237)">
<rect width="1300" height="221" fill="#0057D2"/>
<path fill-rule="evenodd" clip-rule="evenodd" d="M1009 0V6.04941H1015.28L1021.42 0H1009Z" fill="#0040B0"/>
<path fill-rule="evenodd" clip-rule="evenodd" d="M1009 35.8252V41.8746H1015.28L1021.42 35.8252H1009Z" fill="#0040B0"/>
<path fill-rule="evenodd" clip-rule="evenodd" d="M1009 107.476V113.525H1015.28L1021.42 107.476H1009Z" fill="#0040B0"/>
<path fill-rule="evenodd" clip-rule="evenodd" d="M1058.82 0V6.04941H1065.1L1071.24 0H1058.82Z" fill="#0040B0"/>
<path fill-rule="evenodd" clip-rule="evenodd" d="M1058.82 35.8252V41.8746H1065.1L1071.24 35.8252H1058.82Z" fill="#0040B0"/>
<path fill-rule="evenodd" clip-rule="evenodd" d="M1058.82 107.476V113.525H1065.1L1071.24 107.476H1058.82Z" fill="#0040B0"/>
<path fill-rule="evenodd" clip-rule="evenodd" d="M1009 71.6504V77.6998H1015.28L1021.42 71.6504H1009Z" fill="#0040B0"/>
<path fill-rule="evenodd" clip-rule="evenodd" d="M1009 143.301V149.35H1015.28L1021.42 143.301H1009Z" fill="#0040B0"/>
<path fill-rule="evenodd" clip-rule="evenodd" d="M1009 179.126V185.175H1015.28L1021.42 179.126H1009Z" fill="#0040B0"/>
<path fill-rule="evenodd" clip-rule="evenodd" d="M1058.82 143.301V149.35H1065.1L1071.24 143.301H1058.82Z" fill="#0040B0"/>
<path fill-rule="evenodd" clip-rule="evenodd" d="M1058.82 179.126V185.175H1065.1L1071.24 179.126H1058.82Z" fill="#0040B0"/>
<path fill-rule="evenodd" clip-rule="evenodd" d="M1058.82 71.6504V77.6998H1065.1L1071.24 71.6504H1058.82Z" fill="#0040B0"/>
<path fill-rule="evenodd" clip-rule="evenodd" d="M1009 214.951V221.001H1015.28L1021.42 214.951H1009Z" fill="#0040B0"/>
<path fill-rule="evenodd" clip-rule="evenodd" d="M1058.82 214.951V221.001H1065.1L1071.24 214.951H1058.82Z" fill="#0040B0"/>
<path fill-rule="evenodd" clip-rule="evenodd" d="M1108.64 143.301V149.35H1114.92L1121.06 143.301H1108.64Z" fill="#0040B0"/>
<path fill-rule="evenodd" clip-rule="evenodd" d="M1108.64 179.126V185.175H1114.92L1121.06 179.126H1108.64Z" fill="#0040B0"/>
<path fill-rule="evenodd" clip-rule="evenodd" d="M1108.64 0V6.04941H1114.92L1121.06 0H1108.64Z" fill="#0040B0"/>
<path fill-rule="evenodd" clip-rule="evenodd" d="M1108.64 35.8252V41.8746H1114.92L1121.06 35.8252H1108.64Z" fill="#0040B0"/>
<path fill-rule="evenodd" clip-rule="evenodd" d="M1108.64 107.476V113.525H1114.92L1121.06 107.476H1108.64Z" fill="#0040B0"/>
<path fill-rule="evenodd" clip-rule="evenodd" d="M1108.64 71.6504V77.6998H1114.92L1121.06 71.6504H1108.64Z" fill="#0040B0"/>
<path fill-rule="evenodd" clip-rule="evenodd" d="M1158.46 143.301V149.35H1164.74L1170.88 143.301H1158.46Z" fill="#0040B0"/>
<path fill-rule="evenodd" clip-rule="evenodd" d="M1158.46 179.126V185.175H1164.74L1170.88 179.126H1158.46Z" fill="#0040B0"/>
<path fill-rule="evenodd" clip-rule="evenodd" d="M1108.64 214.951V221.001H1114.92L1121.06 214.951H1108.64Z" fill="#0040B0"/>
<path fill-rule="evenodd" clip-rule="evenodd" d="M1158.46 0V6.04941H1164.74L1170.88 0H1158.46Z" fill="#0040B0"/>
<path fill-rule="evenodd" clip-rule="evenodd" d="M1158.46 35.8252V41.8746H1164.74L1170.88 35.8252H1158.46Z" fill="#0040B0"/>
<path fill-rule="evenodd" clip-rule="evenodd" d="M1208.28 143.301V149.35H1214.56L1220.7 143.301H1208.28Z" fill="#0040B0"/>
<path fill-rule="evenodd" clip-rule="evenodd" d="M1208.28 179.126V185.175H1214.56L1220.7 179.126H1208.28Z" fill="#0040B0"/>
<path fill-rule="evenodd" clip-rule="evenodd" d="M1158.46 107.476V113.525H1164.74L1170.88 107.476H1158.46Z" fill="#0040B0"/>
<path fill-rule="evenodd" clip-rule="evenodd" d="M1158.46 71.6504V77.6998H1164.74L1170.88 71.6504H1158.46Z" fill="#0040B0"/>
<path fill-rule="evenodd" clip-rule="evenodd" d="M1158.46 214.951V221.001H1164.74L1170.88 214.951H1158.46Z" fill="#0040B0"/>
<path fill-rule="evenodd" clip-rule="evenodd" d="M1258.1 143.301V149.35H1264.38L1270.52 143.301H1258.1Z" fill="#0040B0"/>
<path fill-rule="evenodd" clip-rule="evenodd" d="M1258.1 179.126V185.175H1264.38L1270.52 179.126H1258.1Z" fill="#0040B0"/>
<path fill-rule="evenodd" clip-rule="evenodd" d="M1208.28 0V6.04941H1214.56L1220.7 0H1208.28Z" fill="#0040B0"/>
<path fill-rule="evenodd" clip-rule="evenodd" d="M1208.28 35.8252V41.8746H1214.56L1220.7 35.8252H1208.28Z" fill="#0040B0"/>
<path fill-rule="evenodd" clip-rule="evenodd" d="M1208.28 107.476V113.525H1214.56L1220.7 107.476H1208.28Z" fill="#0040B0"/>
<path fill-rule="evenodd" clip-rule="evenodd" d="M1208.28 71.6504V77.6998H1214.56L1220.7 71.6504H1208.28Z" fill="#0040B0"/>
<path fill-rule="evenodd" clip-rule="evenodd" d="M1208.28 214.951V221.001H1214.56L1220.7 214.951H1208.28Z" fill="#0040B0"/>
<path fill-rule="evenodd" clip-rule="evenodd" d="M1258.1 0V6.04941H1264.38L1270.52 0H1258.1Z" fill="#0040B0"/>
<path fill-rule="evenodd" clip-rule="evenodd" d="M1258.1 35.8252V41.8746H1264.38L1270.52 35.8252H1258.1Z" fill="#0040B0"/>
<path fill-rule="evenodd" clip-rule="evenodd" d="M1258.1 107.476V113.525H1264.38L1270.52 107.476H1258.1Z" fill="#0040B0"/>
<path fill-rule="evenodd" clip-rule="evenodd" d="M1258.1 71.6504V77.6998H1264.38L1270.52 71.6504H1258.1Z" fill="#0040B0"/>
<path fill-rule="evenodd" clip-rule="evenodd" d="M1258.1 214.951V221.001H1264.38L1270.52 214.951H1258.1Z" fill="#0040B0"/>
</g>
<defs>
<clipPath id="clip0_1488_76237">
<rect width="1300" height="221" fill="white"/>
</clipPath>
</defs>
</svg>
