<svg width="3369" height="1274" xmlns="http://www.w3.org/2000/svg" xmlns:xlink="http://www.w3.org/1999/xlink" xml:space="preserve" overflow="hidden"><defs><linearGradient x1="1334.56" y1="505.161" x2="2642.44" y2="2063.84" gradientUnits="userSpaceOnUse" spreadMethod="reflect" id="stroke0"><stop offset="0" stop-color="#FFFFFF" stop-opacity="1"/><stop offset="0.17" stop-color="#FFFFFF" stop-opacity="1"/><stop offset="0.27" stop-color="#0070F2" stop-opacity="1"/><stop offset="1" stop-color="#002A86" stop-opacity="1"/></linearGradient><linearGradient x1="1299.59" y1="464.583" x2="2676.41" y2="2105.42" gradientUnits="userSpaceOnUse" spreadMethod="reflect" id="stroke1"><stop offset="0" stop-color="#FFFFFF" stop-opacity="1"/><stop offset="0.2" stop-color="#FFFFFF" stop-opacity="1"/><stop offset="0.4" stop-color="#5D36FF" stop-opacity="1"/><stop offset="1" stop-color="#7858FF" stop-opacity="1"/></linearGradient><linearGradient x1="1265.95" y1="423.403" x2="2711.05" y2="2145.6" gradientUnits="userSpaceOnUse" spreadMethod="reflect" id="stroke2"><stop offset="0" stop-color="#FFFFFF" stop-opacity="1"/><stop offset="0.2" stop-color="#FFFFFF" stop-opacity="1"/><stop offset="0.4" stop-color="#7858FF" stop-opacity="1"/><stop offset="1" stop-color="#B894FF" stop-opacity="1"/></linearGradient><linearGradient x1="242.259" y1="-205.571" x2="587.25" y2="205.572" gradientUnits="userSpaceOnUse" spreadMethod="reflect" id="stroke3"><stop offset="0" stop-color="#FFFFFF" stop-opacity="1"/><stop offset="0.2" stop-color="#FFFFFF" stop-opacity="1"/><stop offset="0.4" stop-color="#7858FF" stop-opacity="1"/><stop offset="1" stop-color="#B894FF" stop-opacity="1"/></linearGradient><linearGradient x1="164.972" y1="-140.719" x2="401.128" y2="140.72" gradientUnits="userSpaceOnUse" spreadMethod="reflect" id="stroke4"><stop offset="0" stop-color="#FFFFFF" stop-opacity="1"/><stop offset="0.2" stop-color="#FFFFFF" stop-opacity="1"/><stop offset="0.4" stop-color="#5D36FF" stop-opacity="1"/><stop offset="1" stop-color="#7858FF" stop-opacity="1"/></linearGradient><linearGradient x1="89.7175" y1="-77.5736" x2="219.902" y2="77.574" gradientUnits="userSpaceOnUse" spreadMethod="reflect" id="stroke5"><stop offset="0" stop-color="#FFFFFF" stop-opacity="1"/><stop offset="0.2" stop-color="#FFFFFF" stop-opacity="1"/><stop offset="0.4" stop-color="#0070F2" stop-opacity="1"/><stop offset="1" stop-color="#002A86" stop-opacity="1"/></linearGradient><linearGradient x1="1443.25" y1="597.75" x2="1803.75" y2="958.251" gradientUnits="userSpaceOnUse" spreadMethod="reflect" id="fill6"><stop offset="0" stop-color="#1B90FF" stop-opacity="1"/><stop offset="0.79" stop-color="#0057D2" stop-opacity="1"/><stop offset="1" stop-color="#0057D2" stop-opacity="1"/></linearGradient><linearGradient x1="1418.23" y1="771.074" x2="1828.44" y2="771.074" gradientUnits="userSpaceOnUse" spreadMethod="reflect" id="fill7"><stop offset="0" stop-color="#FFFFFF" stop-opacity="1"/><stop offset="1" stop-color="#FFFFFF" stop-opacity="1"/></linearGradient><linearGradient x1="1557.16" y1="853.491" x2="1689.51" y2="853.491" gradientUnits="userSpaceOnUse" spreadMethod="reflect" id="fill8"><stop offset="0" stop-color="#FFFFFF" stop-opacity="1"/><stop offset="1" stop-color="#FFFFFF" stop-opacity="1"/></linearGradient><linearGradient x1="2184.75" y1="601.25" x2="2538.25" y2="954.75" gradientUnits="userSpaceOnUse" spreadMethod="reflect" id="fill9"><stop offset="0" stop-color="#1B90FF" stop-opacity="1"/><stop offset="0.79" stop-color="#0057D2" stop-opacity="1"/><stop offset="1" stop-color="#0057D2" stop-opacity="1"/></linearGradient><linearGradient x1="2162.25" y1="771.074" x2="2560.43" y2="771.074" gradientUnits="userSpaceOnUse" spreadMethod="reflect" id="fill10"><stop offset="0" stop-color="#FFFFFF" stop-opacity="1"/><stop offset="1" stop-color="#FFFFFF" stop-opacity="1"/></linearGradient><linearGradient x1="2295.17" y1="852.265" x2="2427.51" y2="852.265" gradientUnits="userSpaceOnUse" spreadMethod="reflect" id="fill11"><stop offset="0" stop-color="#FFFFFF" stop-opacity="1"/><stop offset="1" stop-color="#FFFFFF" stop-opacity="1"/></linearGradient><linearGradient x1="1777.25" y1="1595.75" x2="2167.75" y2="1986.25" gradientUnits="userSpaceOnUse" spreadMethod="reflect" id="fill12"><stop offset="0" stop-color="#1B90FF" stop-opacity="1"/><stop offset="0.79" stop-color="#0057D2" stop-opacity="1"/><stop offset="1" stop-color="#0057D2" stop-opacity="1"/></linearGradient><linearGradient x1="1731.66" y1="1784.05" x2="2214.06" y2="1784.05" gradientUnits="userSpaceOnUse" spreadMethod="reflect" id="fill13"><stop offset="0" stop-color="#FFFFFF" stop-opacity="1"/><stop offset="1" stop-color="#FFFFFF" stop-opacity="1"/></linearGradient><linearGradient x1="1893.51" y1="1865.24" x2="2052.21" y2="1865.24" gradientUnits="userSpaceOnUse" spreadMethod="reflect" id="fill14"><stop offset="0" stop-color="#FFFFFF" stop-opacity="1"/><stop offset="1" stop-color="#FFFFFF" stop-opacity="1"/></linearGradient><linearGradient x1="2856.75" y1="1100.25" x2="3210.25" y2="1453.75" gradientUnits="userSpaceOnUse" spreadMethod="reflect" id="fill15"><stop offset="0" stop-color="#1B90FF" stop-opacity="1"/><stop offset="0.79" stop-color="#0057D2" stop-opacity="1"/><stop offset="1" stop-color="#0057D2" stop-opacity="1"/></linearGradient><linearGradient x1="2854.26" y1="1270.25" x2="3213.48" y2="1270.25" gradientUnits="userSpaceOnUse" spreadMethod="reflect" id="fill16"><stop offset="0" stop-color="#FFFFFF" stop-opacity="1"/><stop offset="1" stop-color="#FFFFFF" stop-opacity="1"/></linearGradient><linearGradient x1="2967.7" y1="1351.44" x2="3100.04" y2="1351.44" gradientUnits="userSpaceOnUse" spreadMethod="reflect" id="fill17"><stop offset="0" stop-color="#FFFFFF" stop-opacity="1"/><stop offset="1" stop-color="#FFFFFF" stop-opacity="1"/></linearGradient><linearGradient x1="759.75" y1="1100.25" x2="1113.25" y2="1453.75" gradientUnits="userSpaceOnUse" spreadMethod="reflect" id="fill18"><stop offset="0" stop-color="#1B90FF" stop-opacity="1"/><stop offset="0.79" stop-color="#0057D2" stop-opacity="1"/><stop offset="1" stop-color="#0057D2" stop-opacity="1"/></linearGradient><linearGradient x1="738.968" y1="1270.25" x2="1134.85" y2="1270.25" gradientUnits="userSpaceOnUse" spreadMethod="reflect" id="fill19"><stop offset="0" stop-color="#FFFFFF" stop-opacity="1"/><stop offset="1" stop-color="#FFFFFF" stop-opacity="1"/></linearGradient><linearGradient x1="857.562" y1="1351.44" x2="1016.26" y2="1351.44" gradientUnits="userSpaceOnUse" spreadMethod="reflect" id="fill20"><stop offset="0" stop-color="#FFFFFF" stop-opacity="1"/><stop offset="1" stop-color="#FFFFFF" stop-opacity="1"/></linearGradient></defs><g transform="translate(-403 -660)"><g><path d="M974.5 1284.5C974.5 1023.27 1186.27 811.5 1447.5 811.5L2529.5 811.5C2790.73 811.5 3002.5 1023.27 3002.5 1284.5L3002.5 1284.5C3002.5 1545.73 2790.73 1757.5 2529.5 1757.5L1447.5 1757.5C1186.27 1757.5 974.5 1545.73 974.5 1284.5Z" stroke="url(#stroke0)" stroke-width="4.58333" stroke-linecap="butt" stroke-linejoin="miter" stroke-miterlimit="8" fill="none" fill-rule="evenodd"/><path d="M970.45 1246.05 971.519 1234.64C971.667 1233.07 973.063 1231.91 974.639 1232.06 976.214 1232.21 977.371 1233.6 977.223 1235.18L976.154 1246.59C976.006 1248.16 974.61 1249.32 973.035 1249.17 971.459 1249.02 970.302 1247.63 970.45 1246.05ZM972.811 1223.15 974.284 1211.91 974.32 1211.69C974.583 1210.13 976.061 1209.08 977.621 1209.34 979.181 1209.6 980.232 1211.08 979.969 1212.64L979.965 1212.66 978.491 1223.9C978.286 1225.47 976.848 1226.57 975.279 1226.37 973.71 1226.16 972.605 1224.72 972.811 1223.15ZM976.226 1200.39 977.128 1195.04 978.367 1189.03C978.688 1187.48 980.203 1186.48 981.752 1186.8 983.302 1187.12 984.298 1188.64 983.978 1190.19L982.777 1195.99 981.875 1201.34C981.612 1202.9 980.134 1203.95 978.574 1203.69 977.014 1203.43 975.962 1201.95 976.226 1200.39ZM980.728 1177.71 983.454 1166.58C983.83 1165.04 985.381 1164.1 986.917 1164.48 988.454 1164.86 989.395 1166.41 989.018 1167.94L986.293 1179.07C985.916 1180.61 984.365 1181.55 982.829 1181.17 981.292 1180.8 980.352 1179.25 980.728 1177.71ZM986.437 1155.41 989.235 1145.56 989.638 1144.3C990.125 1142.8 991.74 1141.97 993.245 1142.46 994.75 1142.94 995.576 1144.56 995.089 1146.06L994.746 1147.12 991.949 1156.98C991.517 1158.5 989.933 1159.38 988.411 1158.95 986.889 1158.52 986.005 1156.93 986.437 1155.41ZM993.163 1133.4 994.43 1129.48 996.973 1122.49C997.513 1121 999.157 1120.23 1000.64 1120.77 1002.13 1121.31 1002.9 1122.96 1002.36 1124.44L999.881 1131.25 998.615 1135.16C998.128 1136.67 996.513 1137.49 995.008 1137.01 993.502 1136.52 992.677 1134.9 993.163 1133.4ZM1000.99 1111.65 1005.3 1101.03C1005.89 1099.56 1007.56 1098.85 1009.03 1099.45 1010.49 1100.04 1011.2 1101.71 1010.61 1103.18L1006.3 1113.8C1005.71 1115.26 1004.04 1115.97 1002.57 1115.38 1001.11 1114.78 1000.4 1113.11 1000.99 1111.65ZM1009.91 1090.43 1013.36 1082.71 1014.73 1079.92C1015.42 1078.5 1017.14 1077.91 1018.56 1078.61 1019.98 1079.31 1020.57 1081.02 1019.87 1082.44L1018.59 1085.05 1015.14 1092.77C1014.49 1094.21 1012.8 1094.86 1011.35 1094.21 1009.91 1093.57 1009.26 1091.87 1009.91 1090.43ZM1019.77 1069.63 1020.75 1067.65 1025.16 1059.41C1025.91 1058.01 1027.64 1057.49 1029.04 1058.23 1030.43 1058.98 1030.96 1060.72 1030.21 1062.11L1025.89 1070.17 1024.92 1072.16C1024.22 1073.58 1022.5 1074.16 1021.08 1073.47 1019.66 1072.77 1019.08 1071.05 1019.77 1069.63ZM1030.75 1049.29 1036.51 1039.38C1037.31 1038.02 1039.06 1037.55 1040.43 1038.35 1041.79 1039.15 1042.26 1040.9 1041.46 1042.27L1035.7 1052.17C1034.9 1053.54 1033.15 1054 1031.78 1053.2 1030.41 1052.41 1029.95 1050.65 1030.75 1049.29ZM1042.64 1029.58 1046.03 1024.21 1048.96 1019.91C1049.85 1018.6 1051.63 1018.26 1052.94 1019.15 1054.24 1020.04 1054.58 1021.82 1053.69 1023.13L1050.88 1027.26 1047.48 1032.64C1046.64 1033.98 1044.87 1034.38 1043.53 1033.54 1042.2 1032.69 1041.79 1030.92 1042.64 1029.58ZM1055.4 1010.43 1055.46 1010.35 1062.24 1001.11C1063.17 999.836 1064.97 999.561 1066.24 1000.5 1067.52 1001.43 1067.79 1003.23 1066.86 1004.5L1060.2 1013.58 1060.14 1013.66C1059.25 1014.97 1057.47 1015.3 1056.16 1014.41 1054.85 1013.52 1054.51 1011.74 1055.4 1010.43ZM1069.25 991.924 1075.77 983.659 1076.44 982.872C1077.46 981.665 1079.27 981.516 1080.47 982.539 1081.68 983.562 1081.83 985.37 1080.81 986.577L1080.27 987.208 1073.75 995.473 1073.75 995.473C1072.77 996.715 1070.96 996.927 1069.72 995.947 1068.48 994.967 1068.27 993.166 1069.25 991.924ZM1083.85 974.132 1086.63 970.846 1091.51 965.482C1092.57 964.311 1094.39 964.226 1095.56 965.291 1096.73 966.355 1096.81 968.167 1095.75 969.337L1091 974.55 1088.22 977.837C1087.19 979.043 1085.39 979.192 1084.18 978.169 1082.97 977.146 1082.82 975.339 1083.85 974.132ZM1099.34 956.979 1107.34 948.779C1108.45 947.647 1110.26 947.625 1111.39 948.73 1112.52 949.835 1112.55 951.648 1111.44 952.781L1103.44 960.981C1102.33 962.113 1100.52 962.135 1099.39 961.03 1098.26 959.925 1098.23 958.111 1099.34 956.979ZM1115.62 940.709 1121.91 934.692 1124.04 932.797C1125.22 931.745 1127.03 931.85 1128.08 933.032 1129.14 934.214 1129.03 936.024 1127.85 937.076L1125.87 938.835 1119.57 944.852C1118.43 945.945 1116.62 945.903 1115.52 944.759 1114.43 943.615 1114.47 941.802 1115.62 940.709ZM1132.6 925.178 1134.54 923.445 1141.43 917.728C1142.65 916.718 1144.46 916.887 1145.47 918.105 1146.48 919.322 1146.31 921.128 1145.09 922.138L1138.35 927.724 1136.41 929.457C1135.23 930.509 1133.42 930.404 1132.36 929.222 1131.31 928.041 1131.42 926.23 1132.6 925.178ZM1150.41 910.446 1159.48 903.445C1160.73 902.478 1162.53 902.71 1163.5 903.962 1164.46 905.215 1164.23 907.014 1162.98 907.98L1153.91 914.981C1152.66 915.948 1150.86 915.716 1149.89 914.464 1148.92 913.211 1149.16 911.412 1150.41 910.446ZM1168.83 896.651 1174.9 892.295 1178.3 890.031C1179.62 889.155 1181.4 889.512 1182.27 890.829 1183.15 892.147 1182.79 893.925 1181.48 894.801L1178.24 896.951 1172.17 901.306C1170.88 902.228 1169.09 901.934 1168.17 900.648 1167.25 899.362 1167.54 897.573 1168.83 896.651ZM1187.84 883.685 1189.15 882.818 1197.66 877.577C1199 876.748 1200.77 877.168 1201.6 878.515 1202.43 879.863 1202.01 881.627 1200.66 882.456L1192.32 887.588 1191.02 888.455C1189.7 889.331 1187.92 888.973 1187.05 887.656 1186.17 886.339 1186.53 884.561 1187.84 883.685ZM1207.58 871.65 1217.54 865.991C1218.92 865.21 1220.67 865.692 1221.45 867.068 1222.23 868.443 1221.75 870.192 1220.37 870.973L1210.41 876.631C1209.03 877.413 1207.28 876.931 1206.5 875.555 1205.72 874.179 1206.2 872.431 1207.58 871.65ZM1227.77 860.597 1234.12 857.281 1238.08 855.385C1239.51 854.703 1241.22 855.307 1241.9 856.735 1242.58 858.162 1241.98 859.872 1240.55 860.554L1236.77 862.36 1230.42 865.675C1229.01 866.408 1227.28 865.864 1226.55 864.462 1225.82 863.059 1226.36 861.329 1227.77 860.597ZM1248.42 850.445 1249.82 849.777 1259 845.783C1260.45 845.152 1262.14 845.817 1262.77 847.268 1263.4 848.718 1262.73 850.406 1261.28 851.037L1252.29 854.946 1250.89 855.615C1249.46 856.297 1247.75 855.692 1247.07 854.265 1246.39 852.837 1246.99 851.127 1248.42 850.445ZM1269.65 841.305 1278.18 837.95C1279.66 837.371 1281.32 838.095 1281.9 839.567 1282.48 841.039 1281.75 842.702 1280.28 843.281L1271.75 846.636C1270.28 847.216 1268.61 846.491 1268.04 845.019 1267.46 843.547 1268.18 841.884 1269.65 841.305ZM1257.27 829.7 1283.28 839.023 1270.59 863.57C1269.86 864.975 1268.13 865.525 1266.73 864.798 1265.32 864.072 1264.77 862.343 1265.5 860.938L1276.69 839.3 1278.27 843.312 1255.33 835.093C1253.84 834.559 1253.07 832.919 1253.6 831.43 1254.14 829.941 1255.78 829.166 1257.27 829.7Z" fill="#0070F2" fill-rule="nonzero" fill-opacity="1"/><path d="M930.5 1285C930.5 1005.27 1157.27 778.5 1437 778.5L2539 778.5C2818.73 778.5 3045.5 1005.27 3045.5 1285 3045.5 1564.73 2818.73 1791.5 2539 1791.5L1437 1791.5C1157.27 1791.5 930.5 1564.73 930.5 1285Z" stroke="url(#stroke1)" stroke-width="4.58333" stroke-linecap="butt" stroke-linejoin="miter" stroke-miterlimit="8" fill="none" fill-rule="evenodd"/><path d="M889.5 1284.5C889.5 985.715 1131.71 743.5 1430.5 743.5L2546.5 743.5C2845.29 743.5 3087.5 985.715 3087.5 1284.5L3087.5 1284.5C3087.5 1583.29 2845.29 1825.5 2546.5 1825.5L1430.5 1825.5C1131.71 1825.5 889.5 1583.29 889.5 1284.5Z" stroke="url(#stroke2)" stroke-width="4.58333" stroke-linecap="butt" stroke-linejoin="miter" stroke-miterlimit="8" fill="none" fill-rule="evenodd"/><path d="M0 0 827.217 0.000360892" stroke="url(#stroke3)" stroke-width="4.58333" stroke-linecap="butt" stroke-linejoin="miter" stroke-miterlimit="8" fill="none" fill-rule="evenodd" transform="matrix(-1 0 0 1 1516.72 743.5)"/><path d="M0 0 563.808 0.000360892" stroke="url(#stroke4)" stroke-width="4.58333" stroke-linecap="butt" stroke-linejoin="miter" stroke-miterlimit="8" fill="none" fill-rule="evenodd" transform="matrix(-1 0 0 1 1494.31 777.5)"/><path d="M0 0 307.328 0.000360892" stroke="url(#stroke5)" stroke-width="4.58333" stroke-linecap="butt" stroke-linejoin="miter" stroke-miterlimit="8" fill="none" fill-rule="evenodd" transform="matrix(-1 0 0 1 1409.83 811.5)"/><path d="M1341 778C1341 734.922 1375.92 700 1419 700L1828 700C1871.08 700 1906 734.922 1906 778L1906 778C1906 821.079 1871.08 856.001 1828 856.001L1419 856C1375.92 856 1341 821.078 1341 778Z" stroke="#FFFFFF" stroke-width="13.75" stroke-linecap="butt" stroke-linejoin="miter" stroke-miterlimit="8" stroke-opacity="1" fill="url(#fill6)" fill-rule="evenodd"/><path d="M1554.19 777.53C1550.79 777.53 1547.93 778.444 1547.93 781.655 1547.93 783.787 1549.38 785.1 1551.79 785.1 1555.62 785.1 1557.82 782.217 1557.82 779.194L1557.82 777.53ZM1485.44 777.53C1482.04 777.53 1479.18 778.444 1479.18 781.655 1479.18 783.787 1480.63 785.1 1483.04 785.1 1486.87 785.1 1489.07 782.217 1489.07 779.194L1489.07 777.53ZM1610.39 767.897C1606.41 767.897 1603.55 770.85 1603.55 776.381 1603.55 781.889 1606.41 784.865 1610.39 784.865 1614.38 784.865 1617.24 781.889 1617.24 776.381 1617.24 770.85 1614.38 767.897 1610.39 767.897ZM1815.17 767.639C1811.89 767.639 1809.38 769.631 1808.79 774.155L1821.03 774.155C1820.7 769.631 1818.5 767.639 1815.17 767.639ZM1706.89 767.639C1703.6 767.639 1701.1 769.631 1700.51 774.155L1712.75 774.155C1712.42 769.631 1710.21 767.639 1706.89 767.639ZM1766.82 763.561 1772.75 763.561 1772.75 789.201 1766.82 789.201ZM1738.49 763.561 1744.82 763.561 1749.44 778.537C1749.95 780.225 1750.61 782.569 1750.98 784.069 1751.34 782.569 1752.09 780.225 1752.6 778.537L1757.41 763.561 1763.71 763.561 1754.57 789.201 1747.31 789.201ZM1586.92 763.561 1592.85 763.561 1592.85 789.201 1586.92 789.201ZM1515.1 763.561 1521.05 763.561 1521.05 779.053C1521.05 782.475 1522.22 784.584 1525.67 784.584 1529.21 784.584 1531.41 782.217 1531.41 777.905L1531.41 763.561 1537.32 763.561 1537.32 789.201 1531.6 789.201 1531.6 783.787 1531.48 783.787C1530.31 786.74 1527.99 789.67 1523.07 789.67 1517.58 789.67 1515.1 785.92 1515.1 780.459ZM1446.31 763.561 1452.63 763.561 1457.25 778.537C1457.77 780.225 1458.42 782.569 1458.8 784.069 1459.15 782.569 1459.9 780.225 1460.41 778.537L1465.22 763.561 1471.52 763.561 1462.38 789.201 1455.12 789.201ZM1815.31 763.069C1823.89 763.069 1826.93 769.35 1826.93 775.584 1826.93 776.334 1826.89 777.108 1826.84 777.834L1808.7 777.834C1809.12 782.709 1811.65 785.03 1816.1 785.03 1818.99 785.03 1820.91 784.186 1822.64 782.17L1826.09 785.615C1823.7 788.311 1820.77 789.67 1815.82 789.67 1807.6 789.67 1802.44 784.959 1802.44 776.381 1802.44 767.451 1808.32 763.069 1815.31 763.069ZM1790.15 763.069C1795 763.069 1798.35 764.99 1800.39 767.756L1796.59 771.108C1795.12 769.045 1793.15 767.897 1790.4 767.897 1786.26 767.897 1783.44 770.709 1783.44 776.381 1783.44 782.053 1786.26 784.865 1790.4 784.865 1793.12 784.865 1795.09 783.694 1796.59 781.631L1800.39 785.006C1798.35 787.772 1795 789.67 1790.15 789.67 1782.58 789.67 1777.23 784.889 1777.23 776.381 1777.23 767.85 1782.58 763.069 1790.15 763.069ZM1735.11 763.069C1736.05 763.069 1736.85 763.233 1737.32 763.397L1737.32 768.951C1736.68 768.787 1735.75 768.647 1734.85 768.647 1730.64 768.647 1729.21 771.553 1729.21 776.311L1729.21 789.201 1723.28 789.201 1723.28 763.561 1729.02 763.561 1729.02 769.069 1729.11 769.069C1729.98 764.967 1731.9 763.069 1735.11 763.069ZM1707.03 763.069C1715.6 763.069 1718.65 769.35 1718.65 775.584 1718.65 776.334 1718.6 777.108 1718.56 777.834L1700.42 777.834C1700.84 782.709 1703.37 785.03 1707.82 785.03 1710.71 785.03 1712.63 784.186 1714.36 782.17L1717.81 785.615C1715.42 788.311 1712.49 789.67 1707.54 789.67 1699.32 789.67 1694.16 784.959 1694.16 776.381 1694.16 767.451 1700.04 763.069 1707.03 763.069ZM1642.42 763.069C1647.93 763.069 1650.39 766.819 1650.39 772.28L1650.39 789.201 1644.46 789.201 1644.46 773.709C1644.46 770.264 1643.27 768.178 1639.82 768.178 1636.28 768.178 1634.1 770.522 1634.1 774.834L1634.1 789.201 1628.17 789.201 1628.17 763.561 1633.91 763.561 1633.91 768.951 1634.01 768.951C1635.18 766.022 1637.52 763.069 1642.42 763.069ZM1610.39 763.069C1618.06 763.069 1623.45 768.295 1623.45 776.381 1623.45 784.467 1618.06 789.67 1610.39 789.67 1602.73 789.67 1597.34 784.467 1597.34 776.381 1597.34 768.295 1602.73 763.069 1610.39 763.069ZM1553.83 763.069C1560.35 763.069 1563.72 766.467 1563.72 772.678L1563.72 789.201 1558.01 789.201 1558.01 784.444 1557.87 784.444C1556.29 788.03 1553.72 789.67 1549.69 789.67 1545.21 789.67 1542.02 786.998 1542.02 782.217 1542.02 776.709 1546.52 774.131 1553.18 774.131L1557.82 774.131 1557.82 772.655C1557.82 769.561 1556.32 767.873 1553.2 767.873 1550.29 767.873 1548.26 769.115 1546.66 771.131L1543.12 767.615C1545.49 765.037 1548.7 763.069 1553.83 763.069ZM1485.08 763.069C1491.6 763.069 1494.97 766.467 1494.97 772.678L1494.97 789.201 1489.26 789.201 1489.26 784.444 1489.12 784.444C1487.54 788.03 1484.97 789.67 1480.94 789.67 1476.46 789.67 1473.27 786.998 1473.27 782.217 1473.27 776.709 1477.77 774.131 1484.43 774.131L1489.07 774.131 1489.07 772.655C1489.07 769.561 1487.57 767.873 1484.45 767.873 1481.54 767.873 1479.51 769.115 1477.91 771.131L1474.37 767.615C1476.74 765.037 1479.95 763.069 1485.08 763.069ZM1575.1 756.905 1576.23 756.905 1576.23 763.561 1581.78 763.561 1581.78 768.155 1576.23 768.155 1576.23 781.655C1576.23 783.905 1576.95 784.514 1578.97 784.514 1579.98 784.514 1580.94 784.35 1581.78 784.115L1581.78 789.201C1580.75 789.459 1579.23 789.623 1577.73 789.623 1572.57 789.623 1570.3 787.725 1570.3 782.803L1570.3 768.155 1566.55 768.155 1566.55 765.436ZM1421.68 756.178 1444.2 756.178 1444.2 761.545 1427.91 761.545 1427.91 769.725 1442.79 769.725 1442.79 774.975 1427.91 774.975 1427.91 783.834 1445.16 783.834 1445.16 789.201 1421.68 789.201ZM1678.59 755.686C1683.98 755.686 1687.87 757.467 1690.43 760.444L1686.56 764.311C1684.52 761.99 1681.99 760.725 1678.38 760.725 1674.3 760.725 1672.54 762.412 1672.54 764.662 1672.54 767.639 1675.57 768.436 1679.74 769.49 1685.29 770.803 1691.2 772.373 1691.2 779.686 1691.2 785.615 1686.77 789.67 1678.26 789.67 1672.03 789.67 1667.62 787.584 1664.93 784.139L1668.91 780.131C1670.93 782.756 1673.74 784.514 1678.38 784.514 1682.18 784.514 1685.06 783.248 1685.06 780.155 1685.06 776.897 1681.73 775.959 1677.23 774.858 1672.05 773.615 1666.43 771.905 1666.43 765.014 1666.43 758.522 1671.75 755.686 1678.59 755.686ZM1500.77 754.256 1506.73 754.256 1506.73 781.865C1506.73 783.858 1507.2 784.561 1508.91 784.561 1509.63 784.561 1510.27 784.444 1510.95 784.303L1510.95 789.201C1510.01 789.436 1508.74 789.623 1507.45 789.623 1502.63 789.623 1500.77 787.326 1500.77 782.897ZM1769.77 752.92C1771.83 752.92 1773.33 754.35 1773.33 756.412 1773.33 758.475 1771.83 759.881 1769.77 759.881 1767.71 759.881 1766.23 758.475 1766.23 756.412 1766.23 754.35 1767.71 752.92 1769.77 752.92ZM1589.88 752.92C1591.94 752.92 1593.44 754.35 1593.44 756.412 1593.44 758.475 1591.94 759.881 1589.88 759.881 1587.81 759.881 1586.34 758.475 1586.34 756.412 1586.34 754.35 1587.81 752.92 1589.88 752.92Z" fill="url(#fill7)" fill-rule="evenodd"/><text fill="#000000" fill-opacity="0" font-family="Arial,Arial_MSFontService,sans-serif" font-size="36.75" direction="ltr" writing-mode="lr-tb" x="1421.68" y="785.076">Evaluation Service</text><path d="M1563.5 812.5 1684.5 812.5C1709.35 812.5 1729.5 832.647 1729.5 857.5L1729.5 857.5C1729.5 882.353 1709.35 902.5 1684.5 902.5L1563.5 902.5C1538.65 902.5 1518.5 882.353 1518.5 857.5L1518.5 857.5C1518.5 832.647 1538.65 812.5 1563.5 812.5Z" stroke="#FFFFFF" stroke-width="9.16667" stroke-linecap="butt" stroke-linejoin="miter" stroke-miterlimit="8" stroke-opacity="1" fill="#002A86" fill-rule="evenodd" fill-opacity="1"/><path d="M1650.31 851.07C1647.24 851.07 1645.04 853.347 1645.04 857.611 1645.04 861.856 1647.24 864.151 1650.31 864.151 1653.38 864.151 1655.59 861.856 1655.59 857.611 1655.59 853.347 1653.38 851.07 1650.31 851.07ZM1661.44 847.728 1665.99 847.728 1668.72 859.453C1669.02 860.844 1669.37 862.597 1669.48 863.428 1669.6 862.597 1669.98 860.862 1670.27 859.526L1673.18 847.728 1678.24 847.728 1681.04 859.526C1681.34 860.862 1681.69 862.651 1681.8 863.428 1681.92 862.651 1682.23 861.133 1682.61 859.526L1685.48 847.728 1689.82 847.728 1684.49 867.493 1679.16 867.493 1676.52 856.111C1676.18 854.63 1675.73 852.588 1675.64 851.956 1675.56 852.588 1675.13 854.63 1674.77 856.111L1672.04 867.493 1666.71 867.493ZM1650.31 847.349C1656.22 847.349 1660.37 851.378 1660.37 857.611 1660.37 863.843 1656.22 867.854 1650.31 867.854 1644.4 867.854 1640.25 863.843 1640.25 857.611 1640.25 851.378 1644.4 847.349 1650.31 847.349ZM1630.71 847.349C1634.95 847.349 1636.85 850.239 1636.85 854.449L1636.85 867.493 1632.28 867.493 1632.28 855.551C1632.28 852.895 1631.36 851.287 1628.7 851.287 1625.97 851.287 1624.29 853.094 1624.29 856.418L1624.29 867.493 1619.72 867.493 1619.72 847.728 1624.15 847.728 1624.15 851.883 1624.22 851.883C1625.13 849.625 1626.93 847.349 1630.71 847.349ZM1596.73 845.723C1596.46 846.662 1595.9 848.379 1595.47 849.643L1592.87 857.412 1600.64 857.412 1598.03 849.643C1597.6 848.379 1597 846.662 1596.73 845.723ZM1593.99 842.037 1599.61 842.037 1608.95 867.493 1604.01 867.493 1601.94 861.296 1591.55 861.296 1589.47 867.493 1584.66 867.493ZM1571.65 841.658C1576.28 841.658 1579.42 843.194 1581.66 845.849L1578.43 849.083C1576.98 847.186 1575.05 845.922 1571.65 845.922 1566.22 845.922 1563.38 849.21 1563.38 854.756 1563.38 860.555 1566.31 863.609 1571.27 863.609 1576.03 863.609 1578.37 860.826 1578.37 857.448L1572.32 857.448 1572.32 853.564 1582.96 853.564 1582.96 867.493 1578.86 867.493 1578.86 863.103C1577.53 866.3 1574.24 867.854 1570.43 867.854 1564.17 867.854 1558.41 863.681 1558.41 854.846 1558.41 846.861 1563.25 841.658 1571.65 841.658Z" fill="url(#fill8)" fill-rule="evenodd"/><text fill="#000000" fill-opacity="0" font-family="Arial,Arial_MSFontService,sans-serif" font-size="26.1963" direction="ltr" writing-mode="lr-tb" x="1558.41" y="864.58">GA now</text><path d="M2086 778C2086 734.922 2120.92 700 2164 700L2559 700C2602.08 700 2637 734.922 2637 778 2637 821.078 2602.08 856 2559 856L2164 856C2120.92 856 2086 821.078 2086 778Z" stroke="#FFFFFF" stroke-width="13.75" stroke-linecap="butt" stroke-linejoin="miter" stroke-miterlimit="8" stroke-opacity="1" fill="url(#fill9)" fill-rule="evenodd"/><path d="M2392.92 767.897C2388.93 767.897 2386.1 770.85 2386.1 776.381 2386.1 781.889 2388.93 784.865 2392.92 784.865 2396.9 784.865 2399.76 781.889 2399.76 776.381 2399.76 770.85 2396.9 767.897 2392.92 767.897ZM2297.81 767.897C2293.83 767.897 2290.99 770.85 2290.99 776.381 2290.99 781.889 2293.83 784.865 2297.81 784.865 2301.8 784.865 2304.66 781.889 2304.66 776.381 2304.66 770.85 2301.8 767.897 2297.81 767.897ZM2225.5 767.897C2221.52 767.897 2218.66 770.85 2218.66 776.381 2218.66 781.889 2221.52 784.865 2225.5 784.865 2229.49 784.865 2232.35 781.889 2232.35 776.381 2232.35 770.85 2229.49 767.897 2225.5 767.897ZM2528.82 767.639C2525.54 767.639 2523.03 769.631 2522.45 774.155L2534.68 774.155C2534.35 769.631 2532.15 767.639 2528.82 767.639ZM2492.97 763.561 2512.4 763.561 2512.4 767.92 2499.56 784.28 2512.94 784.28 2512.94 789.201 2492.27 789.201 2492.27 784.842 2505.13 768.412 2492.97 768.412ZM2481.62 763.561 2487.55 763.561 2487.55 789.201 2481.62 789.201ZM2427.76 763.561 2433.69 763.561 2433.69 789.201 2427.76 789.201ZM2557.05 763.069C2557.99 763.069 2558.78 763.233 2559.25 763.397L2559.25 768.951C2558.62 768.787 2557.68 768.647 2556.79 768.647 2552.57 768.647 2551.14 771.553 2551.14 776.311L2551.14 789.201 2545.21 789.201 2545.21 763.561 2550.95 763.561 2550.95 769.069 2551.05 769.069C2551.92 764.967 2553.84 763.069 2557.05 763.069ZM2528.96 763.069C2537.54 763.069 2540.59 769.35 2540.59 775.584 2540.59 776.334 2540.54 777.108 2540.49 777.834L2522.35 777.834C2522.78 782.709 2525.31 785.03 2529.76 785.03 2532.64 785.03 2534.56 784.186 2536.3 782.17L2539.74 785.615C2537.35 788.311 2534.42 789.67 2529.48 789.67 2521.25 789.67 2516.1 784.959 2516.1 776.381 2516.1 767.451 2521.98 763.069 2528.96 763.069ZM2453.2 763.069C2456.74 763.069 2459.25 764.897 2460.14 768.975L2460.28 768.975C2461.5 764.897 2464.48 763.069 2468.13 763.069 2473.15 763.069 2475.61 766.069 2475.61 772.186L2475.61 789.201 2469.68 789.201 2469.68 773.592C2469.68 770.217 2468.69 768.178 2465.72 768.178 2462.6 768.178 2460.66 770.475 2460.66 774.74L2460.66 789.201 2454.75 789.201 2454.75 773.592C2454.75 770.217 2453.74 768.178 2450.76 768.178 2447.62 768.178 2445.73 770.475 2445.73 774.74L2445.73 789.201 2439.8 789.201 2439.8 763.561 2445.54 763.561 2445.54 768.975 2445.63 768.975C2446.83 765.272 2449.38 763.069 2453.2 763.069ZM2395.1 763.069C2401.61 763.069 2405.97 768.131 2405.97 776.381 2405.97 784.373 2401.96 789.67 2395.31 789.67 2390.34 789.67 2387.48 787.022 2386.26 784.115L2386.14 784.115 2386.14 799.186 2380.21 799.186 2380.21 763.561 2385.95 763.561 2385.95 768.834 2386.03 768.834C2387.27 765.881 2389.68 763.069 2395.1 763.069ZM2299.99 763.069C2306.51 763.069 2310.87 768.131 2310.87 776.381 2310.87 784.373 2306.86 789.67 2300.2 789.67 2295.23 789.67 2292.37 787.022 2291.16 784.115L2291.04 784.115 2291.04 799.186 2285.11 799.186 2285.11 763.561 2290.85 763.561 2290.85 768.834 2290.92 768.834C2292.16 765.881 2294.58 763.069 2299.99 763.069ZM2256.69 763.069C2260.23 763.069 2262.74 764.897 2263.63 768.975L2263.77 768.975C2264.99 764.897 2267.97 763.069 2271.62 763.069 2276.64 763.069 2279.1 766.069 2279.1 772.186L2279.1 789.201 2273.17 789.201 2273.17 773.592C2273.17 770.217 2272.18 768.178 2269.21 768.178 2266.09 768.178 2264.15 770.475 2264.15 774.74L2264.15 789.201 2258.24 789.201 2258.24 773.592C2258.24 770.217 2257.23 768.178 2254.25 768.178 2251.11 768.178 2249.22 770.475 2249.22 774.74L2249.22 789.201 2243.29 789.201 2243.29 763.561 2249.03 763.561 2249.03 768.975 2249.12 768.975C2250.32 765.272 2252.87 763.069 2256.69 763.069ZM2225.5 763.069C2233.17 763.069 2238.56 768.295 2238.56 776.381 2238.56 784.467 2233.17 789.67 2225.5 789.67 2217.84 789.67 2212.45 784.467 2212.45 776.381 2212.45 768.295 2217.84 763.069 2225.5 763.069ZM2207.57 763.069C2208.51 763.069 2209.3 763.233 2209.77 763.397L2209.77 768.951C2209.14 768.787 2208.2 768.647 2207.31 768.647 2203.09 768.647 2201.66 771.553 2201.66 776.311L2201.66 789.201 2195.73 789.201 2195.73 763.561 2201.48 763.561 2201.48 769.069 2201.57 769.069C2202.44 764.967 2204.36 763.069 2207.57 763.069ZM2171.93 761.545 2171.93 772.256 2179.15 772.256C2183.51 772.256 2185.55 770.147 2185.55 766.772 2185.55 763.373 2183.3 761.545 2178.96 761.545ZM2358.69 761.217C2352.36 761.217 2348.49 765.623 2348.49 772.678 2348.49 779.756 2352.36 784.162 2358.69 784.162 2364.99 784.162 2368.83 779.756 2368.83 772.678 2368.83 765.623 2364.99 761.217 2358.69 761.217ZM2415.94 756.905 2417.07 756.905 2417.07 763.561 2422.62 763.561 2422.62 768.155 2417.07 768.155 2417.07 781.655C2417.07 783.905 2417.8 784.514 2419.81 784.514 2420.82 784.514 2421.78 784.35 2422.62 784.115L2422.62 789.201C2421.59 789.459 2420.07 789.623 2418.57 789.623 2413.41 789.623 2411.14 787.725 2411.14 782.803L2411.14 768.155 2407.39 768.155 2407.39 765.436ZM2320.84 756.905 2321.97 756.905 2321.97 763.561 2327.52 763.561 2327.52 768.155 2321.97 768.155 2321.97 781.655C2321.97 783.905 2322.69 784.514 2324.71 784.514 2325.72 784.514 2326.68 784.35 2327.52 784.115L2327.52 789.201C2326.49 789.459 2324.97 789.623 2323.47 789.623 2318.31 789.623 2316.04 787.725 2316.04 782.803L2316.04 768.155 2312.29 768.155 2312.29 765.436ZM2165.7 756.178 2179.69 756.178C2187.94 756.178 2191.81 760.42 2191.81 766.701 2191.81 772.561 2188.03 777.553 2180.02 777.553L2171.93 777.553 2171.93 789.201 2165.7 789.201ZM2358.69 755.686C2368.16 755.686 2375.28 762.014 2375.28 772.678 2375.28 783.365 2368.16 789.67 2358.69 789.67 2349.19 789.67 2342.05 783.365 2342.05 772.678 2342.05 762.014 2349.19 755.686 2358.69 755.686ZM2484.57 752.92C2486.63 752.92 2488.13 754.35 2488.13 756.412 2488.13 758.475 2486.63 759.881 2484.57 759.881 2482.51 759.881 2481.03 758.475 2481.03 756.412 2481.03 754.35 2482.51 752.92 2484.57 752.92ZM2430.72 752.92C2432.78 752.92 2434.28 754.35 2434.28 756.412 2434.28 758.475 2432.78 759.881 2430.72 759.881 2428.66 759.881 2427.18 758.475 2427.18 756.412 2427.18 754.35 2428.66 752.92 2430.72 752.92Z" fill="url(#fill10)" fill-rule="evenodd"/><text fill="#000000" fill-opacity="0" font-family="Arial,Arial_MSFontService,sans-serif" font-size="46.2656" direction="ltr" writing-mode="lr-tb" x="2165.7" y="793.403">Prompt Optimizer</text><path d="M2302 810.5 2422 810.5C2447.13 810.5 2467.5 830.871 2467.5 856 2467.5 881.129 2447.13 901.5 2422 901.5L2302 901.5C2276.87 901.5 2256.5 881.129 2256.5 856 2256.5 830.871 2276.87 810.5 2302 810.5Z" stroke="#FFFFFF" stroke-width="9.16667" stroke-linecap="butt" stroke-linejoin="miter" stroke-miterlimit="8" stroke-opacity="1" fill="#002A86" fill-rule="evenodd" fill-opacity="1"/><path d="M2388.31 849.845C2385.24 849.845 2383.04 852.121 2383.04 856.385 2383.04 860.63 2385.24 862.925 2388.31 862.925 2391.39 862.925 2393.59 860.63 2393.59 856.385 2393.59 852.121 2391.39 849.845 2388.31 849.845ZM2399.44 846.502 2403.99 846.502 2406.72 858.227C2407.03 859.618 2407.37 861.371 2407.48 862.202 2407.6 861.371 2407.98 859.637 2408.27 858.3L2411.18 846.502 2416.24 846.502 2419.04 858.3C2419.35 859.637 2419.69 861.425 2419.8 862.202 2419.93 861.425 2420.23 859.908 2420.61 858.3L2423.49 846.502 2427.82 846.502 2422.49 866.267 2417.16 866.267 2414.52 854.885C2414.18 853.404 2413.73 851.362 2413.64 850.73 2413.57 851.362 2413.13 853.404 2412.77 854.885L2410.04 866.267 2404.71 866.267ZM2388.31 846.123C2394.22 846.123 2398.38 850.152 2398.38 856.385 2398.38 862.617 2394.22 866.628 2388.31 866.628 2382.41 866.628 2378.25 862.617 2378.25 856.385 2378.25 850.152 2382.41 846.123 2388.31 846.123ZM2368.71 846.123C2372.96 846.123 2374.85 849.013 2374.85 853.223L2374.85 866.267 2370.28 866.267 2370.28 854.325C2370.28 851.669 2369.36 850.061 2366.71 850.061 2363.98 850.061 2362.3 851.868 2362.3 855.192L2362.3 866.267 2357.73 866.267 2357.73 846.502 2362.15 846.502 2362.15 850.658 2362.23 850.658C2363.13 848.399 2364.94 846.123 2368.71 846.123ZM2334.74 844.497C2334.47 845.436 2333.91 847.153 2333.47 848.417L2330.87 856.186 2338.64 856.186 2336.04 848.417C2335.6 847.153 2335.01 845.436 2334.74 844.497ZM2331.99 840.811 2337.61 840.811 2346.95 866.267 2342.02 866.267 2339.94 860.07 2329.55 860.07 2327.47 866.267 2322.67 866.267ZM2309.66 840.432C2314.28 840.432 2317.43 841.968 2319.67 844.623L2316.43 847.857C2314.99 845.96 2313.05 844.696 2309.66 844.696 2304.22 844.696 2301.38 847.984 2301.38 853.53 2301.38 859.329 2304.31 862.383 2309.28 862.383 2314.03 862.383 2316.38 859.6 2316.38 856.222L2310.33 856.222 2310.33 852.338 2320.97 852.338 2320.97 866.267 2316.87 866.267 2316.87 861.877C2315.53 865.075 2312.24 866.628 2308.43 866.628 2302.18 866.628 2296.41 862.455 2296.41 853.62 2296.41 845.635 2301.26 840.432 2309.66 840.432Z" fill="url(#fill11)" fill-rule="evenodd"/><text fill="#000000" fill-opacity="0" font-family="Arial,Arial_MSFontService,sans-serif" font-size="26.1963" direction="ltr" writing-mode="lr-tb" x="2296.41" y="863.354">GA now</text><text fill="#7858FF" fill-opacity="1" font-family="72 Brand Medium,72 Brand Medium_MSFontService,sans-serif" font-style="normal" font-variant="normal" font-weight="500" font-stretch="normal" font-size="64" text-anchor="start" direction="ltr" writing-mode="lr-tb" unicode-bidi="normal" text-decoration="none" transform="matrix(1 0 0 1 443.807 745)">Prompt</text><text fill="#5D36FF" fill-opacity="1" font-family="72 Brand Medium,72 Brand Medium_MSFontService,sans-serif" font-style="normal" font-variant="normal" font-weight="500" font-stretch="normal" font-size="64" text-anchor="start" direction="ltr" writing-mode="lr-tb" unicode-bidi="normal" text-decoration="none" transform="matrix(1 0 0 1 686.564 806)">Models</text><text fill="#002A86" fill-opacity="1" font-family="72 Brand Medium,72 Brand Medium_MSFontService,sans-serif" font-style="normal" font-variant="normal" font-weight="500" font-stretch="normal" font-size="64" text-anchor="start" direction="ltr" writing-mode="lr-tb" unicode-bidi="normal" text-decoration="none" transform="matrix(1 0 0 1 939.998 847)">Data</text><path d="M1683 1740.17C1683 1719.09 1700.09 1702 1721.17 1702L2224.83 1702C2245.91 1702 2263 1719.09 2263 1740.17L2263 1892.83C2263 1913.91 2245.91 1931 2224.83 1931L1721.17 1931C1700.09 1931 1683 1913.91 1683 1892.83Z" fill="#FFFFFF" fill-rule="evenodd" fill-opacity="1"/><path d="M1660 1791C1660 1747.92 1694.92 1713 1738 1713L2207 1713C2250.08 1713 2285 1747.92 2285 1791 2285 1834.08 2250.08 1869 2207 1869L1738 1869C1694.92 1869 1660 1834.08 1660 1791Z" stroke="#FFFFFF" stroke-width="13.75" stroke-linecap="butt" stroke-linejoin="miter" stroke-miterlimit="8" stroke-opacity="1" fill="url(#fill12)" fill-rule="evenodd"/><path d="M1939.8 1790.5C1936.4 1790.5 1933.54 1791.42 1933.54 1794.63 1933.54 1796.76 1935 1798.07 1937.41 1798.07 1941.23 1798.07 1943.44 1795.19 1943.44 1792.17L1943.44 1790.5ZM1996.01 1780.87C1992.02 1780.87 1989.16 1783.82 1989.16 1789.36 1989.16 1794.86 1992.02 1797.84 1996.01 1797.84 1999.99 1797.84 2002.85 1794.86 2002.85 1789.36 2002.85 1783.82 1999.99 1780.87 1996.01 1780.87ZM2200.78 1780.61C2197.5 1780.61 2195 1782.61 2194.41 1787.13L2206.64 1787.13C2206.32 1782.61 2204.11 1780.61 2200.78 1780.61ZM2092.5 1780.61C2089.22 1780.61 2086.71 1782.61 2086.13 1787.13L2098.36 1787.13C2098.03 1782.61 2095.83 1780.61 2092.5 1780.61ZM1854.17 1780.61C1850.89 1780.61 1848.38 1782.61 1847.79 1787.13L1860.03 1787.13C1859.7 1782.61 1857.5 1780.61 1854.17 1780.61ZM2152.44 1776.54 2158.36 1776.54 2158.36 1802.18 2152.44 1802.18ZM2124.11 1776.54 2130.44 1776.54 2135.05 1791.51C2135.57 1793.2 2136.23 1795.54 2136.6 1797.04 2136.95 1795.54 2137.7 1793.2 2138.22 1791.51L2143.02 1776.54 2149.33 1776.54 2140.19 1802.18 2132.92 1802.18ZM1972.54 1776.54 1978.47 1776.54 1978.47 1802.18 1972.54 1802.18ZM2200.92 1776.04C2209.5 1776.04 2212.55 1782.32 2212.55 1788.56 2212.55 1789.31 2212.5 1790.08 2212.46 1790.81L2194.32 1790.81C2194.74 1795.68 2197.27 1798 2201.72 1798 2204.6 1798 2206.53 1797.16 2208.26 1795.14L2211.71 1798.59C2209.32 1801.29 2206.39 1802.64 2201.44 1802.64 2193.21 1802.64 2188.06 1797.93 2188.06 1789.36 2188.06 1780.43 2193.94 1776.04 2200.92 1776.04ZM2175.76 1776.04C2180.61 1776.04 2183.97 1777.97 2186.01 1780.73L2182.21 1784.08C2180.73 1782.02 2178.76 1780.87 2176.02 1780.87 2171.87 1780.87 2169.06 1783.68 2169.06 1789.36 2169.06 1795.03 2171.87 1797.84 2176.02 1797.84 2178.74 1797.84 2180.71 1796.67 2182.21 1794.61L2186.01 1797.98C2183.97 1800.75 2180.61 1802.64 2175.76 1802.64 2168.19 1802.64 2162.85 1797.86 2162.85 1789.36 2162.85 1780.82 2168.19 1776.04 2175.76 1776.04ZM2120.73 1776.04C2121.67 1776.04 2122.46 1776.21 2122.93 1776.37L2122.93 1781.93C2122.3 1781.76 2121.36 1781.62 2120.47 1781.62 2116.25 1781.62 2114.82 1784.53 2114.82 1789.29L2114.82 1802.18 2108.89 1802.18 2108.89 1776.54 2114.64 1776.54 2114.64 1782.04 2114.73 1782.04C2115.6 1777.94 2117.52 1776.04 2120.73 1776.04ZM2092.64 1776.04C2101.22 1776.04 2104.27 1782.32 2104.27 1788.56 2104.27 1789.31 2104.22 1790.08 2104.17 1790.81L2086.03 1790.81C2086.46 1795.68 2088.99 1798 2093.44 1798 2096.32 1798 2098.25 1797.16 2099.98 1795.14L2103.42 1798.59C2101.03 1801.29 2098.1 1802.64 2093.16 1802.64 2084.93 1802.64 2079.78 1797.93 2079.78 1789.36 2079.78 1780.43 2085.66 1776.04 2092.64 1776.04ZM2028.04 1776.04C2033.55 1776.04 2036.01 1779.79 2036.01 1785.25L2036.01 1802.18 2030.08 1802.18 2030.08 1786.68C2030.08 1783.24 2028.88 1781.15 2025.44 1781.15 2021.9 1781.15 2019.72 1783.5 2019.72 1787.81L2019.72 1802.18 2013.79 1802.18 2013.79 1776.54 2019.53 1776.54 2019.53 1781.93 2019.63 1781.93C2020.8 1779 2023.14 1776.04 2028.04 1776.04ZM1996.01 1776.04C2003.67 1776.04 2009.06 1781.27 2009.06 1789.36 2009.06 1797.44 2003.67 1802.64 1996.01 1802.64 1988.34 1802.64 1982.95 1797.44 1982.95 1789.36 1982.95 1781.27 1988.34 1776.04 1996.01 1776.04ZM1939.45 1776.04C1945.97 1776.04 1949.34 1779.44 1949.34 1785.65L1949.34 1802.18 1943.62 1802.18 1943.62 1797.42 1943.48 1797.42C1941.91 1801 1939.33 1802.64 1935.3 1802.64 1930.83 1802.64 1927.64 1799.97 1927.64 1795.19 1927.64 1789.68 1932.14 1787.11 1938.79 1787.11L1943.44 1787.11 1943.44 1785.63C1943.44 1782.54 1941.94 1780.85 1938.82 1780.85 1935.91 1780.85 1933.87 1782.09 1932.28 1784.11L1928.74 1780.59C1931.11 1778.01 1934.32 1776.04 1939.45 1776.04ZM1922.5 1776.04C1923.44 1776.04 1924.23 1776.21 1924.7 1776.37L1924.7 1781.93C1924.07 1781.76 1923.13 1781.62 1922.24 1781.62 1918.02 1781.62 1916.59 1784.53 1916.59 1789.29L1916.59 1802.18 1910.66 1802.18 1910.66 1776.54 1916.41 1776.54 1916.41 1782.04 1916.5 1782.04C1917.37 1777.94 1919.29 1776.04 1922.5 1776.04ZM1879.09 1776.04C1883.05 1776.04 1886.31 1777.26 1888.61 1779.54L1885.14 1783C1883.4 1781.22 1881.27 1780.57 1879.19 1780.57 1876.72 1780.57 1875.11 1781.41 1875.11 1783.29 1875.11 1785.18 1877.19 1785.79 1880.66 1786.71 1884.72 1787.74 1889.08 1789.14 1889.08 1794.79 1889.08 1799.76 1885.07 1802.64 1878.76 1802.64 1874.29 1802.64 1870.65 1801.38 1868.17 1798.68L1871.73 1795.12C1873.77 1797.37 1875.97 1798.07 1878.67 1798.07 1881.27 1798.07 1883.31 1797.32 1883.31 1795.22 1883.31 1792.89 1881.13 1792.26 1877.45 1791.3 1873.49 1790.27 1869.36 1788.61 1869.36 1783.54 1869.36 1778.79 1873.02 1776.04 1879.09 1776.04ZM1854.31 1776.04C1862.89 1776.04 1865.94 1782.32 1865.94 1788.56 1865.94 1789.31 1865.89 1790.08 1865.84 1790.81L1847.7 1790.81C1848.12 1795.68 1850.65 1798 1855.11 1798 1857.99 1798 1859.91 1797.16 1861.65 1795.14L1865.09 1798.59C1862.7 1801.29 1859.77 1802.64 1854.83 1802.64 1846.6 1802.64 1841.44 1797.93 1841.44 1789.36 1841.44 1780.43 1847.33 1776.04 1854.31 1776.04ZM1801.08 1776.04C1805.93 1776.04 1809.28 1777.97 1811.32 1780.73L1807.52 1784.08C1806.04 1782.02 1804.08 1780.87 1801.33 1780.87 1797.19 1780.87 1794.37 1783.68 1794.37 1789.36 1794.37 1795.03 1797.19 1797.84 1801.33 1797.84 1804.05 1797.84 1806.02 1796.67 1807.52 1794.61L1811.32 1797.98C1809.28 1800.75 1805.93 1802.64 1801.08 1802.64 1793.51 1802.64 1788.16 1797.86 1788.16 1789.36 1788.16 1780.82 1793.51 1776.04 1801.08 1776.04ZM1783.28 1776.04C1784.22 1776.04 1785.02 1776.21 1785.48 1776.37L1785.48 1781.93C1784.85 1781.76 1783.91 1781.62 1783.02 1781.62 1778.8 1781.62 1777.38 1784.53 1777.38 1789.29L1777.38 1802.18 1771.45 1802.18 1771.45 1776.54 1777.19 1776.54 1777.19 1782.04 1777.28 1782.04C1778.15 1777.94 1780.07 1776.04 1783.28 1776.04ZM1749.92 1774.19C1743.59 1774.19 1739.72 1778.6 1739.72 1785.65 1739.72 1792.73 1743.59 1797.14 1749.92 1797.14 1756.22 1797.14 1760.07 1792.73 1760.07 1785.65 1760.07 1778.6 1756.22 1774.19 1749.92 1774.19ZM1960.72 1769.88 1961.84 1769.88 1961.84 1776.54 1967.4 1776.54 1967.4 1781.13 1961.84 1781.13 1961.84 1794.63C1961.84 1796.88 1962.57 1797.49 1964.59 1797.49 1965.59 1797.49 1966.55 1797.32 1967.4 1797.09L1967.4 1802.18C1966.37 1802.43 1964.84 1802.6 1963.34 1802.6 1958.19 1802.6 1955.91 1800.7 1955.91 1795.78L1955.91 1781.13 1952.16 1781.13 1952.16 1778.41ZM1898.84 1769.88 1899.97 1769.88 1899.97 1776.54 1905.52 1776.54 1905.52 1781.13 1899.97 1781.13 1899.97 1794.63C1899.97 1796.88 1900.7 1797.49 1902.71 1797.49 1903.72 1797.49 1904.68 1797.32 1905.52 1797.09L1905.52 1802.18C1904.49 1802.43 1902.97 1802.6 1901.47 1802.6 1896.31 1802.6 1894.04 1800.7 1894.04 1795.78L1894.04 1781.13 1890.29 1781.13 1890.29 1778.41ZM2064.21 1768.66C2069.6 1768.66 2073.49 1770.44 2076.04 1773.42L2072.18 1777.29C2070.14 1774.97 2067.61 1773.7 2064 1773.7 2059.92 1773.7 2058.16 1775.39 2058.16 1777.64 2058.16 1780.61 2061.19 1781.41 2065.36 1782.47 2070.91 1783.78 2076.82 1785.35 2076.82 1792.66 2076.82 1798.59 2072.39 1802.64 2063.88 1802.64 2057.65 1802.64 2053.24 1800.56 2050.54 1797.11L2054.53 1793.11C2056.54 1795.73 2059.36 1797.49 2064 1797.49 2067.79 1797.49 2070.68 1796.22 2070.68 1793.13 2070.68 1789.87 2067.35 1788.93 2062.85 1787.83 2057.67 1786.59 2052.04 1784.88 2052.04 1777.99 2052.04 1771.5 2057.36 1768.66 2064.21 1768.66ZM1749.92 1768.66C1759.39 1768.66 1766.51 1774.99 1766.51 1785.65 1766.51 1796.34 1759.39 1802.64 1749.92 1802.64 1740.43 1802.64 1733.28 1796.34 1733.28 1785.65 1733.28 1774.99 1740.43 1768.66 1749.92 1768.66ZM1814.99 1767.23 1820.92 1767.23 1820.92 1781.93 1821.03 1781.93C1822.04 1778.79 1824.5 1776.04 1829.24 1776.04 1834.74 1776.04 1837.21 1779.79 1837.21 1785.25L1837.21 1802.18 1831.28 1802.18 1831.28 1786.68C1831.28 1783.24 1830.08 1781.15 1826.64 1781.15 1823.1 1781.15 1820.92 1783.5 1820.92 1787.81L1820.92 1802.18 1814.99 1802.18ZM2155.39 1765.89C2157.45 1765.89 2158.95 1767.32 2158.95 1769.39 2158.95 1771.45 2157.45 1772.86 2155.39 1772.86 2153.33 1772.86 2151.85 1771.45 2151.85 1769.39 2151.85 1767.32 2153.33 1765.89 2155.39 1765.89ZM1975.49 1765.89C1977.55 1765.89 1979.05 1767.32 1979.05 1769.39 1979.05 1771.45 1977.55 1772.86 1975.49 1772.86 1973.43 1772.86 1971.95 1771.45 1971.95 1769.39 1971.95 1767.32 1973.43 1765.89 1975.49 1765.89Z" fill="url(#fill13)" fill-rule="evenodd"/><text fill="#000000" fill-opacity="0" font-family="Arial,Arial_MSFontService,sans-serif" font-size="36.75" direction="ltr" writing-mode="lr-tb" x="1733.28" y="1798.05">Orchestration Service</text><path d="M1900 1823.5 2047 1823.5C2072.13 1823.5 2092.5 1843.87 2092.5 1869 2092.5 1894.13 2072.13 1914.5 2047 1914.5L1900 1914.5C1874.87 1914.5 1854.5 1894.13 1854.5 1869 1854.5 1843.87 1874.87 1823.5 1900 1823.5Z" stroke="#FFFFFF" stroke-width="9.16667" stroke-linecap="butt" stroke-linejoin="miter" stroke-miterlimit="8" stroke-opacity="1" fill="#002A86" fill-rule="evenodd" fill-opacity="1"/><path d="M1994.13 1858.92C1993.79 1859.55 1993.21 1860.43 1992.83 1861.05L1987.63 1868.85C1987.32 1869.31 1986.82 1870.06 1986.51 1870.48L1994.06 1870.48 1994.06 1862.22C1994.06 1861.21 1994.06 1859.98 1994.13 1858.92ZM1967.74 1857.67C1962.86 1857.67 1959.88 1861.07 1959.88 1866.5 1959.88 1871.96 1962.86 1875.36 1967.74 1875.36 1968.44 1875.36 1969.09 1875.29 1969.71 1875.16L1967.38 1871.94 1970.49 1869.56 1973.3 1873.17C1974.77 1871.64 1975.56 1869.34 1975.56 1866.5 1975.56 1861.07 1972.6 1857.67 1967.74 1857.67ZM1933.08 1857.47C1932.81 1858.41 1932.25 1860.13 1931.81 1861.39L1929.21 1869.16 1936.98 1869.16 1934.38 1861.39C1933.95 1860.13 1933.35 1858.41 1933.08 1857.47ZM2034.35 1853.79 2049.61 1853.79 2049.61 1857.63 2038.32 1857.63 2037.92 1863.89C2039.06 1863.07 2040.76 1862.53 2043.02 1862.53 2048.01 1862.53 2051.13 1865.94 2051.13 1870.71 2051.13 1875.92 2047.86 1879.6 2041.66 1879.6 2037.09 1879.6 2034.46 1877.69 2032.92 1875.05L2036.59 1872.76C2037.91 1874.82 2039.32 1875.66 2041.66 1875.66 2044.54 1875.66 2046.4 1873.95 2046.4 1870.86 2046.4 1868.22 2044.72 1866.29 2041.83 1866.29 2039.93 1866.29 2038.65 1866.92 2037.18 1868.38L2033.46 1866.65ZM1993.5 1853.79 1998.34 1853.79 1998.34 1870.48 2001.74 1870.48 2001.74 1874.22 1998.34 1874.22 1998.34 1879.24 1994.06 1879.24 1994.06 1874.22 1982.39 1874.22 1982.39 1870.44ZM1930.33 1853.79 1935.95 1853.79 1945.29 1879.24 1940.36 1879.24 1938.28 1873.04 1927.89 1873.04 1925.82 1879.24 1921.01 1879.24ZM2021.71 1853.41C2027.22 1853.41 2029.82 1856.68 2029.82 1860.69 2029.82 1863.98 2028.07 1866.43 2024.92 1869.36L2018.76 1875.29 2030.25 1875.29 2030.25 1879.24 2012.51 1879.24 2012.51 1875.88 2021.91 1866.7C2024.06 1864.57 2025.1 1862.95 2025.1 1861.05 2025.1 1859.21 2024.11 1857.54 2021.17 1857.54 2018.87 1857.54 2017.23 1858.59 2015.75 1860.56L2012.8 1857.62C2014.86 1855.03 2017.61 1853.41 2021.71 1853.41ZM1967.74 1853.41C1975.04 1853.41 1980.53 1858.28 1980.53 1866.5 1980.53 1871.04 1978.87 1874.56 1976.14 1876.8L1978.58 1879.91 1975.11 1882.57 1972.42 1878.86C1970.97 1879.35 1969.4 1879.6 1967.74 1879.6 1960.42 1879.6 1954.91 1874.74 1954.91 1866.5 1954.91 1858.28 1960.42 1853.41 1967.74 1853.41ZM1908 1853.41C1912.62 1853.41 1915.77 1854.94 1918.01 1857.6L1914.77 1860.83C1913.33 1858.94 1911.4 1857.67 1908 1857.67 1902.56 1857.67 1899.72 1860.96 1899.72 1866.5 1899.72 1872.3 1902.65 1875.36 1907.62 1875.36 1912.37 1875.36 1914.72 1872.58 1914.72 1869.2L1908.67 1869.2 1908.67 1865.31 1919.31 1865.31 1919.31 1879.24 1915.21 1879.24 1915.21 1874.85C1913.87 1878.05 1910.58 1879.6 1906.77 1879.6 1900.52 1879.6 1894.76 1875.43 1894.76 1866.6 1894.76 1858.61 1899.6 1853.41 1908 1853.41Z" fill="url(#fill14)" fill-rule="evenodd"/><text fill="#000000" fill-opacity="0" font-family="Arial,Arial_MSFontService,sans-serif" font-size="29.1592" direction="ltr" writing-mode="lr-tb" x="1894.76" y="1878.92">GA Q4 25</text><text fill="#002A86" fill-opacity="1" font-family="72 Brand Medium,72 Brand Medium_MSFontService,sans-serif" font-style="normal" font-variant="normal" font-weight="500" font-stretch="normal" font-size="64" text-anchor="start" direction="ltr" writing-mode="lr-tb" unicode-bidi="normal" text-decoration="none" transform="matrix(1 0 0 1 1741.98 1686)">Model Fallback</text><path d="M4.22954e-07-3.4375 20.625-3.4375C22.5235-3.4375 24.0625-1.89848 24.0625 2.96068e-06 24.0625 1.89848 22.5235 3.4375 20.625 3.4375L-4.22954e-07 3.4375C-1.89848 3.4375-3.4375 1.89848-3.4375-4.22954e-07-3.4375-1.89848-1.89848-3.4375 4.22954e-07-3.4375ZM48.125-3.43749 68.75-3.43749C70.6485-3.43749 72.1875-1.89847 72.1875 8.88204e-06 72.1875 1.89849 70.6485 3.43751 68.75 3.43751L48.125 3.43751C46.2265 3.43751 44.6875 1.89848 44.6875 5.4984e-06 44.6875-1.89847 46.2265-3.43749 48.125-3.43749ZM96.25-3.43749 116.875-3.43749C118.773-3.43749 120.312-1.89846 120.312 1.48034e-05 120.312 1.89849 118.773 3.43751 116.875 3.43751L96.25 3.43751C94.3515 3.43751 92.8125 1.89849 92.8125 1.14198e-05 92.8125-1.89847 94.3515-3.43749 96.25-3.43749ZM144.375-3.43748 165-3.43748C166.898-3.43748 168.438-1.89846 168.438 2.07248e-05 168.438 1.8985 166.898 3.43752 165 3.43752L144.375 3.43752C142.477 3.43752 140.938 1.8985 140.938 1.73411e-05 140.938-1.89846 142.477-3.43748 144.375-3.43748ZM192.5-3.43748 213.125-3.43747C215.023-3.43747 216.562-1.89845 216.562 2.66461e-05 216.562 1.89851 215.023 3.43753 213.125 3.43753L192.5 3.43752C190.602 3.43752 189.062 1.8985 189.062 2.32625e-05 189.062-1.89846 190.602-3.43748 192.5-3.43748ZM240.625-3.43747 261.25-3.43747C263.148-3.43747 264.688-1.89845 264.688 3.25675e-05 264.688 1.89851 263.148 3.43753 261.25 3.43753L240.625 3.43753C238.727 3.43753 237.188 1.89851 237.188 2.91838e-05 237.188-1.89845 238.727-3.43747 240.625-3.43747ZM288.75-3.43746 309.375-3.43746C311.273-3.43746 312.812-1.89844 312.812 3.84888e-05 312.812 1.89852 311.273 3.43754 309.375 3.43754L288.75 3.43754C286.852 3.43754 285.312 1.89851 285.312 3.51052e-05 285.312-1.89844 286.852-3.43746 288.75-3.43746ZM336.875-3.43746 357.5-3.43746C359.398-3.43746 360.938-1.89843 360.938 4.44102e-05 360.938 1.89852 359.398 3.43754 357.5 3.43754L336.875 3.43754C334.977 3.43754 333.438 1.89852 333.438 4.10266e-05 333.438-1.89844 334.977-3.43746 336.875-3.43746ZM385-3.43745 405.625-3.43745C407.523-3.43745 409.062-1.89843 409.062 5.03315e-05 409.062 1.89853 407.523 3.43755 405.625 3.43755L385 3.43755C383.102 3.43755 381.562 1.89853 381.562 4.69479e-05 381.562-1.89843 383.102-3.43745 385-3.43745ZM433.125-3.43745 453.75-3.43744C455.648-3.43744 457.188-1.89842 457.188 5.62529e-05 457.188 1.89854 455.648 3.43756 453.75 3.43756L433.125 3.43755C431.227 3.43755 429.688 1.89853 429.688 5.28693e-05 429.688-1.89843 431.227-3.43745 433.125-3.43745ZM481.25-3.43744 501.875-3.43744C503.773-3.43744 505.312-1.89842 505.312 6.21743e-05 505.312 1.89854 503.773 3.43756 501.875 3.43756L481.25 3.43756C479.352 3.43756 477.812 1.89854 477.812 5.87906e-05 477.812-1.89842 479.352-3.43744 481.25-3.43744ZM529.375-3.43743 550-3.43743C551.898-3.43743 553.438-1.89841 553.438 6.80956e-05 553.438 1.89855 551.898 3.43757 550 3.43757L529.375 3.43757C527.477 3.43756 525.938 1.89854 525.938 6.4712e-05 525.938-1.89841 527.477-3.43744 529.375-3.43743ZM577.5-3.43743 598.125-3.43743C600.023-3.43743 601.562-1.8984 601.562 7.4017e-05 601.562 1.89855 600.023 3.43757 598.125 3.43757L577.5 3.43757C575.602 3.43757 574.062 1.89855 574.062 7.06333e-05 574.062-1.89841 575.602-3.43743 577.5-3.43743ZM625.625-3.43742 646.25-3.43742C648.148-3.43742 649.688-1.8984 649.688 7.99383e-05 649.688 1.89856 648.148 3.43758 646.25 3.43758L625.625 3.43758C623.727 3.43758 622.188 1.89856 622.188 7.65547e-05 622.188-1.8984 623.727-3.43742 625.625-3.43742ZM673.75-3.43742 694.375-3.43741C696.273-3.43741 697.812-1.89839 697.812 8.58597e-05 697.812 1.89856 696.273 3.43759 694.375 3.43759L673.75 3.43758C671.852 3.43758 670.312 1.89856 670.312 8.24761e-05 670.312-1.8984 671.852-3.43742 673.75-3.43742ZM721.875-3.43741 742.5-3.43741C744.398-3.43741 745.938-1.89839 745.938 9.1781e-05 745.938 1.89857 744.398 3.43759 742.5 3.43759L721.875 3.43759C719.977 3.43759 718.438 1.89857 718.438 8.83974e-05 718.438-1.89839 719.977-3.43741 721.875-3.43741ZM770-3.43741 790.625-3.4374C792.523-3.4374 794.062-1.89838 794.062 9.77024e-05 794.062 1.89858 792.523 3.4376 790.625 3.4376L770 3.43759C768.102 3.43759 766.562 1.89857 766.562 9.43188e-05 766.562-1.89838 768.102-3.43741 770-3.43741ZM818.125-3.4374 838.75-3.4374C840.648-3.4374 842.188-1.89838 842.188 0.000103624 842.188 1.89858 840.648 3.4376 838.75 3.4376L818.125 3.4376C816.227 3.4376 814.688 1.89858 814.688 0.00010024 814.688-1.89838 816.227-3.4374 818.125-3.4374ZM866.25-3.43739 886.875-3.43739C888.773-3.43739 890.312-1.89837 890.312 0.000109545 890.312 1.89859 888.773 3.43761 886.875 3.43761L866.25 3.43761C864.352 3.43761 862.812 1.89859 862.812 0.000106161 862.812-1.89837 864.352-3.43739 866.25-3.43739ZM914.375-3.43739 935-3.43739C936.898-3.43738 938.438-1.89836 938.438 0.000115466 938.438 1.89859 936.898 3.43762 935 3.43761L914.375 3.43761C912.477 3.43761 910.938 1.89859 910.938 0.000112083 910.938-1.89837 912.477-3.43739 914.375-3.43739ZM962.5-3.43738 983.125-3.43738C985.023-3.43738 986.562-1.89836 986.562 0.000121388 986.562 1.8986 985.023 3.43762 983.125 3.43762L962.5 3.43762C960.602 3.43762 959.062 1.8986 959.062 0.000118004 959.062-1.89836 960.602-3.43738 962.5-3.43738ZM1010.62-3.43738 1031.25-3.43737C1033.15-3.43737 1034.69-1.89835 1034.69 0.000127309 1034.69 1.89861 1033.15 3.43763 1031.25 3.43763L1010.62 3.43762C1008.73 3.43762 1007.19 1.8986 1007.19 0.000123926 1007.19-1.89835 1008.73-3.43738 1010.62-3.43738ZM1058.75-3.43737 1079.38-3.43737C1081.27-3.43737 1082.81-1.89835 1082.81 0.000133231 1082.81 1.89861 1081.27 3.43763 1079.38 3.43763L1058.75 3.43763C1056.85 3.43763 1055.31 1.89861 1055.31 0.000129847 1055.31-1.89835 1056.85-3.43737 1058.75-3.43737ZM1106.88-3.43736 1127.5-3.43736C1129.4-3.43736 1130.94-1.89834 1130.94 0.000139152 1130.94 1.89862 1129.4 3.43764 1127.5 3.43764L1106.88 3.43764C1104.98 3.43764 1103.44 1.89861 1103.44 0.000135768 1103.44-1.89834 1104.98-3.43736 1106.88-3.43736ZM1155-3.43736 1175.62-3.43736C1177.52-3.43736 1179.06-1.89833 1179.06 0.000145073 1179.06 1.89862 1177.52 3.43764 1175.62 3.43764L1155 3.43764C1153.1 3.43764 1151.56 1.89862 1151.56 0.00014169 1151.56-1.89834 1153.1-3.43736 1155-3.43736ZM1203.12-3.43735 1223.75-3.43735C1225.65-3.43735 1227.19-1.89833 1227.19 0.000150995 1227.19 1.89863 1225.65 3.43765 1223.75 3.43765L1203.12 3.43765C1201.23 3.43765 1199.69 1.89863 1199.69 0.000147611 1199.69-1.89833 1201.23-3.43735 1203.12-3.43735ZM1251.25-3.43735 1271.88-3.43734C1273.77-3.43734 1275.31-1.89832 1275.31 0.000156916 1275.31 1.89864 1273.77 3.43766 1271.88 3.43766L1251.25 3.43765C1249.35 3.43765 1247.81 1.89863 1247.81 0.000153532 1247.81-1.89833 1249.35-3.43735 1251.25-3.43735ZM1299.38-3.43734 1320-3.43734C1321.9-3.43734 1323.44-1.89832 1323.44 0.000162837 1323.44 1.89864 1321.9 3.43766 1320 3.43766L1299.38 3.43766C1297.48 3.43766 1295.94 1.89864 1295.94 0.000159454 1295.94-1.89832 1297.48-3.43734 1299.38-3.43734ZM1347.5-3.43733 1368.12-3.43733C1370.02-3.43733 1371.56-1.89831 1371.56 0.000168759 1371.56 1.89865 1370.02 3.43767 1368.12 3.43767L1347.5 3.43767C1345.6 3.43767 1344.06 1.89864 1344.06 0.000165375 1344.06-1.89831 1345.6-3.43733 1347.5-3.43733ZM1395.62-3.43733 1416.25-3.43733C1418.15-3.43733 1419.69-1.8983 1419.69 0.00017468 1419.69 1.89865 1418.15 3.43767 1416.25 3.43767L1395.62 3.43767C1393.73 3.43767 1392.19 1.89865 1392.19 0.000171296 1392.19-1.89831 1393.73-3.43733 1395.62-3.43733ZM1443.75-3.43732 1464.38-3.43732C1466.27-3.43732 1467.81-1.8983 1467.81 0.000180601 1467.81 1.89866 1466.27 3.43768 1464.38 3.43768L1443.75 3.43768C1441.85 3.43768 1440.31 1.89866 1440.31 0.000177218 1440.31-1.8983 1441.85-3.43732 1443.75-3.43732ZM1491.88-3.43732 1512.5-3.43731C1514.4-3.43731 1515.94-1.89829 1515.94 0.000186523 1515.94 1.89867 1514.4 3.43769 1512.5 3.43769L1491.88 3.43768C1489.98 3.43768 1488.44 1.89866 1488.44 0.000183139 1488.44-1.8983 1489.98-3.43732 1491.88-3.43732ZM1540-3.43731 1560.62-3.43731C1562.52-3.43731 1564.06-1.89829 1564.06 0.000192444 1564.06 1.89867 1562.52 3.43769 1560.62 3.43769L1540 3.43769C1538.1 3.43769 1536.56 1.89867 1536.56 0.000189061 1536.56-1.89829 1538.1-3.43731 1540-3.43731ZM1588.12-3.4373 1608.75-3.4373C1610.65-3.4373 1612.19-1.89828 1612.19 0.000198365 1612.19 1.89868 1610.65 3.4377 1608.75 3.4377L1588.12 3.4377C1586.23 3.43769 1584.69 1.89867 1584.69 0.000194982 1584.69-1.89828 1586.23-3.4373 1588.12-3.4373ZM1636.25-3.4373 1656.88-3.4373C1658.77-3.4373 1660.31-1.89827 1660.31 0.000204287 1660.31 1.89868 1658.77 3.4377 1656.88 3.4377L1636.25 3.4377C1634.35 3.4377 1632.81 1.89868 1632.81 0.000200903 1632.81-1.89828 1634.35-3.4373 1636.25-3.4373ZM1684.38-3.43729 1705-3.43729C1706.9-3.43729 1708.44-1.89827 1708.44 0.000210208 1708.44 1.89869 1706.9 3.43771 1705 3.43771L1684.38 3.43771C1682.48 3.43771 1680.94 1.89869 1680.94 0.000206825 1680.94-1.89827 1682.48-3.43729 1684.38-3.43729ZM1732.5-3.43729 1753.12-3.43728C1755.02-3.43728 1756.56-1.89826 1756.56 0.00021613 1756.56 1.89869 1755.02 3.43772 1753.12 3.43772L1732.5 3.43771C1730.6 3.43771 1729.06 1.89869 1729.06 0.000212746 1729.06-1.89827 1730.6-3.43729 1732.5-3.43729ZM1780.62-3.43728 1801.25-3.43728C1803.15-3.43728 1804.69-1.89826 1804.69 0.000222051 1804.69 1.8987 1803.15 3.43772 1801.25 3.43772L1780.62 3.43772C1778.73 3.43772 1777.19 1.8987 1777.19 0.000218667 1777.19-1.89826 1778.73-3.43728 1780.62-3.43728ZM1828.75-3.43728 1849.38-3.43727C1851.27-3.43727 1852.81-1.89825 1852.81 0.000227972 1852.81 1.89871 1851.27 3.43773 1849.38 3.43773L1828.75 3.43772C1826.85 3.43772 1825.31 1.8987 1825.31 0.000224589 1825.31-1.89825 1826.85-3.43728 1828.75-3.43728ZM1876.88-3.43727 1897.5-3.43727C1899.4-3.43727 1900.94-1.89824 1900.94 0.000233894 1900.94 1.89871 1899.4 3.43773 1897.5 3.43773L1876.88 3.43773C1874.98 3.43773 1873.44 1.89871 1873.44 0.00023051 1873.44-1.89825 1874.98-3.43727 1876.88-3.43727ZM1925-3.43726 1945.62-3.43726C1947.52-3.43726 1949.06-1.89824 1949.06 0.000239815 1949.06 1.89872 1947.52 3.43774 1945.62 3.43774L1925 3.43774C1923.1 3.43774 1921.56 1.89872 1921.56 0.000236431 1921.56-1.89824 1923.1-3.43726 1925-3.43726ZM1973.12-3.43726 1993.75-3.43725C1995.65-3.43725 1997.19-1.89823 1997.19 0.000245736 1997.19 1.89872 1995.65 3.43775 1993.75 3.43775L1973.12 3.43774C1971.23 3.43774 1969.69 1.89872 1969.69 0.000242353 1969.69-1.89824 1971.23-3.43726 1973.12-3.43726ZM2021.25-3.43725 2041.88-3.43725C2043.77-3.43725 2045.31-1.89823 2045.31 0.000251658 2045.31 1.89873 2043.77 3.43775 2041.88 3.43775L2021.25 3.43775C2019.35 3.43775 2017.81 1.89873 2017.81 0.000248274 2017.81-1.89823 2019.35-3.43725 2021.25-3.43725ZM2069.38-3.43725 2090-3.43724C2091.9-3.43724 2093.44-1.89822 2093.44 0.000257579 2093.44 1.89874 2091.9 3.43776 2090 3.43776L2069.38 3.43775C2067.48 3.43775 2065.94 1.89873 2065.94 0.000254195 2065.94-1.89822 2067.48-3.43725 2069.38-3.43725ZM2117.5-3.43724 2138.12-3.43724C2140.02-3.43724 2141.56-1.89822 2141.56 0.0002635 2141.56 1.89874 2140.02 3.43776 2138.12 3.43776L2117.5 3.43776C2115.6 3.43776 2114.06 1.89874 2114.06 0.000260117 2114.06-1.89822 2115.6-3.43724 2117.5-3.43724ZM2165.62-3.43723 2186.25-3.43723C2188.15-3.43723 2189.69-1.89821 2189.69 0.000269422 2189.69 1.89875 2188.15 3.43777 2186.25 3.43777L2165.62 3.43777C2163.73 3.43777 2162.19 1.89874 2162.19 0.000266038 2162.19-1.89821 2163.73-3.43723 2165.62-3.43723ZM2213.75-3.43723 2234.38-3.43723C2236.27-3.43722 2237.81-1.8982 2237.81 0.000275343 2237.81 1.89875 2236.27 3.43778 2234.38 3.43777L2213.75 3.43777C2211.85 3.43777 2210.31 1.89875 2210.31 0.00027196 2210.31-1.89821 2211.85-3.43723 2213.75-3.43723ZM2261.88-3.43722 2282.5-3.43722C2284.4-3.43722 2285.94-1.8982 2285.94 0.000281265 2285.94 1.89876 2284.4 3.43778 2282.5 3.43778L2261.88 3.43778C2259.98 3.43778 2258.44 1.89876 2258.44 0.000277881 2258.44-1.8982 2259.98-3.43722 2261.88-3.43722ZM2310-3.43722 2330.62-3.43721C2332.52-3.43721 2334.06-1.89819 2334.06 0.000287186 2334.06 1.89877 2332.52 3.43779 2330.62 3.43779L2310 3.43778C2308.1 3.43778 2306.56 1.89876 2306.56 0.000283802 2306.56-1.8982 2308.1-3.43722 2310-3.43722ZM2358.12-3.43721 2378.75-3.43721C2380.65-3.43721 2382.19-1.89819 2382.19 0.000293107 2382.19 1.89877 2380.65 3.43779 2378.75 3.43779L2358.12 3.43779C2356.23 3.43779 2354.69 1.89877 2354.69 0.000289724 2354.69-1.89819 2356.23-3.43721 2358.12-3.43721ZM2406.25-3.4372 2426.88-3.4372C2428.77-3.4372 2430.31-1.89818 2430.31 0.000299029 2430.31 1.89878 2428.77 3.4378 2426.88 3.4378L2406.25 3.4378C2404.35 3.4378 2402.81 1.89877 2402.81 0.000295645 2402.81-1.89818 2404.35-3.4372 2406.25-3.4372ZM2454.38-3.4372 2475-3.4372C2476.9-3.4372 2478.44-1.89817 2478.44 0.00030495 2478.44 1.89878 2476.9 3.4378 2475 3.4378L2454.38 3.4378C2452.48 3.4378 2450.94 1.89878 2450.94 0.000301566 2450.94-1.89818 2452.48-3.4372 2454.38-3.4372ZM2502.5-3.43719 2523.12-3.43719C2525.02-3.43719 2526.56-1.89817 2526.56 0.000310871 2526.56 1.89879 2525.02 3.43781 2523.12 3.43781L2502.5 3.43781C2500.6 3.43781 2499.06 1.89879 2499.06 0.000307488 2499.06-1.89817 2500.6-3.43719 2502.5-3.43719ZM2550.62-3.43719 2571.25-3.43718C2573.15-3.43718 2574.69-1.89816 2574.69 0.000316793 2574.69 1.8988 2573.15 3.43782 2571.25 3.43782L2550.62 3.43781C2548.73 3.43781 2547.19 1.89879 2547.19 0.000313409 2547.19-1.89817 2548.73-3.43719 2550.62-3.43719ZM2598.75-3.43718 2619.38-3.43718C2621.27-3.43718 2622.81-1.89816 2622.81 0.000322714 2622.81 1.8988 2621.27 3.43782 2619.38 3.43782L2598.75 3.43782C2596.85 3.43782 2595.31 1.8988 2595.31 0.00031933 2595.31-1.89816 2596.85-3.43718 2598.75-3.43718ZM2646.88-3.43717 2667.5-3.43717C2669.4-3.43717 2670.94-1.89815 2670.94 0.000328635 2670.94 1.89881 2669.4 3.43783 2667.5 3.43783L2646.88 3.43783C2644.98 3.43783 2643.44 1.8988 2643.44 0.000325252 2643.44-1.89815 2644.98-3.43717 2646.88-3.43717ZM2695-3.43717 2715.62-3.43717C2717.52-3.43717 2719.06-1.89814 2719.06 0.000334557 2719.06 1.89881 2717.52 3.43783 2715.62 3.43783L2695 3.43783C2693.1 3.43783 2691.56 1.89881 2691.56 0.000331173 2691.56-1.89815 2693.1-3.43717 2695-3.43717ZM2743.12-3.43716 2763.75-3.43716C2765.65-3.43716 2767.19-1.89814 2767.19 0.000340478 2767.19 1.89882 2765.65 3.43784 2763.75 3.43784L2743.12 3.43784C2741.23 3.43784 2739.69 1.89882 2739.69 0.000337095 2739.69-1.89814 2741.23-3.43716 2743.12-3.43716ZM2791.25-3.43716 2811.88-3.43715C2813.77-3.43715 2815.31-1.89813 2815.31 0.000346399 2815.31 1.89883 2813.77 3.43785 2811.88 3.43785L2791.25 3.43784C2789.35 3.43784 2787.81 1.89882 2787.81 0.000343016 2787.81-1.89814 2789.35-3.43716 2791.25-3.43716ZM2839.38-3.43715 2860-3.43715C2861.9-3.43715 2863.44-1.89813 2863.44 0.000352321 2863.44 1.89883 2861.9 3.43785 2860 3.43785L2839.38 3.43785C2837.48 3.43785 2835.94 1.89883 2835.94 0.000348937 2835.94-1.89813 2837.48-3.43715 2839.38-3.43715ZM2887.5-3.43714 2908.12-3.43714C2910.02-3.43714 2911.56-1.89812 2911.56 0.000358242 2911.56 1.89884 2910.02 3.43786 2908.12 3.43786L2887.5 3.43786C2885.6 3.43786 2884.06 1.89883 2884.06 0.000354859 2884.06-1.89812 2885.6-3.43714 2887.5-3.43714Z" fill="#0070F2" fill-rule="nonzero" fill-opacity="1" transform="matrix(-1 0 0 1 3426.6 1277.5)"/><path d="M2758 1277C2758 1233.92 2792.92 1199 2836 1199L3231 1199C3274.08 1199 3309 1233.92 3309 1277 3309 1320.08 3274.08 1355 3231 1355L2836 1355C2792.92 1355 2758 1320.08 2758 1277Z" stroke="#FFFFFF" stroke-width="13.75" stroke-linecap="butt" stroke-linejoin="miter" stroke-miterlimit="8" stroke-opacity="1" fill="url(#fill15)" fill-rule="evenodd"/><path d="M3099.71 1287.65C3098.82 1288.4 3098.23 1289.41 3098.23 1290.79 3098.23 1293.39 3099.97 1294.57 3104.94 1294.57 3109.56 1294.57 3111.78 1293.61 3111.78 1291.03 3111.78 1288.85 3109.91 1288.4 3105.17 1288.19 3103.2 1288.07 3101.33 1287.96 3099.71 1287.65ZM2989.82 1267.07C2985.84 1267.07 2983 1270.03 2983 1275.56 2983 1281.07 2985.84 1284.04 2989.82 1284.04 2993.81 1284.04 2996.67 1281.07 2996.67 1275.56 2996.67 1270.03 2993.81 1267.07 2989.82 1267.07ZM2917.52 1267.07C2913.53 1267.07 2910.67 1270.03 2910.67 1275.56 2910.67 1281.07 2913.53 1284.04 2917.52 1284.04 2921.5 1284.04 2924.36 1281.07 2924.36 1275.56 2924.36 1270.03 2921.5 1267.07 2917.52 1267.07ZM3078.75 1266.82C3075.47 1266.82 3072.96 1268.81 3072.38 1273.33L3084.61 1273.33C3084.28 1268.81 3082.08 1266.82 3078.75 1266.82ZM3104.68 1266.39C3101.7 1266.39 3099.9 1268.25 3099.9 1271.22 3099.9 1274.34 3101.8 1275.91 3104.52 1275.91 3107.47 1275.91 3109.32 1274.03 3109.32 1271.22 3109.32 1268.25 3107.59 1266.39 3104.68 1266.39ZM3188.09 1262.74 3194.44 1262.74 3199.15 1276.05C3199.81 1277.93 3200.86 1281.25 3201.02 1282.05 3201.21 1281.14 3202.27 1278.23 3202.88 1276.36L3207.26 1262.74 3213.42 1262.74 3202.48 1292.57C3200.88 1297 3198.73 1298.83 3193.66 1298.83 3192.19 1298.83 3190.88 1298.69 3189.98 1298.53L3189.98 1293.63C3190.66 1293.84 3191.67 1293.98 3192.7 1293.98 3195.33 1293.98 3196.48 1293.07 3197.2 1291.03L3198.07 1288.64ZM3120.92 1262.74 3126.85 1262.74 3126.85 1288.38 3120.92 1288.38ZM3184.89 1262.25C3185.83 1262.25 3186.63 1262.41 3187.1 1262.57L3187.1 1268.13C3186.46 1267.96 3185.53 1267.82 3184.64 1267.82 3180.42 1267.82 3178.99 1270.73 3178.99 1275.49L3178.99 1288.38 3173.06 1288.38 3173.06 1262.74 3178.8 1262.74 3178.8 1268.25 3178.89 1268.25C3179.76 1264.14 3181.68 1262.25 3184.89 1262.25ZM3141.48 1262.25C3145.45 1262.25 3148.7 1263.46 3151 1265.74L3147.53 1269.21C3145.8 1267.43 3143.66 1266.77 3141.58 1266.77 3139.12 1266.77 3137.5 1267.61 3137.5 1269.49 3137.5 1271.39 3139.59 1272 3143.06 1272.91 3147.11 1273.94 3151.47 1275.35 3151.47 1281 3151.47 1285.96 3147.46 1288.85 3141.16 1288.85 3136.68 1288.85 3133.05 1287.58 3130.56 1284.89L3134.13 1281.32C3136.16 1283.57 3138.37 1284.28 3141.06 1284.28 3143.66 1284.28 3145.7 1283.53 3145.7 1281.42 3145.7 1279.1 3143.52 1278.46 3139.84 1277.5 3135.88 1276.47 3131.76 1274.81 3131.76 1269.75 3131.76 1264.99 3135.41 1262.25 3141.48 1262.25ZM3078.89 1262.25C3087.47 1262.25 3090.52 1268.53 3090.52 1274.76 3090.52 1275.51 3090.47 1276.28 3090.42 1277.01L3072.28 1277.01C3072.7 1281.89 3075.23 1284.21 3079.69 1284.21 3082.57 1284.21 3084.49 1283.36 3086.23 1281.35L3089.67 1284.79C3087.28 1287.49 3084.35 1288.85 3079.41 1288.85 3071.18 1288.85 3066.02 1284.14 3066.02 1275.56 3066.02 1266.63 3071.91 1262.25 3078.89 1262.25ZM2992 1262.25C2998.52 1262.25 3002.88 1267.31 3002.88 1275.56 3002.88 1283.55 2998.87 1288.85 2992.21 1288.85 2987.25 1288.85 2984.39 1286.2 2983.17 1283.29L2983.05 1283.29 2983.05 1298.36 2977.12 1298.36 2977.12 1262.74 2982.86 1262.74 2982.86 1268.01 2982.93 1268.01C2984.18 1265.06 2986.59 1262.25 2992 1262.25ZM2948.7 1262.25C2952.24 1262.25 2954.75 1264.07 2955.64 1268.15L2955.78 1268.15C2957 1264.07 2959.98 1262.25 2963.63 1262.25 2968.65 1262.25 2971.11 1265.25 2971.11 1271.36L2971.11 1288.38 2965.18 1288.38 2965.18 1272.77C2965.18 1269.39 2964.2 1267.36 2961.22 1267.36 2958.1 1267.36 2956.16 1269.65 2956.16 1273.92L2956.16 1288.38 2950.25 1288.38 2950.25 1272.77C2950.25 1269.39 2949.24 1267.36 2946.27 1267.36 2943.13 1267.36 2941.23 1269.65 2941.23 1273.92L2941.23 1288.38 2935.3 1288.38 2935.3 1262.74 2941.04 1262.74 2941.04 1268.15 2941.13 1268.15C2942.33 1264.45 2944.88 1262.25 2948.7 1262.25ZM2917.52 1262.25C2925.18 1262.25 2930.57 1267.47 2930.57 1275.56 2930.57 1283.64 2925.18 1288.85 2917.52 1288.85 2909.85 1288.85 2904.46 1283.64 2904.46 1275.56 2904.46 1267.47 2909.85 1262.25 2917.52 1262.25ZM2899.58 1262.25C2900.52 1262.25 2901.32 1262.41 2901.78 1262.57L2901.78 1268.13C2901.15 1267.96 2900.21 1267.82 2899.32 1267.82 2895.1 1267.82 2893.68 1270.73 2893.68 1275.49L2893.68 1288.38 2887.75 1288.38 2887.75 1262.74 2893.49 1262.74 2893.49 1268.25 2893.58 1268.25C2894.45 1264.14 2896.37 1262.25 2899.58 1262.25ZM2863.94 1260.72 2863.94 1271.43 2871.16 1271.43C2875.52 1271.43 2877.56 1269.32 2877.56 1265.95 2877.56 1262.55 2875.31 1260.72 2870.97 1260.72ZM3042.12 1260.7 3042.12 1270.78 3049.32 1270.78C3053.79 1270.78 3055.81 1268.55 3055.81 1265.62 3055.81 1262.22 3053.35 1260.7 3049.18 1260.7ZM3116.73 1258.78 3117.55 1258.78 3117.55 1263.93 3116.68 1263.93C3114.41 1263.93 3113.35 1264.21 3112.51 1264.8 3114.27 1266.44 3115.06 1268.74 3115.06 1271.22 3115.06 1275.98 3111.71 1280.06 3104.54 1280.06 3102.88 1280.06 3101.4 1279.85 3100.11 1279.43 3099.76 1279.82 3099.52 1280.29 3099.52 1280.83 3099.52 1282.59 3101.52 1282.85 3106.02 1283.08 3112.46 1283.39 3117.71 1284.32 3117.71 1290.39 3117.71 1295.97 3113.61 1298.83 3104.63 1298.83 3096.2 1298.83 3092.87 1296.23 3092.87 1292.46 3092.87 1289.76 3094.79 1287.84 3097.6 1287.09 3095.77 1286.41 3094.63 1285.28 3094.63 1283.34 3094.63 1281.23 3095.96 1279.61 3098.4 1278.7 3095.63 1277.22 3094.16 1274.6 3094.16 1271.22 3094.16 1266.35 3097.37 1262.25 3104.63 1262.25 3107.31 1262.25 3109.39 1262.78 3110.98 1263.68 3111.81 1260.7 3113.47 1258.78 3116.73 1258.78ZM3161.24 1256.08 3162.36 1256.08 3162.36 1262.74 3167.92 1262.74 3167.92 1267.33 3162.36 1267.33 3162.36 1280.83C3162.36 1283.08 3163.09 1283.69 3165.1 1283.69 3166.11 1283.69 3167.07 1283.53 3167.92 1283.29L3167.92 1288.38C3166.89 1288.64 3165.36 1288.8 3163.86 1288.8 3158.71 1288.8 3156.43 1286.9 3156.43 1281.98L3156.43 1267.33 3152.68 1267.33 3152.68 1264.61ZM3012.85 1256.08 3013.98 1256.08 3013.98 1262.74 3019.53 1262.74 3019.53 1267.33 3013.98 1267.33 3013.98 1280.83C3013.98 1283.08 3014.7 1283.69 3016.72 1283.69 3017.73 1283.69 3018.69 1283.53 3019.53 1283.29L3019.53 1288.38C3018.5 1288.64 3016.98 1288.8 3015.48 1288.8 3010.32 1288.8 3008.05 1286.9 3008.05 1281.98L3008.05 1267.33 3004.3 1267.33 3004.3 1264.61ZM3035.89 1255.36 3049.93 1255.36C3057.96 1255.36 3062.07 1259.2 3062.07 1265.46 3062.07 1269.91 3059.46 1273.8 3054.59 1275.07L3063.66 1288.38 3056.42 1288.38 3048.54 1276.03 3042.12 1276.03 3042.12 1288.38 3035.89 1288.38ZM2857.71 1255.36 2871.7 1255.36C2879.95 1255.36 2883.82 1259.6 2883.82 1265.88 2883.82 1271.74 2880.04 1276.73 2872.03 1276.73L2863.94 1276.73 2863.94 1288.38 2857.71 1288.38ZM3123.88 1252.1C3125.94 1252.1 3127.44 1253.53 3127.44 1255.59 3127.44 1257.65 3125.94 1259.06 3123.88 1259.06 3121.81 1259.06 3120.34 1257.65 3120.34 1255.59 3120.34 1253.53 3121.81 1252.1 3123.88 1252.1Z" fill="url(#fill16)" fill-rule="evenodd"/><text fill="#000000" fill-opacity="0" font-family="Arial,Arial_MSFontService,sans-serif" font-size="46.7344" direction="ltr" writing-mode="lr-tb" x="2857.71" y="1292.99">Prompt Registry</text><path d="M2973.5 1310.5 3095.5 1310.5C3120.35 1310.5 3140.5 1330.65 3140.5 1355.5 3140.5 1380.35 3120.35 1400.5 3095.5 1400.5L2973.5 1400.5C2948.65 1400.5 2928.5 1380.35 2928.5 1355.5L2928.5 1355.5C2928.5 1330.65 2948.65 1310.5 2973.5 1310.5Z" stroke="#FFFFFF" stroke-width="9.16667" stroke-linecap="butt" stroke-linejoin="miter" stroke-miterlimit="8" stroke-opacity="1" fill="#002A86" fill-rule="evenodd" fill-opacity="1"/><path d="M3060.85 1349.02C3057.78 1349.02 3055.57 1351.3 3055.57 1355.56 3055.57 1359.81 3057.78 1362.1 3060.85 1362.1 3063.92 1362.1 3066.12 1359.81 3066.12 1355.56 3066.12 1351.3 3063.92 1349.02 3060.85 1349.02ZM3071.97 1345.68 3076.52 1345.68 3079.25 1357.4C3079.56 1358.8 3079.9 1360.55 3080.01 1361.38 3080.14 1360.55 3080.52 1358.81 3080.81 1357.48L3083.71 1345.68 3088.77 1345.68 3091.57 1357.48C3091.88 1358.81 3092.22 1360.6 3092.33 1361.38 3092.46 1360.6 3092.77 1359.08 3093.15 1357.48L3096.02 1345.68 3100.35 1345.68 3095.02 1365.44 3089.69 1365.44 3087.06 1354.06C3086.71 1352.58 3086.26 1350.54 3086.17 1349.91 3086.1 1350.54 3085.67 1352.58 3085.3 1354.06L3082.58 1365.44 3077.25 1365.44ZM3060.85 1345.3C3066.75 1345.3 3070.91 1349.33 3070.91 1355.56 3070.91 1361.79 3066.75 1365.81 3060.85 1365.81 3054.94 1365.81 3050.78 1361.79 3050.78 1355.56 3050.78 1349.33 3054.94 1345.3 3060.85 1345.3ZM3041.24 1345.3C3045.49 1345.3 3047.39 1348.19 3047.39 1352.4L3047.39 1365.44 3042.82 1365.44 3042.82 1353.5C3042.82 1350.85 3041.89 1349.24 3039.24 1349.24 3036.51 1349.24 3034.83 1351.05 3034.83 1354.37L3034.83 1365.44 3030.26 1365.44 3030.26 1345.68 3034.69 1345.68 3034.69 1349.83 3034.76 1349.83C3035.66 1347.58 3037.47 1345.3 3041.24 1345.3ZM3007.27 1343.67C3007 1344.61 3006.44 1346.33 3006 1347.59L3003.4 1355.36 3011.17 1355.36 3008.57 1347.59C3008.14 1346.33 3007.54 1344.61 3007.27 1343.67ZM3004.52 1339.99 3010.14 1339.99 3019.48 1365.44 3014.55 1365.44 3012.47 1359.25 3002.08 1359.25 3000.01 1365.44 2995.2 1365.44ZM2982.19 1339.61C2986.81 1339.61 2989.96 1341.14 2992.2 1343.8L2988.96 1347.03C2987.52 1345.14 2985.59 1343.87 2982.19 1343.87 2976.75 1343.87 2973.92 1347.16 2973.92 1352.71 2973.92 1358.51 2976.84 1361.56 2981.81 1361.56 2986.56 1361.56 2988.91 1358.78 2988.91 1355.4L2982.86 1355.4 2982.86 1351.52 2993.5 1351.52 2993.5 1365.44 2989.4 1365.44 2989.4 1361.05C2988.06 1364.25 2984.77 1365.81 2980.96 1365.81 2974.71 1365.81 2968.95 1361.63 2968.95 1352.8 2968.95 1344.81 2973.79 1339.61 2982.19 1339.61Z" fill="url(#fill17)" fill-rule="evenodd"/><text fill="#000000" fill-opacity="0" font-family="Arial,Arial_MSFontService,sans-serif" font-size="26.1963" direction="ltr" writing-mode="lr-tb" x="2968.95" y="1362.53">GA now</text><path d="M661 1277C661 1233.92 695.922 1199 739 1199L1134 1199C1177.08 1199 1212 1233.92 1212 1277 1212 1320.08 1177.08 1355 1134 1355L739 1355C695.922 1355 661 1320.08 661 1277Z" stroke="#FFFFFF" stroke-width="13.75" stroke-linecap="butt" stroke-linejoin="miter" stroke-miterlimit="8" stroke-opacity="1" fill="url(#fill18)" fill-rule="evenodd"/><path d="M895.547 1276.71C892.148 1276.71 889.289 1277.62 889.289 1280.83 889.289 1282.96 890.742 1284.28 893.156 1284.28 896.976 1284.28 899.179 1281.39 899.179 1278.37L899.179 1276.71ZM867.08 1267.07C863.096 1267.07 860.26 1270.03 860.26 1275.56 860.26 1281.07 863.096 1284.04 867.08 1284.04 871.065 1284.04 873.924 1281.07 873.924 1275.56 873.924 1270.03 871.065 1267.07 867.08 1267.07ZM835.521 1267.07C831.513 1267.07 828.677 1270.03 828.677 1275.56 828.677 1281.07 831.513 1284.04 835.521 1284.04 839.505 1284.04 842.341 1281.07 842.341 1275.56 842.341 1270.03 839.505 1267.07 835.521 1267.07ZM1121.58 1266.82C1118.3 1266.82 1115.79 1268.81 1115.21 1273.33L1127.44 1273.33C1127.11 1268.81 1124.91 1266.82 1121.58 1266.82ZM1013.3 1266.82C1010.02 1266.82 1007.51 1268.81 1006.92 1273.33L1019.16 1273.33C1018.83 1268.81 1016.63 1266.82 1013.3 1266.82ZM807.622 1266.82C804.341 1266.82 801.833 1268.81 801.247 1273.33L813.481 1273.33C813.153 1268.81 810.95 1266.82 807.622 1266.82ZM780.122 1266.82C776.841 1266.82 774.333 1268.81 773.747 1273.33L785.982 1273.33C785.653 1268.81 783.45 1266.82 780.122 1266.82ZM1073.23 1262.74 1079.16 1262.74 1079.16 1288.38 1073.23 1288.38ZM1044.91 1262.74 1051.23 1262.74 1055.85 1277.71C1056.37 1279.4 1057.02 1281.75 1057.4 1283.25 1057.75 1281.75 1058.5 1279.4 1059.02 1277.71L1063.82 1262.74 1070.12 1262.74 1060.98 1288.38 1053.72 1288.38ZM1121.72 1262.25C1130.3 1262.25 1133.35 1268.53 1133.35 1274.76 1133.35 1275.51 1133.3 1276.28 1133.25 1277.01L1115.11 1277.01C1115.53 1281.89 1118.06 1284.21 1122.52 1284.21 1125.4 1284.21 1127.32 1283.36 1129.06 1281.35L1132.5 1284.79C1130.11 1287.49 1127.18 1288.85 1122.24 1288.85 1114.01 1288.85 1108.85 1284.14 1108.85 1275.56 1108.85 1266.63 1114.74 1262.25 1121.72 1262.25ZM1096.56 1262.25C1101.41 1262.25 1104.76 1264.17 1106.8 1266.93L1103 1270.28C1101.53 1268.22 1099.56 1267.07 1096.82 1267.07 1092.67 1267.07 1089.86 1269.89 1089.86 1275.56 1089.86 1281.23 1092.67 1284.04 1096.82 1284.04 1099.54 1284.04 1101.5 1282.87 1103 1280.81L1106.8 1284.18C1104.76 1286.95 1101.41 1288.85 1096.56 1288.85 1088.99 1288.85 1083.65 1284.07 1083.65 1275.56 1083.65 1267.03 1088.99 1262.25 1096.56 1262.25ZM1041.53 1262.25C1042.46 1262.25 1043.26 1262.41 1043.73 1262.57L1043.73 1268.13C1043.1 1267.96 1042.16 1267.82 1041.27 1267.82 1037.05 1267.82 1035.62 1270.73 1035.62 1275.49L1035.62 1288.38 1029.69 1288.38 1029.69 1262.74 1035.43 1262.74 1035.43 1268.25 1035.53 1268.25C1036.39 1264.14 1038.31 1262.25 1041.53 1262.25ZM1013.44 1262.25C1022.02 1262.25 1025.06 1268.53 1025.06 1274.76 1025.06 1275.51 1025.02 1276.28 1024.97 1277.01L1006.83 1277.01C1007.25 1281.89 1009.78 1284.21 1014.24 1284.21 1017.12 1284.21 1019.04 1283.36 1020.78 1281.35L1024.22 1284.79C1021.83 1287.49 1018.9 1288.85 1013.96 1288.85 1005.73 1288.85 1000.57 1284.14 1000.57 1275.56 1000.57 1266.63 1006.46 1262.25 1013.44 1262.25ZM922.393 1262.25C927.245 1262.25 930.596 1264.17 932.635 1266.93L928.838 1270.28C927.362 1268.22 925.393 1267.07 922.651 1267.07 918.502 1267.07 915.69 1269.89 915.69 1275.56 915.69 1281.23 918.502 1284.04 922.651 1284.04 925.37 1284.04 927.338 1282.87 928.838 1280.81L932.635 1284.18C930.596 1286.95 927.245 1288.85 922.393 1288.85 914.823 1288.85 909.479 1284.07 909.479 1275.56 909.479 1267.03 914.823 1262.25 922.393 1262.25ZM895.195 1262.25C901.711 1262.25 905.086 1265.64 905.086 1271.86L905.086 1288.38 899.367 1288.38 899.367 1283.62 899.226 1283.62C897.656 1287.21 895.078 1288.85 891.047 1288.85 886.57 1288.85 883.383 1286.18 883.383 1281.39 883.383 1275.89 887.883 1273.31 894.539 1273.31L899.179 1273.31 899.179 1271.83C899.179 1268.74 897.679 1267.05 894.562 1267.05 891.656 1267.05 889.617 1268.29 888.023 1270.31L884.484 1266.79C886.851 1264.21 890.062 1262.25 895.195 1262.25ZM807.763 1262.25C816.341 1262.25 819.388 1268.53 819.388 1274.76 819.388 1275.51 819.341 1276.28 819.294 1277.01L801.153 1277.01C801.575 1281.89 804.107 1284.21 808.56 1284.21 811.442 1284.21 813.364 1283.36 815.099 1281.35L818.544 1284.79C816.153 1287.49 813.224 1288.85 808.278 1288.85 800.052 1288.85 794.896 1284.14 794.896 1275.56 794.896 1266.63 800.778 1262.25 807.763 1262.25ZM780.263 1262.25C788.841 1262.25 791.888 1268.53 791.888 1274.76 791.888 1275.51 791.841 1276.28 791.794 1277.01L773.653 1277.01C774.075 1281.89 776.607 1284.21 781.06 1284.21 783.942 1284.21 785.864 1283.36 787.599 1281.35L791.044 1284.79C788.653 1287.49 785.724 1288.85 780.778 1288.85 772.552 1288.85 767.396 1284.14 767.396 1275.56 767.396 1266.63 773.278 1262.25 780.263 1262.25ZM742.414 1255.36 764.093 1255.36 764.093 1260.82 748.648 1260.82 748.648 1269.79 763.554 1269.79 763.554 1275.21 748.648 1275.21 748.648 1288.38 742.414 1288.38ZM985.005 1254.86C990.396 1254.86 994.286 1256.64 996.841 1259.62L992.974 1263.49C990.935 1261.17 988.403 1259.9 984.794 1259.9 980.716 1259.9 978.958 1261.59 978.958 1263.84 978.958 1266.82 981.982 1267.61 986.153 1268.67 991.708 1269.98 997.614 1271.55 997.614 1278.86 997.614 1284.79 993.185 1288.85 984.677 1288.85 978.442 1288.85 974.036 1286.76 971.341 1283.32L975.325 1279.31C977.341 1281.93 980.153 1283.69 984.794 1283.69 988.591 1283.69 991.474 1282.43 991.474 1279.33 991.474 1276.07 988.146 1275.14 983.646 1274.03 978.466 1272.79 972.841 1271.08 972.841 1264.19 972.841 1257.7 978.161 1254.86 985.005 1254.86ZM936.304 1253.43 942.234 1253.43 942.234 1273.92 951.75 1262.74 958.758 1262.74 949.031 1273.52 959.32 1288.38 952.359 1288.38 944.883 1277.11 942.234 1279.8 942.234 1288.38 936.304 1288.38ZM854.377 1253.43 860.307 1253.43 860.307 1267.82 860.424 1267.82C861.643 1264.92 864.502 1262.25 869.471 1262.25 876.127 1262.25 880.135 1267.57 880.135 1275.56 880.135 1283.81 875.776 1288.85 869.26 1288.85 863.846 1288.85 861.432 1286.06 860.19 1283.11L860.12 1283.11 860.12 1288.38 854.377 1288.38ZM842.294 1253.43 848.224 1253.43 848.224 1288.38 842.505 1288.38 842.505 1283.11 842.388 1283.11C841.146 1286.06 838.755 1288.85 833.341 1288.85 826.825 1288.85 822.466 1283.81 822.466 1275.56 822.466 1267.57 826.474 1262.25 833.107 1262.25 838.099 1262.25 840.981 1264.92 842.177 1267.82L842.294 1267.82ZM1076.18 1252.1C1078.25 1252.1 1079.75 1253.53 1079.75 1255.59 1079.75 1257.65 1078.25 1259.06 1076.18 1259.06 1074.12 1259.06 1072.65 1257.65 1072.65 1255.59 1072.65 1253.53 1074.12 1252.1 1076.18 1252.1Z" fill="url(#fill19)" fill-rule="evenodd"/><text fill="#000000" fill-opacity="0" font-family="Arial,Arial_MSFontService,sans-serif" font-size="36.75" direction="ltr" writing-mode="lr-tb" x="742.414" y="1284.25">Feedback Service</text><path d="M863.5 1310.5 1011.5 1310.5C1036.35 1310.5 1056.5 1330.65 1056.5 1355.5L1056.5 1355.5C1056.5 1380.35 1036.35 1400.5 1011.5 1400.5L863.5 1400.5C838.647 1400.5 818.5 1380.35 818.5 1355.5L818.5 1355.5C818.5 1330.65 838.647 1310.5 863.5 1310.5Z" stroke="#FFFFFF" stroke-width="9.16667" stroke-linecap="butt" stroke-linejoin="miter" stroke-miterlimit="8" stroke-opacity="1" fill="#002A86" fill-rule="evenodd" fill-opacity="1"/><path d="M1006.33 1352.74C1004.58 1352.74 1002.1 1353.86 1002.1 1357.19 1002.1 1359.75 1003.78 1361.9 1006.42 1361.9 1009.04 1361.9 1010.63 1359.88 1010.63 1357.28 1010.63 1354.79 1009.17 1352.74 1006.33 1352.74ZM931.792 1343.87C926.914 1343.87 923.933 1347.27 923.933 1352.71 923.933 1358.16 926.914 1361.56 931.792 1361.56 932.496 1361.56 933.147 1361.49 933.761 1361.36L931.43 1358.15 934.538 1355.76 937.356 1359.37C938.819 1357.84 939.614 1355.54 939.614 1352.71 939.614 1347.27 936.651 1343.87 931.792 1343.87ZM897.13 1343.67C896.859 1344.61 896.299 1346.33 895.865 1347.59L893.264 1355.36 901.032 1355.36 898.431 1347.59C897.997 1346.33 897.401 1344.61 897.13 1343.67ZM954.987 1339.99 959.323 1339.99 959.323 1361.6 965.302 1361.6 965.302 1365.44 948.356 1365.44 948.356 1361.6 954.679 1361.6 954.679 1344.58 948.826 1348.66 948.826 1344.13ZM894.384 1339.99 900.003 1339.99 909.343 1365.44 904.411 1365.44 902.333 1359.25 891.945 1359.25 889.867 1365.44 885.062 1365.44ZM1007.2 1339.61C1010.56 1339.61 1013.03 1340.95 1014.62 1342.84L1011.75 1345.72C1010.52 1344.23 1009.13 1343.53 1007.18 1343.53 1002.99 1343.53 1001.67 1346.91 1001.67 1352.56 1002.63 1350.49 1004.78 1349.08 1007.59 1349.08 1012.09 1349.08 1015.16 1352.4 1015.16 1357.1 1015.16 1362.14 1011.66 1365.81 1006.51 1365.81 1000.46 1365.81 997.152 1361.36 997.152 1353.23 997.152 1343.85 1000.84 1339.61 1007.2 1339.61ZM985.759 1339.61C991.269 1339.61 993.871 1342.88 993.871 1346.89 993.871 1350.18 992.118 1352.64 988.975 1355.56L982.814 1361.49 994.304 1361.49 994.304 1365.44 976.563 1365.44 976.563 1362.08 985.958 1352.91C988.108 1350.77 989.156 1349.15 989.156 1347.25 989.156 1345.41 988.162 1343.75 985.217 1343.75 982.923 1343.75 981.279 1344.79 979.797 1346.76L976.852 1343.82C978.912 1341.24 981.658 1339.61 985.759 1339.61ZM931.792 1339.61C939.09 1339.61 944.583 1344.49 944.583 1352.71 944.583 1357.24 942.921 1360.77 940.193 1363.01L942.631 1366.11 939.163 1368.77 936.471 1365.06C935.026 1365.55 933.454 1365.81 931.792 1365.81 924.475 1365.81 918.964 1360.95 918.964 1352.71 918.964 1344.49 924.475 1339.61 931.792 1339.61ZM872.051 1339.61C876.676 1339.61 879.819 1341.14 882.06 1343.8L878.826 1347.03C877.38 1345.14 875.447 1343.87 872.051 1343.87 866.613 1343.87 863.776 1347.16 863.776 1352.71 863.776 1358.51 866.703 1361.56 871.672 1361.56 876.423 1361.56 878.772 1358.78 878.772 1355.4L872.719 1355.4 872.719 1351.52 883.36 1351.52 883.36 1365.44 879.259 1365.44 879.259 1361.05C877.922 1364.25 874.634 1365.81 870.822 1365.81 864.571 1365.81 858.808 1361.63 858.808 1352.8 858.808 1344.81 863.65 1339.61 872.051 1339.61Z" fill="url(#fill20)" fill-rule="evenodd"/><text fill="#000000" fill-opacity="0" font-family="Arial,Arial_MSFontService,sans-serif" font-size="29.1592" direction="ltr" writing-mode="lr-tb" x="858.808" y="1365.12">GA Q1 26</text><text fill="#002A86" fill-opacity="1" font-family="72 Brand Medium,72 Brand Medium_MSFontService,sans-serif" font-style="normal" font-variant="normal" font-weight="500" font-stretch="normal" font-size="64" text-anchor="start" direction="ltr" writing-mode="lr-tb" unicode-bidi="normal" text-decoration="none" transform="matrix(1 0 0 1 3367.35 1221)">Design Time</text><text fill="#002A86" fill-opacity="1" font-family="72 Brand Medium,72 Brand Medium_MSFontService,sans-serif" font-style="normal" font-variant="normal" font-weight="500" font-stretch="normal" font-size="64" text-anchor="start" direction="ltr" writing-mode="lr-tb" unicode-bidi="normal" text-decoration="none" transform="matrix(1 0 0 1 3367.35 1383)">Runtime</text></g></g></svg>