<?xml version="1.0" encoding="UTF-8"?>
<svg id="ripple_pattern" data-name="ripple pattern" xmlns="http://www.w3.org/2000/svg" viewBox="0 0 2648.91 757.18">
  <defs>
    <style>
      .cls-1 {
        fill: #d1efff;
        stroke-width: 0px;
      }
    </style>
  </defs>
  <polygon class="cls-1" points="643.48 538.92 643.48 551.72 656.37 551.72 669.27 538.92 643.48 538.92"/>
  <polygon class="cls-1" points="740.04 538.92 740.04 551.72 752.93 551.72 765.83 538.92 740.04 538.92"/>
  <polygon class="cls-1" points="845.48 538.92 845.48 551.72 858.38 551.72 871.27 538.92 845.48 538.92"/>
  <polygon class="cls-1" points="749.07 384.18 749.07 388.01 752.93 388.01 756.8 384.18 749.07 384.18"/>
  <polygon class="cls-1" points="1162.94 462.54 1162.94 466.38 1166.81 466.38 1170.67 462.54 1162.94 462.54"/>
  <polygon class="cls-1" points="1059.03 462.54 1059.03 466.38 1062.9 466.38 1066.77 462.54 1059.03 462.54"/>
  <polygon class="cls-1" points="1369.25 462.54 1369.25 466.38 1373.12 466.38 1376.99 462.54 1369.25 462.54"/>
  <polygon class="cls-1" points="1265.64 462.54 1265.64 466.38 1269.51 466.38 1273.38 462.54 1265.64 462.54"/>
  <polygon class="cls-1" points="1668.38 629 1668.38 632.84 1672.24 632.84 1676.11 629 1668.38 629"/>
  <polygon class="cls-1" points="1570.55 629 1570.55 632.84 1574.42 632.84 1578.28 629 1570.55 629"/>
  <polygon class="cls-1" points="1876.66 629 1876.66 632.84 1880.53 632.84 1884.4 629 1876.66 629"/>
  <polygon class="cls-1" points="1981.71 629 1981.71 632.84 1985.57 632.84 1989.44 629 1981.71 629"/>
  <polygon class="cls-1" points="1773.23 629 1773.23 632.84 1777.1 632.84 1780.97 629 1773.23 629"/>
  <polygon class="cls-1" points="1668.38 703.91 1668.38 707.75 1672.24 707.75 1676.11 703.91 1668.38 703.91"/>
  <polygon class="cls-1" points="1570.55 703.91 1570.55 707.75 1574.42 707.75 1578.28 703.91 1570.55 703.91"/>
  <polygon class="cls-1" points="1876.66 703.91 1876.66 707.75 1880.53 707.75 1884.4 703.91 1876.66 703.91"/>
  <polygon class="cls-1" points="1981.71 703.91 1981.71 707.75 1985.57 707.75 1989.44 703.91 1981.71 703.91"/>
  <polygon class="cls-1" points="1773.23 703.91 1773.23 707.75 1777.1 707.75 1780.97 703.91 1773.23 703.91"/>
  <polygon class="cls-1" points="2487.49 131.29 2487.49 135.13 2491.36 135.13 2495.23 131.29 2487.49 131.29"/>
  <polygon class="cls-1" points="2384.03 131.29 2384.03 135.13 2387.9 135.13 2391.77 131.29 2384.03 131.29"/>
  <polygon class="cls-1" points="2589.95 131.29 2589.95 135.13 2593.81 135.13 2597.68 131.29 2589.95 131.29"/>
  <polygon class="cls-1" points="2487.49 48.03 2487.49 51.87 2491.36 51.87 2495.23 48.03 2487.49 48.03"/>
  <polygon class="cls-1" points="2384.03 48.03 2384.03 51.87 2387.9 51.87 2391.77 48.03 2384.03 48.03"/>
  <polygon class="cls-1" points="2589.95 48.03 2589.95 51.87 2593.81 51.87 2597.68 48.03 2589.95 48.03"/>
  <polygon class="cls-1" points="1876.66 48.03 1876.66 51.87 1880.53 51.87 1884.4 48.03 1876.66 48.03"/>
  <polygon class="cls-1" points="1773.23 48.03 1773.23 51.87 1777.1 51.87 1780.97 48.03 1773.23 48.03"/>
  <polygon class="cls-1" points="1981.71 48.03 1981.71 51.87 1985.57 51.87 1989.44 48.03 1981.71 48.03"/>
  <polygon class="cls-1" points="1876.66 131.29 1876.66 135.13 1880.53 135.13 1884.4 131.29 1876.66 131.29"/>
  <polygon class="cls-1" points="1773.23 131.29 1773.23 135.13 1777.1 135.13 1780.97 131.29 1773.23 131.29"/>
  <polygon class="cls-1" points="1981.71 131.29 1981.71 135.13 1985.57 135.13 1989.44 131.29 1981.71 131.29"/>
  <polygon class="cls-1" points="1162.94 703.91 1162.94 707.75 1166.81 707.75 1170.67 703.91 1162.94 703.91"/>
  <polygon class="cls-1" points="1059.03 703.91 1059.03 707.75 1062.9 707.75 1066.77 703.91 1059.03 703.91"/>
  <polygon class="cls-1" points="851.93 382.9 851.93 389.29 858.38 389.29 864.82 382.9 851.93 382.9"/>
  <polygon class="cls-1" points="953.66 382.9 953.66 389.29 960.11 389.29 966.55 382.9 953.66 382.9"/>
  <polygon class="cls-1" points="947.21 295.52 947.21 308.32 960.11 308.32 973 295.52 947.21 295.52"/>
  <polygon class="cls-1" points="947.21 212.45 947.21 225.25 960.11 225.25 973 212.45 947.21 212.45"/>
  <polygon class="cls-1" points="643.48 624.52 643.48 637.32 656.37 637.32 669.27 624.52 643.48 624.52"/>
  <polygon class="cls-1" points="845.48 624.52 845.48 637.32 858.38 637.32 871.27 624.52 845.48 624.52"/>
  <polygon class="cls-1" points="643.48 699.43 643.48 712.23 656.37 712.23 669.27 699.43 643.48 699.43"/>
  <polygon class="cls-1" points="845.48 699.43 845.48 712.23 858.38 712.23 871.27 699.43 845.48 699.43"/>
  <polygon class="cls-1" points="1360.23 699.43 1360.23 712.23 1373.12 712.23 1386.01 699.43 1360.23 699.43"/>
  <polygon class="cls-1" points="740.04 699.43 740.04 712.23 752.93 712.23 765.83 699.43 740.04 699.43"/>
  <polygon class="cls-1" points="749.07 300 749.07 303.84 752.93 303.84 756.8 300 749.07 300"/>
  <polygon class="cls-1" points="749.07 216.93 749.07 220.77 752.93 220.77 756.8 216.93 749.07 216.93"/>
  <polygon class="cls-1" points="749.07 131.29 749.07 135.13 752.93 135.13 756.8 131.29 749.07 131.29"/>
  <polygon class="cls-1" points="749.07 48.03 749.07 51.87 752.93 51.87 756.8 48.03 749.07 48.03"/>
  <polygon class="cls-1" points="444.17 48.03 444.17 51.87 448.03 51.87 451.9 48.03 444.17 48.03"/>
  <polygon class="cls-1" points="547.07 48.03 547.07 51.87 550.94 51.87 554.81 48.03 547.07 48.03"/>
  <polygon class="cls-1" points="38.33 384.18 38.33 388.01 42.2 388.01 46.07 384.18 38.33 384.18"/>
  <polygon class="cls-1" points="38.33 300 38.33 303.84 42.2 303.84 46.07 300 38.33 300"/>
  <polygon class="cls-1" points="138.41 384.18 138.41 388.01 142.28 388.01 146.15 384.18 138.41 384.18"/>
  <polygon class="cls-1" points="138.41 300 138.41 303.84 142.28 303.84 146.15 300 138.41 300"/>
  <polygon class="cls-1" points="346.49 462.54 346.49 466.38 350.36 466.38 354.22 462.54 346.49 462.54"/>
  <polygon class="cls-1" points="444.17 462.54 444.17 466.38 448.03 466.38 451.9 462.54 444.17 462.54"/>
  <polygon class="cls-1" points="346.49 543.4 346.49 547.24 350.36 547.24 354.22 543.4 346.49 543.4"/>
  <polygon class="cls-1" points="444.17 543.4 444.17 547.24 448.03 547.24 451.9 543.4 444.17 543.4"/>
  <polygon class="cls-1" points="346.49 629 346.49 632.84 350.36 632.84 354.22 629 346.49 629"/>
  <polygon class="cls-1" points="444.17 629 444.17 632.84 448.03 632.84 451.9 629 444.17 629"/>
  <polygon class="cls-1" points="346.49 703.91 346.49 707.75 350.36 707.75 354.22 703.91 346.49 703.91"/>
  <polygon class="cls-1" points="444.17 703.91 444.17 707.75 448.03 707.75 451.9 703.91 444.17 703.91"/>
  <polygon class="cls-1" points="138.41 462.54 138.41 466.38 142.28 466.38 146.15 462.54 138.41 462.54"/>
  <polygon class="cls-1" points="242.59 462.54 242.59 466.38 246.46 466.38 250.33 462.54 242.59 462.54"/>
  <polygon class="cls-1" points="138.41 543.4 138.41 547.24 142.28 547.24 146.15 543.4 138.41 543.4"/>
  <polygon class="cls-1" points="242.59 543.4 242.59 547.24 246.46 547.24 250.33 543.4 242.59 543.4"/>
  <polygon class="cls-1" points="138.41 629 138.41 632.84 142.28 632.84 146.15 629 138.41 629"/>
  <polygon class="cls-1" points="242.59 629 242.59 632.84 246.46 632.84 250.33 629 242.59 629"/>
  <polygon class="cls-1" points="138.41 703.91 138.41 707.75 142.28 707.75 146.15 703.91 138.41 703.91"/>
  <polygon class="cls-1" points="242.59 703.91 242.59 707.75 246.46 707.75 250.33 703.91 242.59 703.91"/>
  <polygon class="cls-1" points="38.33 462.54 38.33 466.38 42.2 466.38 46.07 462.54 38.33 462.54"/>
  <polygon class="cls-1" points="38.33 543.4 38.33 547.24 42.2 547.24 46.07 543.4 38.33 543.4"/>
  <polygon class="cls-1" points="38.33 629 38.33 632.84 42.2 632.84 46.07 629 38.33 629"/>
  <polygon class="cls-1" points="38.33 703.91 38.33 707.75 42.2 707.75 46.07 703.91 38.33 703.91"/>
  <polygon class="cls-1" points="947.21 126.81 947.21 139.61 960.11 139.61 973 126.81 947.21 126.81"/>
  <polygon class="cls-1" points="947.21 43.56 947.21 56.35 960.11 56.35 973 43.56 947.21 43.56"/>
  <polygon class="cls-1" points="1056.45 382.9 1056.45 389.29 1062.9 389.29 1069.35 382.9 1056.45 382.9"/>
  <polygon class="cls-1" points="1050.01 295.52 1050.01 308.32 1062.9 308.32 1075.8 295.52 1050.01 295.52"/>
  <polygon class="cls-1" points="1037.11 206.05 1037.11 231.65 1062.9 231.65 1088.69 206.05 1037.11 206.05"/>
  <polygon class="cls-1" points="1160.36 382.9 1160.36 389.29 1166.81 389.29 1173.25 382.9 1160.36 382.9"/>
  <polygon class="cls-1" points="1153.91 295.52 1153.91 308.32 1166.81 308.32 1179.7 295.52 1153.91 295.52"/>
  <polygon class="cls-1" points="1141.02 206.05 1141.02 231.65 1166.81 231.65 1192.6 206.05 1141.02 206.05"/>
  <polygon class="cls-1" points="1263.06 382.9 1263.06 389.29 1269.51 389.29 1275.95 382.9 1263.06 382.9"/>
  <polygon class="cls-1" points="1567.97 215.65 1567.97 222.05 1574.42 222.05 1580.86 215.65 1567.97 215.65"/>
  <polygon class="cls-1" points="1665.8 215.65 1665.8 222.05 1672.24 222.05 1678.69 215.65 1665.8 215.65"/>
  <polygon class="cls-1" points="1770.65 215.65 1770.65 222.05 1777.1 222.05 1783.55 215.65 1770.65 215.65"/>
  <polygon class="cls-1" points="1874.08 215.65 1874.08 222.05 1880.53 222.05 1886.98 215.65 1874.08 215.65"/>
  <polygon class="cls-1" points="1256.61 295.52 1256.61 308.32 1269.51 308.32 1282.4 295.52 1256.61 295.52"/>
  <polygon class="cls-1" points="1243.72 206.05 1243.72 231.65 1269.51 231.65 1295.3 206.05 1243.72 206.05"/>
  <polygon class="cls-1" points="1366.67 382.9 1366.67 389.29 1373.12 389.29 1379.57 382.9 1366.67 382.9"/>
  <polygon class="cls-1" points="1360.23 295.52 1360.23 308.32 1373.12 308.32 1386.01 295.52 1360.23 295.52"/>
  <polygon class="cls-1" points="1360.23 212.45 1360.23 225.25 1373.12 225.25 1386.01 212.45 1360.23 212.45"/>
  <polygon class="cls-1" points="1037.11 120.42 1037.11 146.01 1062.9 146.01 1088.69 120.42 1037.11 120.42"/>
  <polygon class="cls-1" points="727.14 618.12 727.14 643.72 752.93 643.72 778.72 618.12 727.14 618.12"/>
  <polygon class="cls-1" points="1037.11 37.16 1037.11 62.75 1062.9 62.75 1088.69 37.16 1037.11 37.16"/>
  <polygon class="cls-1" points="1108.78 104.42 1108.78 162.01 1166.81 162.01 1224.83 104.42 1108.78 104.42"/>
  <polygon class="cls-1" points="1141.02 37.16 1141.02 62.75 1166.81 62.75 1192.6 37.16 1141.02 37.16"/>
  <polygon class="cls-1" points="1243.72 120.42 1243.72 146.01 1269.51 146.01 1295.3 120.42 1243.72 120.42"/>
  <polygon class="cls-1" points="1243.72 37.16 1243.72 62.75 1269.51 62.75 1295.3 37.16 1243.72 37.16"/>
  <polygon class="cls-1" points="1360.23 126.81 1360.23 139.61 1373.12 139.61 1386.01 126.81 1360.23 126.81"/>
  <polygon class="cls-1" points="1360.23 43.56 1360.23 56.35 1373.12 56.35 1386.01 43.56 1360.23 43.56"/>
  <polygon class="cls-1" points="1469.27 382.9 1469.27 389.29 1475.72 389.29 1482.17 382.9 1469.27 382.9"/>
  <polygon class="cls-1" points="953.66 542.12 953.66 548.52 960.11 548.52 966.55 542.12 953.66 542.12"/>
  <polygon class="cls-1" points="1056.45 542.12 1056.45 548.52 1062.9 548.52 1069.35 542.12 1056.45 542.12"/>
  <polygon class="cls-1" points="1160.36 542.12 1160.36 548.52 1166.81 548.52 1173.25 542.12 1160.36 542.12"/>
  <polygon class="cls-1" points="1263.06 542.12 1263.06 548.52 1269.51 548.52 1275.95 542.12 1263.06 542.12"/>
  <polygon class="cls-1" points="1366.67 542.12 1366.67 548.52 1373.12 548.52 1379.57 542.12 1366.67 542.12"/>
  <polygon class="cls-1" points="1469.27 542.12 1469.27 548.52 1475.72 548.52 1482.17 542.12 1469.27 542.12"/>
  <polygon class="cls-1" points="953.66 627.72 953.66 634.12 960.11 634.12 966.55 627.72 953.66 627.72"/>
  <polygon class="cls-1" points="953.66 702.63 953.66 709.03 960.11 709.03 966.55 702.63 953.66 702.63"/>
  <polygon class="cls-1" points="544.49 542.12 544.49 548.52 550.94 548.52 557.39 542.12 544.49 542.12"/>
  <polygon class="cls-1" points="544.49 627.72 544.49 634.12 550.94 634.12 557.39 627.72 544.49 627.72"/>
  <polygon class="cls-1" points="544.49 702.63 544.49 709.03 550.94 709.03 557.39 702.63 544.49 702.63"/>
  <polygon class="cls-1" points="1561.52 295.52 1561.52 308.32 1574.42 308.32 1587.31 295.52 1561.52 295.52"/>
  <polygon class="cls-1" points="1561.52 126.81 1561.52 139.61 1574.42 139.61 1587.31 126.81 1561.52 126.81"/>
  <polygon class="cls-1" points="1659.35 295.52 1659.35 308.32 1672.24 308.32 1685.14 295.52 1659.35 295.52"/>
  <polygon class="cls-1" points="1764.21 295.52 1764.21 308.32 1777.1 308.32 1790 295.52 1764.21 295.52"/>
  <polygon class="cls-1" points="1561.52 379.7 1561.52 392.49 1574.42 392.49 1587.31 379.7 1561.52 379.7"/>
  <polygon class="cls-1" points="1764.21 379.7 1764.21 392.49 1777.1 392.49 1790 379.7 1764.21 379.7"/>
  <polygon class="cls-1" points="1561.52 458.06 1561.52 470.86 1574.42 470.86 1587.31 458.06 1561.52 458.06"/>
  <polygon class="cls-1" points="1764.21 458.06 1764.21 470.86 1777.1 470.86 1790 458.06 1764.21 458.06"/>
  <polygon class="cls-1" points="1659.35 458.06 1659.35 470.86 1672.24 470.86 1685.14 458.06 1659.35 458.06"/>
  <polygon class="cls-1" points="1567.97 542.12 1567.97 548.52 1574.42 548.52 1580.86 542.12 1567.97 542.12"/>
  <polygon class="cls-1" points="1665.8 542.12 1665.8 548.52 1672.24 548.52 1678.69 542.12 1665.8 542.12"/>
  <polygon class="cls-1" points="1770.65 542.12 1770.65 548.52 1777.1 548.52 1783.55 542.12 1770.65 542.12"/>
  <polygon class="cls-1" points="1874.08 542.12 1874.08 548.52 1880.53 548.52 1886.98 542.12 1874.08 542.12"/>
  <polygon class="cls-1" points="1646.45 373.3 1646.45 398.89 1672.24 398.89 1698.03 373.3 1646.45 373.3"/>
  <polygon class="cls-1" points="1874.08 298.72 1874.08 305.12 1880.53 305.12 1886.98 298.72 1874.08 298.72"/>
  <polygon class="cls-1" points="1874.08 382.9 1874.08 389.29 1880.53 389.29 1886.98 382.9 1874.08 382.9"/>
  <polygon class="cls-1" points="1874.08 461.26 1874.08 467.66 1880.53 467.66 1886.98 461.26 1874.08 461.26"/>
  <polygon class="cls-1" points="1469.27 298.72 1469.27 305.12 1475.72 305.12 1482.17 298.72 1469.27 298.72"/>
  <polygon class="cls-1" points="1469.27 461.26 1469.27 467.66 1475.72 467.66 1482.17 461.26 1469.27 461.26"/>
  <polygon class="cls-1" points="1056.45 627.72 1056.45 634.12 1062.9 634.12 1069.35 627.72 1056.45 627.72"/>
  <polygon class="cls-1" points="1160.36 627.72 1160.36 634.12 1166.81 634.12 1173.25 627.72 1160.36 627.72"/>
  <polygon class="cls-1" points="1263.06 627.72 1263.06 634.12 1269.51 634.12 1275.95 627.72 1263.06 627.72"/>
  <polygon class="cls-1" points="1263.06 702.63 1263.06 709.03 1269.51 709.03 1275.95 702.63 1263.06 702.63"/>
  <polygon class="cls-1" points="1366.67 627.72 1366.67 634.12 1373.12 634.12 1379.57 627.72 1366.67 627.72"/>
  <polygon class="cls-1" points="1469.27 627.72 1469.27 634.12 1475.72 634.12 1482.17 627.72 1469.27 627.72"/>
  <polygon class="cls-1" points="1469.27 702.63 1469.27 709.03 1475.72 709.03 1482.17 702.63 1469.27 702.63"/>
  <polygon class="cls-1" points="2172.74 43.56 2172.74 56.35 2185.64 56.35 2198.53 43.56 2172.74 43.56"/>
  <polygon class="cls-1" points="2077.81 130.01 2077.81 136.41 2084.26 136.41 2090.7 130.01 2077.81 130.01"/>
  <polygon class="cls-1" points="2077.81 46.75 2077.81 53.15 2084.26 53.15 2090.7 46.75 2077.81 46.75"/>
  <polygon class="cls-1" points="2282.14 46.75 2282.14 53.15 2288.58 53.15 2295.03 46.75 2282.14 46.75"/>
  <polygon class="cls-1" points="2282.14 130.01 2282.14 136.41 2288.58 136.41 2295.03 130.01 2282.14 130.01"/>
  <polygon class="cls-1" points="2179.19 130.01 2179.19 136.41 2185.64 136.41 2192.08 130.01 2179.19 130.01"/>
  <polygon class="cls-1" points="2172.74 699.43 2172.74 712.23 2185.64 712.23 2198.53 699.43 2172.74 699.43"/>
  <polygon class="cls-1" points="2077.81 627.72 2077.81 634.12 2084.26 634.12 2090.7 627.72 2077.81 627.72"/>
  <polygon class="cls-1" points="2077.81 702.63 2077.81 709.03 2084.26 709.03 2090.7 702.63 2077.81 702.63"/>
  <polygon class="cls-1" points="2179.19 627.72 2179.19 634.12 2185.64 634.12 2192.08 627.72 2179.19 627.72"/>
  <polygon class="cls-1" points="2282.14 627.72 2282.14 634.12 2288.58 634.12 2295.03 627.72 2282.14 627.72"/>
  <polygon class="cls-1" points="2282.14 702.63 2282.14 709.03 2288.58 709.03 2295.03 702.63 2282.14 702.63"/>
  <polygon class="cls-1" points="343.91 46.75 343.91 53.15 350.36 53.15 356.8 46.75 343.91 46.75"/>
  <polygon class="cls-1" points="337.46 126.81 337.46 139.61 350.36 139.61 363.25 126.81 337.46 126.81"/>
  <polygon class="cls-1" points="435.14 126.81 435.14 139.61 448.03 139.61 460.93 126.81 435.14 126.81"/>
  <polygon class="cls-1" points="538.05 126.81 538.05 139.61 550.94 139.61 563.84 126.81 538.05 126.81"/>
  <polygon class="cls-1" points="337.46 212.45 337.46 225.25 350.36 225.25 363.25 212.45 337.46 212.45"/>
  <polygon class="cls-1" points="538.05 212.45 538.05 225.25 550.94 225.25 563.84 212.45 538.05 212.45"/>
  <polygon class="cls-1" points="337.46 295.52 337.46 308.32 350.36 308.32 363.25 295.52 337.46 295.52"/>
  <polygon class="cls-1" points="538.05 295.52 538.05 308.32 550.94 308.32 563.84 295.52 538.05 295.52"/>
  <polygon class="cls-1" points="435.14 295.52 435.14 308.32 448.03 308.32 460.93 295.52 435.14 295.52"/>
  <polygon class="cls-1" points="343.91 382.9 343.91 389.29 350.36 389.29 356.8 382.9 343.91 382.9"/>
  <polygon class="cls-1" points="240.01 382.9 240.01 389.29 246.46 389.29 252.9 382.9 240.01 382.9"/>
  <polygon class="cls-1" points="240.01 298.72 240.01 305.12 246.46 305.12 252.9 298.72 240.01 298.72"/>
  <polygon class="cls-1" points="441.59 382.9 441.59 389.29 448.03 389.29 454.48 382.9 441.59 382.9"/>
  <polygon class="cls-1" points="544.49 382.9 544.49 389.29 550.94 389.29 557.39 382.9 544.49 382.9"/>
  <polygon class="cls-1" points="35.75 215.65 35.75 222.05 42.2 222.05 48.65 215.65 35.75 215.65"/>
  <polygon class="cls-1" points="135.84 215.65 135.84 222.05 142.28 222.05 148.73 215.65 135.84 215.65"/>
  <polygon class="cls-1" points="240.01 215.65 240.01 222.05 246.46 222.05 252.9 215.65 240.01 215.65"/>
  <polygon class="cls-1" points="422.24 206.05 422.24 231.65 448.03 231.65 473.82 206.05 422.24 206.05"/>
  <polygon class="cls-1" points="29.3 43.56 29.3 56.35 42.2 56.35 55.09 43.56 29.3 43.56"/>
  <polygon class="cls-1" points="233.56 43.56 233.56 56.35 246.46 56.35 259.35 43.56 233.56 43.56"/>
  <polygon class="cls-1" points="29.3 126.81 29.3 139.61 42.2 139.61 55.09 126.81 29.3 126.81"/>
  <polygon class="cls-1" points="233.56 126.81 233.56 139.61 246.46 139.61 259.35 126.81 233.56 126.81"/>
  <polygon class="cls-1" points="129.39 126.81 129.39 139.61 142.28 139.61 155.18 126.81 129.39 126.81"/>
  <polygon class="cls-1" points="116.49 37.16 116.49 62.75 142.28 62.75 168.07 37.16 116.49 37.16"/>
  <polygon class="cls-1" points="649.93 130.01 649.93 136.41 656.37 136.41 662.82 130.01 649.93 130.01"/>
  <polygon class="cls-1" points="649.93 215.65 649.93 222.05 656.37 222.05 662.82 215.65 649.93 215.65"/>
  <polygon class="cls-1" points="649.93 298.72 649.93 305.12 656.37 305.12 662.82 298.72 649.93 298.72"/>
  <polygon class="cls-1" points="1469.27 215.65 1469.27 222.05 1475.72 222.05 1482.17 215.65 1469.27 215.65"/>
  <polygon class="cls-1" points="1469.27 130.01 1469.27 136.41 1475.72 136.41 1482.17 130.01 1469.27 130.01"/>
  <polygon class="cls-1" points="1469.27 46.75 1469.27 53.15 1475.72 53.15 1482.17 46.75 1469.27 46.75"/>
  <polygon class="cls-1" points="1567.97 46.75 1567.97 53.15 1574.42 53.15 1580.86 46.75 1567.97 46.75"/>
  <polygon class="cls-1" points="1665.8 130.01 1665.8 136.41 1672.24 136.41 1678.69 130.01 1665.8 130.01"/>
  <polygon class="cls-1" points="1665.8 46.75 1665.8 53.15 1672.24 53.15 1678.69 46.75 1665.8 46.75"/>
  <polygon class="cls-1" points="851.93 298.72 851.93 305.12 858.38 305.12 864.82 298.72 851.93 298.72"/>
  <polygon class="cls-1" points="851.93 215.65 851.93 222.05 858.38 222.05 864.82 215.65 851.93 215.65"/>
  <polygon class="cls-1" points="851.93 130.01 851.93 136.41 858.38 136.41 864.82 130.01 851.93 130.01"/>
  <polygon class="cls-1" points="851.93 46.75 851.93 53.15 858.38 53.15 864.82 46.75 851.93 46.75"/>
  <polygon class="cls-1" points="2487.49 703.91 2487.49 707.75 2491.36 707.75 2495.23 703.91 2487.49 703.91"/>
  <polygon class="cls-1" points="2384.03 703.91 2384.03 707.75 2387.9 707.75 2391.77 703.91 2384.03 703.91"/>
  <polygon class="cls-1" points="2589.95 703.91 2589.95 707.75 2593.81 707.75 2597.68 703.91 2589.95 703.91"/>
  <polygon class="cls-1" points="2381.45 627.72 2381.45 634.12 2387.9 634.12 2394.35 627.72 2381.45 627.72"/>
  <polygon class="cls-1" points="2484.91 627.72 2484.91 634.12 2491.36 634.12 2497.8 627.72 2484.91 627.72"/>
  <polygon class="cls-1" points="2478.46 538.92 2478.46 551.72 2491.36 551.72 2504.25 538.92 2478.46 538.92"/>
  <polygon class="cls-1" points="2478.46 458.06 2478.46 470.86 2491.36 470.86 2504.25 458.06 2478.46 458.06"/>
  <polygon class="cls-1" points="2478.46 379.7 2478.46 392.49 2491.36 392.49 2504.25 379.7 2478.46 379.7"/>
  <polygon class="cls-1" points="2478.46 295.52 2478.46 308.32 2491.36 308.32 2504.25 295.52 2478.46 295.52"/>
  <polygon class="cls-1" points="2478.46 212.45 2478.46 225.25 2491.36 225.25 2504.25 212.45 2478.46 212.45"/>
  <polygon class="cls-1" points="2587.37 627.72 2587.37 634.12 2593.81 634.12 2600.26 627.72 2587.37 627.72"/>
  <polygon class="cls-1" points="2580.92 538.92 2580.92 551.72 2593.81 551.72 2606.71 538.92 2580.92 538.92"/>
  <polygon class="cls-1" points="2568.02 451.66 2568.02 477.26 2593.81 477.26 2619.6 451.66 2568.02 451.66"/>
  <polygon class="cls-1" points="2568.02 373.3 2568.02 398.89 2593.81 398.89 2619.6 373.3 2568.02 373.3"/>
  <polygon class="cls-1" points="2568.02 289.12 2568.02 314.71 2593.81 314.71 2619.6 289.12 2568.02 289.12"/>
  <polygon class="cls-1" points="2580.92 212.45 2580.92 225.25 2593.81 225.25 2606.71 212.45 2580.92 212.45"/>
  <polygon class="cls-1" points="2381.45 542.12 2381.45 548.52 2387.9 548.52 2394.35 542.12 2381.45 542.12"/>
  <polygon class="cls-1" points="2381.45 461.26 2381.45 467.66 2387.9 467.66 2394.35 461.26 2381.45 461.26"/>
  <polygon class="cls-1" points="2381.45 382.9 2381.45 389.29 2387.9 389.29 2394.35 382.9 2381.45 382.9"/>
  <polygon class="cls-1" points="2381.45 298.72 2381.45 305.12 2387.9 305.12 2394.35 298.72 2381.45 298.72"/>
  <polygon class="cls-1" points="2381.45 215.65 2381.45 222.05 2387.9 222.05 2394.35 215.65 2381.45 215.65"/>
  <polygon class="cls-1" points="649.93 382.9 649.93 389.29 656.37 389.29 662.82 382.9 649.93 382.9"/>
  <polygon class="cls-1" points="649.93 461.26 649.93 467.66 656.37 467.66 662.82 461.26 649.93 461.26"/>
  <polygon class="cls-1" points="851.93 461.26 851.93 467.66 858.38 467.66 864.82 461.26 851.93 461.26"/>
  <polygon class="cls-1" points="544.49 461.26 544.49 467.66 550.94 467.66 557.39 461.26 544.49 461.26"/>
  <polygon class="cls-1" points="746.49 461.26 746.49 467.66 752.93 467.66 759.38 461.26 746.49 461.26"/>
  <polygon class="cls-1" points="953.66 461.26 953.66 467.66 960.11 467.66 966.55 461.26 953.66 461.26"/>
  <polygon class="cls-1" points="649.93 298.72 649.93 305.12 656.37 305.12 662.82 298.72 649.93 298.72"/>
  <polygon class="cls-1" points="649.93 46.75 649.93 53.15 656.37 53.15 662.82 46.75 649.93 46.75"/>
  <polygon class="cls-1" points="1981.71 543.4 1981.71 547.24 1985.57 547.24 1989.44 543.4 1981.71 543.4"/>
  <polygon class="cls-1" points="1981.71 462.54 1981.71 466.38 1985.57 466.38 1989.44 462.54 1981.71 462.54"/>
  <polygon class="cls-1" points="1981.71 384.18 1981.71 388.01 1985.57 388.01 1989.44 384.18 1981.71 384.18"/>
  <polygon class="cls-1" points="1981.71 300 1981.71 303.84 1985.57 303.84 1989.44 300 1981.71 300"/>
  <polygon class="cls-1" points="1981.71 216.93 1981.71 220.77 1985.57 220.77 1989.44 216.93 1981.71 216.93"/>
  <polygon class="cls-1" points="2080.39 543.4 2080.39 547.24 2084.26 547.24 2088.12 543.4 2080.39 543.4"/>
  <polygon class="cls-1" points="2080.39 462.54 2080.39 466.38 2084.26 466.38 2088.12 462.54 2080.39 462.54"/>
  <polygon class="cls-1" points="2080.39 384.18 2080.39 388.01 2084.26 388.01 2088.12 384.18 2080.39 384.18"/>
  <polygon class="cls-1" points="2080.39 300 2080.39 303.84 2084.26 303.84 2088.12 300 2080.39 300"/>
  <polygon class="cls-1" points="2080.39 216.93 2080.39 220.77 2084.26 220.77 2088.12 216.93 2080.39 216.93"/>
  <polygon class="cls-1" points="2181.77 543.4 2181.77 547.24 2185.64 547.24 2189.51 543.4 2181.77 543.4"/>
  <polygon class="cls-1" points="2181.77 462.54 2181.77 466.38 2185.64 466.38 2189.51 462.54 2181.77 462.54"/>
  <polygon class="cls-1" points="2181.77 384.18 2181.77 388.01 2185.64 388.01 2189.51 384.18 2181.77 384.18"/>
  <polygon class="cls-1" points="2181.77 300 2181.77 303.84 2185.64 303.84 2189.51 300 2181.77 300"/>
  <polygon class="cls-1" points="2181.77 216.93 2181.77 220.77 2185.64 220.77 2189.51 216.93 2181.77 216.93"/>
  <polygon class="cls-1" points="2284.72 543.4 2284.72 547.24 2288.58 547.24 2292.45 543.4 2284.72 543.4"/>
  <polygon class="cls-1" points="2284.72 462.54 2284.72 466.38 2288.58 466.38 2292.45 462.54 2284.72 462.54"/>
  <polygon class="cls-1" points="2284.72 384.18 2284.72 388.01 2288.58 388.01 2292.45 384.18 2284.72 384.18"/>
  <polygon class="cls-1" points="2284.72 300 2284.72 303.84 2288.58 303.84 2292.45 300 2284.72 300"/>
  <polygon class="cls-1" points="2284.72 216.93 2284.72 220.77 2288.58 220.77 2292.45 216.93 2284.72 216.93"/>
</svg>