<?xml version="1.0" encoding="utf-8"?>
<!DOCTYPE svg PUBLIC "-//W3C//DTD SVG 1.1//EN" "http://www.w3.org/Graphics/SVG/1.1/DTD/svg11.dtd">
<svg version="1.1" id="Layer_1" xmlns="http://www.w3.org/2000/svg" xmlns:xlink="http://www.w3.org/1999/xlink" x="0px" y="0px"
width="580px" height="580px" viewBox="0 0 580 580" enable-background="new 0 0 580 580" xml:space="preserve">
<rect x="0" y="0" width="580" height="580" fill="rgb(255,255,255)" /><g transform="translate(40,40)"><g transform="translate(160,0) scale(0.2,0.2)"><g transform="" style="fill: rgb(10, 102, 194);">
<g>
	<path d="M100,65.625c0,9.507-3.355,17.611-10.059,24.316C83.236,96.645,75.132,100,65.625,100h-31.25
		c-9.504,0-17.61-3.355-24.315-10.059C3.354,83.236,0,75.132,0,65.625v-31.25c0-9.504,3.353-17.61,10.059-24.315
		C16.766,3.354,24.871,0,34.375,0h31.25c9.508,0,17.613,3.353,24.316,10.059C96.646,16.766,100,24.871,100,34.375V65.625z"/>
</g>
</g></g><g transform="translate(200,0) scale(0.2,0.2)"><g transform="" style="fill: rgb(10, 102, 194);">
<g>
	<path d="M100,65.625c0,9.507-3.355,17.611-10.059,24.316C83.236,96.645,75.132,100,65.625,100h-31.25
		c-9.504,0-17.61-3.355-24.315-10.059C3.354,83.236,0,75.132,0,65.625v-31.25c0-9.504,3.353-17.61,10.059-24.315
		C16.766,3.354,24.871,0,34.375,0h31.25c9.508,0,17.613,3.353,24.316,10.059C96.646,16.766,100,24.871,100,34.375V65.625z"/>
</g>
</g></g><g transform="translate(240,0) scale(0.2,0.2)"><g transform="" style="fill: rgb(10, 102, 194);">
<g>
	<path d="M100,65.625c0,9.507-3.355,17.611-10.059,24.316C83.236,96.645,75.132,100,65.625,100h-31.25
		c-9.504,0-17.61-3.355-24.315-10.059C3.354,83.236,0,75.132,0,65.625v-31.25c0-9.504,3.353-17.61,10.059-24.315
		C16.766,3.354,24.871,0,34.375,0h31.25c9.508,0,17.613,3.353,24.316,10.059C96.646,16.766,100,24.871,100,34.375V65.625z"/>
</g>
</g></g><g transform="translate(280,0) scale(0.2,0.2)"><g transform="" style="fill: rgb(10, 102, 194);">
<g>
	<path d="M100,34.375V0H34.375C24.87,0,16.764,3.353,10.059,10.059S0,24.87,0,34.375v31.25c0,9.505,3.353,17.611,10.059,24.316
		C16.765,96.646,24.87,100,34.375,100H100V34.375z"/>
</g>
</g></g><g transform="translate(300,0) scale(0.2,0.2)"><g transform="" style="fill: rgb(10, 102, 194);">
<rect width="100" height="100"/>
</g></g><g transform="translate(320,0) scale(0.2,0.2)"><g transform="" style="fill: rgb(10, 102, 194);">
<g>
	<path d="M100,34.375c0-9.505-3.354-17.611-10.059-24.316C83.236,3.354,75.13,0,65.625,0H0v100h100V34.375z"/>
</g>
</g></g><g transform="translate(220,20) scale(0.2,0.2)"><g transform="" style="fill: rgb(10, 102, 194);">
<g>
	<path d="M100,65.625c0,9.507-3.355,17.611-10.059,24.316C83.236,96.645,75.132,100,65.625,100h-31.25
		c-9.504,0-17.61-3.355-24.315-10.059C3.354,83.236,0,75.132,0,65.625v-31.25c0-9.504,3.353-17.61,10.059-24.315
		C16.766,3.354,24.871,0,34.375,0h31.25c9.508,0,17.613,3.353,24.316,10.059C96.646,16.766,100,24.871,100,34.375V65.625z"/>
</g>
</g></g><g transform="translate(260,20) scale(0.2,0.2)"><g transform="" style="fill: rgb(10, 102, 194);">
<g>
	<path d="M100,65.625c0,9.507-3.355,17.611-10.059,24.316C83.236,96.645,75.132,100,65.625,100h-31.25
		c-9.504,0-17.61-3.355-24.315-10.059C3.354,83.236,0,75.132,0,65.625v-31.25c0-9.504,3.353-17.61,10.059-24.315
		C16.766,3.354,24.871,0,34.375,0h31.25c9.508,0,17.613,3.353,24.316,10.059C96.646,16.766,100,24.871,100,34.375V65.625z"/>
</g>
</g></g><g transform="translate(320,20) scale(0.2,0.2)"><g transform="" style="fill: rgb(10, 102, 194);">
<g>
	<path d="M99.805,32.031H100V0H0v32.031h0.195C0.065,33.073,0,33.854,0,34.375v31.25c0,9.505,3.353,17.611,10.059,24.316
		C16.765,96.646,24.87,100,34.375,100h31.25c9.505,0,17.611-3.354,24.316-10.059C96.646,83.236,100,75.13,100,65.625v-31.25
		C100,33.854,99.937,33.073,99.805,32.031z"/>
</g>
</g></g><g transform="translate(240,40) scale(0.2,0.2)"><g transform="" style="fill: rgb(10, 102, 194);">
<g>
	<path d="M100,34.375c0-9.505-3.354-17.611-10.059-24.316C83.236,3.354,75.13,0,65.625,0h-31.25C24.87,0,16.764,3.353,10.059,10.059
		S0,24.87,0,34.375v31.25c0,0.521,0.065,1.303,0.195,2.344H0V100h100V67.969h-0.195c0.132-1.041,0.195-1.822,0.195-2.344V34.375z"/>
</g>
</g></g><g transform="translate(280,40) scale(0.2,0.2)"><g transform="" style="fill: rgb(10, 102, 194);">
<g>
	<path d="M100,65.625c0,9.507-3.355,17.611-10.059,24.316C83.236,96.645,75.132,100,65.625,100h-31.25
		c-9.504,0-17.61-3.355-24.315-10.059C3.354,83.236,0,75.132,0,65.625v-31.25c0-9.504,3.353-17.61,10.059-24.315
		C16.766,3.354,24.871,0,34.375,0h31.25c9.508,0,17.613,3.353,24.316,10.059C96.646,16.766,100,24.871,100,34.375V65.625z"/>
</g>
</g></g><g transform="translate(160,60) scale(0.2,0.2)"><g transform="" style="fill: rgb(10, 102, 194);">
<g>
	<path d="M100,34.375V0H34.375C24.87,0,16.764,3.353,10.059,10.059S0,24.87,0,34.375V100h100V34.375z"/>
</g>
</g></g><g transform="translate(180,60) scale(0.2,0.2)"><g transform="" style="fill: rgb(10, 102, 194);">
<rect width="100" height="100"/>
</g></g><g transform="translate(200,60) scale(0.2,0.2)"><g transform="" style="fill: rgb(10, 102, 194);">
<g>
	<path d="M100,34.375c0-9.505-3.354-17.611-10.059-24.316C83.236,3.354,75.13,0,65.625,0H0v100h100V34.375z"/>
</g>
</g></g><g transform="translate(240,60) scale(0.2,0.2)"><g transform="" style="fill: rgb(10, 102, 194);">
<rect width="100" height="100"/>
</g></g><g transform="translate(320,60) scale(0.2,0.2)"><g transform="" style="fill: rgb(10, 102, 194);">
<g>
	<path d="M100,34.375c0-9.505-3.354-17.611-10.059-24.316C83.236,3.354,75.13,0,65.625,0h-31.25C24.87,0,16.764,3.353,10.059,10.059
		S0,24.87,0,34.375v31.25c0,0.521,0.065,1.303,0.195,2.344H0V100h100V67.969h-0.195c0.132-1.041,0.195-1.822,0.195-2.344V34.375z"/>
</g>
</g></g><g transform="translate(160,80) scale(0.2,0.2)"><g transform="" style="fill: rgb(10, 102, 194);">
<rect width="100" height="100"/>
</g></g><g transform="translate(180,80) scale(0.2,0.2)"><g transform="" style="fill: rgb(10, 102, 194);">
<rect width="100" height="100"/>
</g></g><g transform="translate(200,80) scale(0.2,0.2)"><g transform="" style="fill: rgb(10, 102, 194);">
<g>
	<path d="M100,0H0v100h65.625c9.505,0,17.611-3.354,24.316-10.059C96.646,83.236,100,75.13,100,65.625V0z"/>
</g>
</g></g><g transform="translate(240,80) scale(0.2,0.2)"><g transform="" style="fill: rgb(10, 102, 194);">
<g>
	<path d="M99.805,32.031H100V0H0v32.031h0.195C0.065,33.073,0,33.854,0,34.375v31.25c0,9.505,3.353,17.611,10.059,24.316
		C16.765,96.646,24.87,100,34.375,100h31.25c9.505,0,17.611-3.354,24.316-10.059C96.646,83.236,100,75.13,100,65.625v-31.25
		C100,33.854,99.937,33.073,99.805,32.031z"/>
</g>
</g></g><g transform="translate(280,80) scale(0.2,0.2)"><g transform="" style="fill: rgb(10, 102, 194);">
<g>
	<path d="M100,34.375V0H34.375C24.87,0,16.764,3.353,10.059,10.059S0,24.87,0,34.375v31.25c0,9.505,3.353,17.611,10.059,24.316
		C16.765,96.646,24.87,100,34.375,100H100V34.375z"/>
</g>
</g></g><g transform="translate(300,80) scale(0.2,0.2)"><g transform="" style="fill: rgb(10, 102, 194);">
<rect width="100" height="100"/>
</g></g><g transform="translate(320,80) scale(0.2,0.2)"><g transform="" style="fill: rgb(10, 102, 194);">
<rect width="100" height="100"/>
</g></g><g transform="translate(160,100) scale(0.2,0.2)"><g transform="" style="fill: rgb(10, 102, 194);">
<rect width="100" height="100"/>
</g></g><g transform="translate(220,100) scale(0.2,0.2)"><g transform="" style="fill: rgb(10, 102, 194);">
<g>
	<path d="M100,65.625c0,9.507-3.355,17.611-10.059,24.316C83.236,96.645,75.132,100,65.625,100h-31.25
		c-9.504,0-17.61-3.355-24.315-10.059C3.354,83.236,0,75.132,0,65.625v-31.25c0-9.504,3.353-17.61,10.059-24.315
		C16.766,3.354,24.871,0,34.375,0h31.25c9.508,0,17.613,3.353,24.316,10.059C96.646,16.766,100,24.871,100,34.375V65.625z"/>
</g>
</g></g><g transform="translate(320,100) scale(0.2,0.2)"><g transform="" style="fill: rgb(10, 102, 194);">
<rect width="100" height="100"/>
</g></g><g transform="translate(160,120) scale(0.2,0.2)"><g transform="" style="fill: rgb(10, 102, 194);">
<rect width="100" height="100"/>
</g></g><g transform="translate(200,120) scale(0.2,0.2)"><g transform="" style="fill: rgb(10, 102, 194);">
<g>
	<path d="M100,34.375c0-9.505-3.354-17.611-10.059-24.316C83.236,3.354,75.13,0,65.625,0h-31.25C24.87,0,16.764,3.353,10.059,10.059
		S0,24.87,0,34.375v31.25c0,0.521,0.065,1.303,0.195,2.344H0V100h100V67.969h-0.195c0.132-1.041,0.195-1.822,0.195-2.344V34.375z"/>
</g>
</g></g><g transform="translate(240,120) scale(0.2,0.2)"><g transform="" style="fill: rgb(10, 102, 194);">
<g>
	<path d="M100,65.625c0,9.507-3.355,17.611-10.059,24.316C83.236,96.645,75.132,100,65.625,100h-31.25
		c-9.504,0-17.61-3.355-24.315-10.059C3.354,83.236,0,75.132,0,65.625v-31.25c0-9.504,3.353-17.61,10.059-24.315
		C16.766,3.354,24.871,0,34.375,0h31.25c9.508,0,17.613,3.353,24.316,10.059C96.646,16.766,100,24.871,100,34.375V65.625z"/>
</g>
</g></g><g transform="translate(280,120) scale(0.2,0.2)"><g transform="" style="fill: rgb(10, 102, 194);">
<g>
	<path d="M100,65.625c0,9.507-3.355,17.611-10.059,24.316C83.236,96.645,75.132,100,65.625,100h-31.25
		c-9.504,0-17.61-3.355-24.315-10.059C3.354,83.236,0,75.132,0,65.625v-31.25c0-9.504,3.353-17.61,10.059-24.315
		C16.766,3.354,24.871,0,34.375,0h31.25c9.508,0,17.613,3.353,24.316,10.059C96.646,16.766,100,24.871,100,34.375V65.625z"/>
</g>
</g></g><g transform="translate(320,120) scale(0.2,0.2)"><g transform="" style="fill: rgb(10, 102, 194);">
<rect width="100" height="100"/>
</g></g><g transform="translate(160,140) scale(0.2,0.2)"><g transform="" style="fill: rgb(10, 102, 194);">
<rect width="100" height="100"/>
</g></g><g transform="translate(180,140) scale(0.2,0.2)"><g transform="" style="fill: rgb(10, 102, 194);">
<rect width="100" height="100"/>
</g></g><g transform="translate(200,140) scale(0.2,0.2)"><g transform="" style="fill: rgb(10, 102, 194);">
<rect width="100" height="100"/>
</g></g><g transform="translate(260,140) scale(0.2,0.2)"><g transform="" style="fill: rgb(10, 102, 194);">
<g>
	<path d="M100,34.375c0-9.505-3.354-17.611-10.059-24.316C83.236,3.354,75.13,0,65.625,0h-31.25C24.87,0,16.764,3.353,10.059,10.059
		S0,24.87,0,34.375v31.25c0,0.521,0.065,1.303,0.195,2.344H0V100h100V67.969h-0.195c0.132-1.041,0.195-1.822,0.195-2.344V34.375z"/>
</g>
</g></g><g transform="translate(320,140) scale(0.2,0.2)"><g transform="" style="fill: rgb(10, 102, 194);">
<g>
	<path d="M99.805,32.031H100V0H0v32.031h0.195C0.065,33.073,0,33.854,0,34.375v31.25c0,9.505,3.353,17.611,10.059,24.316
		C16.765,96.646,24.87,100,34.375,100h31.25c9.505,0,17.611-3.354,24.316-10.059C96.646,83.236,100,75.13,100,65.625v-31.25
		C100,33.854,99.937,33.073,99.805,32.031z"/>
</g>
</g></g><g transform="translate(0,160) scale(0.2,0.2)"><g transform="" style="fill: rgb(10, 102, 194);">
<g>
	<path d="M100,65.625c0,9.507-3.355,17.611-10.059,24.316C83.236,96.645,75.132,100,65.625,100h-31.25
		c-9.504,0-17.61-3.355-24.315-10.059C3.354,83.236,0,75.132,0,65.625v-31.25c0-9.504,3.353-17.61,10.059-24.315
		C16.766,3.354,24.871,0,34.375,0h31.25c9.508,0,17.613,3.353,24.316,10.059C96.646,16.766,100,24.871,100,34.375V65.625z"/>
</g>
</g></g><g transform="translate(80,160) scale(0.2,0.2)"><g transform="" style="fill: rgb(10, 102, 194);">
<g>
	<path d="M100,34.375c0-9.505-3.354-17.611-10.059-24.316C83.236,3.354,75.13,0,65.625,0h-31.25C24.87,0,16.764,3.353,10.059,10.059
		S0,24.87,0,34.375v31.25c0,0.521,0.065,1.303,0.195,2.344H0V100h100V67.969h-0.195c0.132-1.041,0.195-1.822,0.195-2.344V34.375z"/>
</g>
</g></g><g transform="translate(120,160) scale(0.2,0.2)"><g transform="" style="fill: rgb(10, 102, 194);">
<g>
	<path d="M100,34.375V0H34.375C24.87,0,16.764,3.353,10.059,10.059S0,24.87,0,34.375v31.25c0,9.505,3.353,17.611,10.059,24.316
		C16.765,96.646,24.87,100,34.375,100H100V34.375z"/>
</g>
</g></g><g transform="translate(140,160) scale(0.2,0.2)"><g transform="" style="fill: rgb(10, 102, 194);">
<rect width="100" height="100"/>
</g></g><g transform="translate(160,160) scale(0.2,0.2)"><g transform="" style="fill: rgb(10, 102, 194);">
<rect width="100" height="100"/>
</g></g><g transform="translate(180,160) scale(0.2,0.2)"><g transform="" style="fill: rgb(10, 102, 194);">
<rect width="100" height="100"/>
</g></g><g transform="translate(200,160) scale(0.2,0.2)"><g transform="" style="fill: rgb(10, 102, 194);">
<g>
	<path d="M100,0H0v100h65.625c9.505,0,17.611-3.354,24.316-10.059C96.646,83.236,100,75.13,100,65.625V0z"/>
</g>
</g></g><g transform="translate(260,160) scale(0.2,0.2)"><g transform="" style="fill: rgb(10, 102, 194);">
<rect width="100" height="100"/>
</g></g><g transform="translate(340,160) scale(0.2,0.2)"><g transform="" style="fill: rgb(10, 102, 194);">
<g>
	<path d="M100,34.375V0H34.375C24.87,0,16.764,3.353,10.059,10.059S0,24.87,0,34.375v31.25c0,9.505,3.353,17.611,10.059,24.316
		C16.765,96.646,24.87,100,34.375,100H100V34.375z"/>
</g>
</g></g><g transform="translate(360,160) scale(0.2,0.2)"><g transform="" style="fill: rgb(10, 102, 194);">
<rect width="100" height="100"/>
</g></g><g transform="translate(380,160) scale(0.2,0.2)"><g transform="" style="fill: rgb(10, 102, 194);">
<rect width="100" height="100"/>
</g></g><g transform="translate(400,160) scale(0.2,0.2)"><g transform="" style="fill: rgb(10, 102, 194);">
<rect width="100" height="100"/>
</g></g><g transform="translate(420,160) scale(0.2,0.2)"><g transform="" style="fill: rgb(10, 102, 194);">
<g>
	<path d="M65.625,0H0v100h65.625c9.505,0,17.611-3.354,24.316-10.059C96.646,83.236,100,75.13,100,65.625v-31.25
		c0-9.505-3.354-17.611-10.059-24.316C83.236,3.354,75.13,0,65.625,0z"/>
</g>
</g></g><g transform="translate(480,160) scale(0.2,0.2)"><g transform="" style="fill: rgb(10, 102, 194);">
<g>
	<path d="M100,65.625c0,9.507-3.355,17.611-10.059,24.316C83.236,96.645,75.132,100,65.625,100h-31.25
		c-9.504,0-17.61-3.355-24.315-10.059C3.354,83.236,0,75.132,0,65.625v-31.25c0-9.504,3.353-17.61,10.059-24.315
		C16.766,3.354,24.871,0,34.375,0h31.25c9.508,0,17.613,3.353,24.316,10.059C96.646,16.766,100,24.871,100,34.375V65.625z"/>
</g>
</g></g><g transform="translate(40,180) scale(0.2,0.2)"><g transform="" style="fill: rgb(10, 102, 194);">
<g>
	<path d="M100,34.375c0-9.505-3.354-17.611-10.059-24.316C83.236,3.354,75.13,0,65.625,0h-31.25C24.87,0,16.764,3.353,10.059,10.059
		S0,24.87,0,34.375v31.25c0,0.521,0.065,1.303,0.195,2.344H0V100h100V67.969h-0.195c0.132-1.041,0.195-1.822,0.195-2.344V34.375z"/>
</g>
</g></g><g transform="translate(80,180) scale(0.2,0.2)"><g transform="" style="fill: rgb(10, 102, 194);">
<g>
	<path d="M100,0H0v65.625c0,9.505,3.353,17.611,10.059,24.316C16.765,96.646,24.87,100,34.375,100H100V0z"/>
</g>
</g></g><g transform="translate(100,180) scale(0.2,0.2)"><g transform="" style="fill: rgb(10, 102, 194);">
<g>
	<path d="M65.625,0H0v100h65.625c9.505,0,17.611-3.354,24.316-10.059C96.646,83.236,100,75.13,100,65.625v-31.25
		c0-9.505-3.354-17.611-10.059-24.316C83.236,3.354,75.13,0,65.625,0z"/>
</g>
</g></g><g transform="translate(220,180) scale(0.2,0.2)"><g transform="" style="fill: rgb(10, 102, 194);">
<g>
	<path d="M100,34.375c0-9.505-3.354-17.611-10.059-24.316C83.236,3.354,75.13,0,65.625,0h-31.25C24.87,0,16.764,3.353,10.059,10.059
		S0,24.87,0,34.375v31.25c0,0.521,0.065,1.303,0.195,2.344H0V100h100V67.969h-0.195c0.132-1.041,0.195-1.822,0.195-2.344V34.375z"/>
</g>
</g></g><g transform="translate(260,180) scale(0.2,0.2)"><g transform="" style="fill: rgb(10, 102, 194);">
<g>
	<path d="M100,0H0v65.625c0,9.505,3.353,17.611,10.059,24.316C16.765,96.646,24.87,100,34.375,100H100V0z"/>
</g>
</g></g><g transform="translate(280,180) scale(0.2,0.2)"><g transform="" style="fill: rgb(10, 102, 194);">
<rect width="100" height="100"/>
</g></g><g transform="translate(300,180) scale(0.2,0.2)"><g transform="" style="fill: rgb(10, 102, 194);">
<rect width="100" height="100"/>
</g></g><g transform="translate(320,180) scale(0.2,0.2)"><g transform="" style="fill: rgb(10, 102, 194);">
<g>
	<path d="M100,34.375c0-9.505-3.354-17.611-10.059-24.316C83.236,3.354,75.13,0,65.625,0H0v100h100V34.375z"/>
</g>
</g></g><g transform="translate(400,180) scale(0.2,0.2)"><g transform="" style="fill: rgb(10, 102, 194);">
<g>
	<path d="M99.805,32.031H100V0H0v32.031h0.195C0.065,33.073,0,33.854,0,34.375v31.25c0,9.505,3.353,17.611,10.059,24.316
		C16.765,96.646,24.87,100,34.375,100h31.25c9.505,0,17.611-3.354,24.316-10.059C96.646,83.236,100,75.13,100,65.625v-31.25
		C100,33.854,99.937,33.073,99.805,32.031z"/>
</g>
</g></g><g transform="translate(440,180) scale(0.2,0.2)"><g transform="" style="fill: rgb(10, 102, 194);">
<g>
	<path d="M100,34.375c0-9.505-3.354-17.611-10.059-24.316C83.236,3.354,75.13,0,65.625,0h-31.25C24.87,0,16.764,3.353,10.059,10.059
		S0,24.87,0,34.375v31.25c0,0.521,0.065,1.303,0.195,2.344H0V100h100V67.969h-0.195c0.132-1.041,0.195-1.822,0.195-2.344V34.375z"/>
</g>
</g></g><g transform="translate(0,200) scale(0.2,0.2)"><g transform="" style="fill: rgb(10, 102, 194);">
<g>
	<path d="M100,65.625c0,9.507-3.355,17.611-10.059,24.316C83.236,96.645,75.132,100,65.625,100h-31.25
		c-9.504,0-17.61-3.355-24.315-10.059C3.354,83.236,0,75.132,0,65.625v-31.25c0-9.504,3.353-17.61,10.059-24.315
		C16.766,3.354,24.871,0,34.375,0h31.25c9.508,0,17.613,3.353,24.316,10.059C96.646,16.766,100,24.871,100,34.375V65.625z"/>
</g>
</g></g><g transform="translate(40,200) scale(0.2,0.2)"><g transform="" style="fill: rgb(10, 102, 194);">
<rect width="100" height="100"/>
</g></g><g transform="translate(60,200) scale(0.2,0.2)"><g transform="" style="fill: rgb(10, 102, 194);">
<g>
	<path d="M65.625,0H0v100h65.625c9.505,0,17.611-3.354,24.316-10.059C96.646,83.236,100,75.13,100,65.625v-31.25
		c0-9.505-3.354-17.611-10.059-24.316C83.236,3.354,75.13,0,65.625,0z"/>
</g>
</g></g><g transform="translate(120,200) scale(0.2,0.2)"><g transform="" style="fill: rgb(10, 102, 194);">
<g>
	<path d="M100,34.375V0H34.375C24.87,0,16.764,3.353,10.059,10.059S0,24.87,0,34.375v31.25c0,9.505,3.353,17.611,10.059,24.316
		C16.765,96.646,24.87,100,34.375,100H100V34.375z"/>
</g>
</g></g><g transform="translate(140,200) scale(0.2,0.2)"><g transform="" style="fill: rgb(10, 102, 194);">
<rect width="100" height="100"/>
</g></g><g transform="translate(160,200) scale(0.2,0.2)"><g transform="" style="fill: rgb(10, 102, 194);">
<rect width="100" height="100"/>
</g></g><g transform="translate(180,200) scale(0.2,0.2)"><g transform="" style="fill: rgb(10, 102, 194);">
<g>
	<path d="M100,34.375c0-9.505-3.354-17.611-10.059-24.316C83.236,3.354,75.13,0,65.625,0H0v100h100V34.375z"/>
</g>
</g></g><g transform="translate(220,200) scale(0.2,0.2)"><g transform="" style="fill: rgb(10, 102, 194);">
<rect width="100" height="100"/>
</g></g><g transform="translate(300,200) scale(0.2,0.2)"><g transform="" style="fill: rgb(10, 102, 194);">
<g>
	<path d="M100,0H0v65.625c0,9.505,3.353,17.611,10.059,24.316C16.765,96.646,24.87,100,34.375,100H100V0z"/>
</g>
</g></g><g transform="translate(320,200) scale(0.2,0.2)"><g transform="" style="fill: rgb(10, 102, 194);">
<rect width="100" height="100"/>
</g></g><g transform="translate(340,200) scale(0.2,0.2)"><g transform="" style="fill: rgb(10, 102, 194);">
<g>
	<path d="M65.625,0H0v100h65.625c9.505,0,17.611-3.354,24.316-10.059C96.646,83.236,100,75.13,100,65.625v-31.25
		c0-9.505-3.354-17.611-10.059-24.316C83.236,3.354,75.13,0,65.625,0z"/>
</g>
</g></g><g transform="translate(380,200) scale(0.2,0.2)"><g transform="" style="fill: rgb(10, 102, 194);">
<g>
	<path d="M100,65.625c0,9.507-3.355,17.611-10.059,24.316C83.236,96.645,75.132,100,65.625,100h-31.25
		c-9.504,0-17.61-3.355-24.315-10.059C3.354,83.236,0,75.132,0,65.625v-31.25c0-9.504,3.353-17.61,10.059-24.315
		C16.766,3.354,24.871,0,34.375,0h31.25c9.508,0,17.613,3.353,24.316,10.059C96.646,16.766,100,24.871,100,34.375V65.625z"/>
</g>
</g></g><g transform="translate(440,200) scale(0.2,0.2)"><g transform="" style="fill: rgb(10, 102, 194);">
<rect width="100" height="100"/>
</g></g><g transform="translate(20,220) scale(0.2,0.2)"><g transform="" style="fill: rgb(10, 102, 194);">
<g>
	<path d="M100,34.375V0H34.375C24.87,0,16.764,3.353,10.059,10.059S0,24.87,0,34.375v31.25c0,9.505,3.353,17.611,10.059,24.316
		C16.765,96.646,24.87,100,34.375,100H100V34.375z"/>
</g>
</g></g><g transform="translate(40,220) scale(0.2,0.2)"><g transform="" style="fill: rgb(10, 102, 194);">
<g>
	<path d="M100,0H0v100h65.625c9.505,0,17.611-3.354,24.316-10.059C96.646,83.236,100,75.13,100,65.625V0z"/>
</g>
</g></g><g transform="translate(100,220) scale(0.2,0.2)"><g transform="" style="fill: rgb(10, 102, 194);">
<g>
	<path d="M100,65.625c0,9.507-3.355,17.611-10.059,24.316C83.236,96.645,75.132,100,65.625,100h-31.25
		c-9.504,0-17.61-3.355-24.315-10.059C3.354,83.236,0,75.132,0,65.625v-31.25c0-9.504,3.353-17.61,10.059-24.315
		C16.766,3.354,24.871,0,34.375,0h31.25c9.508,0,17.613,3.353,24.316,10.059C96.646,16.766,100,24.871,100,34.375V65.625z"/>
</g>
</g></g><g transform="translate(180,220) scale(0.2,0.2)"><g transform="" style="fill: rgb(10, 102, 194);">
<rect width="100" height="100"/>
</g></g><g transform="translate(220,220) scale(0.2,0.2)"><g transform="" style="fill: rgb(10, 102, 194);">
<g>
	<path d="M99.805,32.031H100V0H0v32.031h0.195C0.065,33.073,0,33.854,0,34.375v31.25c0,9.505,3.353,17.611,10.059,24.316
		C16.765,96.646,24.87,100,34.375,100h31.25c9.505,0,17.611-3.354,24.316-10.059C96.646,83.236,100,75.13,100,65.625v-31.25
		C100,33.854,99.937,33.073,99.805,32.031z"/>
</g>
</g></g><g transform="translate(280,220) scale(0.2,0.2)"><g transform="" style="fill: rgb(10, 102, 194);">
<g>
	<path d="M100,34.375c0-9.505-3.354-17.611-10.059-24.316C83.236,3.354,75.13,0,65.625,0h-31.25C24.87,0,16.764,3.353,10.059,10.059
		S0,24.87,0,34.375v31.25c0,0.521,0.065,1.303,0.195,2.344H0V100h100V67.969h-0.195c0.132-1.041,0.195-1.822,0.195-2.344V34.375z"/>
</g>
</g></g><g transform="translate(440,220) scale(0.2,0.2)"><g transform="" style="fill: rgb(10, 102, 194);">
<rect width="100" height="100"/>
</g></g><g transform="translate(0,240) scale(0.2,0.2)"><g transform="" style="fill: rgb(10, 102, 194);">
<g>
	<path d="M100,34.375c0-9.505-3.354-17.611-10.059-24.316C83.236,3.354,75.13,0,65.625,0h-31.25C24.87,0,16.764,3.353,10.059,10.059
		S0,24.87,0,34.375v31.25c0,0.521,0.065,1.303,0.195,2.344H0V100h100V67.969h-0.195c0.132-1.041,0.195-1.822,0.195-2.344V34.375z"/>
</g>
</g></g><g transform="translate(120,240) scale(0.2,0.2)"><g transform="" style="fill: rgb(10, 102, 194);">
<g>
	<path d="M100,65.625c0,9.507-3.355,17.611-10.059,24.316C83.236,96.645,75.132,100,65.625,100h-31.25
		c-9.504,0-17.61-3.355-24.315-10.059C3.354,83.236,0,75.132,0,65.625v-31.25c0-9.504,3.353-17.61,10.059-24.315
		C16.766,3.354,24.871,0,34.375,0h31.25c9.508,0,17.613,3.353,24.316,10.059C96.646,16.766,100,24.871,100,34.375V65.625z"/>
</g>
</g></g><g transform="translate(160,240) scale(0.2,0.2)"><g transform="" style="fill: rgb(10, 102, 194);">
<g>
	<path d="M100,34.375V0H34.375C24.87,0,16.764,3.353,10.059,10.059S0,24.87,0,34.375v31.25c0,9.505,3.353,17.611,10.059,24.316
		C16.765,96.646,24.87,100,34.375,100H100V34.375z"/>
</g>
</g></g><g transform="translate(180,240) scale(0.2,0.2)"><g transform="" style="fill: rgb(10, 102, 194);">
<rect width="100" height="100"/>
</g></g><g transform="translate(200,240) scale(0.2,0.2)"><g transform="" style="fill: rgb(10, 102, 194);">
<g>
	<path d="M65.625,0H0v100h65.625c9.505,0,17.611-3.354,24.316-10.059C96.646,83.236,100,75.13,100,65.625v-31.25
		c0-9.505-3.354-17.611-10.059-24.316C83.236,3.354,75.13,0,65.625,0z"/>
</g>
</g></g><g transform="translate(260,240) scale(0.2,0.2)"><g transform="" style="fill: rgb(10, 102, 194);">
<g>
	<path d="M100,34.375V0H34.375C24.87,0,16.764,3.353,10.059,10.059S0,24.87,0,34.375v31.25c0,9.505,3.353,17.611,10.059,24.316
		C16.765,96.646,24.87,100,34.375,100H100V34.375z"/>
</g>
</g></g><g transform="translate(280,240) scale(0.2,0.2)"><g transform="" style="fill: rgb(10, 102, 194);">
<rect width="100" height="100"/>
</g></g><g transform="translate(300,240) scale(0.2,0.2)"><g transform="" style="fill: rgb(10, 102, 194);">
<g>
	<path d="M100,34.375c0-9.505-3.354-17.611-10.059-24.316C83.236,3.354,75.13,0,65.625,0H0v100h100V34.375z"/>
</g>
</g></g><g transform="translate(340,240) scale(0.2,0.2)"><g transform="" style="fill: rgb(10, 102, 194);">
<g>
	<path d="M100,34.375V0H34.375C24.87,0,16.764,3.353,10.059,10.059S0,24.87,0,34.375v31.25c0,9.505,3.353,17.611,10.059,24.316
		C16.765,96.646,24.87,100,34.375,100H100V34.375z"/>
</g>
</g></g><g transform="translate(360,240) scale(0.2,0.2)"><g transform="" style="fill: rgb(10, 102, 194);">
<rect width="100" height="100"/>
</g></g><g transform="translate(380,240) scale(0.2,0.2)"><g transform="" style="fill: rgb(10, 102, 194);">
<g>
	<path d="M65.625,0H0v100h65.625c9.505,0,17.611-3.354,24.316-10.059C96.646,83.236,100,75.13,100,65.625v-31.25
		c0-9.505-3.354-17.611-10.059-24.316C83.236,3.354,75.13,0,65.625,0z"/>
</g>
</g></g><g transform="translate(440,240) scale(0.2,0.2)"><g transform="" style="fill: rgb(10, 102, 194);">
<rect width="100" height="100"/>
</g></g><g transform="translate(480,240) scale(0.2,0.2)"><g transform="" style="fill: rgb(10, 102, 194);">
<g>
	<path d="M100,65.625c0,9.507-3.355,17.611-10.059,24.316C83.236,96.645,75.132,100,65.625,100h-31.25
		c-9.504,0-17.61-3.355-24.315-10.059C3.354,83.236,0,75.132,0,65.625v-31.25c0-9.504,3.353-17.61,10.059-24.315
		C16.766,3.354,24.871,0,34.375,0h31.25c9.508,0,17.613,3.353,24.316,10.059C96.646,16.766,100,24.871,100,34.375V65.625z"/>
</g>
</g></g><g transform="translate(0,260) scale(0.2,0.2)"><g transform="" style="fill: rgb(10, 102, 194);">
<g>
	<path d="M100,0H0v65.625c0,9.505,3.353,17.611,10.059,24.316C16.765,96.646,24.87,100,34.375,100H100V0z"/>
</g>
</g></g><g transform="translate(20,260) scale(0.2,0.2)"><g transform="" style="fill: rgb(10, 102, 194);">
<rect width="100" height="100"/>
</g></g><g transform="translate(40,260) scale(0.2,0.2)"><g transform="" style="fill: rgb(10, 102, 194);">
<rect width="100" height="100"/>
</g></g><g transform="translate(60,260) scale(0.2,0.2)"><g transform="" style="fill: rgb(10, 102, 194);">
<g>
	<path d="M65.625,0H0v100h65.625c9.505,0,17.611-3.354,24.316-10.059C96.646,83.236,100,75.13,100,65.625v-31.25
		c0-9.505-3.354-17.611-10.059-24.316C83.236,3.354,75.13,0,65.625,0z"/>
</g>
</g></g><g transform="translate(100,260) scale(0.2,0.2)"><g transform="" style="fill: rgb(10, 102, 194);">
<g>
	<path d="M100,65.625c0,9.507-3.355,17.611-10.059,24.316C83.236,96.645,75.132,100,65.625,100h-31.25
		c-9.504,0-17.61-3.355-24.315-10.059C3.354,83.236,0,75.132,0,65.625v-31.25c0-9.504,3.353-17.61,10.059-24.315
		C16.766,3.354,24.871,0,34.375,0h31.25c9.508,0,17.613,3.353,24.316,10.059C96.646,16.766,100,24.871,100,34.375V65.625z"/>
</g>
</g></g><g transform="translate(180,260) scale(0.2,0.2)"><g transform="" style="fill: rgb(10, 102, 194);">
<rect width="100" height="100"/>
</g></g><g transform="translate(240,260) scale(0.2,0.2)"><g transform="" style="fill: rgb(10, 102, 194);">
<g>
	<path d="M100,34.375c0-9.505-3.354-17.611-10.059-24.316C83.236,3.354,75.13,0,65.625,0h-31.25C24.87,0,16.764,3.353,10.059,10.059
		S0,24.87,0,34.375v31.25c0,0.521,0.065,1.303,0.195,2.344H0V100h100V67.969h-0.195c0.132-1.041,0.195-1.822,0.195-2.344V34.375z"/>
</g>
</g></g><g transform="translate(300,260) scale(0.2,0.2)"><g transform="" style="fill: rgb(10, 102, 194);">
<rect width="100" height="100"/>
</g></g><g transform="translate(360,260) scale(0.2,0.2)"><g transform="" style="fill: rgb(10, 102, 194);">
<g>
	<path d="M99.805,32.031H100V0H0v32.031h0.195C0.065,33.073,0,33.854,0,34.375v31.25c0,9.505,3.353,17.611,10.059,24.316
		C16.765,96.646,24.87,100,34.375,100h31.25c9.505,0,17.611-3.354,24.316-10.059C96.646,83.236,100,75.13,100,65.625v-31.25
		C100,33.854,99.937,33.073,99.805,32.031z"/>
</g>
</g></g><g transform="translate(400,260) scale(0.2,0.2)"><g transform="" style="fill: rgb(10, 102, 194);">
<g>
	<path d="M100,34.375V0H34.375C24.87,0,16.764,3.353,10.059,10.059S0,24.87,0,34.375v31.25c0,9.505,3.353,17.611,10.059,24.316
		C16.765,96.646,24.87,100,34.375,100H100V34.375z"/>
</g>
</g></g><g transform="translate(420,260) scale(0.2,0.2)"><g transform="" style="fill: rgb(10, 102, 194);">
<rect width="100" height="100"/>
</g></g><g transform="translate(440,260) scale(0.2,0.2)"><g transform="" style="fill: rgb(10, 102, 194);">
<rect width="100" height="100"/>
</g></g><g transform="translate(120,280) scale(0.2,0.2)"><g transform="" style="fill: rgb(10, 102, 194);">
<g>
	<path d="M100,65.625c0,9.507-3.355,17.611-10.059,24.316C83.236,96.645,75.132,100,65.625,100h-31.25
		c-9.504,0-17.61-3.355-24.315-10.059C3.354,83.236,0,75.132,0,65.625v-31.25c0-9.504,3.353-17.61,10.059-24.315
		C16.766,3.354,24.871,0,34.375,0h31.25c9.508,0,17.613,3.353,24.316,10.059C96.646,16.766,100,24.871,100,34.375V65.625z"/>
</g>
</g></g><g transform="translate(160,280) scale(0.2,0.2)"><g transform="" style="fill: rgb(10, 102, 194);">
<g>
	<path d="M100,34.375V0H34.375C24.87,0,16.764,3.353,10.059,10.059S0,24.87,0,34.375v31.25c0,9.505,3.353,17.611,10.059,24.316
		C16.765,96.646,24.87,100,34.375,100H100V34.375z"/>
</g>
</g></g><g transform="translate(180,280) scale(0.2,0.2)"><g transform="" style="fill: rgb(10, 102, 194);">
<g>
	<path d="M100,0H0v100h65.625c9.505,0,17.611-3.354,24.316-10.059C96.646,83.236,100,75.13,100,65.625V0z"/>
</g>
</g></g><g transform="translate(220,280) scale(0.2,0.2)"><g transform="" style="fill: rgb(10, 102, 194);">
<g>
	<path d="M100,34.375V0H34.375C24.87,0,16.764,3.353,10.059,10.059S0,24.87,0,34.375V100h100V34.375z"/>
</g>
</g></g><g transform="translate(240,280) scale(0.2,0.2)"><g transform="" style="fill: rgb(10, 102, 194);">
<rect width="100" height="100"/>
</g></g><g transform="translate(260,280) scale(0.2,0.2)"><g transform="" style="fill: rgb(10, 102, 194);">
<rect width="100" height="100"/>
</g></g><g transform="translate(280,280) scale(0.2,0.2)"><g transform="" style="fill: rgb(10, 102, 194);">
<rect width="100" height="100"/>
</g></g><g transform="translate(300,280) scale(0.2,0.2)"><g transform="" style="fill: rgb(10, 102, 194);">
<rect width="100" height="100"/>
</g></g><g transform="translate(320,280) scale(0.2,0.2)"><g transform="" style="fill: rgb(10, 102, 194);">
<rect width="100" height="100"/>
</g></g><g transform="translate(340,280) scale(0.2,0.2)"><g transform="" style="fill: rgb(10, 102, 194);">
<g>
	<path d="M100,34.375c0-9.505-3.354-17.611-10.059-24.316C83.236,3.354,75.13,0,65.625,0H0v100h100V34.375z"/>
</g>
</g></g><g transform="translate(420,280) scale(0.2,0.2)"><g transform="" style="fill: rgb(10, 102, 194);">
<g>
	<path d="M100,0H0v65.625c0,9.505,3.353,17.611,10.059,24.316C16.765,96.646,24.87,100,34.375,100H100V0z"/>
</g>
</g></g><g transform="translate(440,280) scale(0.2,0.2)"><g transform="" style="fill: rgb(10, 102, 194);">
<rect width="100" height="100"/>
</g></g><g transform="translate(60,300) scale(0.2,0.2)"><g transform="" style="fill: rgb(10, 102, 194);">
<g>
	<path d="M100,65.625c0,9.507-3.355,17.611-10.059,24.316C83.236,96.645,75.132,100,65.625,100h-31.25
		c-9.504,0-17.61-3.355-24.315-10.059C3.354,83.236,0,75.132,0,65.625v-31.25c0-9.504,3.353-17.61,10.059-24.315
		C16.766,3.354,24.871,0,34.375,0h31.25c9.508,0,17.613,3.353,24.316,10.059C96.646,16.766,100,24.871,100,34.375V65.625z"/>
</g>
</g></g><g transform="translate(100,300) scale(0.2,0.2)"><g transform="" style="fill: rgb(10, 102, 194);">
<g>
	<path d="M100,65.625c0,9.507-3.355,17.611-10.059,24.316C83.236,96.645,75.132,100,65.625,100h-31.25
		c-9.504,0-17.61-3.355-24.315-10.059C3.354,83.236,0,75.132,0,65.625v-31.25c0-9.504,3.353-17.61,10.059-24.315
		C16.766,3.354,24.871,0,34.375,0h31.25c9.508,0,17.613,3.353,24.316,10.059C96.646,16.766,100,24.871,100,34.375V65.625z"/>
</g>
</g></g><g transform="translate(200,300) scale(0.2,0.2)"><g transform="" style="fill: rgb(10, 102, 194);">
<g>
	<path d="M100,34.375V0H34.375C24.87,0,16.764,3.353,10.059,10.059S0,24.87,0,34.375v31.25c0,9.505,3.353,17.611,10.059,24.316
		C16.765,96.646,24.87,100,34.375,100H100V34.375z"/>
</g>
</g></g><g transform="translate(220,300) scale(0.2,0.2)"><g transform="" style="fill: rgb(10, 102, 194);">
<g>
	<path d="M100,0H0v100h65.625c9.505,0,17.611-3.354,24.316-10.059C96.646,83.236,100,75.13,100,65.625V0z"/>
</g>
</g></g><g transform="translate(260,300) scale(0.2,0.2)"><g transform="" style="fill: rgb(10, 102, 194);">
<rect width="100" height="100"/>
</g></g><g transform="translate(300,300) scale(0.2,0.2)"><g transform="" style="fill: rgb(10, 102, 194);">
<g>
	<path d="M100,0H0v65.625c0,9.505,3.353,17.611,10.059,24.316C16.765,96.646,24.87,100,34.375,100H100V0z"/>
</g>
</g></g><g transform="translate(320,300) scale(0.2,0.2)"><g transform="" style="fill: rgb(10, 102, 194);">
<rect width="100" height="100"/>
</g></g><g transform="translate(340,300) scale(0.2,0.2)"><g transform="" style="fill: rgb(10, 102, 194);">
<rect width="100" height="100"/>
</g></g><g transform="translate(440,300) scale(0.2,0.2)"><g transform="" style="fill: rgb(10, 102, 194);">
<rect width="100" height="100"/>
</g></g><g transform="translate(0,320) scale(0.2,0.2)"><g transform="" style="fill: rgb(10, 102, 194);">
<g>
	<path d="M100,34.375V0H34.375C24.87,0,16.764,3.353,10.059,10.059S0,24.87,0,34.375v31.25c0,9.505,3.353,17.611,10.059,24.316
		C16.765,96.646,24.87,100,34.375,100H100V34.375z"/>
</g>
</g></g><g transform="translate(20,320) scale(0.2,0.2)"><g transform="" style="fill: rgb(10, 102, 194);">
<g>
	<path d="M65.625,0H0v100h65.625c9.505,0,17.611-3.354,24.316-10.059C96.646,83.236,100,75.13,100,65.625v-31.25
		c0-9.505-3.354-17.611-10.059-24.316C83.236,3.354,75.13,0,65.625,0z"/>
</g>
</g></g><g transform="translate(120,320) scale(0.2,0.2)"><g transform="" style="fill: rgb(10, 102, 194);">
<g>
	<path d="M100,65.625c0,9.507-3.355,17.611-10.059,24.316C83.236,96.645,75.132,100,65.625,100h-31.25
		c-9.504,0-17.61-3.355-24.315-10.059C3.354,83.236,0,75.132,0,65.625v-31.25c0-9.504,3.353-17.61,10.059-24.315
		C16.766,3.354,24.871,0,34.375,0h31.25c9.508,0,17.613,3.353,24.316,10.059C96.646,16.766,100,24.871,100,34.375V65.625z"/>
</g>
</g></g><g transform="translate(160,320) scale(0.2,0.2)"><g transform="" style="fill: rgb(10, 102, 194);">
<g>
	<path d="M100,34.375V0H34.375C24.87,0,16.764,3.353,10.059,10.059S0,24.87,0,34.375V100h100V34.375z"/>
</g>
</g></g><g transform="translate(180,320) scale(0.2,0.2)"><g transform="" style="fill: rgb(10, 102, 194);">
<g>
	<path d="M65.625,0H0v100h65.625c9.505,0,17.611-3.354,24.316-10.059C96.646,83.236,100,75.13,100,65.625v-31.25
		c0-9.505-3.354-17.611-10.059-24.316C83.236,3.354,75.13,0,65.625,0z"/>
</g>
</g></g><g transform="translate(240,320) scale(0.2,0.2)"><g transform="" style="fill: rgb(10, 102, 194);">
<g>
	<path d="M100,34.375V0H34.375C24.87,0,16.764,3.353,10.059,10.059S0,24.87,0,34.375v31.25c0,9.505,3.353,17.611,10.059,24.316
		C16.765,96.646,24.87,100,34.375,100H100V34.375z"/>
</g>
</g></g><g transform="translate(260,320) scale(0.2,0.2)"><g transform="" style="fill: rgb(10, 102, 194);">
<rect width="100" height="100"/>
</g></g><g transform="translate(320,320) scale(0.2,0.2)"><g transform="" style="fill: rgb(10, 102, 194);">
<rect width="100" height="100"/>
</g></g><g transform="translate(340,320) scale(0.2,0.2)"><g transform="" style="fill: rgb(10, 102, 194);">
<rect width="100" height="100"/>
</g></g><g transform="translate(360,320) scale(0.2,0.2)"><g transform="" style="fill: rgb(10, 102, 194);">
<rect width="100" height="100"/>
</g></g><g transform="translate(380,320) scale(0.2,0.2)"><g transform="" style="fill: rgb(10, 102, 194);">
<rect width="100" height="100"/>
</g></g><g transform="translate(400,320) scale(0.2,0.2)"><g transform="" style="fill: rgb(10, 102, 194);">
<rect width="100" height="100"/>
</g></g><g transform="translate(420,320) scale(0.2,0.2)"><g transform="" style="fill: rgb(10, 102, 194);">
<rect width="100" height="100"/>
</g></g><g transform="translate(440,320) scale(0.2,0.2)"><g transform="" style="fill: rgb(10, 102, 194);">
<rect width="100" height="100"/>
</g></g><g transform="translate(460,320) scale(0.2,0.2)"><g transform="" style="fill: rgb(10, 102, 194);">
<g>
	<path d="M65.625,0H0v100h65.625c9.505,0,17.611-3.354,24.316-10.059C96.646,83.236,100,75.13,100,65.625v-31.25
		c0-9.505-3.354-17.611-10.059-24.316C83.236,3.354,75.13,0,65.625,0z"/>
</g>
</g></g><g transform="translate(160,340) scale(0.2,0.2)"><g transform="" style="fill: rgb(10, 102, 194);">
<rect width="100" height="100"/>
</g></g><g transform="translate(200,340) scale(0.2,0.2)"><g transform="" style="fill: rgb(10, 102, 194);">
<g>
	<path d="M100,65.625c0,9.507-3.355,17.611-10.059,24.316C83.236,96.645,75.132,100,65.625,100h-31.25
		c-9.504,0-17.61-3.355-24.315-10.059C3.354,83.236,0,75.132,0,65.625v-31.25c0-9.504,3.353-17.61,10.059-24.315
		C16.766,3.354,24.871,0,34.375,0h31.25c9.508,0,17.613,3.353,24.316,10.059C96.646,16.766,100,24.871,100,34.375V65.625z"/>
</g>
</g></g><g transform="translate(260,340) scale(0.2,0.2)"><g transform="" style="fill: rgb(10, 102, 194);">
<g>
	<path d="M100,0H0v65.625c0,9.505,3.353,17.611,10.059,24.316C16.765,96.646,24.87,100,34.375,100H100V0z"/>
</g>
</g></g><g transform="translate(280,340) scale(0.2,0.2)"><g transform="" style="fill: rgb(10, 102, 194);">
<rect width="100" height="100"/>
</g></g><g transform="translate(300,340) scale(0.2,0.2)"><g transform="" style="fill: rgb(10, 102, 194);">
<rect width="100" height="100"/>
</g></g><g transform="translate(320,340) scale(0.2,0.2)"><g transform="" style="fill: rgb(10, 102, 194);">
<rect width="100" height="100"/>
</g></g><g transform="translate(400,340) scale(0.2,0.2)"><g transform="" style="fill: rgb(10, 102, 194);">
<rect width="100" height="100"/>
</g></g><g transform="translate(420,340) scale(0.2,0.2)"><g transform="" style="fill: rgb(10, 102, 194);">
<rect width="100" height="100"/>
</g></g><g transform="translate(160,360) scale(0.2,0.2)"><g transform="" style="fill: rgb(10, 102, 194);">
<g>
	<path d="M99.805,32.031H100V0H0v32.031h0.195C0.065,33.073,0,33.854,0,34.375v31.25c0,9.505,3.353,17.611,10.059,24.316
		C16.765,96.646,24.87,100,34.375,100h31.25c9.505,0,17.611-3.354,24.316-10.059C96.646,83.236,100,75.13,100,65.625v-31.25
		C100,33.854,99.937,33.073,99.805,32.031z"/>
</g>
</g></g><g transform="translate(320,360) scale(0.2,0.2)"><g transform="" style="fill: rgb(10, 102, 194);">
<rect width="100" height="100"/>
</g></g><g transform="translate(360,360) scale(0.2,0.2)"><g transform="" style="fill: rgb(10, 102, 194);">
<g>
	<path d="M100,65.625c0,9.507-3.355,17.611-10.059,24.316C83.236,96.645,75.132,100,65.625,100h-31.25
		c-9.504,0-17.61-3.355-24.315-10.059C3.354,83.236,0,75.132,0,65.625v-31.25c0-9.504,3.353-17.61,10.059-24.315
		C16.766,3.354,24.871,0,34.375,0h31.25c9.508,0,17.613,3.353,24.316,10.059C96.646,16.766,100,24.871,100,34.375V65.625z"/>
</g>
</g></g><g transform="translate(400,360) scale(0.2,0.2)"><g transform="" style="fill: rgb(10, 102, 194);">
<rect width="100" height="100"/>
</g></g><g transform="translate(420,360) scale(0.2,0.2)"><g transform="" style="fill: rgb(10, 102, 194);">
<rect width="100" height="100"/>
</g></g><g transform="translate(440,360) scale(0.2,0.2)"><g transform="" style="fill: rgb(10, 102, 194);">
<g>
	<path d="M100,34.375c0-9.505-3.354-17.611-10.059-24.316C83.236,3.354,75.13,0,65.625,0H0v100h100V34.375z"/>
</g>
</g></g><g transform="translate(200,380) scale(0.2,0.2)"><g transform="" style="fill: rgb(10, 102, 194);">
<g>
	<path d="M100,65.625c0,9.507-3.355,17.611-10.059,24.316C83.236,96.645,75.132,100,65.625,100h-31.25
		c-9.504,0-17.61-3.355-24.315-10.059C3.354,83.236,0,75.132,0,65.625v-31.25c0-9.504,3.353-17.61,10.059-24.315
		C16.766,3.354,24.871,0,34.375,0h31.25c9.508,0,17.613,3.353,24.316,10.059C96.646,16.766,100,24.871,100,34.375V65.625z"/>
</g>
</g></g><g transform="translate(240,380) scale(0.2,0.2)"><g transform="" style="fill: rgb(10, 102, 194);">
<g>
	<path d="M100,65.625c0,9.507-3.355,17.611-10.059,24.316C83.236,96.645,75.132,100,65.625,100h-31.25
		c-9.504,0-17.61-3.355-24.315-10.059C3.354,83.236,0,75.132,0,65.625v-31.25c0-9.504,3.353-17.61,10.059-24.315
		C16.766,3.354,24.871,0,34.375,0h31.25c9.508,0,17.613,3.353,24.316,10.059C96.646,16.766,100,24.871,100,34.375V65.625z"/>
</g>
</g></g><g transform="translate(280,380) scale(0.2,0.2)"><g transform="" style="fill: rgb(10, 102, 194);">
<g>
	<path d="M100,34.375c0-9.505-3.354-17.611-10.059-24.316C83.236,3.354,75.13,0,65.625,0h-31.25C24.87,0,16.764,3.353,10.059,10.059
		S0,24.87,0,34.375v31.25c0,0.521,0.065,1.303,0.195,2.344H0V100h100V67.969h-0.195c0.132-1.041,0.195-1.822,0.195-2.344V34.375z"/>
</g>
</g></g><g transform="translate(320,380) scale(0.2,0.2)"><g transform="" style="fill: rgb(10, 102, 194);">
<rect width="100" height="100"/>
</g></g><g transform="translate(400,380) scale(0.2,0.2)"><g transform="" style="fill: rgb(10, 102, 194);">
<rect width="100" height="100"/>
</g></g><g transform="translate(440,380) scale(0.2,0.2)"><g transform="" style="fill: rgb(10, 102, 194);">
<rect width="100" height="100"/>
</g></g><g transform="translate(460,380) scale(0.2,0.2)"><g transform="" style="fill: rgb(10, 102, 194);">
<rect width="100" height="100"/>
</g></g><g transform="translate(480,380) scale(0.2,0.2)"><g transform="" style="fill: rgb(10, 102, 194);">
<g>
	<path d="M100,34.375c0-9.505-3.354-17.611-10.059-24.316C83.236,3.354,75.13,0,65.625,0H0v100h100V34.375z"/>
</g>
</g></g><g transform="translate(160,400) scale(0.2,0.2)"><g transform="" style="fill: rgb(10, 102, 194);">
<g>
	<path d="M100,65.625c0,9.507-3.355,17.611-10.059,24.316C83.236,96.645,75.132,100,65.625,100h-31.25
		c-9.504,0-17.61-3.355-24.315-10.059C3.354,83.236,0,75.132,0,65.625v-31.25c0-9.504,3.353-17.61,10.059-24.315
		C16.766,3.354,24.871,0,34.375,0h31.25c9.508,0,17.613,3.353,24.316,10.059C96.646,16.766,100,24.871,100,34.375V65.625z"/>
</g>
</g></g><g transform="translate(220,400) scale(0.2,0.2)"><g transform="" style="fill: rgb(10, 102, 194);">
<g>
	<path d="M100,65.625c0,9.507-3.355,17.611-10.059,24.316C83.236,96.645,75.132,100,65.625,100h-31.25
		c-9.504,0-17.61-3.355-24.315-10.059C3.354,83.236,0,75.132,0,65.625v-31.25c0-9.504,3.353-17.61,10.059-24.315
		C16.766,3.354,24.871,0,34.375,0h31.25c9.508,0,17.613,3.353,24.316,10.059C96.646,16.766,100,24.871,100,34.375V65.625z"/>
</g>
</g></g><g transform="translate(260,400) scale(0.2,0.2)"><g transform="" style="fill: rgb(10, 102, 194);">
<g>
	<path d="M100,34.375V0H34.375C24.87,0,16.764,3.353,10.059,10.059S0,24.87,0,34.375v31.25c0,9.505,3.353,17.611,10.059,24.316
		C16.765,96.646,24.87,100,34.375,100H100V34.375z"/>
</g>
</g></g><g transform="translate(280,400) scale(0.2,0.2)"><g transform="" style="fill: rgb(10, 102, 194);">
<g>
	<path d="M100,0H0v100h65.625c9.505,0,17.611-3.354,24.316-10.059C96.646,83.236,100,75.13,100,65.625V0z"/>
</g>
</g></g><g transform="translate(320,400) scale(0.2,0.2)"><g transform="" style="fill: rgb(10, 102, 194);">
<g>
	<path d="M100,0H0v65.625c0,9.505,3.353,17.611,10.059,24.316C16.765,96.646,24.87,100,34.375,100H100V0z"/>
</g>
</g></g><g transform="translate(340,400) scale(0.2,0.2)"><g transform="" style="fill: rgb(10, 102, 194);">
<rect width="100" height="100"/>
</g></g><g transform="translate(360,400) scale(0.2,0.2)"><g transform="" style="fill: rgb(10, 102, 194);">
<rect width="100" height="100"/>
</g></g><g transform="translate(380,400) scale(0.2,0.2)"><g transform="" style="fill: rgb(10, 102, 194);">
<rect width="100" height="100"/>
</g></g><g transform="translate(400,400) scale(0.2,0.2)"><g transform="" style="fill: rgb(10, 102, 194);">
<g>
	<path d="M100,0H0v100h65.625c9.505,0,17.611-3.354,24.316-10.059C96.646,83.236,100,75.13,100,65.625V0z"/>
</g>
</g></g><g transform="translate(440,400) scale(0.2,0.2)"><g transform="" style="fill: rgb(10, 102, 194);">
<rect width="100" height="100"/>
</g></g><g transform="translate(480,400) scale(0.2,0.2)"><g transform="" style="fill: rgb(10, 102, 194);">
<rect width="100" height="100"/>
</g></g><g transform="translate(180,420) scale(0.2,0.2)"><g transform="" style="fill: rgb(10, 102, 194);">
<g>
	<path d="M100,34.375c0-9.505-3.354-17.611-10.059-24.316C83.236,3.354,75.13,0,65.625,0h-31.25C24.87,0,16.764,3.353,10.059,10.059
		S0,24.87,0,34.375v31.25c0,0.521,0.065,1.303,0.195,2.344H0V100h100V67.969h-0.195c0.132-1.041,0.195-1.822,0.195-2.344V34.375z"/>
</g>
</g></g><g transform="translate(240,420) scale(0.2,0.2)"><g transform="" style="fill: rgb(10, 102, 194);">
<g>
	<path d="M100,34.375c0-9.505-3.354-17.611-10.059-24.316C83.236,3.354,75.13,0,65.625,0h-31.25C24.87,0,16.764,3.353,10.059,10.059
		S0,24.87,0,34.375v31.25c0,0.521,0.065,1.303,0.195,2.344H0V100h100V67.969h-0.195c0.132-1.041,0.195-1.822,0.195-2.344V34.375z"/>
</g>
</g></g><g transform="translate(300,420) scale(0.2,0.2)"><g transform="" style="fill: rgb(10, 102, 194);">
<g>
	<path d="M100,34.375c0-9.505-3.354-17.611-10.059-24.316C83.236,3.354,75.13,0,65.625,0h-31.25C24.87,0,16.764,3.353,10.059,10.059
		S0,24.87,0,34.375v31.25c0,0.521,0.065,1.303,0.195,2.344H0V100h100V67.969h-0.195c0.132-1.041,0.195-1.822,0.195-2.344V34.375z"/>
</g>
</g></g><g transform="translate(340,420) scale(0.2,0.2)"><g transform="" style="fill: rgb(10, 102, 194);">
<g>
	<path d="M100,0H0v65.625c0,9.505,3.353,17.611,10.059,24.316C16.765,96.646,24.87,100,34.375,100H100V0z"/>
</g>
</g></g><g transform="translate(360,420) scale(0.2,0.2)"><g transform="" style="fill: rgb(10, 102, 194);">
<rect width="100" height="100"/>
</g></g><g transform="translate(420,420) scale(0.2,0.2)"><g transform="" style="fill: rgb(10, 102, 194);">
<g>
	<path d="M100,34.375V0H34.375C24.87,0,16.764,3.353,10.059,10.059S0,24.87,0,34.375v31.25c0,9.505,3.353,17.611,10.059,24.316
		C16.765,96.646,24.87,100,34.375,100H100V34.375z"/>
</g>
</g></g><g transform="translate(440,420) scale(0.2,0.2)"><g transform="" style="fill: rgb(10, 102, 194);">
<rect width="100" height="100"/>
</g></g><g transform="translate(460,420) scale(0.2,0.2)"><g transform="" style="fill: rgb(10, 102, 194);">
<rect width="100" height="100"/>
</g></g><g transform="translate(480,420) scale(0.2,0.2)"><g transform="" style="fill: rgb(10, 102, 194);">
<g>
	<path d="M100,0H0v100h65.625c9.505,0,17.611-3.354,24.316-10.059C96.646,83.236,100,75.13,100,65.625V0z"/>
</g>
</g></g><g transform="translate(180,440) scale(0.2,0.2)"><g transform="" style="fill: rgb(10, 102, 194);">
<g>
	<path d="M99.805,32.031H100V0H0v32.031h0.195C0.065,33.073,0,33.854,0,34.375v31.25c0,9.505,3.353,17.611,10.059,24.316
		C16.765,96.646,24.87,100,34.375,100h31.25c9.505,0,17.611-3.354,24.316-10.059C96.646,83.236,100,75.13,100,65.625v-31.25
		C100,33.854,99.937,33.073,99.805,32.031z"/>
</g>
</g></g><g transform="translate(220,440) scale(0.2,0.2)"><g transform="" style="fill: rgb(10, 102, 194);">
<g>
	<path d="M100,34.375V0H34.375C24.87,0,16.764,3.353,10.059,10.059S0,24.87,0,34.375V100h100V34.375z"/>
</g>
</g></g><g transform="translate(240,440) scale(0.2,0.2)"><g transform="" style="fill: rgb(10, 102, 194);">
<rect width="100" height="100"/>
</g></g><g transform="translate(260,440) scale(0.2,0.2)"><g transform="" style="fill: rgb(10, 102, 194);">
<rect width="100" height="100"/>
</g></g><g transform="translate(280,440) scale(0.2,0.2)"><g transform="" style="fill: rgb(10, 102, 194);">
<rect width="100" height="100"/>
</g></g><g transform="translate(300,440) scale(0.2,0.2)"><g transform="" style="fill: rgb(10, 102, 194);">
<rect width="100" height="100"/>
</g></g><g transform="translate(320,440) scale(0.2,0.2)"><g transform="" style="fill: rgb(10, 102, 194);">
<g>
	<path d="M65.625,0H0v100h65.625c9.505,0,17.611-3.354,24.316-10.059C96.646,83.236,100,75.13,100,65.625v-31.25
		c0-9.505-3.354-17.611-10.059-24.316C83.236,3.354,75.13,0,65.625,0z"/>
</g>
</g></g><g transform="translate(360,440) scale(0.2,0.2)"><g transform="" style="fill: rgb(10, 102, 194);">
<g>
	<path d="M100,0H0v65.625c0,9.505,3.353,17.611,10.059,24.316C16.765,96.646,24.87,100,34.375,100H100V0z"/>
</g>
</g></g><g transform="translate(380,440) scale(0.2,0.2)"><g transform="" style="fill: rgb(10, 102, 194);">
<g>
	<path d="M65.625,0H0v100h65.625c9.505,0,17.611-3.354,24.316-10.059C96.646,83.236,100,75.13,100,65.625v-31.25
		c0-9.505-3.354-17.611-10.059-24.316C83.236,3.354,75.13,0,65.625,0z"/>
</g>
</g></g><g transform="translate(460,440) scale(0.2,0.2)"><g transform="" style="fill: rgb(10, 102, 194);">
<rect width="100" height="100"/>
</g></g><g transform="translate(220,460) scale(0.2,0.2)"><g transform="" style="fill: rgb(10, 102, 194);">
<g>
	<path d="M99.805,32.031H100V0H0v32.031h0.195C0.065,33.073,0,33.854,0,34.375v31.25c0,9.505,3.353,17.611,10.059,24.316
		C16.765,96.646,24.87,100,34.375,100h31.25c9.505,0,17.611-3.354,24.316-10.059C96.646,83.236,100,75.13,100,65.625v-31.25
		C100,33.854,99.937,33.073,99.805,32.031z"/>
</g>
</g></g><g transform="translate(260,460) scale(0.2,0.2)"><g transform="" style="fill: rgb(10, 102, 194);">
<rect width="100" height="100"/>
</g></g><g transform="translate(300,460) scale(0.2,0.2)"><g transform="" style="fill: rgb(10, 102, 194);">
<rect width="100" height="100"/>
</g></g><g transform="translate(340,460) scale(0.2,0.2)"><g transform="" style="fill: rgb(10, 102, 194);">
<g>
	<path d="M100,34.375c0-9.505-3.354-17.611-10.059-24.316C83.236,3.354,75.13,0,65.625,0h-31.25C24.87,0,16.764,3.353,10.059,10.059
		S0,24.87,0,34.375v31.25c0,0.521,0.065,1.303,0.195,2.344H0V100h100V67.969h-0.195c0.132-1.041,0.195-1.822,0.195-2.344V34.375z"/>
</g>
</g></g><g transform="translate(400,460) scale(0.2,0.2)"><g transform="" style="fill: rgb(10, 102, 194);">
<g>
	<path d="M100,34.375V0H34.375C24.87,0,16.764,3.353,10.059,10.059S0,24.87,0,34.375v31.25c0,9.505,3.353,17.611,10.059,24.316
		C16.765,96.646,24.87,100,34.375,100H100V34.375z"/>
</g>
</g></g><g transform="translate(420,460) scale(0.2,0.2)"><g transform="" style="fill: rgb(10, 102, 194);">
<rect width="100" height="100"/>
</g></g><g transform="translate(440,460) scale(0.2,0.2)"><g transform="" style="fill: rgb(10, 102, 194);">
<rect width="100" height="100"/>
</g></g><g transform="translate(460,460) scale(0.2,0.2)"><g transform="" style="fill: rgb(10, 102, 194);">
<rect width="100" height="100"/>
</g></g><g transform="translate(160,480) scale(0.2,0.2)"><g transform="" style="fill: rgb(10, 102, 194);">
<g>
	<path d="M100,34.375V0H34.375C24.87,0,16.764,3.353,10.059,10.059S0,24.87,0,34.375v31.25c0,9.505,3.353,17.611,10.059,24.316
		C16.765,96.646,24.87,100,34.375,100H100V34.375z"/>
</g>
</g></g><g transform="translate(180,480) scale(0.2,0.2)"><g transform="" style="fill: rgb(10, 102, 194);">
<rect width="100" height="100"/>
</g></g><g transform="translate(200,480) scale(0.2,0.2)"><g transform="" style="fill: rgb(10, 102, 194);">
<g>
	<path d="M65.625,0H0v100h65.625c9.505,0,17.611-3.354,24.316-10.059C96.646,83.236,100,75.13,100,65.625v-31.25
		c0-9.505-3.354-17.611-10.059-24.316C83.236,3.354,75.13,0,65.625,0z"/>
</g>
</g></g><g transform="translate(240,480) scale(0.2,0.2)"><g transform="" style="fill: rgb(10, 102, 194);">
<g>
	<path d="M100,34.375V0H34.375C24.87,0,16.764,3.353,10.059,10.059S0,24.87,0,34.375v31.25c0,9.505,3.353,17.611,10.059,24.316
		C16.765,96.646,24.87,100,34.375,100H100V34.375z"/>
</g>
</g></g><g transform="translate(260,480) scale(0.2,0.2)"><g transform="" style="fill: rgb(10, 102, 194);">
<g>
	<path d="M100,0H0v100h65.625c9.505,0,17.611-3.354,24.316-10.059C96.646,83.236,100,75.13,100,65.625V0z"/>
</g>
</g></g><g transform="translate(300,480) scale(0.2,0.2)"><g transform="" style="fill: rgb(10, 102, 194);">
<g>
	<path d="M99.805,32.031H100V0H0v32.031h0.195C0.065,33.073,0,33.854,0,34.375v31.25c0,9.505,3.353,17.611,10.059,24.316
		C16.765,96.646,24.87,100,34.375,100h31.25c9.505,0,17.611-3.354,24.316-10.059C96.646,83.236,100,75.13,100,65.625v-31.25
		C100,33.854,99.937,33.073,99.805,32.031z"/>
</g>
</g></g><g transform="translate(340,480) scale(0.2,0.2)"><g transform="" style="fill: rgb(10, 102, 194);">
<g>
	<path d="M99.805,32.031H100V0H0v32.031h0.195C0.065,33.073,0,33.854,0,34.375v31.25c0,9.505,3.353,17.611,10.059,24.316
		C16.765,96.646,24.87,100,34.375,100h31.25c9.505,0,17.611-3.354,24.316-10.059C96.646,83.236,100,75.13,100,65.625v-31.25
		C100,33.854,99.937,33.073,99.805,32.031z"/>
</g>
</g></g><g transform="translate(380,480) scale(0.2,0.2)"><g transform="" style="fill: rgb(10, 102, 194);">
<g>
	<path d="M100,65.625c0,9.507-3.355,17.611-10.059,24.316C83.236,96.645,75.132,100,65.625,100h-31.25
		c-9.504,0-17.61-3.355-24.315-10.059C3.354,83.236,0,75.132,0,65.625v-31.25c0-9.504,3.353-17.61,10.059-24.315
		C16.766,3.354,24.871,0,34.375,0h31.25c9.508,0,17.613,3.353,24.316,10.059C96.646,16.766,100,24.871,100,34.375V65.625z"/>
</g>
</g></g><g transform="translate(420,480) scale(0.2,0.2)"><g transform="" style="fill: rgb(10, 102, 194);">
<g>
	<path d="M100,0H0v65.625c0,9.505,3.353,17.611,10.059,24.316C16.765,96.646,24.87,100,34.375,100H100V0z"/>
</g>
</g></g><g transform="translate(440,480) scale(0.2,0.2)"><g transform="" style="fill: rgb(10, 102, 194);">
<rect width="100" height="100"/>
</g></g><g transform="translate(460,480) scale(0.2,0.2)"><g transform="" style="fill: rgb(10, 102, 194);">
<rect width="100" height="100"/>
</g></g><g transform="translate(480,480) scale(0.2,0.2)"><g transform="" style="fill: rgb(10, 102, 194);">
<g>
	<path d="M65.625,0H0v100h65.625c9.505,0,17.611-3.354,24.316-10.059C96.646,83.236,100,75.13,100,65.625v-31.25
		c0-9.505-3.354-17.611-10.059-24.316C83.236,3.354,75.13,0,65.625,0z"/>
</g>
</g></g><g transform="translate(0,0) scale(1.4, 1.4)"><g transform="" style="fill: rgb(10, 102, 194);">
<g>
	<path style="fill:none;" d="M65.859,15.008H34.141c-4.082,0-7.869,1.258-10.979,3.398c-2.419,1.665-4.428,3.864-5.848,6.421
		C15.838,27.484,15,30.526,15,33.758v32.471c0,10.344,8.586,18.76,19.145,18.76L50,84.992l15.855-0.004
		C76.414,84.988,85,76.572,85,66.229V33.758C85,23.419,76.414,15.008,65.859,15.008z"/>
	<path d="M65.859,0.008H34.141h0C18.683,0.008,5.587,10.221,1.4,24.18c-0.433,1.444-0.771,2.928-1.006,4.445
		C0.135,30.299,0,32.013,0,33.758v32.471c0,18.619,15.32,33.76,34.141,33.76L50,99.992l15.859-0.004
		c18.82,0,34.141-15.141,34.141-33.76V33.758C100,15.148,84.68,0.008,65.859,0.008z M85,66.229c0,10.344-8.586,18.76-19.145,18.76
		L50,84.992l-15.855-0.004C23.586,84.988,15,76.572,15,66.229V33.758c0-3.231,0.838-6.273,2.313-8.931
		c1.42-2.557,3.429-4.756,5.848-6.421c3.11-2.141,6.897-3.398,10.979-3.398h31.719C76.414,15.008,85,23.419,85,33.758V66.229z"/>
</g>
</g></g><g transform="translate(360,0) scale(1.4, 1.4)"><g transform="" style="fill: rgb(10, 102, 194);">
<g>
	<path style="fill:none;" d="M65.859,15.008H34.141c-4.082,0-7.869,1.258-10.979,3.398c-2.419,1.665-4.428,3.864-5.848,6.421
		C15.838,27.484,15,30.526,15,33.758v32.471c0,10.344,8.586,18.76,19.145,18.76L50,84.992l15.855-0.004
		C76.414,84.988,85,76.572,85,66.229V33.758C85,23.419,76.414,15.008,65.859,15.008z"/>
	<path d="M65.859,0.008H34.141h0C18.683,0.008,5.587,10.221,1.4,24.18c-0.433,1.444-0.771,2.928-1.006,4.445
		C0.135,30.299,0,32.013,0,33.758v32.471c0,18.619,15.32,33.76,34.141,33.76L50,99.992l15.859-0.004
		c18.82,0,34.141-15.141,34.141-33.76V33.758C100,15.148,84.68,0.008,65.859,0.008z M85,66.229c0,10.344-8.586,18.76-19.145,18.76
		L50,84.992l-15.855-0.004C23.586,84.988,15,76.572,15,66.229V33.758c0-3.231,0.838-6.273,2.313-8.931
		c1.42-2.557,3.429-4.756,5.848-6.421c3.11-2.141,6.897-3.398,10.979-3.398h31.719C76.414,15.008,85,23.419,85,33.758V66.229z"/>
</g>
</g></g><g transform="translate(0,360) scale(1.4, 1.4)"><g transform="" style="fill: rgb(10, 102, 194);">
<g>
	<path style="fill:none;" d="M65.859,15.008H34.141c-4.082,0-7.869,1.258-10.979,3.398c-2.419,1.665-4.428,3.864-5.848,6.421
		C15.838,27.484,15,30.526,15,33.758v32.471c0,10.344,8.586,18.76,19.145,18.76L50,84.992l15.855-0.004
		C76.414,84.988,85,76.572,85,66.229V33.758C85,23.419,76.414,15.008,65.859,15.008z"/>
	<path d="M65.859,0.008H34.141h0C18.683,0.008,5.587,10.221,1.4,24.18c-0.433,1.444-0.771,2.928-1.006,4.445
		C0.135,30.299,0,32.013,0,33.758v32.471c0,18.619,15.32,33.76,34.141,33.76L50,99.992l15.859-0.004
		c18.82,0,34.141-15.141,34.141-33.76V33.758C100,15.148,84.68,0.008,65.859,0.008z M85,66.229c0,10.344-8.586,18.76-19.145,18.76
		L50,84.992l-15.855-0.004C23.586,84.988,15,76.572,15,66.229V33.758c0-3.231,0.838-6.273,2.313-8.931
		c1.42-2.557,3.429-4.756,5.848-6.421c3.11-2.141,6.897-3.398,10.979-3.398h31.719C76.414,15.008,85,23.419,85,33.758V66.229z"/>
</g>
</g></g><g transform="translate(40,40) scale(0.6, 0.6)"><g transform="" style="fill: rgb(10, 102, 194);">
<g>
	<g id="XMLID_1_">
		<g>
			<path d="M27.351,100c-15.09,0-27.365-12.032-27.365-26.808V26.794c0-4.616,1.2-8.96,3.301-12.761
				c2.029-3.658,4.901-6.802,8.36-9.174C16.09,1.801,21.506,0,27.336,0h45.327c15.076,0,27.351,12.018,27.351,26.793v46.398
				c0,14.775-12.274,26.808-27.351,26.808H50H27.351z"/>
		</g>
		<g>
		</g>
	</g>
</g>
</g></g><g transform="translate(400,40) scale(0.6, 0.6)"><g transform="" style="fill: rgb(10, 102, 194);">
<g>
	<g id="XMLID_1_">
		<g>
			<path d="M27.351,100c-15.09,0-27.365-12.032-27.365-26.808V26.794c0-4.616,1.2-8.96,3.301-12.761
				c2.029-3.658,4.901-6.802,8.36-9.174C16.09,1.801,21.506,0,27.336,0h45.327c15.076,0,27.351,12.018,27.351,26.793v46.398
				c0,14.775-12.274,26.808-27.351,26.808H50H27.351z"/>
		</g>
		<g>
		</g>
	</g>
</g>
</g></g><g transform="translate(40,400) scale(0.6, 0.6)"><g transform="" style="fill: rgb(10, 102, 194);">
<g>
	<g id="XMLID_1_">
		<g>
			<path d="M27.351,100c-15.09,0-27.365-12.032-27.365-26.808V26.794c0-4.616,1.2-8.96,3.301-12.761
				c2.029-3.658,4.901-6.802,8.36-9.174C16.09,1.801,21.506,0,27.336,0h45.327c15.076,0,27.351,12.018,27.351,26.793v46.398
				c0,14.775-12.274,26.808-27.351,26.808H50H27.351z"/>
		</g>
		<g>
		</g>
	</g>
</g>
</g></g></g></svg>