<svg width="3864" height="1705" xmlns="http://www.w3.org/2000/svg" xmlns:xlink="http://www.w3.org/1999/xlink" xml:space="preserve" overflow="hidden"><defs><linearGradient x1="118.586" y1="960.404" x2="1545.41" y2="2035.6" gradientUnits="userSpaceOnUse" spreadMethod="reflect" id="fill0"><stop offset="0" stop-color="#001449" stop-opacity="0"/><stop offset="0.12" stop-color="#001449" stop-opacity="0"/><stop offset="0.58" stop-color="#4626CC" stop-opacity="0.0509804"/><stop offset="0.95" stop-color="#1B90FF" stop-opacity="0"/><stop offset="1" stop-color="#1B90FF" stop-opacity="0"/></linearGradient><linearGradient x1="393.047" y1="726.134" x2="1222.07" y2="1204.77" gradientUnits="userSpaceOnUse" spreadMethod="reflect" id="fill1"><stop offset="0" stop-color="#1C0C6E" stop-opacity="1"/><stop offset="0.2" stop-color="#1C0C6E" stop-opacity="1"/><stop offset="0.7" stop-color="#5D36FF" stop-opacity="1"/><stop offset="0.85" stop-color="#0070F2" stop-opacity="1"/><stop offset="0.95" stop-color="#1B90FF" stop-opacity="1"/><stop offset="1" stop-color="#1B90FF" stop-opacity="1"/></linearGradient><linearGradient x1="384.565" y1="1367.83" x2="1162.69" y2="1817.08" gradientUnits="userSpaceOnUse" spreadMethod="reflect" id="fill2"><stop offset="0" stop-color="#1C0C6E" stop-opacity="1"/><stop offset="0.2" stop-color="#1C0C6E" stop-opacity="1"/><stop offset="0.7" stop-color="#5D36FF" stop-opacity="1"/><stop offset="0.85" stop-color="#0070F2" stop-opacity="1"/><stop offset="0.95" stop-color="#1B90FF" stop-opacity="1"/><stop offset="1" stop-color="#1B90FF" stop-opacity="1"/></linearGradient></defs><g transform="translate(-169 -701)"><g><rect x="170" y="702" width="3863" height="1672" fill="#FFFFFF" fill-opacity="1"/><rect x="195" y="859" width="1274" height="1278" fill="url(#fill0)"/><path d="M1267.34 961.901C1264.73 961.901 1262.53 962.899 1260.75 964.895 1258.97 966.891 1258.08 969.766 1258.08 973.521 1258.08 977.276 1258.97 980.151 1260.75 982.147 1262.53 984.143 1264.73 985.141 1267.34 985.141 1269.96 985.141 1272.15 984.143 1273.92 982.147 1275.69 980.151 1276.58 977.252 1276.58 973.45 1276.58 969.743 1275.69 966.891 1273.92 964.895 1272.15 962.899 1269.96 961.901 1267.34 961.901ZM1181.98 961.901C1179.37 961.901 1177.17 962.899 1175.39 964.895 1173.6 966.891 1172.71 969.766 1172.71 973.521 1172.71 977.276 1173.6 980.151 1175.39 982.147 1177.17 984.143 1179.37 985.141 1181.98 985.141 1184.59 985.141 1186.79 984.143 1188.56 982.147 1190.33 980.151 1191.21 977.252 1191.21 973.45 1191.21 969.743 1190.33 966.891 1188.56 964.895 1186.79 962.899 1184.59 961.901 1181.98 961.901ZM1112.66 961.901C1110.04 961.901 1107.84 962.899 1106.06 964.895 1104.28 966.891 1103.39 969.766 1103.39 973.521 1103.39 977.276 1104.28 980.151 1106.06 982.147 1107.84 984.143 1110.04 985.141 1112.66 985.141 1115.27 985.141 1117.46 984.143 1119.23 982.147 1121 980.151 1121.89 977.252 1121.89 973.45 1121.89 969.743 1121 966.891 1119.23 964.895 1117.46 962.899 1115.27 961.901 1112.66 961.901ZM794.688 961.901C792.074 961.901 789.876 962.899 788.094 964.895 786.311 966.891 785.42 969.766 785.42 973.521 785.42 977.276 786.311 980.151 788.094 982.147 789.876 984.143 792.074 985.141 794.688 985.141 797.302 985.141 799.494 984.143 801.264 982.147 803.035 980.151 803.92 977.252 803.92 973.45 803.92 969.743 803.035 966.891 801.264 964.895 799.494 962.899 797.302 961.901 794.688 961.901ZM570.678 961.901C568.064 961.901 565.866 962.899 564.083 964.895 562.301 966.891 561.41 969.766 561.41 973.521 561.41 977.276 562.301 980.151 564.083 982.147 565.866 984.143 568.064 985.141 570.678 985.141 573.292 985.141 575.484 984.143 577.254 982.147 579.024 980.151 579.909 977.252 579.909 973.45 579.909 969.743 579.024 966.891 577.254 964.895 575.484 962.899 573.292 961.901 570.678 961.901ZM906.524 961.402C904.338 961.402 902.532 962.198 901.106 963.79 899.68 965.382 898.979 967.545 899.003 970.277L913.974 970.277C913.902 967.378 913.154 965.174 911.728 963.665 910.302 962.156 908.568 961.402 906.524 961.402ZM657.878 961.402C655.692 961.402 653.886 962.198 652.46 963.79 651.034 965.382 650.333 967.545 650.357 970.277L665.328 970.277C665.257 967.378 664.508 965.174 663.082 963.665 661.657 962.156 659.922 961.402 657.878 961.402ZM614.51 961.402C612.133 961.402 610.143 962.346 608.539 964.236 606.935 966.125 606.133 968.947 606.133 972.701 606.133 976.741 606.692 979.664 607.808 981.47 609.424 984.084 611.682 985.391 614.581 985.391 616.886 985.391 618.846 984.41 620.462 982.45 622.078 980.49 622.886 977.561 622.886 973.664 622.886 969.315 622.102 966.184 620.534 964.271 618.965 962.358 616.957 961.402 614.51 961.402ZM927.917 954.594 940.143 954.594 946.845 965.002 953.902 954.594 965.665 954.594 952.833 972.523 966.841 992.448 954.544 992.448 946.845 980.721 939.074 992.448 927.347 992.448 940.999 972.951ZM1267.31 953.738C1273.04 953.738 1277.73 955.598 1281.39 959.317 1285.05 963.036 1286.88 967.735 1286.88 973.414 1286.88 979.141 1285.03 983.888 1281.33 987.654 1277.64 991.42 1272.99 993.304 1267.38 993.304 1263.91 993.304 1260.6 992.52 1257.45 990.951 1254.3 989.383 1251.91 987.084 1250.27 984.054 1248.63 981.024 1247.81 977.335 1247.81 972.986 1247.81 969.659 1248.63 966.44 1250.27 963.327 1251.91 960.214 1254.23 957.837 1257.24 956.198 1260.24 954.558 1263.6 953.738 1267.31 953.738ZM1225.6 953.738C1230.21 953.738 1233.87 954.73 1236.59 956.715 1239.31 958.699 1241.27 961.723 1242.46 965.786L1232.58 967.568C1232.25 965.596 1231.5 964.111 1230.32 963.113 1229.14 962.115 1227.62 961.616 1225.74 961.616 1223.25 961.616 1221.26 962.477 1219.77 964.2 1218.28 965.923 1217.54 968.804 1217.54 972.844 1217.54 977.335 1218.3 980.507 1219.81 982.361 1221.31 984.214 1223.34 985.141 1225.88 985.141 1227.78 985.141 1229.34 984.6 1230.55 983.519 1231.76 982.438 1232.62 980.579 1233.12 977.941L1242.96 979.616C1241.93 984.131 1239.97 987.541 1237.08 989.846 1234.18 992.151 1230.29 993.304 1225.42 993.304 1219.88 993.304 1215.47 991.557 1212.18 988.064 1208.89 984.571 1207.24 979.735 1207.24 973.557 1207.24 967.307 1208.89 962.441 1212.2 958.96 1215.5 955.479 1219.97 953.738 1225.6 953.738ZM1181.94 953.738C1187.67 953.738 1192.36 955.598 1196.02 959.317 1199.68 963.036 1201.51 967.735 1201.51 973.414 1201.51 979.141 1199.67 983.888 1195.97 987.654 1192.27 991.42 1187.62 993.304 1182.02 993.304 1178.55 993.304 1175.24 992.52 1172.09 990.951 1168.94 989.383 1166.55 987.084 1164.91 984.054 1163.27 981.024 1162.45 977.335 1162.45 972.986 1162.45 969.659 1163.27 966.44 1164.91 963.327 1166.55 960.214 1168.87 957.837 1171.87 956.198 1174.88 954.558 1178.24 953.738 1181.94 953.738ZM1112.62 953.738C1118.35 953.738 1123.04 955.598 1126.7 959.317 1130.36 963.036 1132.19 967.735 1132.19 973.414 1132.19 979.141 1130.34 983.888 1126.65 987.654 1122.95 991.42 1118.3 993.304 1112.69 993.304 1109.22 993.304 1105.91 992.52 1102.77 990.951 1099.62 989.383 1097.22 987.084 1095.58 984.054 1093.94 981.024 1093.12 977.335 1093.12 972.986 1093.12 969.659 1093.94 966.44 1095.58 963.327 1097.22 960.214 1099.55 957.837 1102.55 956.198 1105.56 954.558 1108.91 953.738 1112.62 953.738ZM1084.3 953.738C1086.58 953.738 1088.78 954.368 1090.89 955.627L1087.79 964.36C1086.1 963.267 1084.53 962.721 1083.08 962.721 1081.68 962.721 1080.49 963.107 1079.52 963.879 1078.55 964.651 1077.78 966.047 1077.22 968.067 1076.66 970.087 1076.38 974.317 1076.38 980.757L1076.38 992.448 1066.37 992.448 1066.37 954.594 1075.67 954.594 1075.67 959.976C1077.26 957.433 1078.69 955.758 1079.97 954.95 1081.24 954.142 1082.68 953.738 1084.3 953.738ZM905.918 953.738C911.55 953.738 915.994 955.598 919.249 959.317 922.505 963.036 924.061 968.733 923.919 976.408L898.825 976.408C898.896 979.379 899.704 981.69 901.249 983.341 902.793 984.993 904.718 985.818 907.023 985.818 908.591 985.818 909.91 985.391 910.98 984.535 912.049 983.68 912.857 982.301 913.403 980.4L923.384 982.076C922.101 985.735 920.075 988.521 917.306 990.434 914.538 992.347 911.075 993.304 906.916 993.304 900.334 993.304 895.462 991.153 892.302 986.852 889.807 983.406 888.559 979.058 888.559 973.806 888.559 967.533 890.199 962.62 893.478 959.067 896.757 955.515 900.904 953.738 905.918 953.738ZM843.867 953.738C846.077 953.738 848.096 954.136 849.926 954.932 851.756 955.728 853.14 956.744 854.079 957.98 855.017 959.216 855.671 960.618 856.039 962.186 856.408 963.754 856.592 966 856.592 968.923L856.592 992.448 846.576 992.448 846.576 973.129C846.576 969.042 846.362 966.398 845.934 965.198 845.506 963.998 844.811 963.065 843.849 962.4 842.886 961.734 841.728 961.402 840.373 961.402 838.639 961.402 837.082 961.877 835.704 962.828 834.326 963.778 833.381 965.038 832.87 966.606 832.359 968.174 832.104 971.073 832.104 975.303L832.104 992.448 822.088 992.448 822.088 954.594 831.391 954.594 831.391 960.154C834.694 955.877 838.853 953.738 843.867 953.738ZM794.652 953.738C800.379 953.738 805.072 955.598 808.732 959.317 812.391 963.036 814.221 967.735 814.221 973.414 814.221 979.141 812.374 983.888 808.678 987.654 804.983 991.42 800.332 993.304 794.724 993.304 791.254 993.304 787.945 992.52 784.797 990.951 781.648 989.383 779.254 987.084 777.614 984.054 775.975 981.024 775.155 977.335 775.155 972.986 775.155 969.659 775.975 966.44 777.614 963.327 779.254 960.214 781.577 957.837 784.583 956.198 787.589 954.558 790.945 953.738 794.652 953.738ZM657.272 953.738C662.904 953.738 667.348 955.598 670.603 959.317 673.859 963.036 675.415 968.733 675.273 976.408L650.179 976.408C650.25 979.379 651.058 981.69 652.603 983.341 654.147 984.993 656.072 985.818 658.377 985.818 659.946 985.818 661.264 985.391 662.334 984.535 663.403 983.68 664.211 982.301 664.758 980.4L674.738 982.076C673.455 985.735 671.429 988.521 668.661 990.434 665.892 992.347 662.429 993.304 658.27 993.304 651.688 993.304 646.817 991.153 643.656 986.852 641.161 983.406 639.913 979.058 639.913 973.806 639.913 967.533 641.553 962.62 644.832 959.067 648.112 955.515 652.258 953.738 657.272 953.738ZM570.642 953.738C576.369 953.738 581.062 955.598 584.722 959.317 588.381 963.036 590.211 967.735 590.211 973.414 590.211 979.141 588.363 983.888 584.668 987.654 580.973 991.42 576.321 993.304 570.713 993.304 567.244 993.304 563.935 992.52 560.786 990.951 557.638 989.383 555.244 987.084 553.604 984.054 551.964 981.024 551.144 977.335 551.144 972.986 551.144 969.659 551.964 966.44 553.604 963.327 555.244 960.214 557.566 957.837 560.572 956.198 563.578 954.558 566.935 953.738 570.642 953.738ZM1028.72 949.033 1028.72 963.861 1034.49 963.861C1038.65 963.861 1041.43 963.588 1042.83 963.042 1044.24 962.495 1045.33 961.639 1046.13 960.475 1046.93 959.311 1047.33 957.956 1047.33 956.412 1047.33 954.511 1046.77 952.942 1045.65 951.707 1044.53 950.471 1043.12 949.699 1041.41 949.39 1040.15 949.152 1037.62 949.033 1033.82 949.033ZM410.152 949.033 410.152 963.861 415.927 963.861C420.085 963.861 422.865 963.588 424.267 963.042 425.669 962.495 426.768 961.639 427.564 960.475 428.36 959.311 428.759 957.956 428.759 956.412 428.759 954.511 428.2 952.942 427.083 951.707 425.966 950.471 424.552 949.699 422.842 949.39 421.582 949.152 419.051 949.033 415.249 949.033ZM1150.64 941.227 1150.64 954.594 1157.49 954.594 1157.49 962.578 1150.64 962.578 1150.64 977.834C1150.64 980.923 1150.71 982.723 1150.84 983.234 1150.97 983.745 1151.27 984.167 1151.73 984.5 1152.19 984.832 1152.76 984.999 1153.42 984.999 1154.35 984.999 1155.69 984.678 1157.45 984.036L1158.31 991.807C1155.98 992.805 1153.34 993.304 1150.39 993.304 1148.59 993.304 1146.96 993.001 1145.51 992.395 1144.06 991.789 1143 991.005 1142.32 990.042 1141.64 989.08 1141.17 987.779 1140.91 986.139 1140.7 984.975 1140.59 982.622 1140.59 979.082L1140.59 962.578 1135.99 962.578 1135.99 954.594 1140.59 954.594 1140.59 947.073ZM983.351 941.227 983.351 954.594 990.195 954.594 990.195 962.578 983.351 962.578 983.351 977.834C983.351 980.923 983.417 982.723 983.547 983.234 983.678 983.745 983.975 984.167 984.438 984.5 984.902 984.832 985.466 984.999 986.132 984.999 987.058 984.999 988.401 984.678 990.159 984.036L991.015 991.807C988.686 992.805 986.048 993.304 983.102 993.304 981.296 993.304 979.668 993.001 978.219 992.395 976.769 991.789 975.706 991.005 975.028 990.042 974.351 989.08 973.882 987.779 973.62 986.139 973.406 984.975 973.3 982.622 973.3 979.082L973.3 962.578 968.701 962.578 968.701 954.594 973.3 954.594 973.3 947.073ZM877.362 941.227 877.362 954.594 884.206 954.594 884.206 962.578 877.362 962.578 877.362 977.834C877.362 980.923 877.427 982.723 877.558 983.234 877.689 983.745 877.986 984.167 878.449 984.5 878.912 984.832 879.477 984.999 880.142 984.999 881.069 984.999 882.411 984.678 884.17 984.036L885.025 991.807C882.697 992.805 880.059 993.304 877.112 993.304 875.306 993.304 873.679 993.001 872.229 992.395 870.779 991.789 869.716 991.005 869.039 990.042 868.362 989.08 867.892 987.779 867.631 986.139 867.417 984.975 867.31 982.622 867.31 979.082L867.31 962.578 862.712 962.578 862.712 954.594 867.31 954.594 867.31 947.073ZM1294.82 940.193 1304.83 940.193 1304.83 992.448 1294.82 992.448ZM1018.17 940.193 1035.1 940.193C1041.51 940.193 1045.7 940.455 1047.65 940.978 1050.64 941.762 1053.15 943.467 1055.17 946.093 1057.19 948.718 1058.2 952.11 1058.2 956.269 1058.2 959.477 1057.61 962.174 1056.45 964.36 1055.29 966.547 1053.81 968.263 1052.01 969.511 1050.22 970.759 1048.39 971.584 1046.54 971.988 1044.02 972.487 1040.37 972.737 1035.6 972.737L1028.72 972.737 1028.72 992.448 1018.17 992.448ZM683.513 940.193 693.529 940.193 693.529 992.448 683.513 992.448ZM622.85 940.193 632.867 940.193 632.867 992.448 623.563 992.448 623.563 986.888C622.019 989.05 620.195 990.66 618.092 991.718 615.989 992.775 613.868 993.304 611.729 993.304 607.381 993.304 603.656 991.551 600.555 988.046 597.454 984.541 595.903 979.652 595.903 973.378 595.903 966.962 597.412 962.085 600.43 958.746 603.448 955.408 607.262 953.738 611.872 953.738 616.102 953.738 619.761 955.497 622.85 959.014ZM492.088 940.193 507.878 940.193 517.36 975.838 526.734 940.193 542.561 940.193 542.561 992.448 532.758 992.448 532.758 951.314 522.386 992.448 512.227 992.448 501.89 951.314 501.89 992.448 492.088 992.448ZM399.601 940.193 416.532 940.193C422.948 940.193 427.131 940.455 429.079 940.978 432.073 941.762 434.58 943.467 436.6 946.093 438.62 948.718 439.63 952.11 439.63 956.269 439.63 959.477 439.048 962.174 437.884 964.36 436.719 966.547 435.24 968.263 433.446 969.511 431.652 970.759 429.828 971.584 427.974 971.988 425.455 972.487 421.808 972.737 417.031 972.737L410.152 972.737 410.152 992.448 399.601 992.448ZM285.448 940.193 301.239 940.193 310.72 975.838 320.095 940.193 335.921 940.193 335.921 992.448 326.119 992.448 326.119 951.314 315.746 992.448 305.587 992.448 295.251 951.314 295.251 992.448 285.448 992.448ZM1312.59 939.302 1319.4 939.302C1322.99 944.411 1325.77 949.829 1327.76 955.556 1329.74 961.283 1330.73 967.093 1330.73 972.986 1330.73 977.953 1329.95 983.276 1328.38 988.955 1326.6 995.324 1323.66 1001.61 1319.58 1007.81L1312.66 1007.81C1314.63 1003.58 1316.02 1000.34 1316.83 998.08 1317.64 995.823 1318.39 993.221 1319.08 990.274 1319.77 987.327 1320.28 984.529 1320.61 981.88 1320.94 979.23 1321.11 976.515 1321.11 973.735 1321.11 968.079 1320.5 962.727 1319.29 957.677 1318.08 952.627 1315.84 946.502 1312.59 939.302ZM747.433 939.302C753.825 939.302 759.018 941.191 763.01 944.97 765.386 947.203 767.168 950.411 768.357 954.594L757.913 957.089C757.295 954.38 756.006 952.241 754.045 950.673 752.085 949.104 749.703 948.32 746.899 948.32 743.025 948.32 739.883 949.71 737.471 952.491 735.059 955.271 733.853 959.774 733.853 966 733.853 972.606 735.041 977.311 737.417 980.115 739.793 982.919 742.883 984.321 746.685 984.321 749.489 984.321 751.901 983.43 753.921 981.648 755.94 979.866 757.39 977.062 758.269 973.236L768.499 976.479C766.931 982.183 764.323 986.418 760.675 989.187 757.027 991.955 752.4 993.339 746.792 993.339 739.853 993.339 734.15 990.969 729.682 986.228 725.215 981.488 722.981 975.006 722.981 966.784 722.981 958.087 725.227 951.332 729.718 946.52 734.209 941.708 740.114 939.302 747.433 939.302ZM477.397 939.302 484.241 939.302C480.986 946.502 478.746 952.627 477.522 957.677 476.298 962.727 475.686 968.079 475.686 973.735 475.686 977.632 476.049 981.624 476.774 985.711 477.498 989.799 478.49 993.684 479.75 997.367 480.582 999.791 482.043 1003.27 484.134 1007.81L477.255 1007.81C473.619 1002.32 470.851 996.619 468.95 990.702 467.049 984.785 466.098 979.058 466.098 973.521 466.098 966.653 467.274 960.154 469.627 954.023 471.67 948.701 474.261 943.793 477.397 939.302ZM369.492 939.302C375.884 939.302 381.076 941.191 385.068 944.97 387.445 947.203 389.227 950.411 390.415 954.594L379.971 957.089C379.353 954.38 378.064 952.241 376.104 950.673 374.143 949.104 371.761 948.32 368.957 948.32 365.084 948.32 361.941 949.71 359.529 952.491 357.117 955.271 355.911 959.774 355.911 966 355.911 972.606 357.099 977.311 359.475 980.115 361.852 982.919 364.941 984.321 368.743 984.321 371.547 984.321 373.959 983.43 375.979 981.648 377.999 979.866 379.448 977.062 380.328 973.236L390.558 976.479C388.989 982.183 386.381 986.418 382.734 989.187 379.086 991.955 374.458 993.339 368.85 993.339 361.911 993.339 356.208 990.969 351.741 986.228 347.273 981.488 345.039 975.006 345.039 966.784 345.039 958.087 347.285 951.332 351.776 946.52 356.267 941.708 362.173 939.302 369.492 939.302Z" fill="url(#fill1)" fill-rule="evenodd"/><text fill="#000000" fill-opacity="0" font-family="Arial,Arial_MSFontService,sans-serif" font-size="68.5088" direction="ltr" writing-mode="lr-tb" x="285.448" y="999.247">MCP (Model Context Protocol)</text><text fill="#1C0C6E" fill-opacity="1" font-family="Arial,Arial_MSFontService,sans-serif" font-style="normal" font-variant="normal" font-weight="400" font-stretch="normal" font-size="64" text-anchor="start" direction="ltr" writing-mode="lr-tb" unicode-bidi="normal" text-decoration="none" transform="matrix(1 0 0 1 280.28 1071)">Focuses on reducing complexity by </text><text fill="#1C0C6E" fill-opacity="1" font-family="Arial,Arial_MSFontService,sans-serif" font-style="normal" font-variant="normal" font-weight="400" font-stretch="normal" font-size="64" text-anchor="start" direction="ltr" writing-mode="lr-tb" unicode-bidi="normal" text-decoration="none" transform="matrix(1 0 0 1 280.28 1148)">connecting agents to </text><text fill="#1C0C6E" fill-opacity="1" font-family="Arial,Arial_MSFontService,sans-serif" font-style="normal" font-variant="normal" font-weight="700" font-stretch="normal" font-size="64" text-anchor="start" direction="ltr" writing-mode="lr-tb" unicode-bidi="normal" text-decoration="none" transform="matrix(1 0 0 1 888.144 1148)">stateless tools </text><text fill="#1C0C6E" fill-opacity="1" font-family="Arial,Arial_MSFontService,sans-serif" font-style="normal" font-variant="normal" font-weight="700" font-stretch="normal" font-size="64" text-anchor="start" direction="ltr" writing-mode="lr-tb" unicode-bidi="normal" text-decoration="none" transform="matrix(1 0 0 1 280.28 1225)">and data</text><text fill="#1C0C6E" fill-opacity="1" font-family="Arial,Arial_MSFontService,sans-serif" font-style="normal" font-variant="normal" font-weight="400" font-stretch="normal" font-size="64" text-anchor="start" direction="ltr" writing-mode="lr-tb" unicode-bidi="normal" text-decoration="none" transform="matrix(1 0 0 1 560.436 1225)">(e.g., calculators or </text><text fill="#1C0C6E" fill-opacity="1" font-family="Arial,Arial_MSFontService,sans-serif" font-style="normal" font-variant="normal" font-weight="400" font-stretch="normal" font-size="64" text-anchor="start" direction="ltr" writing-mode="lr-tb" unicode-bidi="normal" text-decoration="none" transform="matrix(1 0 0 1 280.28 1302)">database queries) to perform specific, </text><text fill="#1C0C6E" fill-opacity="1" font-family="Arial,Arial_MSFontService,sans-serif" font-style="normal" font-variant="normal" font-weight="400" font-stretch="normal" font-size="64" text-anchor="start" direction="ltr" writing-mode="lr-tb" unicode-bidi="normal" text-decoration="none" transform="matrix(1 0 0 1 280.28 1379)">predefined functions.</text><path d="M1199.49 1588.9C1196.87 1588.9 1194.68 1589.9 1192.89 1591.89 1191.11 1593.89 1190.22 1596.77 1190.22 1600.52 1190.22 1604.28 1191.11 1607.15 1192.89 1609.15 1194.68 1611.14 1196.87 1612.14 1199.49 1612.14 1202.1 1612.14 1204.29 1611.14 1206.06 1609.15 1207.83 1607.15 1208.72 1604.25 1208.72 1600.45 1208.72 1596.74 1207.83 1593.89 1206.06 1591.89 1204.29 1589.9 1202.1 1588.9 1199.49 1588.9ZM1114.12 1588.9C1111.51 1588.9 1109.31 1589.9 1107.53 1591.89 1105.75 1593.89 1104.86 1596.77 1104.86 1600.52 1104.86 1604.28 1105.75 1607.15 1107.53 1609.15 1109.31 1611.14 1111.51 1612.14 1114.12 1612.14 1116.74 1612.14 1118.93 1611.14 1120.7 1609.15 1122.47 1607.15 1123.36 1604.25 1123.36 1600.45 1123.36 1596.74 1122.47 1593.89 1120.7 1591.89 1118.93 1589.9 1116.74 1588.9 1114.12 1588.9ZM1044.8 1588.9C1042.19 1588.9 1039.99 1589.9 1038.21 1591.89 1036.42 1593.89 1035.53 1596.77 1035.53 1600.52 1035.53 1604.28 1036.42 1607.15 1038.21 1609.15 1039.99 1611.14 1042.19 1612.14 1044.8 1612.14 1047.41 1612.14 1049.61 1611.14 1051.38 1609.15 1053.15 1607.15 1054.03 1604.25 1054.03 1600.45 1054.03 1596.74 1053.15 1593.89 1051.38 1591.89 1049.61 1589.9 1047.41 1588.9 1044.8 1588.9ZM834.657 1588.4C832.471 1588.4 830.665 1589.2 829.239 1590.79 827.814 1592.38 827.113 1594.54 827.136 1597.28L842.107 1597.28C842.036 1594.38 841.287 1592.17 839.862 1590.67 838.436 1589.16 836.701 1588.4 834.657 1588.4ZM791.217 1588.4C788.817 1588.4 786.839 1589.33 785.283 1591.2 783.726 1593.07 782.948 1595.91 782.948 1599.74 782.948 1603.75 783.726 1606.69 785.283 1608.56 786.839 1610.42 788.758 1611.36 791.039 1611.36 793.487 1611.36 795.554 1610.4 797.241 1608.49 798.929 1606.57 799.772 1603.74 799.772 1599.99 799.772 1596.07 798.964 1593.15 797.348 1591.25 795.732 1589.35 793.689 1588.4 791.217 1588.4ZM586.584 1588.4C584.398 1588.4 582.592 1589.2 581.167 1590.79 579.741 1592.38 579.04 1594.54 579.063 1597.28L594.034 1597.28C593.963 1594.38 593.214 1592.17 591.789 1590.67 590.363 1589.16 588.628 1588.4 586.584 1588.4ZM543.145 1588.4C540.745 1588.4 538.766 1589.33 537.21 1591.2 535.653 1593.07 534.875 1595.91 534.875 1599.74 534.875 1603.75 535.653 1606.69 537.21 1608.56 538.766 1610.42 540.685 1611.36 542.966 1611.36 545.414 1611.36 547.481 1610.4 549.169 1608.49 550.856 1606.57 551.699 1603.74 551.699 1599.99 551.699 1596.07 550.891 1593.15 549.275 1591.25 547.66 1589.35 545.616 1588.4 543.145 1588.4ZM1199.45 1580.74C1205.18 1580.74 1209.87 1582.6 1213.53 1586.32 1217.19 1590.04 1219.02 1594.73 1219.02 1600.41 1219.02 1606.14 1217.17 1610.89 1213.48 1614.65 1209.78 1618.42 1205.13 1620.3 1199.52 1620.3 1196.05 1620.3 1192.75 1619.52 1189.6 1617.95 1186.45 1616.38 1184.05 1614.08 1182.41 1611.05 1180.77 1608.02 1179.95 1604.33 1179.95 1599.99 1179.95 1596.66 1180.77 1593.44 1182.41 1590.33 1184.05 1587.21 1186.38 1584.84 1189.38 1583.2 1192.39 1581.56 1195.75 1580.74 1199.45 1580.74ZM1157.74 1580.74C1162.35 1580.74 1166.02 1581.73 1168.74 1583.71 1171.46 1585.7 1173.41 1588.72 1174.6 1592.79L1164.73 1594.57C1164.4 1592.6 1163.64 1591.11 1162.46 1590.11 1161.29 1589.11 1159.76 1588.62 1157.88 1588.62 1155.39 1588.62 1153.4 1589.48 1151.91 1591.2 1150.43 1592.92 1149.69 1595.8 1149.69 1599.84 1149.69 1604.33 1150.44 1607.51 1151.95 1609.36 1153.46 1611.21 1155.48 1612.14 1158.03 1612.14 1159.93 1612.14 1161.48 1611.6 1162.7 1610.52 1163.91 1609.44 1164.76 1607.58 1165.26 1604.94L1175.1 1606.62C1174.08 1611.13 1172.12 1614.54 1169.22 1616.85 1166.32 1619.15 1162.43 1620.3 1157.56 1620.3 1152.03 1620.3 1147.61 1618.56 1144.32 1615.06 1141.03 1611.57 1139.38 1606.73 1139.38 1600.56 1139.38 1594.31 1141.04 1589.44 1144.34 1585.96 1147.64 1582.48 1152.11 1580.74 1157.74 1580.74ZM1114.09 1580.74C1119.81 1580.74 1124.51 1582.6 1128.17 1586.32 1131.83 1590.04 1133.66 1594.73 1133.66 1600.41 1133.66 1606.14 1131.81 1610.89 1128.11 1614.65 1124.42 1618.42 1119.77 1620.3 1114.16 1620.3 1110.69 1620.3 1107.38 1619.52 1104.23 1617.95 1101.08 1616.38 1098.69 1614.08 1097.05 1611.05 1095.41 1608.02 1094.59 1604.33 1094.59 1599.99 1094.59 1596.66 1095.41 1593.44 1097.05 1590.33 1098.69 1587.21 1101.01 1584.84 1104.02 1583.2 1107.02 1581.56 1110.38 1580.74 1114.09 1580.74ZM1044.76 1580.74C1050.49 1580.74 1055.18 1582.6 1058.84 1586.32 1062.5 1590.04 1064.33 1594.73 1064.33 1600.41 1064.33 1606.14 1062.49 1610.89 1058.79 1614.65 1055.1 1618.42 1050.44 1620.3 1044.84 1620.3 1041.37 1620.3 1038.06 1619.52 1034.91 1617.95 1031.76 1616.38 1029.37 1614.08 1027.73 1611.05 1026.09 1608.02 1025.27 1604.33 1025.27 1599.99 1025.27 1596.66 1026.09 1593.44 1027.73 1590.33 1029.37 1587.21 1031.69 1584.84 1034.7 1583.2 1037.7 1581.56 1041.06 1580.74 1044.76 1580.74ZM1016.44 1580.74C1018.72 1580.74 1020.92 1581.37 1023.03 1582.63L1019.93 1591.36C1018.25 1590.27 1016.68 1589.72 1015.23 1589.72 1013.83 1589.72 1012.64 1590.11 1011.66 1590.88 1010.69 1591.65 1009.92 1593.05 1009.36 1595.07 1008.81 1597.09 1008.53 1601.32 1008.53 1607.76L1008.53 1619.45 998.511 1619.45 998.511 1581.59 1007.81 1581.59 1007.81 1586.98C1009.41 1584.43 1010.84 1582.76 1012.11 1581.95 1013.38 1581.14 1014.82 1580.74 1016.44 1580.74ZM882 1580.74C884.21 1580.74 886.23 1581.14 888.06 1581.93 889.889 1582.73 891.273 1583.74 892.212 1584.98 893.151 1586.22 893.804 1587.62 894.173 1589.19 894.541 1590.75 894.725 1593 894.725 1595.92L894.725 1619.45 884.709 1619.45 884.709 1600.13C884.709 1596.04 884.495 1593.4 884.067 1592.2 883.64 1591 882.945 1590.07 881.982 1589.4 881.02 1588.73 879.861 1588.4 878.507 1588.4 876.772 1588.4 875.216 1588.88 873.837 1589.83 872.459 1590.78 871.515 1592.04 871.004 1593.61 870.493 1595.17 870.237 1598.07 870.237 1602.3L870.237 1619.45 860.221 1619.45 860.221 1581.59 869.524 1581.59 869.524 1587.15C872.827 1582.88 876.986 1580.74 882 1580.74ZM834.051 1580.74C839.683 1580.74 844.127 1582.6 847.383 1586.32 850.638 1590.04 852.195 1595.73 852.052 1603.41L826.958 1603.41C827.029 1606.38 827.837 1608.69 829.382 1610.34 830.927 1611.99 832.851 1612.82 835.156 1612.82 836.725 1612.82 838.044 1612.39 839.113 1611.54 840.182 1610.68 840.99 1609.3 841.537 1607.4L851.517 1609.08C850.234 1612.74 848.208 1615.52 845.44 1617.43 842.671 1619.35 839.208 1620.3 835.049 1620.3 828.467 1620.3 823.596 1618.15 820.435 1613.85 817.94 1610.41 816.693 1606.06 816.693 1600.81 816.693 1594.53 818.332 1589.62 821.611 1586.07 824.891 1582.51 829.037 1580.74 834.051 1580.74ZM788.651 1580.74C793.332 1580.74 797.194 1582.79 800.236 1586.9L800.236 1581.59 809.61 1581.59 809.61 1615.56C809.61 1620.03 809.242 1623.37 808.505 1625.58 807.768 1627.79 806.735 1629.52 805.404 1630.78 804.073 1632.04 802.297 1633.03 800.075 1633.74 797.853 1634.45 795.043 1634.81 791.645 1634.81 785.229 1634.81 780.679 1633.71 777.993 1631.51 775.308 1629.32 773.965 1626.53 773.966 1623.16 773.965 1622.82 773.977 1622.42 774.001 1621.94L785.443 1623.33C785.633 1624.66 786.073 1625.58 786.762 1626.08 787.712 1626.79 789.209 1627.15 791.253 1627.15 793.867 1627.15 795.827 1626.76 797.135 1625.97 798.014 1625.45 798.679 1624.6 799.131 1623.44 799.439 1622.61 799.594 1621.08 799.594 1618.84L799.594 1613.32C796.6 1617.4 792.821 1619.45 788.259 1619.45 783.174 1619.45 779.146 1617.3 776.175 1613 773.847 1609.6 772.682 1605.37 772.682 1600.31 772.682 1593.96 774.209 1589.11 777.263 1585.76 780.316 1582.41 784.112 1580.74 788.651 1580.74ZM633.927 1580.74C636.137 1580.74 638.157 1581.14 639.987 1581.93 641.816 1582.73 643.201 1583.74 644.139 1584.98 645.078 1586.22 645.731 1587.62 646.1 1589.19 646.468 1590.75 646.652 1593 646.652 1595.92L646.652 1619.45 636.636 1619.45 636.636 1600.13C636.636 1596.04 636.422 1593.4 635.995 1592.2 635.567 1591 634.872 1590.07 633.909 1589.4 632.947 1588.73 631.788 1588.4 630.434 1588.4 628.699 1588.4 627.143 1588.88 625.765 1589.83 624.386 1590.78 623.442 1592.04 622.931 1593.61 622.42 1595.17 622.164 1598.07 622.164 1602.3L622.164 1619.45 612.148 1619.45 612.148 1581.59 621.451 1581.59 621.451 1587.15C624.755 1582.88 628.913 1580.74 633.927 1580.74ZM585.979 1580.74C591.61 1580.74 596.054 1582.6 599.31 1586.32 602.565 1590.04 604.122 1595.73 603.979 1603.41L578.885 1603.41C578.957 1606.38 579.765 1608.69 581.309 1610.34 582.854 1611.99 584.779 1612.82 587.083 1612.82 588.652 1612.82 589.971 1612.39 591.04 1611.54 592.109 1610.68 592.917 1609.3 593.464 1607.4L603.444 1609.08C602.161 1612.74 600.135 1615.52 597.367 1617.43 594.599 1619.35 591.135 1620.3 586.977 1620.3 580.394 1620.3 575.523 1618.15 572.362 1613.85 569.867 1610.41 568.62 1606.06 568.62 1600.81 568.62 1594.53 570.259 1589.62 573.539 1586.07 576.818 1582.51 580.965 1580.74 585.979 1580.74ZM540.578 1580.74C545.26 1580.74 549.121 1582.79 552.163 1586.9L552.163 1581.59 561.537 1581.59 561.537 1615.56C561.537 1620.03 561.169 1623.37 560.432 1625.58 559.695 1627.79 558.662 1629.52 557.331 1630.78 556 1632.04 554.224 1633.03 552.002 1633.74 549.78 1634.45 546.97 1634.81 543.572 1634.81 537.156 1634.81 532.606 1633.71 529.92 1631.51 527.235 1629.32 525.893 1626.53 525.893 1623.16 525.893 1622.82 525.904 1622.42 525.928 1621.94L537.37 1623.33C537.56 1624.66 538 1625.58 538.689 1626.08 539.64 1626.79 541.137 1627.15 543.18 1627.15 545.794 1627.15 547.755 1626.76 549.062 1625.97 549.941 1625.45 550.606 1624.6 551.058 1623.44 551.367 1622.61 551.521 1621.08 551.521 1618.84L551.521 1613.32C548.527 1617.4 544.749 1619.45 540.186 1619.45 535.101 1619.45 531.073 1617.3 528.103 1613 525.774 1609.6 524.609 1605.37 524.609 1600.31 524.609 1593.96 526.136 1589.11 529.19 1585.76 532.243 1582.41 536.039 1580.74 540.578 1580.74ZM742.786 1579.38 735.729 1598.77 749.987 1598.77ZM494.714 1579.38 487.656 1598.77 501.914 1598.77ZM399.472 1579.38 392.414 1598.77 406.672 1598.77ZM306.086 1579.38 299.029 1598.77 313.287 1598.77ZM960.862 1576.03 960.862 1590.86 966.637 1590.86C970.795 1590.86 973.576 1590.59 974.978 1590.04 976.38 1589.49 977.479 1588.64 978.275 1587.48 979.071 1586.31 979.469 1584.96 979.469 1583.41 979.469 1581.51 978.911 1579.94 977.794 1578.71 976.677 1577.47 975.263 1576.7 973.552 1576.39 972.293 1576.15 969.762 1576.03 965.96 1576.03ZM1082.79 1568.23 1082.79 1581.59 1089.63 1581.59 1089.63 1589.58 1082.79 1589.58 1082.79 1604.83C1082.79 1607.92 1082.85 1609.72 1082.98 1610.23 1083.11 1610.74 1083.41 1611.17 1083.87 1611.5 1084.34 1611.83 1084.9 1612 1085.57 1612 1086.49 1612 1087.84 1611.68 1089.59 1611.04L1090.45 1618.81C1088.12 1619.8 1085.48 1620.3 1082.54 1620.3 1080.73 1620.3 1079.1 1620 1077.65 1619.39 1076.2 1618.79 1075.14 1618 1074.46 1617.04 1073.79 1616.08 1073.32 1614.78 1073.06 1613.14 1072.84 1611.97 1072.73 1609.62 1072.73 1606.08L1072.73 1589.58 1068.14 1589.58 1068.14 1581.59 1072.73 1581.59 1072.73 1574.07ZM915.495 1568.23 915.495 1581.59 922.339 1581.59 922.339 1589.58 915.495 1589.58 915.495 1604.83C915.495 1607.92 915.56 1609.72 915.691 1610.23 915.822 1610.74 916.119 1611.17 916.582 1611.5 917.046 1611.83 917.61 1612 918.275 1612 919.202 1612 920.545 1611.68 922.303 1611.04L923.159 1618.81C920.83 1619.8 918.192 1620.3 915.246 1620.3 913.44 1620.3 911.812 1620 910.362 1619.39 908.913 1618.79 907.849 1618 907.172 1617.04 906.495 1616.08 906.026 1614.78 905.764 1613.14 905.55 1611.97 905.443 1609.62 905.443 1606.08L905.443 1589.58 900.845 1589.58 900.845 1581.59 905.443 1581.59 905.443 1574.07ZM667.422 1568.23 667.422 1581.59 674.266 1581.59 674.266 1589.58 667.422 1589.58 667.422 1604.83C667.422 1607.92 667.488 1609.72 667.618 1610.23 667.749 1610.74 668.046 1611.17 668.509 1611.5 668.973 1611.83 669.537 1612 670.203 1612 671.129 1612 672.472 1611.68 674.23 1611.04L675.086 1618.81C672.757 1619.8 670.119 1620.3 667.173 1620.3 665.367 1620.3 663.739 1620 662.289 1619.39 660.84 1618.79 659.776 1618 659.099 1617.04 658.422 1616.08 657.953 1614.78 657.691 1613.14 657.477 1611.97 657.37 1609.62 657.37 1606.08L657.37 1589.58 652.772 1589.58 652.772 1581.59 657.37 1581.59 657.37 1574.07ZM1226.96 1567.19 1236.98 1567.19 1236.98 1619.45 1226.96 1619.45ZM950.312 1567.19 967.243 1567.19C973.659 1567.19 977.841 1567.45 979.79 1567.98 982.784 1568.76 985.291 1570.47 987.311 1573.09 989.331 1575.72 990.341 1579.11 990.341 1583.27 990.341 1586.48 989.758 1589.17 988.594 1591.36 987.43 1593.55 985.95 1595.26 984.156 1596.51 982.362 1597.76 980.538 1598.58 978.685 1598.99 976.166 1599.49 972.518 1599.74 967.742 1599.74L960.862 1599.74 960.862 1619.45 950.312 1619.45ZM737.333 1567.19 748.49 1567.19 769.413 1619.45 757.935 1619.45 753.373 1607.58 732.485 1607.58 728.172 1619.45 716.98 1619.45ZM489.26 1567.19 500.417 1567.19 521.34 1619.45 509.863 1619.45 505.3 1607.58 484.412 1607.58 480.099 1619.45 468.907 1619.45ZM394.018 1567.19 405.175 1567.19 426.098 1619.45 414.621 1619.45 410.058 1607.58 389.171 1607.58 384.858 1619.45 373.665 1619.45ZM300.633 1567.19 311.79 1567.19 332.713 1619.45 321.235 1619.45 316.673 1607.58 295.785 1607.58 291.472 1619.45 280.28 1619.45ZM696.656 1566.98C701.812 1566.98 705.864 1568.37 708.811 1571.15 711.757 1573.93 713.23 1577.39 713.23 1581.52 713.23 1583.87 712.809 1586.11 711.965 1588.24 711.121 1590.37 709.785 1592.6 707.955 1594.92 706.743 1596.47 704.557 1598.69 701.396 1601.59 698.236 1604.49 696.234 1606.41 695.39 1607.36 694.547 1608.32 693.864 1609.24 693.341 1610.15L713.23 1610.15 713.23 1619.45 678.121 1619.45C678.501 1615.93 679.641 1612.6 681.542 1609.45 683.444 1606.3 687.198 1602.12 692.806 1596.92 697.321 1592.71 700.089 1589.86 701.111 1588.37 702.49 1586.3 703.179 1584.26 703.179 1582.24 703.179 1580 702.579 1578.28 701.379 1577.08 700.179 1575.88 698.521 1575.28 696.406 1575.28 694.315 1575.28 692.652 1575.91 691.416 1577.17 690.18 1578.43 689.467 1580.52 689.277 1583.45L679.297 1582.45C679.891 1576.94 681.756 1572.98 684.893 1570.58 688.03 1568.18 691.951 1566.98 696.656 1566.98ZM353.341 1566.98C358.498 1566.98 362.549 1568.37 365.496 1571.15 368.443 1573.93 369.916 1577.39 369.916 1581.52 369.916 1583.87 369.494 1586.11 368.651 1588.24 367.807 1590.37 366.47 1592.6 364.641 1594.92 363.429 1596.47 361.242 1598.69 358.082 1601.59 354.921 1604.49 352.919 1606.41 352.076 1607.36 351.232 1608.32 350.549 1609.24 350.026 1610.15L369.916 1610.15 369.916 1619.45 334.806 1619.45C335.186 1615.93 336.327 1612.6 338.228 1609.45 340.129 1606.3 343.884 1602.12 349.492 1596.92 354.007 1592.71 356.775 1589.86 357.797 1588.37 359.175 1586.3 359.864 1584.26 359.864 1582.24 359.864 1580 359.264 1578.28 358.064 1577.08 356.864 1575.88 355.207 1575.28 353.092 1575.28 351.001 1575.28 349.337 1575.91 348.101 1577.17 346.866 1578.43 346.153 1580.52 345.963 1583.45L335.982 1582.45C336.576 1576.94 338.442 1572.98 341.579 1570.58 344.715 1568.18 348.636 1566.98 353.341 1566.98ZM1244.73 1566.3 1251.54 1566.3C1255.13 1571.41 1257.92 1576.83 1259.9 1582.56 1261.88 1588.28 1262.88 1594.09 1262.88 1599.99 1262.88 1604.95 1262.09 1610.28 1260.52 1615.95 1258.74 1622.32 1255.81 1628.61 1251.72 1634.81L1244.8 1634.81C1246.78 1630.58 1248.17 1627.34 1248.97 1625.08 1249.78 1622.82 1250.53 1620.22 1251.22 1617.27 1251.91 1614.33 1252.42 1611.53 1252.75 1608.88 1253.09 1606.23 1253.25 1603.52 1253.25 1600.73 1253.25 1595.08 1252.65 1589.73 1251.43 1584.68 1250.22 1579.63 1247.99 1573.5 1244.73 1566.3ZM459.385 1566.3 466.229 1566.3C462.973 1573.5 460.733 1579.63 459.51 1584.68 458.286 1589.73 457.674 1595.08 457.674 1600.73 457.674 1604.63 458.036 1608.62 458.761 1612.71 459.486 1616.8 460.478 1620.68 461.737 1624.37 462.569 1626.79 464.03 1630.27 466.122 1634.81L459.242 1634.81C455.606 1629.32 452.838 1623.62 450.937 1617.7 449.036 1611.78 448.085 1606.06 448.085 1600.52 448.085 1593.65 449.262 1587.15 451.614 1581.02 453.658 1575.7 456.248 1570.79 459.385 1566.3Z" fill="url(#fill2)" fill-rule="evenodd"/><text fill="#000000" fill-opacity="0" font-family="Arial,Arial_MSFontService,sans-serif" font-size="68.5088" direction="ltr" writing-mode="lr-tb" x="280.28" y="1626.25">A2A (Agent2Agent Protocol)</text><text fill="#1C0C6E" fill-opacity="1" font-family="Arial,Arial_MSFontService,sans-serif" font-style="normal" font-variant="normal" font-weight="400" font-stretch="normal" font-size="64" text-anchor="start" direction="ltr" writing-mode="lr-tb" unicode-bidi="normal" text-decoration="none" transform="matrix(1 0 0 1 280.28 1698)">Focuses on enabling </text><text fill="#1C0C6E" fill-opacity="1" font-family="Arial,Arial_MSFontService,sans-serif" font-style="normal" font-variant="normal" font-weight="700" font-stretch="normal" font-size="64" text-anchor="start" direction="ltr" writing-mode="lr-tb" unicode-bidi="normal" text-decoration="none" transform="matrix(1 0 0 1 888.144 1698)">autonomous </text><text fill="#1C0C6E" fill-opacity="1" font-family="Arial,Arial_MSFontService,sans-serif" font-style="normal" font-variant="normal" font-weight="700" font-stretch="normal" font-size="64" text-anchor="start" direction="ltr" writing-mode="lr-tb" unicode-bidi="normal" text-decoration="none" transform="matrix(1 0 0 1 280.28 1775)">collaboration</text><text fill="#1C0C6E" fill-opacity="1" font-family="Arial,Arial_MSFontService,sans-serif" font-style="normal" font-variant="normal" font-weight="400" font-stretch="normal" font-size="64" text-anchor="start" direction="ltr" writing-mode="lr-tb" unicode-bidi="normal" text-decoration="none" transform="matrix(1 0 0 1 699.082 1775)">within native </text><text fill="#1C0C6E" fill-opacity="1" font-family="Arial,Arial_MSFontService,sans-serif" font-style="normal" font-variant="normal" font-weight="400" font-stretch="normal" font-size="64" text-anchor="start" direction="ltr" writing-mode="lr-tb" unicode-bidi="normal" text-decoration="none" transform="matrix(1 0 0 1 280.28 1852)">modalities, allowing agents to reason, </text><text fill="#1C0C6E" fill-opacity="1" font-family="Arial,Arial_MSFontService,sans-serif" font-style="normal" font-variant="normal" font-weight="400" font-stretch="normal" font-size="64" text-anchor="start" direction="ltr" writing-mode="lr-tb" unicode-bidi="normal" text-decoration="none" transform="matrix(1 0 0 1 280.28 1929)">plan and delegate via complex, multi</text><text fill="#1C0C6E" fill-opacity="1" font-family="Arial,Arial_MSFontService,sans-serif" font-style="normal" font-variant="normal" font-weight="400" font-stretch="normal" font-size="64" text-anchor="start" direction="ltr" writing-mode="lr-tb" unicode-bidi="normal" text-decoration="none" transform="matrix(1 0 0 1 1332.73 1929)">-</text><text fill="#1C0C6E" fill-opacity="1" font-family="Arial,Arial_MSFontService,sans-serif" font-style="normal" font-variant="normal" font-weight="400" font-stretch="normal" font-size="64" text-anchor="start" direction="ltr" writing-mode="lr-tb" unicode-bidi="normal" text-decoration="none" transform="matrix(1 0 0 1 280.28 2006)">turn interactions like negotiation or </text><text fill="#1C0C6E" fill-opacity="1" font-family="Arial,Arial_MSFontService,sans-serif" font-style="normal" font-variant="normal" font-weight="400" font-stretch="normal" font-size="64" text-anchor="start" direction="ltr" writing-mode="lr-tb" unicode-bidi="normal" text-decoration="none" transform="matrix(1 0 0 1 280.28 2083)">clarification.</text><path d="M2855.5 783.5 2855.5 2259.08" stroke="#A7B3BB" stroke-width="4.58333" stroke-linecap="butt" stroke-linejoin="miter" stroke-miterlimit="8" stroke-opacity="1" fill="none" fill-rule="evenodd"/><rect x="1727" y="1010" width="718" height="220" fill="#1C0C6E" fill-opacity="0.14902"/><text fill="#1C0C6E" fill-opacity="1" font-family="Arial,Arial_MSFontService,sans-serif" font-style="normal" font-variant="normal" font-weight="700" font-stretch="normal" font-size="73" text-anchor="start" direction="ltr" writing-mode="lr-tb" unicode-bidi="normal" text-decoration="none" transform="matrix(1 0 0 1 1982.2 1147)">Agent</text><path d="M2007 999C2007 957.026 2041.03 923 2083 923 2124.97 923 2159 957.026 2159 999 2159 1040.97 2124.97 1075 2083 1075 2041.03 1075 2007 1040.97 2007 999Z" fill="#E4F0FC" fill-rule="evenodd" fill-opacity="1"/><g><g><g><path d="M48.3119 74.368C47.2282 74.368 46.1687 74.6834 45.2677 75.2739 44.3668 75.8648 43.6645 76.7044 43.2499 77.6868 42.8351 78.6693 42.7266 79.7499 42.938 80.7928 43.1494 81.8358 43.6713 82.7936 44.4375 83.5453 45.2037 84.2975 46.1799 84.8091 47.243 85.0166 48.3056 85.224 49.4073 85.1178 50.4081 84.711 51.4098 84.3038 52.2651 83.6148 52.8672 82.7309 53.4693 81.8465 53.7905 80.8071 53.7905 79.744 53.7905 78.3181 53.2135 76.9508 52.1858 75.9428 51.158 74.9343 49.7648 74.368 48.3119 74.368ZM92.1438 31.36 70.2281 31.36 70.2281 24.4787C71.8839 23.5405 73.261 22.1935 74.2224 20.5713 75.183 18.9492 75.695 17.1084 75.7067 15.232 75.7067 12.3804 74.5522 9.64558 72.4972 7.62918 70.4422 5.61282 67.6548 4.48 64.7486 4.48 61.8428 4.48 59.0549 5.61282 57 7.62918 54.945 9.64558 53.7905 12.3804 53.7905 15.232 53.8026 17.1084 54.3142 18.9492 55.2752 20.5713 56.2361 22.1935 57.6137 23.5405 59.2695 24.4787L59.2695 31.36 37.3538 31.36C32.9944 31.36 28.8137 33.0592 25.7311 36.0838 22.6487 39.1084 20.9169 43.2106 20.9169 47.488L20.9169 95.872C20.9169 100.15 22.6487 104.251 25.7311 107.276 28.8137 110.301 32.9944 112 37.3538 112L92.1438 112C96.5033 112 100.684 110.301 103.766 107.276 106.849 104.251 108.58 100.15 108.58 95.872L108.58 47.488C108.58 43.2106 106.849 39.1084 103.766 36.0838 100.684 33.0592 96.5033 31.36 92.1438 31.36ZM74.1723 42.112 71.4327 52.864 58.0644 52.864 55.3249 42.112 74.1723 42.112ZM97.6224 95.872C97.6224 97.2976 97.0449 98.6649 96.0177 99.6738 94.9904 100.682 93.5967 101.248 92.1438 101.248L37.3538 101.248C35.9007 101.248 34.507 100.682 33.4796 99.6738 32.452 98.6649 31.8748 97.2976 31.8748 95.872L31.8748 47.488C31.8748 46.062 32.452 44.6948 33.4796 43.6867 34.507 42.6784 35.9007 42.112 37.3538 42.112L44.0381 42.112 48.3119 59.5303C48.6116 60.7233 49.319 61.7792 50.3163 62.5225 51.3126 63.2657 52.5392 63.6519 53.7905 63.616L75.7067 63.616C76.9579 63.6519 78.1846 63.2657 79.1814 62.5225 80.1782 61.7792 80.8855 60.7233 81.1857 59.5303L85.4592 42.112 92.1438 42.112C93.5967 42.112 94.9904 42.6784 96.0177 43.6867 97.0449 44.6948 97.6224 46.062 97.6224 47.488L97.6224 95.872ZM81.1857 74.368C80.102 74.368 79.0429 74.6834 78.1415 75.2739 77.2406 75.8648 76.5386 76.7044 76.1237 77.6868 75.7089 78.6693 75.6005 79.7499 75.8119 80.7928 76.0234 81.8358 76.5453 82.7936 77.3114 83.5453 78.0775 84.2975 79.0537 84.8091 80.1168 85.0166 81.1794 85.224 82.2811 85.1178 83.2823 84.711 84.2836 84.3038 85.1389 83.6148 85.741 82.7309 86.3431 81.8465 86.6648 80.8071 86.6648 79.744 86.6648 78.3181 86.0873 76.9508 85.0596 75.9428 84.0323 74.9343 82.6386 74.368 81.1857 74.368Z" fill="#1C0C6E" fill-rule="nonzero" fill-opacity="1" transform="matrix(1.04432 0 0 1 2017 937)"/></g></g></g><rect x="2765" y="1083" width="173" height="73.9999" fill="#7858FF" fill-opacity="1"/><text fill="#FFFFFF" fill-opacity="1" font-family="Arial,Arial_MSFontService,sans-serif" font-style="normal" font-variant="normal" font-weight="400" font-stretch="normal" font-size="46" text-anchor="start" direction="ltr" writing-mode="lr-tb" unicode-bidi="normal" text-decoration="none" transform="matrix(1 0 0 1 2808.25 1137)">A2A</text><rect x="3258" y="1010" width="718" height="220" fill="#1C0C6E" fill-opacity="0.14902"/><text fill="#1C0C6E" fill-opacity="1" font-family="Arial,Arial_MSFontService,sans-serif" font-style="normal" font-variant="normal" font-weight="700" font-stretch="normal" font-size="73" text-anchor="start" direction="ltr" writing-mode="lr-tb" unicode-bidi="normal" text-decoration="none" transform="matrix(1 0 0 1 3512.84 1147)">Agent</text><path d="M0-1.14583 161.069-1.14583 161.069 0.00288714 159.923-1.14295 296.929-1.14295 296.929 1.14872 158.777 1.14872 158.777 0 159.923 1.14583 0 1.14583ZM292.346-13.7471 319.846 0.00288714 292.346 13.7529Z" fill="#002A86" fill-rule="nonzero" fill-opacity="1" transform="matrix(1 0 0 -1 2938 1120)"/><path d="M0-1.14583 161.069-1.14583 161.069 0.000360892 159.923-1.14547 296.929-1.14547 296.929 1.14619 158.777 1.14619 158.777 0 159.923 1.14583 0 1.14583ZM292.346-13.7496 319.846 0.000360892 292.346 13.7504Z" fill="#002A86" fill-rule="nonzero" fill-opacity="1" transform="matrix(-1 1.22465e-16 1.22465e-16 1 2764.85 1120)"/><rect x="1991" y="1382" width="192" height="82.0001" fill="#7858FF" fill-opacity="1"/><text fill="#FFFFFF" fill-opacity="1" font-family="Arial,Arial_MSFontService,sans-serif" font-style="normal" font-variant="normal" font-weight="400" font-stretch="normal" font-size="46" text-anchor="start" direction="ltr" writing-mode="lr-tb" unicode-bidi="normal" text-decoration="none" transform="matrix(1 0 0 1 2035.64 1441)">MCP</text><path d="M3542 999C3542 957.026 3576.03 923 3618 923 3659.97 923 3694 957.026 3694 999 3694 1040.97 3659.97 1075 3618 1075 3576.03 1075 3542 1040.97 3542 999Z" fill="#E4F0FC" fill-rule="evenodd" fill-opacity="1"/><g><g><g><path d="M48.3119 74.368C47.2282 74.368 46.1687 74.6834 45.2677 75.2739 44.3668 75.8648 43.6645 76.7044 43.2499 77.6868 42.8351 78.6693 42.7266 79.7499 42.938 80.7928 43.1494 81.8358 43.6713 82.7936 44.4375 83.5453 45.2037 84.2975 46.1799 84.8091 47.243 85.0166 48.3056 85.224 49.4073 85.1178 50.4081 84.711 51.4098 84.3038 52.2651 83.6148 52.8672 82.7309 53.4693 81.8465 53.7905 80.8071 53.7905 79.744 53.7905 78.3181 53.2135 76.9508 52.1858 75.9428 51.158 74.9343 49.7648 74.368 48.3119 74.368ZM92.1438 31.36 70.2281 31.36 70.2281 24.4787C71.8839 23.5405 73.261 22.1935 74.2224 20.5713 75.183 18.9492 75.695 17.1084 75.7067 15.232 75.7067 12.3804 74.5522 9.64558 72.4972 7.62918 70.4422 5.61282 67.6548 4.48 64.7486 4.48 61.8428 4.48 59.0549 5.61282 57 7.62918 54.945 9.64558 53.7905 12.3804 53.7905 15.232 53.8026 17.1084 54.3142 18.9492 55.2752 20.5713 56.2361 22.1935 57.6137 23.5405 59.2695 24.4787L59.2695 31.36 37.3538 31.36C32.9944 31.36 28.8137 33.0592 25.7311 36.0838 22.6487 39.1084 20.9169 43.2106 20.9169 47.488L20.9169 95.872C20.9169 100.15 22.6487 104.251 25.7311 107.276 28.8137 110.301 32.9944 112 37.3538 112L92.1438 112C96.5033 112 100.684 110.301 103.766 107.276 106.849 104.251 108.58 100.15 108.58 95.872L108.58 47.488C108.58 43.2106 106.849 39.1084 103.766 36.0838 100.684 33.0592 96.5033 31.36 92.1438 31.36ZM74.1723 42.112 71.4327 52.864 58.0644 52.864 55.3249 42.112 74.1723 42.112ZM97.6224 95.872C97.6224 97.2976 97.0449 98.6649 96.0177 99.6738 94.9904 100.682 93.5967 101.248 92.1438 101.248L37.3538 101.248C35.9007 101.248 34.507 100.682 33.4796 99.6738 32.452 98.6649 31.8748 97.2976 31.8748 95.872L31.8748 47.488C31.8748 46.062 32.452 44.6948 33.4796 43.6867 34.507 42.6784 35.9007 42.112 37.3538 42.112L44.0381 42.112 48.3119 59.5303C48.6116 60.7233 49.319 61.7792 50.3163 62.5225 51.3126 63.2657 52.5392 63.6519 53.7905 63.616L75.7067 63.616C76.9579 63.6519 78.1846 63.2657 79.1814 62.5225 80.1782 61.7792 80.8855 60.7233 81.1857 59.5303L85.4592 42.112 92.1438 42.112C93.5967 42.112 94.9904 42.6784 96.0177 43.6867 97.0449 44.6948 97.6224 46.062 97.6224 47.488L97.6224 95.872ZM81.1857 74.368C80.102 74.368 79.0429 74.6834 78.1415 75.2739 77.2406 75.8648 76.5386 76.7044 76.1237 77.6868 75.7089 78.6693 75.6005 79.7499 75.8119 80.7928 76.0234 81.8358 76.5453 82.7936 77.3114 83.5453 78.0775 84.2975 79.0537 84.8091 80.1168 85.0166 81.1794 85.224 82.2811 85.1178 83.2823 84.711 84.2836 84.3038 85.1389 83.6148 85.741 82.7309 86.3431 81.8465 86.6648 80.8071 86.6648 79.744 86.6648 78.3181 86.0873 76.9508 85.0596 75.9428 84.0323 74.9343 82.6386 74.368 81.1857 74.368Z" fill="#1C0C6E" fill-rule="nonzero" fill-opacity="1" transform="matrix(1.04432 0 0 1 3552 937)"/></g></g></g><rect x="3520" y="1368" width="193" height="81.9998" fill="#7858FF" fill-opacity="1"/><text fill="#FFFFFF" fill-opacity="1" font-family="Arial,Arial_MSFontService,sans-serif" font-style="normal" font-variant="normal" font-weight="400" font-stretch="normal" font-size="46" text-anchor="start" direction="ltr" writing-mode="lr-tb" unicode-bidi="normal" text-decoration="none" transform="matrix(1 0 0 1 3565.55 1427)">MCP</text><path d="M0-1.14583 77.3999-1.14583 77.3999 0.73586 76.254-0.409974 129.591-0.409974 129.591 1.88169 75.1082 1.88169 75.1082 0 76.254 1.14583 0 1.14583ZM125.008-13.0141 152.508 0.73586 125.008 14.4859Z" fill="#002A86" fill-rule="nonzero" fill-opacity="1" transform="matrix(-1.83697e-16 -1 -1 1.83697e-16 2086.74 1382.51)"/><path d="M3615.85 1368.63 3615.85 1298.17 3617 1298.17 3615.85 1299.31 3615.85 1252.92 3618.15 1252.92 3618.15 1300.46 3617 1300.46 3618.15 1299.31 3618.15 1368.63ZM3603.25 1257.5 3617 1230 3630.75 1257.5Z" fill="#002A86" fill-rule="nonzero" fill-opacity="1"/><rect x="1791" y="1603" width="589" height="177" fill="#1C0C6E" fill-opacity="0.14902"/><rect x="1769" y="1627" width="589" height="177" fill="#C1BCD7" fill-opacity="1"/><text fill="#1C0C6E" fill-opacity="1" font-family="Arial,Arial_MSFontService,sans-serif" font-style="normal" font-variant="normal" font-weight="700" font-stretch="normal" font-size="48" text-anchor="start" direction="ltr" writing-mode="lr-tb" unicode-bidi="normal" text-decoration="none" transform="matrix(1 0 0 1 1860.3 1705)">APIs &amp; Enterprise </text><text fill="#1C0C6E" fill-opacity="1" font-family="Arial,Arial_MSFontService,sans-serif" font-style="normal" font-variant="normal" font-weight="700" font-stretch="normal" font-size="48" text-anchor="start" direction="ltr" writing-mode="lr-tb" unicode-bidi="normal" text-decoration="none" transform="matrix(1 0 0 1 1919.59 1763)">Applications</text><rect x="3322" y="1603" width="589" height="177" fill="#1C0C6E" fill-opacity="0.14902"/><rect x="3300" y="1627" width="588" height="177" fill="#C1BCD7" fill-opacity="1"/><text fill="#1C0C6E" fill-opacity="1" font-family="Arial,Arial_MSFontService,sans-serif" font-style="normal" font-variant="normal" font-weight="700" font-stretch="normal" font-size="48" text-anchor="start" direction="ltr" writing-mode="lr-tb" unicode-bidi="normal" text-decoration="none" transform="matrix(1 0 0 1 3390.63 1705)">APIs &amp; Enterprise </text><text fill="#1C0C6E" fill-opacity="1" font-family="Arial,Arial_MSFontService,sans-serif" font-style="normal" font-variant="normal" font-weight="700" font-stretch="normal" font-size="48" text-anchor="start" direction="ltr" writing-mode="lr-tb" unicode-bidi="normal" text-decoration="none" transform="matrix(1 0 0 1 3449.91 1763)">Applications</text><path d="M2087.88 1464 2087.88 1534.8 2086 1534.8 2087.15 1533.65 2087.15 1580.39 2084.85 1580.39 2084.85 1532.51 2086.74 1532.51 2085.59 1533.65 2085.59 1464ZM2099.75 1575.81 2086 1603.31 2072.25 1575.81Z" fill="#002A86" fill-rule="nonzero" fill-opacity="1"/><path d="M3617.47 1450 3617.47 1527.74 3616 1527.74 3617.15 1526.6 3617.15 1580.28 3614.85 1580.28 3614.85 1525.45 3616.32 1525.45 3615.18 1526.6 3615.18 1450ZM3629.75 1575.69 3616 1603.19 3602.25 1575.69Z" fill="#002A86" fill-rule="nonzero" fill-opacity="1"/><text fill="#A7B4BB" fill-opacity="1" font-family="Arial,Arial_MSFontService,sans-serif" font-style="normal" font-variant="normal" font-weight="400" font-stretch="normal" font-size="55" text-anchor="start" direction="ltr" writing-mode="lr-tb" unicode-bidi="normal" text-decoration="none" transform="matrix(6.12323e-17 1 -1 6.12323e-17 2885.92 1218)">Organizational or technological boundaries</text><text fill="#A7B4BB" fill-opacity="1" font-family="Arial,Arial_MSFontService,sans-serif" font-style="normal" font-variant="normal" font-weight="400" font-stretch="normal" font-size="46" text-anchor="start" direction="ltr" writing-mode="lr-tb" unicode-bidi="normal" text-decoration="underline" transform="matrix(1 0 0 1 212.209 2318)">Source: https://a2a</text><text fill="#A7B4BB" fill-opacity="1" font-family="Arial,Arial_MSFontService,sans-serif" font-style="normal" font-variant="normal" font-weight="400" font-stretch="normal" font-size="46" text-anchor="start" direction="ltr" writing-mode="lr-tb" unicode-bidi="normal" text-decoration="underline" transform="matrix(1 0 0 1 593.772 2318)">-</text><text fill="#A7B4BB" fill-opacity="1" font-family="Arial,Arial_MSFontService,sans-serif" font-style="normal" font-variant="normal" font-weight="400" font-stretch="normal" font-size="46" text-anchor="start" direction="ltr" writing-mode="lr-tb" unicode-bidi="normal" text-decoration="underline" transform="matrix(1 0 0 1 609.24 2318)">protocol.org/</text></g></g></svg>