<svg xmlns="http://www.w3.org/2000/svg" width="250" height="60"><path fill="#1a2733" d="M50.46 29.178v-3.915h-6.52v3.914h-4.287V5.61H21.34v11.775h-4.288V13.47h-6.52v3.915H5.62v37.94l49.757-.007v-26.14h-4.912Zm-11.435 23.63H6.243V41.61h32.785v11.197Zm15.723-11.823H21.965V29.802H54.75v11.183ZM44.563 25.888h5.27v3.29h-5.27zM21.965 6.235h17.063v11.15H21.965zm-10.81 7.86h5.27v3.29h-5.27zM6.243 18.01h32.785v11.167H6.243zm0 11.792H21.34v11.183H6.243zm48.507 23.02H39.653V41.61H54.75z"/><text xml:space="preserve" x="65.122" y="37" fill="#1a2733" font-family="BentonSans" font-size="19.748" font-weight="700" letter-spacing="-.212">Work in Progress...</text></svg>