<svg xmlns="http://www.w3.org/2000/svg" width="500" height="120"><path fill="#1a2733" d="M100.92 58.355v-7.83H87.88v7.83h-8.575V11.22H42.68v23.55h-8.575v-7.83h-13.04v7.83H11.24v75.88l99.515-.015v-52.28h-9.825Zm-22.87 47.26H12.485V83.22h65.57v22.395Zm31.445-23.645H43.93V59.605h65.57V81.97Zm-20.37-30.195h10.54v6.58h-10.54zM43.93 12.47h34.125v22.3H43.93zM22.31 28.19h10.54v6.58H22.31zm-9.825 7.83h65.57v22.335h-65.57zm0 23.585H42.68V81.97H12.485zm97.015 46.04H79.305V83.22H109.5z"/><text xml:space="preserve" x="130.244" y="74" fill="#1a2733" font-family="BentonSans" font-size="39.495" font-weight="700" letter-spacing="-.425">Work in Progress...</text></svg>