<svg xmlns="http://www.w3.org/2000/svg" width="1000" height="240"><path fill="#1a2733" d="M201.84 116.71v-15.66h-26.08v15.66h-17.15V22.44H85.36v47.1H68.21V53.88H42.13v15.66H22.48V221.3l199.03-.03V116.71h-19.65Zm-45.74 94.52H24.97v-44.79h131.14v44.79Zm62.89-47.29H87.86v-44.73H219v44.73Zm-40.74-60.39h21.08v13.16h-21.08zM87.86 24.94h68.25v44.6H87.86zM44.62 56.38H65.7v13.16H44.62zM24.97 72.04h131.14v44.67H24.97zm0 47.17h60.39v44.73H24.97zM219 211.29h-60.39v-44.85H219z"/><text xml:space="preserve" x="259.489" y="148" fill="#1a2733" font-family="BentonSans" font-size="78.991" font-weight="700" letter-spacing="-.85">Work in Progress...</text></svg>